<svg width="24" height="24" viewBox="0 0 24 24" fill="none" xmlns="http://www.w3.org/2000/svg">
<path d="M10.43 18.37C10.28 18.37 10.14 18.33 10.01 18.24C9.8 18.1 9.68 17.87 9.68 17.62C9.68 17.47 9.67 17.31 9.65 17.15C9.56 16.44 9.24 15.82 8.7 15.28C8.16 14.74 7.49 14.4 6.77 14.31C6.65 14.3 6.48 14.29 6.32 14.3C6.06 14.32 5.82 14.21 5.67 14C5.52 13.8 5.48 13.53 5.56 13.29C5.71 12.88 5.93 12.51 6.19 12.21L7.73 10.27C10.38 6.96004 15.75 2.98004 19.68 1.40004C20.52 1.08004 21.4 1.27004 22.01 1.87004C22.64 2.50004 22.83 3.40004 22.5 4.22004C20.92 8.16004 16.95 13.52 13.64 16.17L11.67 17.75C11.3 18.02 11 18.19 10.7 18.31C10.62 18.35 10.52 18.37 10.43 18.37ZM7.54 12.94C8.38 13.16 9.13 13.6 9.76 14.23C10.39 14.85 10.81 15.57 11.02 16.37L12.71 15.01C15.85 12.5 19.62 7.41004 21.11 3.67004C21.26 3.30004 21.05 3.04004 20.95 2.95004C20.88 2.88004 20.62 2.66004 20.22 2.81004C16.5 4.31004 11.41 8.08004 8.89 11.22L7.54 12.94Z" fill="white"/>
<path d="M4.08 22.7501C3.33 22.7501 2.61 22.4501 2.07 21.9101C1.45 21.2901 1.15 20.4301 1.25 19.5501L1.52 17.0901C1.78 14.6501 3.78 12.8401 6.26 12.7901C6.45 12.7801 6.7 12.7901 6.93 12.8101C8.02 12.9501 8.99 13.4401 9.77 14.2201C10.54 14.9901 11 15.9101 11.14 16.9401C11.17 17.1601 11.19 17.4001 11.19 17.6101C11.19 18.9301 10.68 20.1601 9.76 21.0901C8.99 21.8501 8 22.3201 6.88 22.4601L4.41 22.7301C4.3 22.7401 4.19 22.7501 4.08 22.7501ZM6.45 14.3001C6.41 14.3001 6.36 14.3001 6.32 14.3001C4.81 14.3301 3.21 15.3601 3.01 17.2601L2.74 19.7201C2.69 20.1401 2.84 20.5501 3.13 20.8501C3.42 21.1401 3.83 21.2901 4.24 21.2401L6.7 20.9701C7.47 20.8701 8.16 20.5501 8.68 20.0301C9.32 19.3901 9.68 18.5301 9.68 17.6101C9.68 17.4601 9.67 17.3001 9.65 17.1401C9.56 16.4301 9.24 15.8101 8.7 15.2701C8.16 14.7301 7.49 14.3901 6.77 14.3001C6.69 14.3001 6.57 14.3001 6.45 14.3001Z" fill="white"/>
<path d="M14.24 15.22C13.83 15.22 13.49 14.88 13.49 14.47C13.49 12.27 11.7 10.49 9.50999 10.49C9.09999 10.49 8.75999 10.15 8.75999 9.73999C8.75999 9.32999 9.08999 8.98999 9.49999 8.98999C12.52 8.98999 14.98 11.45 14.98 14.47C14.99 14.89 14.65 15.22 14.24 15.22Z" fill="white"/>
<path d="M15.68 22.73C14.75 22.73 13.82 22.29 12.93 21.4C12.64 21.11 12.64 20.63 12.93 20.34C13.22 20.05 13.7 20.05 13.99 20.34C15.17 21.52 16.18 21.52 17.36 20.34L20.32 17.38C21.51 16.19 21.51 15.18 20.32 14L19.58 13.27C19.29 12.98 19.28 12.5 19.57 12.21C19.86 11.91 20.34 11.91 20.63 12.2L21.37 12.93C23.15 14.71 23.15 16.66 21.37 18.44L18.41 21.4C17.54 22.28 16.61 22.73 15.68 22.73Z" fill="white"/>
<path d="M3.10999 11.26C2.91999 11.26 2.71999 11.19 2.57999 11.04C0.819994 9.27001 0.819994 7.31001 2.57999 5.54001L5.53999 2.58001C7.29999 0.82001 9.27999 0.82001 11.04 2.58001L11.78 3.32001C12.07 3.61001 12.07 4.09001 11.78 4.38001C11.49 4.67001 11.01 4.67001 10.72 4.38001L9.96999 3.64001C8.78999 2.46001 7.76999 2.46001 6.59999 3.64001L3.63999 6.60001C2.45999 7.79001 2.45999 8.80001 3.63999 9.99001C3.92999 10.28 3.92999 10.76 3.63999 11.05C3.48999 11.19 3.29999 11.26 3.10999 11.26Z" fill="white"/>
<path d="M7.55001 8.30004C7.36001 8.30004 7.17001 8.23004 7.02001 8.08004C6.73001 7.79004 6.73001 7.31004 7.02001 7.02004L10.72 3.32004C11.01 3.03004 11.49 3.03004 11.78 3.32004C12.07 3.61004 12.07 4.09004 11.78 4.38004L8.08001 8.08004C7.93001 8.23004 7.74001 8.30004 7.55001 8.30004Z" fill="white"/>
<path d="M17.16 16.43C16.97 16.43 16.78 16.36 16.63 16.21C16.34 15.92 16.34 15.44 16.63 15.15L19.59 12.19C19.88 11.9 20.36 11.9 20.65 12.19C20.94 12.48 20.94 12.96 20.65 13.25L17.69 16.21C17.55 16.36 17.36 16.43 17.16 16.43Z" fill="white"/>
</svg>
