<svg width="153" height="46" viewBox="0 0 153 46" fill="none" xmlns="http://www.w3.org/2000/svg">
<path d="M0.892578 14.259L0.892578 31.8231C0.892578 39.3063 6.95888 45.3726 14.442 45.3726L138.896 45.3726C146.379 45.3726 152.446 39.3063 152.446 31.8231V14.259C152.446 6.77583 146.379 0.709526 138.896 0.709526L14.442 0.709526C6.95888 0.709526 0.892578 6.77583 0.892578 14.259Z" fill="#3D4F94"/>
<path d="M1.14258 14.2594L1.14258 31.8235C1.14258 39.1681 7.09654 45.1221 14.4411 45.1221L138.895 45.1221C146.24 45.1221 152.194 39.1681 152.194 31.8235V14.2594C152.194 6.91483 146.24 0.960869 138.895 0.960869L14.4411 0.960869C7.09654 0.960869 1.14258 6.91483 1.14258 14.2594Z" fill="#3D4F94" stroke="url(#paint0_linear_9337_59559)" stroke-opacity="0.4"/>
<path d="M35.6693 16.835H22.3359C22.0626 16.835 21.8359 16.6083 21.8359 16.335C21.8359 16.0616 22.0626 15.835 22.3359 15.835H35.6693C35.9426 15.835 36.1693 16.0616 36.1693 16.335C36.1693 16.6083 35.9426 16.835 35.6693 16.835Z" fill="#FAFAFA"/>
<path d="M32.1155 29.895C32.0288 30.0683 31.8488 30.1683 31.6688 30.1683C31.5955 30.1683 31.5155 30.1483 31.4488 30.115L29.0021 28.895L26.5555 30.115C26.4888 30.1483 26.4088 30.1683 26.3355 30.1683C26.1555 30.1683 25.9755 30.0683 25.8888 29.895C25.7621 29.6416 25.8621 29.3416 26.1155 29.2216L28.5021 28.0283V26.335H29.5021V28.0283L31.8888 29.2216C32.1421 29.3416 32.2421 29.6416 32.1155 29.895Z" fill="#FAFAFA"/>
<path d="M23.002 16.335V24.4016C23.002 25.6683 23.6686 26.335 24.9353 26.335H33.0686C34.3353 26.335 35.002 25.6683 35.002 24.4016V16.335H23.002ZM32.322 20.7216L30.222 22.475C30.0286 22.635 29.782 22.7016 29.5486 22.6616C29.3086 22.6216 29.102 22.475 28.9753 22.2616L28.2753 21.095L26.322 22.7216C26.2286 22.8016 26.1153 22.835 26.002 22.835C25.862 22.835 25.7153 22.775 25.6153 22.655C25.4353 22.4416 25.4686 22.1283 25.682 21.9483L27.782 20.195C27.9753 20.035 28.222 19.9683 28.4553 20.0083C28.6953 20.0483 28.902 20.195 29.0286 20.4083L29.7286 21.575L31.682 19.9483C31.8953 19.7683 32.2086 19.8016 32.3886 20.015C32.562 20.2283 32.5353 20.5416 32.322 20.7216Z" fill="#FAFAFA"/>
<path d="M63.7959 16.335H58.2093C55.7826 16.335 54.3359 17.7816 54.3359 20.2083V25.7883C54.3359 28.2216 55.7826 29.6683 58.2093 29.6683H63.7893C66.2159 29.6683 67.6626 28.2216 67.6626 25.795V20.2083C67.6693 17.7816 66.2226 16.335 63.7959 16.335ZM58.0893 27.1016C58.0893 27.375 57.8626 27.6016 57.5893 27.6016C57.3159 27.6016 57.0893 27.375 57.0893 27.1016V25.7216C57.0893 25.4483 57.3159 25.2216 57.5893 25.2216C57.8626 25.2216 58.0893 25.4483 58.0893 25.7216V27.1016ZM61.5026 27.1016C61.5026 27.375 61.2759 27.6016 61.0026 27.6016C60.7293 27.6016 60.5026 27.375 60.5026 27.1016V24.335C60.5026 24.0616 60.7293 23.835 61.0026 23.835C61.2759 23.835 61.5026 24.0616 61.5026 24.335V27.1016ZM64.9159 27.1016C64.9159 27.375 64.6893 27.6016 64.4159 27.6016C64.1426 27.6016 63.9159 27.375 63.9159 27.1016V22.955C63.9159 22.6816 64.1426 22.455 64.4159 22.455C64.6893 22.455 64.9159 22.6816 64.9159 22.955V27.1016ZM64.9159 20.8483C64.9159 21.1216 64.6893 21.3483 64.4159 21.3483C64.1426 21.3483 63.9159 21.1216 63.9159 20.8483V20.2016C62.2159 21.9483 60.0893 23.1816 57.7093 23.775C57.6693 23.7883 57.6293 23.7883 57.5893 23.7883C57.3626 23.7883 57.1626 23.635 57.1026 23.4083C57.0359 23.1416 57.1959 22.8683 57.4693 22.8016C59.7159 22.2416 61.7159 21.0616 63.3026 19.395H62.4693C62.1959 19.395 61.9693 19.1683 61.9693 18.895C61.9693 18.6216 62.1959 18.395 62.4693 18.395H64.4226C64.4493 18.395 64.4693 18.4083 64.4959 18.4083C64.5293 18.415 64.5626 18.415 64.5959 18.4283C64.6293 18.4416 64.6559 18.4616 64.6893 18.4816C64.7093 18.495 64.7293 18.5016 64.7493 18.515C64.7559 18.5216 64.7559 18.5283 64.7626 18.5283C64.7893 18.555 64.8093 18.5816 64.8293 18.6083C64.8493 18.635 64.8693 18.655 64.8759 18.6816C64.8893 18.7083 64.8893 18.735 64.8959 18.7683C64.9026 18.8016 64.9159 18.835 64.9159 18.875C64.9159 18.8816 64.9226 18.8883 64.9226 18.895V20.8483H64.9159Z" fill="#FAFAFA"/>
<path d="M97.0026 17.0015H89.0026C87.5293 17.0015 86.3359 18.1881 86.3359 19.6481V26.3548C86.3359 27.8148 87.5293 29.0015 89.0026 29.0015H97.0026C98.4759 29.0015 99.6693 27.8148 99.6693 26.3548V19.6481C99.6693 18.1881 98.4759 17.0015 97.0026 17.0015ZM90.6693 19.7815C91.5159 19.7815 92.2093 20.4748 92.2093 21.3215C92.2093 22.1681 91.5159 22.8615 90.6693 22.8615C89.8226 22.8615 89.1293 22.1681 89.1293 21.3215C89.1293 20.4748 89.8226 19.7815 90.6693 19.7815ZM93.2493 26.1081C93.1893 26.1748 93.0959 26.2148 93.0026 26.2148H88.3359C88.2426 26.2148 88.1493 26.1748 88.0893 26.1081C88.0293 26.0415 87.9959 25.9481 88.0026 25.8548C88.1159 24.7348 89.0093 23.8481 90.1293 23.7415C90.4826 23.7081 90.8493 23.7081 91.2026 23.7415C92.3226 23.8481 93.2226 24.7348 93.3293 25.8548C93.3426 25.9481 93.3093 26.0415 93.2493 26.1081ZM97.6693 26.1681H96.3359C96.0626 26.1681 95.8359 25.9415 95.8359 25.6681C95.8359 25.3948 96.0626 25.1681 96.3359 25.1681H97.6693C97.9426 25.1681 98.1693 25.3948 98.1693 25.6681C98.1693 25.9415 97.9426 26.1681 97.6693 26.1681ZM97.6693 23.5015H95.0026C94.7293 23.5015 94.5026 23.2748 94.5026 23.0015C94.5026 22.7281 94.7293 22.5015 95.0026 22.5015H97.6693C97.9426 22.5015 98.1693 22.7281 98.1693 23.0015C98.1693 23.2748 97.9426 23.5015 97.6693 23.5015ZM97.6693 20.8348H94.3359C94.0626 20.8348 93.8359 20.6081 93.8359 20.3348C93.8359 20.0615 94.0626 19.8348 94.3359 19.8348H97.6693C97.9426 19.8348 98.1693 20.0615 98.1693 20.3348C98.1693 20.6081 97.9426 20.8348 97.6693 20.8348Z" fill="#FAFAFA"/>
<path d="M131.669 20.2083V23.335H128.949C128.869 23.3283 128.696 23.2283 128.656 23.155L127.963 21.8416C127.689 21.3216 127.216 21.0283 126.709 21.055C126.203 21.0816 125.769 21.4216 125.549 21.975L124.629 24.2816L124.496 23.935C124.169 23.0883 123.236 22.4483 122.316 22.4483L118.336 22.4683V20.2083C118.336 17.7816 119.783 16.335 122.209 16.335H127.796C130.223 16.335 131.669 17.7816 131.669 20.2083Z" fill="#FAFAFA"/>
<path d="M131.669 25.7946V24.3346H128.949C128.503 24.3346 127.976 24.0146 127.769 23.6212L127.076 22.3079C126.889 21.9546 126.623 21.9746 126.476 22.3412L124.943 26.2146C124.776 26.6479 124.496 26.6479 124.323 26.2146L123.563 24.2946C123.383 23.8279 122.823 23.4479 122.323 23.4479L118.336 23.4679V25.7946C118.336 28.1812 119.736 29.6212 122.089 29.6612C122.163 29.6679 122.243 29.6679 122.316 29.6679H127.649C127.749 29.6679 127.849 29.6679 127.943 29.6612C130.283 29.6079 131.669 28.1746 131.669 25.7946Z" fill="#FAFAFA"/>
<path d="M118.334 23.4683V25.6749C118.321 25.4616 118.314 25.2349 118.314 25.0016V23.4683H118.334Z" fill="#FAFAFA"/>
<defs>
<linearGradient id="paint0_linear_9337_59559" x1="0.891662" y1="23.0415" x2="152.445" y2="23.0415" gradientUnits="userSpaceOnUse">
<stop stop-color="white"/>
<stop offset="1" stop-color="white" stop-opacity="0"/>
</linearGradient>
</defs>
</svg>
