<svg width="56" height="56" viewBox="0 0 56 56" fill="none" xmlns="http://www.w3.org/2000/svg">
<rect width="56" height="56" rx="10" fill="#C209C1"/>
<path d="M40.0541 29.7068L38.8275 28.5068L28.4941 38.8268L29.7341 40.0668C30.7741 41.1068 31.8541 41.6268 32.9208 41.6268C33.9875 41.6268 35.0675 41.1068 36.1075 40.0668L40.0541 36.1202C42.1741 33.9868 42.1741 31.8402 40.0541 29.7068Z" fill="white"/>
<path d="M26.2524 15.9064C24.159 13.8131 21.959 13.8131 19.8657 15.9064L15.9057 19.8531C13.8257 21.9464 13.8257 24.1464 15.9057 26.2398L17.1324 27.4664L27.4657 17.1331L26.2524 15.9064Z" fill="white"/>
<path d="M41.0804 17.2531C39.3338 21.6131 35.3471 27.3065 31.5471 31.0265C31.0004 27.5865 28.2538 24.8931 24.7871 24.4131C28.5204 20.5998 34.2538 16.5598 38.6271 14.7998C39.4004 14.5065 40.1738 14.7331 40.6538 15.2131C41.1604 15.7198 41.4004 16.4798 41.0804 17.2531Z" fill="white"/>
<path d="M30.3735 32.1199C30.1068 32.3466 29.8402 32.5733 29.5735 32.7866L27.1868 34.6933C27.1868 34.6533 27.1735 34.5999 27.1735 34.5466C26.9868 33.1199 26.3202 31.7999 25.2402 30.7199C24.1468 29.6266 22.7868 28.9599 21.2935 28.7733C21.2535 28.7733 21.2002 28.7599 21.1602 28.7599L23.0935 26.3199C23.2802 26.0799 23.4802 25.8533 23.6935 25.6133L24.6002 25.7333C27.4668 26.1333 29.7735 28.3866 30.2268 31.2399L30.3735 32.1199Z" fill="white"/>
<path d="M25.9057 35.4934C25.9057 36.9601 25.3457 38.3601 24.279 39.4134C23.4657 40.2401 22.3724 40.8001 21.039 40.9601L17.7724 41.3201C15.9857 41.5201 14.4524 39.9868 14.6524 38.1868L15.0124 34.9068C15.3324 31.9868 17.7724 30.1201 20.359 30.0668C20.6124 30.0534 20.8924 30.0668 21.159 30.0934C22.2924 30.2401 23.3857 30.7601 24.3057 31.6668C25.199 32.5601 25.7057 33.6134 25.8524 34.7201C25.879 34.9868 25.9057 35.2401 25.9057 35.4934Z" fill="white"/>
</svg>
