<svg width="56" height="56" viewBox="0 0 56 56" fill="none" xmlns="http://www.w3.org/2000/svg">
<rect width="56" height="56" rx="10" fill="#BDFF00"/>
<path d="M39.4008 24.5867H37.9341C37.7341 24.5867 37.5341 24.6267 37.3475 24.6801L30.6941 18.0267C31.3341 17.2001 31.2808 16.0134 30.5208 15.2667L29.4808 14.2267C28.6941 13.4401 27.3075 13.4401 26.5075 14.2267L25.4675 15.2667C24.7208 16.0134 24.6675 17.2001 25.3075 18.0267L18.6541 24.6801C18.4675 24.6267 18.2675 24.5867 18.0675 24.5867H16.6008C15.4408 24.5867 14.4941 25.5334 14.4941 26.6934V28.1601C14.4941 29.3201 15.4408 30.2667 16.6008 30.2667H18.0675C19.2275 30.2667 20.1741 29.3201 20.1741 28.1601V26.6934C20.1741 26.4934 20.1341 26.2934 20.0808 26.1067L26.7341 19.4534C27.0941 19.7334 27.5475 19.8801 28.0008 19.8801C28.4541 19.8801 28.9075 19.7201 29.2808 19.4401L35.9341 26.0934C35.8808 26.2801 35.8408 26.4801 35.8408 26.6801V28.1467C35.8408 29.3067 36.7875 30.2534 37.9475 30.2534H39.4141C40.5741 30.2534 41.5208 29.3067 41.5208 28.1467V26.6801C41.4941 25.5201 40.5608 24.5867 39.4008 24.5867Z" fill="#1B1F3B"/>
<path d="M33.0007 34.0668L30.8141 36.0001H25.1341L22.9474 34.0668C21.6807 33.0268 21.6807 32.2268 22.6407 31.0001L26.4941 26.1201C26.7607 25.7868 27.0674 25.5601 27.4141 25.4401C27.7741 25.3201 28.1607 25.3201 28.534 25.4401C28.8674 25.5601 29.1741 25.7868 29.4541 26.1201L33.3074 31.0001C34.2674 32.2134 34.2274 32.9734 33.0007 34.0668Z" fill="#1B1F3B"/>
<path d="M29.7205 41.3333H26.2672C25.0405 41.3333 24.1205 40.3333 24.3605 39.2666L24.7738 37.4133C24.8538 37.04 25.1872 36.7866 25.5605 36.7866H30.4272C30.8005 36.7866 31.1205 37.04 31.2138 37.4133L31.6272 39.2666C31.8938 40.4 31.0272 41.3333 29.7205 41.3333Z" fill="#1B1F3B"/>
</svg>
