<svg width="56" height="56" viewBox="0 0 56 56" fill="none" xmlns="http://www.w3.org/2000/svg">
<rect width="56" height="56" rx="10" fill="#BDFF00"/>
<path d="M37.4801 21.9598L32.7867 17.2665C28.5734 13.0665 26.3601 14.6132 23.6934 17.2665L16.1467 24.8132C14.6134 26.3465 13.7734 27.3332 13.4667 28.4265C13.4667 28.4398 13.4534 28.4398 13.4534 28.4398C13.4534 28.4532 13.4534 28.4532 13.4534 28.4532C13.4534 28.4665 13.4534 28.4665 13.4534 28.4665V28.5065C12.9067 30.4532 14.3467 32.1065 16.1467 33.9065L20.8534 38.5865C22.5334 40.2798 23.8934 41.3332 25.4001 41.3332C26.9067 41.3332 28.2001 40.3198 29.9334 38.5865L37.4801 31.0532C38.1334 30.3865 38.6134 29.8398 38.9867 29.3198C38.9867 29.3065 38.9867 29.3065 38.9867 29.3065C38.9867 29.3065 38.9867 29.3065 39.0001 29.3065C40.7067 26.9198 40.2534 24.7198 37.4801 21.9598ZM36.1067 27.1598H36.0934C35.6934 27.0665 35.2801 26.9865 34.8667 26.9065C34.8401 26.9065 34.8134 26.8932 34.7734 26.8932C33.8401 26.7198 32.8934 26.5732 31.9334 26.4532H31.8801C30.9201 26.3332 29.9467 26.2398 28.9734 26.1865H28.8667C28.0134 26.1332 27.1467 26.1065 26.2934 26.1065C25.2534 26.1065 24.2134 26.1598 23.1867 26.2265C23.0134 26.2398 22.8534 26.2532 22.6934 26.2665C21.9201 26.3198 21.1467 26.3998 20.3867 26.4932C20.1734 26.5198 19.9734 26.5465 19.7734 26.5732C19.0001 26.6932 18.2401 26.8132 17.4801 26.9598C17.3067 26.9998 17.1467 27.0265 16.9734 27.0532C16.9067 27.0665 16.8267 27.0798 16.7601 27.0932C17.0001 26.8265 17.2801 26.5465 17.5867 26.2398L25.1201 18.7065C27.5467 16.3065 28.3734 15.7332 31.3601 18.7065L36.0401 23.3998C36.7601 24.1065 37.2401 24.7065 37.5334 25.2265C37.5334 25.2265 37.5334 25.2398 37.5467 25.2398C38.1067 26.2132 37.2001 27.3732 36.1067 27.1598Z" fill="#1B1F3B"/>
<path d="M39.9332 34.4935C39.4265 33.8668 38.9865 33.3335 37.9999 33.3335C37.0132 33.3335 36.5732 33.8668 36.0799 34.4935C35.0132 35.8135 34.5332 37.2535 34.7065 38.6402C34.9065 40.2268 36.2665 41.3335 37.9999 41.3335C39.7332 41.3335 41.0932 40.2268 41.2932 38.6268C41.4665 37.2402 40.9999 35.8135 39.9332 34.4935Z" fill="#1B1F3B"/>
</svg>
