<svg width="56" height="56" viewBox="0 0 56 56" fill="none" xmlns="http://www.w3.org/2000/svg">
<rect width="56" height="56" rx="10" fill="#BDFF00"/>
<path d="M33.586 14.6665H22.4127C17.5593 14.6665 14.666 17.5598 14.666 22.4132V33.5732C14.666 38.4398 17.5593 41.3332 22.4127 41.3332H33.5727C38.426 41.3332 41.3193 38.4398 41.3193 33.5865V22.4132C41.3327 17.5598 38.4394 14.6665 33.586 14.6665ZM34.666 35.3332H30.5327C30.1327 35.3332 29.7727 35.1065 29.6127 34.7332C29.4527 34.3598 29.5194 33.9465 29.786 33.6532L31.946 31.2665C32.8393 30.2665 33.346 28.9998 33.346 27.6932C33.346 26.3598 32.7994 25.1065 31.7994 24.1598C30.7994 23.2132 29.4127 22.6665 27.9993 22.6665C26.586 22.6665 25.1993 23.2132 24.1993 24.1598C23.1993 25.1065 22.6527 26.3598 22.6527 27.6932C22.6527 28.9998 23.146 30.2665 24.0527 31.2665L26.2127 33.6532C26.4793 33.9465 26.546 34.3732 26.386 34.7332C26.226 35.0932 25.866 35.3332 25.466 35.3332H21.3327C20.786 35.3332 20.3327 34.8798 20.3327 34.3332C20.3327 33.7865 20.786 33.3332 21.3327 33.3332H23.2127L22.5593 32.6132C21.3327 31.2532 20.6527 29.5065 20.6527 27.6932C20.6527 25.8398 21.4393 24.0132 22.826 22.7065C24.2127 21.3865 26.0393 20.6665 27.9993 20.6665C29.9593 20.6665 31.786 21.3865 33.1727 22.7065C34.546 24.0132 35.346 25.8398 35.346 27.6932C35.346 29.4932 34.666 31.2398 33.4394 32.6132L32.786 33.3332H34.666C35.2127 33.3332 35.666 33.7865 35.666 34.3332C35.666 34.8798 35.2127 35.3332 34.666 35.3332Z" fill="#1B1F3B"/>
</svg>
