<svg width="56" height="56" viewBox="0 0 56 56" fill="none" xmlns="http://www.w3.org/2000/svg">
<rect width="56" height="56" rx="10" fill="#C209C1"/>
<path d="M29.9065 31.9999H17.8665C15.4398 31.9999 13.8931 29.3999 15.0665 27.2666L18.1731 21.6133L21.0798 16.3199C22.2931 14.1199 25.4665 14.1199 26.6798 16.3199L29.5998 21.6133L30.9998 24.1599L32.7065 27.2666C33.8798 29.3999 32.3331 31.9999 29.9065 31.9999Z" fill="white"/>
<path d="M42.2003 33.3334C42.2003 38.1201 38.3203 42.0001 33.5337 42.0001C29.467 42.0001 26.067 39.2134 25.1203 35.4268C25.027 35.0268 25.3337 34.6668 25.747 34.6668H30.7737C32.627 34.6668 34.307 33.7068 35.2537 32.1201C36.187 30.5201 36.227 28.6001 35.3203 26.9734L34.6537 25.7468C34.4003 25.2934 34.7603 24.7468 35.267 24.8401C39.2137 25.6401 42.2003 29.1334 42.2003 33.3334Z" fill="white"/>
</svg>
