<svg width="24" height="25" viewBox="0 0 24 25" fill="none" xmlns="http://www.w3.org/2000/svg">
<g clip-path="url(#clip0_7266_39493)">
<path d="M19.1565 13.8412L14.2027 12.0107L12.3779 7.05297C12.2698 6.75939 12.0743 6.50603 11.8177 6.32706C11.5611 6.1481 11.2558 6.05214 10.943 6.05214C10.6302 6.05214 10.3249 6.1481 10.0683 6.32706C9.81172 6.50603 9.61621 6.75939 9.50814 7.05297L7.67181 12.0107L2.71411 13.8355C2.42054 13.9435 2.16718 14.139 1.98821 14.3956C1.80924 14.6522 1.71329 14.9575 1.71329 15.2703C1.71329 15.5832 1.80924 15.8885 1.98821 16.1451C2.16718 16.4016 2.42054 16.5972 2.71411 16.7052L7.67181 18.5415L9.49662 23.4992C9.60468 23.7928 9.80019 24.0462 10.0568 24.2251C10.3134 24.4041 10.6187 24.5001 10.9315 24.5001C11.2443 24.5001 11.5496 24.4041 11.8062 24.2251C12.0628 24.0462 12.2583 23.7928 12.3664 23.4992L14.2027 18.5415L19.1604 16.7167C19.454 16.6087 19.7073 16.4132 19.8863 16.1566C20.0653 15.9 20.1612 15.5947 20.1612 15.2819C20.1612 14.969 20.0653 14.6637 19.8863 14.4072C19.7073 14.1506 19.454 13.9551 19.1604 13.847L19.1565 13.8412ZM13.3383 17.2181C13.234 17.2565 13.1393 17.3171 13.0607 17.3957C12.9821 17.4743 12.9215 17.569 12.8831 17.6733L10.9373 22.9451L8.99528 17.6772C8.9569 17.5718 8.89592 17.4761 8.81661 17.3968C8.7373 17.3174 8.64159 17.2565 8.53619 17.2181L3.26827 15.2761L8.53619 13.3341C8.64159 13.2958 8.7373 13.2348 8.81661 13.1555C8.89592 13.0762 8.9569 12.9804 8.99528 12.875L10.9373 7.60713L12.8792 12.875C12.9177 12.9793 12.9783 13.0741 13.0569 13.1526C13.1355 13.2312 13.2302 13.2919 13.3345 13.3303L18.6062 15.2761L13.3383 17.2181ZM14.0106 5.28771C14.0106 5.08393 14.0916 4.8885 14.2356 4.74441C14.3797 4.60032 14.5752 4.51937 14.7789 4.51937H16.3156V2.98269C16.3156 2.77892 16.3966 2.58349 16.5407 2.4394C16.6848 2.29531 16.8802 2.21436 17.084 2.21436C17.2877 2.21436 17.4832 2.29531 17.6273 2.4394C17.7713 2.58349 17.8523 2.77892 17.8523 2.98269V4.51937H19.389C19.5927 4.51937 19.7882 4.60032 19.9323 4.74441C20.0764 4.8885 20.1573 5.08393 20.1573 5.28771C20.1573 5.49148 20.0764 5.68691 19.9323 5.83101C19.7882 5.9751 19.5927 6.05605 19.389 6.05605H17.8523V7.59272C17.8523 7.7965 17.7713 7.99193 17.6273 8.13602C17.4832 8.28011 17.2877 8.36106 17.084 8.36106C16.8802 8.36106 16.6848 8.28011 16.5407 8.13602C16.3966 7.99193 16.3156 7.7965 16.3156 7.59272V6.05605H14.7789C14.5752 6.05605 14.3797 5.9751 14.2356 5.83101C14.0916 5.68691 14.0106 5.49148 14.0106 5.28771ZM23.999 9.89774C23.999 10.1015 23.9181 10.2969 23.774 10.441C23.6299 10.5851 23.4344 10.6661 23.2307 10.6661H22.4623V11.4344C22.4623 11.6382 22.3814 11.8336 22.2373 11.9777C22.0932 12.1218 21.8978 12.2028 21.694 12.2028C21.4902 12.2028 21.2948 12.1218 21.1507 11.9777C21.0066 11.8336 20.9256 11.6382 20.9256 11.4344V10.6661H20.1573C19.9535 10.6661 19.7581 10.5851 19.614 10.441C19.4699 10.2969 19.389 10.1015 19.389 9.89774C19.389 9.69396 19.4699 9.49853 19.614 9.35444C19.7581 9.21035 19.9535 9.1294 20.1573 9.1294H20.9256V8.36106C20.9256 8.15729 21.0066 7.96186 21.1507 7.81776C21.2948 7.67367 21.4902 7.59272 21.694 7.59272C21.8978 7.59272 22.0932 7.67367 22.2373 7.81776C22.3814 7.96186 22.4623 8.15729 22.4623 8.36106V9.1294H23.2307C23.4344 9.1294 23.6299 9.21035 23.774 9.35444C23.9181 9.49853 23.999 9.69396 23.999 9.89774Z" fill="black"/>
</g>
<defs>
<clipPath id="clip0_7266_39493">
<rect width="24" height="24" fill="white" transform="translate(0 0.5)"/>
</clipPath>
</defs>
</svg>
