<svg width="56" height="56" viewBox="0 0 56 56" fill="none" xmlns="http://www.w3.org/2000/svg">
<rect width="56" height="56" rx="10" fill="#C209C1"/>
<path d="M41.3336 33.9998V37.9998C41.3336 39.8398 39.8402 41.3332 38.0002 41.3332H28.4802C27.2936 41.3332 26.7069 39.9065 27.5336 39.0665L35.3602 31.0665C35.6136 30.8132 35.9602 30.6665 36.3069 30.6665H38.0002C39.8402 30.6665 41.3336 32.1598 41.3336 33.9998Z" fill="white"/>
<path d="M36.4936 27.0533L32.8803 30.6666L29.6003 33.9333C28.7603 34.7733 27.3203 34.1866 27.3203 32.9999C27.3203 28.7199 27.3203 21.6799 27.3203 21.6799C27.3203 21.3199 27.467 20.9866 27.707 20.7333L28.9336 19.5066C30.2403 18.1999 32.347 18.1999 33.6536 19.5066L36.4803 22.3333C37.8003 23.6399 37.8003 25.7466 36.4936 27.0533Z" fill="white"/>
<path d="M22.0003 14.6667H18.0003C16.0003 14.6667 14.667 16.0001 14.667 18.0001V36.0001C14.667 36.3601 14.707 36.7201 14.7737 37.0667C14.8137 37.2401 14.8537 37.4134 14.907 37.5868C14.9737 37.7867 15.0403 37.9867 15.1203 38.1734C15.1337 38.1867 15.1337 38.2001 15.1337 38.2001C15.147 38.2001 15.147 38.2001 15.1337 38.2134C15.3203 38.5867 15.5337 38.9467 15.787 39.2801C15.9337 39.4534 16.0803 39.6134 16.227 39.7734C16.3737 39.9334 16.5337 40.0667 16.707 40.2001L16.7203 40.2134C17.0537 40.4667 17.4137 40.6801 17.787 40.8667C17.8003 40.8534 17.8003 40.8534 17.8003 40.8667C18.0003 40.9601 18.2003 41.0267 18.4137 41.0934C18.587 41.1467 18.7603 41.1867 18.9337 41.2267C19.2803 41.2934 19.6403 41.3334 20.0003 41.3334C20.547 41.3334 21.107 41.2534 21.627 41.0801C21.7737 41.0267 21.9203 40.9734 22.067 40.9067C22.5337 40.7201 22.987 40.4534 23.387 40.1067C23.507 40.0134 23.6403 39.8934 23.7603 39.7734L23.8137 39.7201C24.747 38.7601 25.3337 37.4401 25.3337 36.0001V18.0001C25.3337 16.0001 24.0003 14.6667 22.0003 14.6667ZM20.0003 38.0001C18.8937 38.0001 18.0003 37.1067 18.0003 36.0001C18.0003 34.8934 18.8937 34.0001 20.0003 34.0001C21.107 34.0001 22.0003 34.8934 22.0003 36.0001C22.0003 37.1067 21.107 38.0001 20.0003 38.0001Z" fill="white"/>
</svg>
