<svg width="56" height="56" viewBox="0 0 56 56" fill="none" xmlns="http://www.w3.org/2000/svg">
<rect width="56" height="56" rx="10" fill="#BDFF00"/>
<path d="M29.907 19.2401V21.0267C26.4137 21.3067 24.427 23.5467 24.427 27.2401V33.3334H19.2403C16.187 33.3334 14.667 31.8134 14.667 28.7601V19.2401C14.667 16.1867 16.187 14.6667 19.2403 14.6667H25.3337C28.387 14.6667 29.907 16.1867 29.907 19.2401Z" fill="#1B1F3B"/>
<path d="M36.7604 22.6667H30.6671C27.6138 22.6667 26.0938 24.1867 26.0938 27.2401V36.7601C26.0938 39.8134 27.6138 41.3334 30.6671 41.3334H36.7604C39.8138 41.3334 41.3338 39.8134 41.3338 36.7601V27.2401C41.3338 24.1867 39.8138 22.6667 36.7604 22.6667ZM36.1737 33.0001H35.0004V34.1734C35.0004 34.7201 34.5471 35.1734 34.0004 35.1734C33.4538 35.1734 33.0004 34.7201 33.0004 34.1734V33.0001H31.8271C31.2804 33.0001 30.8271 32.5467 30.8271 32.0001C30.8271 31.4534 31.2804 31.0001 31.8271 31.0001H33.0004V29.8267C33.0004 29.2801 33.4538 28.8267 34.0004 28.8267C34.5471 28.8267 35.0004 29.2801 35.0004 29.8267V31.0001H36.1737C36.7204 31.0001 37.1737 31.4534 37.1737 32.0001C37.1737 32.5467 36.7204 33.0001 36.1737 33.0001Z" fill="#1B1F3B"/>
</svg>
