<svg width="56" height="56" viewBox="0 0 56 56" fill="none" xmlns="http://www.w3.org/2000/svg">
<rect width="56" height="56" rx="10" fill="#BDFF00"/>
<path d="M37.3337 21.3333C37.147 21.3333 37.0003 21.4799 37.0003 21.6666V27.9999C37.0003 28.5466 36.547 28.9999 36.0003 28.9999C35.4537 28.9999 35.0003 28.5466 35.0003 27.9999V21.6666C35.0003 21.4799 34.8537 21.3333 34.667 21.3333H32.0003C31.8137 21.3333 31.667 21.4799 31.667 21.6666V24.7999C31.667 25.3466 31.2137 25.7999 30.667 25.7999C30.1203 25.7999 29.667 25.3466 29.667 24.7999V21.6666C29.667 21.4799 29.5203 21.3333 29.3337 21.3333H26.7203C26.5337 21.3333 26.387 21.4799 26.387 21.6666L26.3337 28.0133C26.3337 28.5599 25.8803 28.9999 25.3337 28.9999C25.3337 28.9999 25.3337 28.9999 25.3203 28.9999C24.7737 28.9999 24.3337 28.5466 24.3337 27.9866L24.387 21.6666C24.387 21.4799 24.2403 21.3333 24.0537 21.3333H21.3337C21.147 21.3333 21.0003 21.4799 21.0003 21.6666V26.3999C21.0003 26.9466 20.547 27.3999 20.0003 27.3999C19.4537 27.3999 19.0003 26.9466 19.0003 26.3999V21.6666C19.0003 21.4799 18.8537 21.3333 18.667 21.3333C16.4537 21.3333 14.667 23.1199 14.667 25.3333V30.6666C14.667 32.8799 16.4537 34.6666 18.667 34.6666H37.3337C39.547 34.6666 41.3337 32.8799 41.3337 30.6666V25.3333C41.3337 23.1199 39.547 21.3333 37.3337 21.3333Z" fill="#1B1F3B"/>
</svg>
