<svg width="56" height="56" viewBox="0 0 56 56" fill="none" xmlns="http://www.w3.org/2000/svg">
<rect width="56" height="56" rx="10" fill="#BDFF00"/>
<path d="M22.0003 28C22.0003 27.017 22.244 26.0892 22.6711 25.2646C22.8946 24.8331 22.8562 24.2959 22.5126 23.9523L18.6255 20.0652C18.2155 19.6552 17.5406 19.677 17.1969 20.1441C15.5758 22.347 14.627 25.064 14.627 28C14.627 30.9342 15.5747 33.6498 17.1849 35.852C17.5276 36.3208 18.2036 36.3443 18.6147 35.9342L22.5111 32.0477C22.8555 31.7042 22.8943 31.1663 22.6706 30.7344C22.2438 29.9101 22.0003 28.9825 22.0003 28Z" fill="#1B1F3B"/>
<path d="M28.0003 21.9998C28.9832 21.9998 29.9111 22.2436 30.7356 22.6707C31.1671 22.8942 31.7043 22.8558 32.0479 22.5122L35.8972 18.6629C36.3064 18.2537 36.2856 17.5803 35.8201 17.2364C33.6263 15.6153 30.908 14.6665 27.9603 14.6665C25.0262 14.6665 22.3211 15.6142 20.1214 17.2242C19.6528 17.5672 19.6293 18.2431 20.0394 18.6542L23.9071 22.5318C24.253 22.8786 24.7955 22.9153 25.229 22.6872C26.0578 22.2511 26.9976 21.9998 28.0003 21.9998Z" fill="#1B1F3B"/>
<path d="M38.4091 19.7337C38.2284 19.5064 37.8912 19.4943 37.6857 19.6994L33.1669 24.2066C32.9935 24.3795 32.9728 24.6515 33.1016 24.8599C33.6665 25.7742 33.9995 26.8454 33.9995 27.9998C33.9995 29.1545 33.6664 30.2258 33.1013 31.1403C32.9727 31.3484 32.9931 31.62 33.1661 31.7931L37.6857 36.3126C37.8912 36.5181 38.2287 36.5062 38.4095 36.2787C40.2166 34.0051 41.2929 31.1266 41.2929 27.9998C41.2929 24.8728 40.2165 22.006 38.4091 19.7337Z" fill="#1B1F3B"/>
<path d="M27.9999 34C26.8453 34 25.774 33.6669 24.8595 33.1018C24.6514 32.9732 24.3797 32.9936 24.2067 33.1666L19.6471 37.7262C19.4417 37.9316 19.4535 38.2691 19.681 38.45C21.9547 40.2571 24.8331 41.3334 27.9599 41.3334C31.1004 41.3334 33.9805 40.2564 36.2434 38.4369C36.4689 38.2556 36.4797 37.9198 36.2751 37.7151L31.7504 33.1905C31.5786 33.0187 31.3093 32.9973 31.1016 33.1234C30.1897 33.6771 29.1313 34 27.9999 34Z" fill="#1B1F3B"/>
</svg>
