<svg width="56" height="56" viewBox="0 0 56 56" fill="none" xmlns="http://www.w3.org/2000/svg">
<rect width="56" height="56" rx="10" fill="#C209C1"/>
<path d="M33.2003 22.7598C32.6003 18.1865 28.6936 14.6665 23.9603 14.6665C18.8003 14.6665 14.627 18.8398 14.627 23.9998C14.627 28.7332 18.147 32.6398 22.7203 33.2398C23.1203 33.3065 23.5336 33.3332 23.9603 33.3332C24.1154 33.3332 24.2686 33.3292 24.4205 33.3211C24.7144 33.3056 24.835 32.9546 24.627 32.7465C24.2403 32.3465 24.2403 31.7198 24.627 31.3332C25.0136 30.9332 25.6536 30.9332 26.0403 31.3332L27.1564 32.4493C27.2965 32.5894 27.5067 32.6348 27.6887 32.5564C28.2928 32.2963 28.8588 31.9733 29.3867 31.5919C29.6274 31.4181 29.643 31.0713 29.4319 30.8625L28.627 30.0665C28.2403 29.6798 28.227 29.0532 28.627 28.6532C29.0136 28.2665 29.6403 28.2532 30.0403 28.6398L30.8488 29.4394C31.0587 29.6469 31.4027 29.6292 31.5755 29.3899C31.9488 28.8732 32.2679 28.3187 32.5198 27.7263C32.5968 27.5453 32.5509 27.3371 32.4118 27.198L31.2936 26.0798C30.907 25.6798 30.907 25.0532 31.2936 24.6665C31.6803 24.2665 32.3203 24.2665 32.707 24.6665C32.915 24.8746 33.2661 24.7539 33.2816 24.4601C33.2896 24.3082 33.2936 24.155 33.2936 23.9998C33.2936 23.5732 33.267 23.1598 33.2003 22.7598Z" fill="white"/>
<path d="M41.2937 31.9999C41.2937 37.1599 37.1203 41.3332 31.9603 41.3332C27.9893 41.3332 24.5914 38.8539 23.2562 35.3409C23.1278 35.0032 23.4174 34.6593 23.7787 34.6651C23.8387 34.6661 23.8993 34.6666 23.9603 34.6666C24.427 34.6666 24.867 34.6399 25.3203 34.5732L26.0754 34.4725C26.2298 34.452 26.3849 34.5045 26.4951 34.6146L27.2537 35.3732C27.4537 35.5732 27.707 35.6666 27.9603 35.6666C28.227 35.6666 28.4803 35.5732 28.667 35.3732C29.067 34.9866 29.067 34.3466 28.667 33.9599C28.5386 33.8315 28.5789 33.6136 28.7414 33.5326C29.3178 33.2454 29.9096 32.8726 30.4309 32.4731C30.6363 32.3156 30.9281 32.3259 31.1123 32.5078L31.867 33.2532C32.067 33.4399 32.3203 33.5466 32.5737 33.5466C32.827 33.5466 33.0937 33.4399 33.2803 33.2399C33.667 32.8532 33.667 32.2132 33.267 31.8266L32.5223 31.0912C32.3395 30.9107 32.3241 30.6217 32.4779 30.416C32.8624 29.9017 33.2263 29.3322 33.5108 28.7755C33.5897 28.621 33.7976 28.5838 33.9203 28.7066C34.1203 28.9066 34.3737 28.9999 34.627 28.9999C34.8937 28.9999 35.147 28.9066 35.3337 28.7066C35.7337 28.3199 35.7337 27.6799 35.3337 27.2932L34.5751 26.5346C34.4649 26.4245 34.4124 26.2693 34.433 26.115L34.5337 25.3599C34.6003 24.9066 34.627 24.4666 34.627 23.9999C34.627 23.9391 34.6266 23.8788 34.6256 23.819C34.6197 23.4576 34.9641 23.1679 35.3019 23.2968C38.8039 24.6327 41.2937 28.0299 41.2937 31.9999Z" fill="white"/>
</svg>
