<svg width="40" height="40" viewBox="0 0 40 40" fill="none" xmlns="http://www.w3.org/2000/svg">
<rect width="40" height="40" rx="20" fill="url(#paint0_linear_8201_79713)" fill-opacity="0.2"/>
<path d="M19.9998 11.667C24.6031 11.667 28.3348 15.4112 28.3348 20.0312C28.3348 24.307 25.1364 27.8337 21.0089 28.3337V22.587H23.2639L23.7314 20.0312H21.0089V19.127C21.0089 18.9578 21.0173 18.802 21.0339 18.6587C21.1539 17.6545 21.7081 17.2562 22.9039 17.2562C23.3281 17.2562 23.6698 17.267 23.8664 17.287V14.9703C23.8198 14.957 23.7648 14.9445 23.7031 14.932C23.2723 14.8428 22.5164 14.7628 22.0539 14.7628C19.2689 14.7628 17.9848 16.082 17.9848 18.9295V20.0312H16.2656V22.587H17.9848V28.1487C14.3539 27.2445 11.6631 23.9537 11.6631 20.0312C11.6631 15.412 15.3948 11.667 19.9981 11.667H19.9998Z" fill="#1B1F3B"/>
<defs>
<linearGradient id="paint0_linear_8201_79713" x1="0" y1="20" x2="40" y2="20" gradientUnits="userSpaceOnUse">
<stop stop-color="#3B6BFF"/>
</linearGradient>
</defs>
</svg>
