<svg width="40" height="40" viewBox="0 0 40 40" fill="none" xmlns="http://www.w3.org/2000/svg">
<rect width="40" height="40" rx="20" fill="url(#paint0_linear_8201_79719)" fill-opacity="0.2"/>
<path d="M19.9998 23.325C19.5414 23.325 19.1098 23.2417 18.7039 23.075C18.308 22.9053 17.9478 22.6621 17.6423 22.3584C17.3379 22.0527 17.0942 21.6922 16.9239 21.2959C16.7573 20.89 16.6739 20.4584 16.6739 20C16.6739 19.5417 16.7573 19.11 16.9239 18.7042C17.1006 18.2984 17.3406 17.9442 17.6423 17.6425C17.9439 17.3409 18.2981 17.1009 18.7039 16.9242C19.1098 16.7575 19.5414 16.6742 19.9998 16.6742C20.4581 16.6742 20.8898 16.7575 21.2956 16.9242C21.7014 17.1009 22.0556 17.3409 22.3573 17.6425C22.6589 17.9442 22.8989 18.2984 23.0756 18.7042C23.2423 19.11 23.3256 19.5417 23.3256 20C23.3256 20.4584 23.2423 20.89 23.0756 21.2959C22.8989 21.7017 22.6589 22.0559 22.3573 22.3575C22.0556 22.6592 21.7014 22.8992 21.2956 23.0759C20.8898 23.2425 20.4581 23.3259 19.9998 23.3259V23.325ZM19.9998 22.3267C20.6448 22.3267 21.1914 22.1025 21.6389 21.655C22.0973 21.1967 22.3264 20.645 22.3264 20C22.3264 19.355 22.0973 18.8084 21.6389 18.3609C21.4284 18.1388 21.1739 17.963 20.8917 17.8446C20.6095 17.7263 20.3058 17.668 19.9998 17.6734C19.3548 17.6734 18.8031 17.9025 18.3448 18.3609C17.8973 18.8084 17.6731 19.355 17.6731 20C17.6731 20.645 17.8973 21.1967 18.3448 21.655C18.8031 22.1025 19.3548 22.3267 19.9998 22.3267ZM23.3248 17.33C23.4116 17.3325 23.4981 17.3171 23.5788 17.2849C23.6595 17.2526 23.7327 17.2042 23.7939 17.1425C23.8579 17.0824 23.9088 17.0099 23.9436 16.9293C23.9784 16.8488 23.9964 16.762 23.9964 16.6742C23.9985 16.5862 23.9814 16.4987 23.9464 16.4179C23.9115 16.3371 23.8595 16.2647 23.7939 16.2059C23.7351 16.1404 23.6628 16.0883 23.5819 16.0534C23.5011 16.0184 23.4137 16.0014 23.3256 16.0034C23.1481 16.0034 22.9923 16.07 22.8573 16.2059C22.7957 16.267 22.7473 16.3401 22.7151 16.4207C22.6828 16.5012 22.6674 16.5875 22.6698 16.6742C22.6698 16.8517 22.7323 17.0075 22.8573 17.1425C22.9923 17.2675 23.1489 17.33 23.3256 17.33H23.3248ZM18.0023 13.3334H21.9989C22.6448 13.3334 23.2481 13.4584 23.8106 13.7084C24.3823 13.9475 24.8773 14.2809 25.2939 14.7075C25.7198 15.1242 26.0531 15.6184 26.2923 16.1909C26.5423 16.7525 26.6673 17.3559 26.6673 18.0017V21.9984C26.6673 22.6442 26.5423 23.2475 26.2923 23.81C26.0609 24.3703 25.7213 24.8794 25.2931 25.3084C24.8764 25.725 24.3823 26.0525 23.8098 26.2917C23.2481 26.5417 22.6448 26.6667 21.9989 26.6667H18.0014C17.3556 26.6667 16.7523 26.5417 16.1906 26.2917C15.6329 26.0622 15.1241 25.7285 14.6914 25.3084C14.2714 24.8757 13.9376 24.3669 13.7081 23.8092C13.4566 23.2392 13.3288 22.6223 13.3331 21.9992V18.0017C13.3331 17.3559 13.4581 16.7525 13.7081 16.1909C13.9473 15.6184 14.2748 15.1242 14.6914 14.7075C15.1206 14.2789 15.63 13.9391 16.1906 13.7075C16.761 13.4562 17.379 13.3287 18.0023 13.3334ZM21.9989 14.3334H18.0014C17.4914 14.3334 17.0181 14.4317 16.5806 14.6292C16.1429 14.8101 15.745 15.0754 15.4098 15.41C15.0764 15.7434 14.8164 16.1334 14.6289 16.5809C14.4291 17.0277 14.328 17.5123 14.3323 18.0017V21.9984C14.3323 22.5084 14.4314 22.9817 14.6289 23.4192C14.8099 23.857 15.0752 24.2548 15.4098 24.59C15.7431 24.9234 16.1331 25.1834 16.5806 25.3709C17.0274 25.5707 17.512 25.6719 18.0014 25.6675H21.9981C22.5081 25.6675 22.9814 25.5684 23.4189 25.3709C23.8567 25.19 24.2545 24.9246 24.5898 24.59C24.9231 24.2567 25.1831 23.8667 25.3706 23.4192C25.5704 22.9724 25.6716 22.4878 25.6673 21.9984V18.0017C25.6673 17.4917 25.5681 17.0184 25.3706 16.5809C25.1897 16.1431 24.9244 15.7453 24.5898 15.41C24.2545 15.0754 23.8567 14.8101 23.4189 14.6292C22.9722 14.4294 22.4875 14.3282 21.9981 14.3325L21.9989 14.3334Z" fill="#1B1F3B"/>
<defs>
<linearGradient id="paint0_linear_8201_79719" x1="0" y1="20" x2="40" y2="20" gradientUnits="userSpaceOnUse">
<stop stop-color="#3B6BFF"/>
</linearGradient>
</defs>
</svg>
