<svg width="40" height="40" viewBox="0 0 40 40" fill="none" xmlns="http://www.w3.org/2000/svg">
<rect width="40" height="40" rx="20" fill="url(#paint0_linear_8201_79722)" fill-opacity="0.2"/>
<path d="M25.4168 21.1709V25.1767H23.0943V21.4392C23.0943 20.5 22.7602 19.86 21.9177 19.86C21.276 19.86 20.8952 20.2917 20.726 20.71C20.6652 20.8584 20.6502 21.0659 20.6502 21.275V25.1767H18.3268C18.3268 25.1767 18.3577 18.8467 18.3268 18.1917H20.6502V19.1817L20.6352 19.2042H20.6502V19.1817C20.9585 18.7067 21.5093 18.0275 22.7435 18.0275C24.2727 18.0275 25.4168 19.0259 25.4168 21.1717V21.1709ZM15.8977 14.8234C15.1027 14.8234 14.5835 15.3442 14.5835 16.03C14.5835 16.7009 15.0877 17.2375 15.8668 17.2375H15.881C16.691 17.2375 17.1952 16.7009 17.1952 16.03C17.1802 15.3442 16.691 14.8234 15.8977 14.8234ZM14.7218 25.1767H17.0418V18.1917H14.7218V25.1767Z" fill="#1B1F3B"/>
<defs>
<linearGradient id="paint0_linear_8201_79722" x1="0" y1="20" x2="40" y2="20" gradientUnits="userSpaceOnUse">
<stop stop-color="#3B6BFF"/>
</linearGradient>
</defs>
</svg>
