<svg width="186" height="36" viewBox="0 0 186 36" fill="none" xmlns="http://www.w3.org/2000/svg">
<path d="M8.81678 18C13.6862 18 17.6336 14.0536 17.6336 9.18559C17.6336 4.31755 13.6862 0.371216 8.81678 0.371216C3.94741 0.371216 0 4.31755 0 9.18559C0 14.0536 3.94741 18 8.81678 18Z" fill="#BDFF00"/>
<path d="M26.4503 18C31.3197 18 35.2671 14.0536 35.2671 9.18559C35.2671 4.31755 31.3197 0.371216 26.4503 0.371216C21.581 0.371216 17.6335 4.31755 17.6335 9.18559C17.6335 14.0536 21.581 18 26.4503 18Z" fill="#BDFF00"/>
<path d="M8.81678 35.6288C13.6862 35.6288 17.6336 31.6824 17.6336 26.8144C17.6336 21.9463 13.6862 18 8.81678 18C3.94741 18 0 21.9463 0 26.8144C0 31.6824 3.94741 35.6288 8.81678 35.6288Z" fill="#BDFF00"/>
<path d="M26.4503 35.6288C31.3197 35.6288 35.2671 31.6824 35.2671 26.8144C35.2671 21.9463 31.3197 18 26.4503 18C21.581 18 17.6335 21.9463 17.6335 26.8144C17.6335 31.6824 21.581 35.6288 26.4503 35.6288Z" fill="#BDFF00"/>
<path d="M58.5625 7.33752C60.4928 7.33752 62.1035 7.56882 63.3964 8.02812C64.6893 8.48907 65.72 9.11406 66.4901 9.90308C67.2603 10.6921 67.8092 11.6009 68.1369 12.6294C68.4647 13.6579 68.6285 14.7389 68.6285 15.8741C68.6285 17.0092 68.4466 18.0984 68.0845 19.145C67.7207 20.1916 67.1456 21.1167 66.3574 21.9238C65.5692 22.7309 64.5336 23.369 63.2489 23.8381C61.9643 24.3073 60.4027 24.5435 58.5609 24.5435H48.7324V7.33752H58.5609H58.5625ZM52.2669 21.5104H58.4822C59.757 21.5104 60.8156 21.3562 61.6562 21.0446C62.4968 20.7345 63.1654 20.3129 63.6619 19.7815C64.1567 19.25 64.5123 18.6463 64.7237 17.9738C64.9367 17.2996 65.0432 16.6008 65.0432 15.8724C65.0432 15.1441 64.9367 14.4551 64.7237 13.799C64.5107 13.1428 64.1567 12.5589 63.6619 12.0438C63.1654 11.5303 62.4968 11.1219 61.6562 10.8201C60.8156 10.5182 59.757 10.3673 58.4822 10.3673H52.2669V21.5088V21.5104Z" fill="black"/>
<path d="M83.7804 13.9581L73.2883 22.9458L72.9164 21.9353H83.9655V24.5402H70.4453V21.9353L80.9374 12.9477L81.3094 13.9581H70.4453V11.3253H83.7787V13.9581H83.7804Z" fill="black"/>
<path d="M86.0193 11.3253H89.4719V24.5402H86.0193V11.3253Z" fill="black"/>
<path d="M98.7779 22.5209C97.3441 22.5209 96.0824 22.3043 94.9927 21.8696C93.903 21.4349 93.0575 20.7935 92.4561 19.9422C91.8531 19.0908 91.5532 18.0639 91.5532 16.8583C91.5532 15.6526 91.8449 14.6421 92.4299 13.7743C93.0149 12.9066 93.8506 12.2324 94.9402 11.7534C96.0299 11.2744 97.308 11.0349 98.7779 11.0349C99.1843 11.0349 99.5792 11.0612 99.9593 11.1153C100.339 11.1678 100.716 11.24 101.088 11.3285L107.756 11.3548V13.9597C106.853 13.9778 105.937 13.8662 105.006 13.6267C104.077 13.3872 103.258 13.1264 102.55 12.8426L102.47 12.6572C103.071 12.941 103.638 13.2921 104.169 13.7071C104.7 14.1238 105.129 14.6027 105.457 15.1424C105.785 15.6838 105.948 16.3087 105.948 17.0174C105.948 18.1706 105.657 19.1581 105.072 19.9816C104.487 20.8067 103.659 21.4349 102.588 21.8696C101.516 22.3043 100.246 22.5209 98.7763 22.5209H98.7779ZM103.214 29.9928V29.3547C103.214 28.5394 102.951 27.9719 102.43 27.652C101.908 27.3337 101.195 27.173 100.292 27.173H96.1741C95.3778 27.173 94.7092 27.1107 94.1684 26.986C93.6277 26.8613 93.1984 26.6842 92.8805 26.4545C92.561 26.2232 92.3316 25.9542 92.1906 25.6441C92.0481 25.3341 91.9776 25.0011 91.9776 24.6468C91.9776 23.9382 92.207 23.4017 92.6675 23.0376C93.1279 22.6751 93.7473 22.4306 94.5273 22.306C95.3057 22.1813 96.1643 22.1551 97.1032 22.2256L98.7763 22.5176C97.6604 22.5537 96.8328 22.6472 96.2921 22.7964C95.7514 22.9474 95.4826 23.2443 95.4826 23.6872C95.4826 23.9529 95.5891 24.1612 95.8022 24.3122C96.0152 24.4631 96.315 24.5385 96.705 24.5385H101.034C102.221 24.5385 103.235 24.6665 104.076 24.924C104.916 25.1816 105.558 25.6146 106.001 26.2265C106.443 26.8383 106.665 27.6766 106.665 28.7396V29.9895H103.212L103.214 29.9928ZM98.7779 20.0209C99.5382 20.0209 100.208 19.8963 100.784 19.6486C101.359 19.4009 101.806 19.0416 102.126 18.5708C102.445 18.1017 102.604 17.539 102.604 16.8829C102.604 16.2267 102.445 15.6329 102.126 15.1539C101.806 14.6749 101.364 14.3075 100.797 14.0499C100.23 13.7924 99.5562 13.6644 98.7779 13.6644C97.9995 13.6644 97.3441 13.7924 96.7591 14.0499C96.1741 14.3075 95.7235 14.6749 95.404 15.1539C95.0844 15.6329 94.9255 16.2087 94.9255 16.8829C94.9255 17.5571 95.0844 18.1017 95.404 18.5708C95.7235 19.04 96.1692 19.3992 96.746 19.6486C97.3212 19.8963 97.9979 20.0209 98.7779 20.0209Z" fill="black"/>
<path d="M109.115 11.3258H112.568V24.5407H109.115V11.3258ZM118.703 11.0338C119.517 11.0338 120.269 11.1404 120.961 11.3537C121.651 11.5669 122.254 11.895 122.767 12.3379C123.279 12.7808 123.678 13.3435 123.961 14.0259C124.245 14.7083 124.386 15.5203 124.386 16.4586V24.5424H120.933V17.0704C120.933 15.9533 120.663 15.1331 120.123 14.6115C119.583 14.0882 118.703 13.8274 117.48 13.8274C116.559 13.8274 115.727 14.0045 114.983 14.3589C114.239 14.7132 113.638 15.161 113.177 15.7023C112.717 16.2437 112.451 16.8063 112.381 17.3903L112.355 16.0337C112.443 15.4136 112.646 14.81 112.966 14.226C113.286 13.6404 113.713 13.1056 114.254 12.6168C114.795 12.1296 115.435 11.7441 116.179 11.4603C116.923 11.1765 117.764 11.0355 118.703 11.0355V11.0338Z" fill="black"/>
<path d="M127.488 7.33752H131.021V24.5418H127.488V7.33752ZM130.596 14.4371H144.223V17.3881H130.596V14.4371ZM143.638 7.33752H147.171V24.5418H143.638V7.33752Z" fill="black"/>
<path d="M162.274 18.1859L162.301 19.0898C162.265 19.3391 162.176 19.6967 162.035 20.1675C161.893 20.6367 161.676 21.1386 161.385 21.6701C161.093 22.2016 160.716 22.7118 160.256 23.199C159.795 23.6861 159.228 24.0864 158.556 24.3964C157.883 24.7065 157.087 24.8623 156.166 24.8623C155.44 24.8623 154.727 24.7737 154.027 24.5966C153.328 24.4194 152.695 24.1225 152.128 23.7058C151.561 23.2892 151.111 22.7265 150.773 22.0179C150.437 21.3092 150.268 20.4136 150.268 19.3326V11.3292H153.721V18.7486C153.721 19.6 153.859 20.2692 154.132 20.7564C154.406 21.2436 154.809 21.5848 155.341 21.78C155.872 21.9752 156.502 22.072 157.228 22.072C158.184 22.072 159.007 21.8637 159.699 21.447C160.388 21.0304 160.95 20.5202 161.385 19.9182C161.819 19.3162 162.116 18.7388 162.274 18.1892V18.1859ZM165.542 24.5424H162.089V11.3275H165.542V24.5424Z" fill="black"/>
<path d="M171.844 6.0072V21.1364C171.844 21.704 171.817 22.311 171.763 22.9573C171.711 23.6052 171.657 24.1318 171.604 24.5386H168.391V6.0072H171.844ZM178.033 24.8339C176.864 24.8339 175.863 24.6255 175.031 24.2089C174.198 23.7922 173.525 23.2427 173.012 22.5603C172.497 21.8779 172.117 21.1332 171.87 20.3261C171.621 19.519 171.498 18.7267 171.498 17.9459C171.498 16.9715 171.618 16.0677 171.857 15.2343C172.096 14.401 172.471 13.6694 172.986 13.0412C173.499 12.4129 174.172 11.9208 175.005 11.5648C175.837 11.2105 176.846 11.0333 178.033 11.0333C179.396 11.0333 180.605 11.322 181.659 11.8978C182.713 12.4736 183.545 13.2757 184.156 14.3043C184.767 15.3328 185.072 16.5467 185.072 17.9475C185.072 19.3484 184.763 20.5131 184.143 21.5515C183.524 22.5882 182.681 23.3952 181.62 23.971C180.558 24.5468 179.362 24.8355 178.034 24.8355L178.033 24.8339ZM176.917 22.1748C177.856 22.1748 178.67 21.9976 179.36 21.6433C180.05 21.289 180.586 20.7969 180.968 20.167C181.348 19.5371 181.539 18.7973 181.539 17.9459C181.539 16.6697 181.136 15.6412 180.33 14.862C179.524 14.0828 178.387 13.6924 176.917 13.6924C175.889 13.6924 174.995 13.8613 174.234 14.1976C173.472 14.5339 172.884 15.0178 172.468 15.6461C172.052 16.276 171.844 17.042 171.844 17.9459C171.844 18.7792 172.047 19.5141 172.455 20.1538C172.861 20.792 173.446 21.289 174.208 21.6433C174.97 21.9976 175.873 22.1748 176.917 22.1748Z" fill="black"/>
</svg>
