<svg width="40" height="40" viewBox="0 0 40 40" fill="none" xmlns="http://www.w3.org/2000/svg">
<rect width="40" height="40" rx="20" fill="url(#paint0_linear_8201_79728)" fill-opacity="0.2"/>
<path d="M19.9848 13.333C16.264 13.333 14.2856 15.6747 14.2856 18.228C14.2856 19.4122 14.959 20.8888 16.0381 21.3572C16.2023 21.4297 16.2906 21.3988 16.3273 21.2497C16.3598 21.1363 16.5015 20.5905 16.5698 20.333C16.5819 20.2928 16.5829 20.2501 16.5728 20.2093C16.5627 20.1685 16.5418 20.1313 16.5123 20.1013C16.154 19.6947 15.8698 18.9538 15.8698 18.2588C15.8698 16.478 17.3115 14.7488 19.7648 14.7488C21.8856 14.7488 23.3698 16.1022 23.3698 18.038C23.3698 20.2255 22.1915 21.7388 20.6598 21.7388C19.8123 21.7388 19.1806 21.0855 19.3815 20.2772C19.6231 19.3147 20.0973 18.2797 20.0973 17.5855C20.0973 16.963 19.739 16.448 19.0081 16.448C18.1448 16.448 17.4448 17.2872 17.4448 18.4138C17.4448 19.1297 17.7031 19.613 17.7031 19.613L16.6906 23.6322C16.4223 24.703 16.7273 26.4372 16.7531 26.5863C16.769 26.6688 16.8631 26.6947 16.9156 26.6272C16.9998 26.5188 18.0315 25.073 18.3206 24.028C18.4256 23.6472 18.8581 22.103 18.8581 22.103C19.1423 22.6072 19.9631 23.0297 20.8365 23.0297C23.4365 23.0297 25.3148 20.7855 25.3148 18.0005C25.3056 15.3305 22.979 13.333 19.9848 13.333Z" fill="#1B1F3B"/>
<defs>
<linearGradient id="paint0_linear_8201_79728" x1="0" y1="20" x2="40" y2="20" gradientUnits="userSpaceOnUse">
<stop stop-color="#3B6BFF"/>
</linearGradient>
</defs>
</svg>
