<svg width="40" height="40" viewBox="0 0 40 40" fill="none" xmlns="http://www.w3.org/2000/svg">
<rect width="40" height="40" rx="20" fill="url(#paint0_linear_8201_79725)" fill-opacity="0.2"/>
<path d="M26.064 17.1033C25.9181 16.5867 25.4906 16.18 24.949 16.0408C23.959 15.7833 19.9998 15.7833 19.9998 15.7833C19.9998 15.7833 16.0415 15.7833 15.0506 16.0317C14.5198 16.17 14.0823 16.5867 13.9365 17.1033C13.6748 18.045 13.6748 20 13.6748 20C13.6748 20 13.6748 21.9642 13.9356 22.8967C14.0815 23.4133 14.5081 23.82 15.0498 23.9583C16.0498 24.2167 19.9998 24.2167 19.9998 24.2167C19.9998 24.2167 23.959 24.2167 24.9498 23.9683C25.4915 23.83 25.9181 23.4233 26.064 22.9067C26.3248 21.965 26.3248 20.01 26.3248 20.01C26.3248 20.01 26.3348 18.0458 26.064 17.1033ZM18.739 21.8058V18.1942L22.0315 20L18.739 21.8058Z" fill="#1B1F3B"/>
<defs>
<linearGradient id="paint0_linear_8201_79725" x1="0" y1="20" x2="40" y2="20" gradientUnits="userSpaceOnUse">
<stop stop-color="#3B6BFF"/>
</linearGradient>
</defs>
</svg>
