<svg width="17" height="17" viewBox="0 0 17 17" fill="none" xmlns="http://www.w3.org/2000/svg">
<path d="M8.59379 14.8451C12.0801 14.8451 14.9063 12.0188 14.9063 8.53251C14.9063 5.04619 12.0801 2.21997 8.59379 2.21997C5.10747 2.21997 2.28125 5.04619 2.28125 8.53251C2.28125 12.0188 5.10747 14.8451 8.59379 14.8451Z" stroke="#2C374F" stroke-width="1.05195" stroke-linecap="round" stroke-linejoin="round"/>
<path d="M11.5306 8.1746L7.21758 5.44878C7.14493 5.40283 7.06175 5.37774 6.97662 5.37606C6.89147 5.3744 6.80744 5.39622 6.73317 5.43929C6.65889 5.48235 6.59705 5.54511 6.55401 5.6211C6.51097 5.69708 6.48828 5.78355 6.48828 5.87161V11.3237C6.48835 11.4118 6.51108 11.4982 6.55414 11.5742C6.5972 11.65 6.65902 11.7128 6.73328 11.7559C6.80754 11.7989 6.89154 11.8208 6.97664 11.8191C7.06175 11.8175 7.14492 11.7925 7.21758 11.7466L11.5306 9.02076C11.6007 8.97645 11.6586 8.91428 11.6987 8.8402C11.7389 8.76611 11.76 8.68261 11.76 8.59768C11.76 8.51275 11.7389 8.42924 11.6987 8.35515C11.6586 8.28108 11.6007 8.21891 11.5306 8.1746Z" fill="#333B52"/>
</svg>
