<svg width="65" height="78" viewBox="0 0 65 78" fill="none" xmlns="http://www.w3.org/2000/svg">
<g clip-path="url(#clip0_8192_42577)">
<path d="M57.5989 12.4937C58.6757 14.2043 59.5371 14.9563 59.5054 15.6554C59.3981 18.2586 59.4376 20.955 58.6771 23.4521C56.8601 30.2106 53.0146 35.7848 48.2149 40.7536C40.0514 49.2392 30.1626 55.089 19.4515 59.8007C18.3065 60.3072 17.2349 60.8602 16.0435 61.44C15.997 61.5132 15.9774 61.7063 15.9848 62.0192C17.8787 62.6043 19.8459 63.236 21.6933 63.8943C22.6671 64.3067 23.6949 64.9587 24.3899 65.8106C24.8108 66.2832 25.0336 67.5547 24.7082 68.0675C24.2899 68.7268 23.2649 69.2066 22.4526 69.5132C21.8532 69.6466 21.146 69.3007 20.4658 69.0746C15.3641 67.379 10.1695 65.83 5.04091 64.0146C0.665951 62.4718 0.208145 60.4347 2.79871 56.8384C5.48223 53.0955 8.01891 49.2595 10.5825 45.5433C11.3996 44.4178 12.4099 43.3122 13.3933 42.0867C15.5934 45.4347 15.5934 45.4347 9.16523 58.0008C17.0434 55.807 23.6588 52.1956 30.1469 48.298C36.6351 44.4004 42.3548 39.6043 47.4261 33.8831C52.6367 27.942 55.3394 20.9235 57.5989 12.4937Z" fill="#C209C1"/>
</g>
<defs>
<clipPath id="clip0_8192_42577">
<rect width="30.8485" height="71.9798" fill="white" transform="translate(26.0488 77.7212) rotate(-147.607)"/>
</clipPath>
</defs>
</svg>
