<svg width="56" height="56" viewBox="0 0 56 56" fill="none" xmlns="http://www.w3.org/2000/svg">
<rect width="56" height="56" rx="10" fill="#C209C1"/>
<path d="M35.9993 16H19.9993C17.0527 16 14.666 18.3733 14.666 21.2933V34.7067C14.666 37.6267 17.0527 40 19.9993 40H35.9993C38.946 40 41.3327 37.6267 41.3327 34.7067V21.2933C41.3327 18.3733 38.946 16 35.9993 16ZM23.3327 21.56C25.026 21.56 26.4127 22.9467 26.4127 24.64C26.4127 26.3333 25.026 27.72 23.3327 27.72C21.6393 27.72 20.2527 26.3333 20.2527 24.64C20.2527 22.9467 21.6393 21.56 23.3327 21.56ZM28.4927 34.2133C28.3727 34.3467 28.186 34.4267 27.9993 34.4267H18.666C18.4793 34.4267 18.2927 34.3467 18.1727 34.2133C18.0527 34.08 17.986 33.8933 17.9993 33.7067C18.226 31.4667 20.0127 29.6933 22.2527 29.48C22.9593 29.4133 23.6927 29.4133 24.3993 29.48C26.6393 29.6933 28.4393 31.4667 28.6527 33.7067C28.6793 33.8933 28.6127 34.08 28.4927 34.2133ZM37.3327 34.3333H34.666C34.1194 34.3333 33.666 33.88 33.666 33.3333C33.666 32.7867 34.1194 32.3333 34.666 32.3333H37.3327C37.8793 32.3333 38.3327 32.7867 38.3327 33.3333C38.3327 33.88 37.8793 34.3333 37.3327 34.3333ZM37.3327 29H31.9993C31.4527 29 30.9993 28.5467 30.9993 28C30.9993 27.4533 31.4527 27 31.9993 27H37.3327C37.8793 27 38.3327 27.4533 38.3327 28C38.3327 28.5467 37.8793 29 37.3327 29ZM37.3327 23.6667H30.666C30.1193 23.6667 29.666 23.2133 29.666 22.6667C29.666 22.12 30.1193 21.6667 30.666 21.6667H37.3327C37.8793 21.6667 38.3327 22.12 38.3327 22.6667C38.3327 23.2133 37.8793 23.6667 37.3327 23.6667Z" fill="white"/>
</svg>
