<svg width="56" height="56" viewBox="0 0 56 56" fill="none" xmlns="http://www.w3.org/2000/svg">
<rect width="56" height="56" rx="10" fill="#BDFF00"/>
<path d="M37.4926 31.9199L37.9192 32.7866C38.1326 33.2133 38.6792 33.6133 39.1326 33.6933L39.7059 33.7866C41.4526 34.0799 41.8526 35.3599 40.6126 36.6133L40.0792 37.1466C39.7192 37.5066 39.5326 38.1999 39.6392 38.7066L39.7059 39.0266C40.1859 41.1333 39.0659 41.9466 37.2392 40.8399L36.8526 40.5999C36.3859 40.3199 35.6126 40.3199 35.1459 40.5999L34.7592 40.8399C32.9192 41.9466 31.8126 41.1333 32.2926 39.0266L32.3592 38.7066C32.4659 38.2133 32.2792 37.5066 31.9192 37.1466L31.3859 36.6133C30.1459 35.3466 30.5459 34.0799 32.2926 33.7866L32.8659 33.6933C33.3326 33.6133 33.8659 33.2133 34.0792 32.7866L34.5059 31.9199C35.3326 30.2533 36.6659 30.2533 37.4926 31.9199Z" fill="#1B1F3B"/>
<path d="M33.586 14.6665H22.4127C17.5593 14.6665 14.666 17.5598 14.666 22.4132V33.5865C14.666 38.4398 17.5593 41.3332 22.4127 41.3332H29.4527C29.9193 41.3332 30.2527 40.8532 30.1993 40.3865C30.146 39.8798 30.1727 39.2798 30.3327 38.5865C30.3593 38.4932 30.3327 38.3865 30.2527 38.3065L29.9593 38.0132C28.826 36.8665 28.4127 35.4798 28.8127 34.2132C29.226 32.9598 30.3727 32.0798 31.9594 31.8132L32.3594 31.7465L32.7193 31.0265C33.4527 29.5332 34.6527 28.6665 35.9993 28.6665C37.346 28.6665 38.546 29.5332 39.2793 31.0265L39.4794 31.4398C39.5727 31.6398 39.7593 31.7732 39.9727 31.8132C40.0927 31.8398 40.2127 31.8665 40.3327 31.8932C40.7993 32.0132 41.3327 31.6398 41.3327 31.1465V22.4132C41.3327 17.5598 38.4394 14.6665 33.586 14.6665ZM33.6793 23.9465L30.5993 27.9198C30.2127 28.4132 29.666 28.7332 29.0393 28.7998C28.426 28.8798 27.7993 28.7065 27.3193 28.3198L24.8793 26.4265C24.786 26.3465 24.6793 26.3465 24.626 26.3598C24.5727 26.3598 24.4793 26.3865 24.3993 26.4932L21.226 30.6132C21.026 30.8665 20.7327 30.9998 20.426 30.9998C20.2127 30.9998 19.9993 30.9332 19.8127 30.7865C19.3727 30.4532 19.2927 29.8265 19.626 29.3865L22.7993 25.2665C23.186 24.7732 23.7327 24.4532 24.3594 24.3732C24.986 24.2932 25.5993 24.4665 26.0927 24.8532L28.5327 26.7732C28.626 26.8532 28.7193 26.8398 28.786 26.8398C28.8393 26.8398 28.9327 26.8132 29.0127 26.7065L32.0927 22.7332C32.426 22.2932 33.0527 22.2132 33.4927 22.5598C33.946 22.8932 34.0127 23.5198 33.6793 23.9465Z" fill="#1B1F3B"/>
</svg>
