<svg width="56" height="56" viewBox="0 0 56 56" fill="none" xmlns="http://www.w3.org/2000/svg">
<rect width="56" height="56" rx="10" fill="#BDFF00"/>
<path d="M33.586 14.6665H22.4127C17.5593 14.6665 14.666 17.5598 14.666 22.4132V33.5732C14.666 38.4398 17.5593 41.3332 22.4127 41.3332H33.5727C38.426 41.3332 41.3193 38.4398 41.3193 33.5865V22.4132C41.3327 17.5598 38.4394 14.6665 33.586 14.6665ZM35.0127 25.2798L31.9327 29.2532C31.546 29.7465 30.9993 30.0665 30.3727 30.1332C29.746 30.2132 29.1327 30.0398 28.6393 29.6532L26.1993 27.7332C26.106 27.6532 25.9993 27.6532 25.946 27.6665C25.8927 27.6665 25.7993 27.6932 25.7193 27.7998L22.546 31.9198C22.346 32.1732 22.0527 32.3065 21.7593 32.3065C21.546 32.3065 21.3327 32.2398 21.146 32.0932C20.706 31.7598 20.626 31.1332 20.9593 30.6932L24.1327 26.5732C24.5194 26.0798 25.066 25.7598 25.6927 25.6798C26.306 25.5998 26.9327 25.7732 27.426 26.1598L29.866 28.0798C29.9593 28.1598 30.0527 28.1598 30.1193 28.1465C30.1727 28.1465 30.266 28.1198 30.346 28.0132L33.426 24.0398C33.7593 23.5998 34.3994 23.5198 34.826 23.8665C35.266 24.2265 35.346 24.8532 35.0127 25.2798Z" fill="#1B1F3B"/>
</svg>
