<svg width="56" height="56" viewBox="0 0 56 56" fill="none" xmlns="http://www.w3.org/2000/svg">
<rect width="56" height="56" rx="10" fill="#BDFF00"/>
<path d="M40.8935 21.2667C40.0402 18.3734 37.6269 15.96 34.7335 15.1067C32.5335 14.4667 31.0135 14.52 29.9602 15.3067C28.6935 16.2534 28.5469 17.96 28.5469 19.1734V22.4934C28.5469 25.7734 30.0402 27.44 32.9735 27.44H36.8002C38.0002 27.44 39.7202 27.2934 40.6669 26.0267C41.4802 24.9867 41.5469 23.4667 40.8935 21.2667Z" fill="#1B1F3B"/>
<path d="M37.2132 29.8135C36.8665 29.4135 36.3599 29.1869 35.8399 29.1869H31.0665C28.7199 29.1869 26.8132 27.2802 26.8132 24.9335V20.1602C26.8132 19.6402 26.5865 19.1335 26.1865 18.7869C25.7999 18.4402 25.2665 18.2802 24.7599 18.3469C21.6265 18.7469 18.7465 20.4669 16.8665 23.0535C14.9732 25.6535 14.2799 28.8269 14.8799 32.0002C15.7465 36.5869 19.4132 40.2535 24.0132 41.1202C24.7465 41.2669 25.4799 41.3335 26.2132 41.3335C28.6265 41.3335 30.9599 40.5869 32.9465 39.1335C35.5332 37.2535 37.2532 34.3735 37.6532 31.2402C37.7199 30.7202 37.5599 30.2002 37.2132 29.8135Z" fill="#1B1F3B"/>
</svg>
