<svg width="56" height="56" viewBox="0 0 56 56" fill="none" xmlns="http://www.w3.org/2000/svg">
<rect width="56" height="56" rx="10" fill="#C209C1"/>
<path d="M41.3327 41.3335H14.666C14.1193 41.3335 13.666 40.8802 13.666 40.3335C13.666 39.7868 14.1193 39.3335 14.666 39.3335H41.3327C41.8794 39.3335 42.3327 39.7868 42.3327 40.3335C42.3327 40.8802 41.8794 41.3335 41.3327 41.3335Z" fill="white"/>
<path d="M25 17.3332V41.3332H31V17.3332C31 15.8665 30.4 14.6665 28.6 14.6665H27.4C25.6 14.6665 25 15.8665 25 17.3332Z" fill="white"/>
<path d="M16 25.3332V41.3332H21.3333V25.3332C21.3333 23.8665 20.8 22.6665 19.2 22.6665H18.1333C16.5333 22.6665 16 23.8665 16 25.3332Z" fill="white"/>
<path d="M34.666 32.0002V41.3335H39.9993V32.0002C39.9993 30.5335 39.466 29.3335 37.866 29.3335H36.7993C35.1993 29.3335 34.666 30.5335 34.666 32.0002Z" fill="white"/>
</svg>
