<svg width="28" height="28" viewBox="0 0 28 28" fill="none" xmlns="http://www.w3.org/2000/svg">
<path d="M14.9543 23.6342C14.2773 24.1201 13.4311 24.3274 12.5453 24.1937C11.1063 23.975 10.0286 22.9021 9.79875 21.467L9.32133 18.4863C9.22113 17.8607 8.82272 17.3055 8.25728 17.0036L5.58141 15.5903C4.29537 14.9131 3.62392 13.5487 3.87745 12.1154C4.13098 10.6821 5.21846 9.62471 6.66628 9.42679L17.4769 7.92548C18.6874 7.75424 19.8869 8.26791 20.6011 9.26315C21.3154 10.2584 21.418 11.5592 20.8683 12.6512L15.9852 22.4123C15.7345 22.9205 15.3808 23.3281 14.9543 23.6342ZM5.91421 11.023C5.44706 11.3582 5.19631 11.8664 5.11308 12.3364C4.98483 13.0439 5.20682 13.9821 6.16796 14.4924L8.83898 15.8989C9.75066 16.3832 10.3871 17.2701 10.5541 18.2888L11.0315 21.2695C11.2005 22.3483 12.0251 22.8541 12.7364 22.9591C13.4476 23.0641 14.381 22.8353 14.87 21.8587L19.753 12.0976C20.0992 11.4081 20.0374 10.6216 19.5904 9.99873C19.1434 9.37585 18.4181 9.06553 17.6541 9.17282L6.8337 10.6606C6.46086 10.7128 6.15794 10.8481 5.91421 11.023Z" fill="#1B1F3B"/>
</svg>
