<svg width="44" height="44" viewBox="0 0 44 44" fill="none" xmlns="http://www.w3.org/2000/svg">
<rect width="44" height="44" rx="10" fill="white"/>
<path d="M25 32.75H19C13.57 32.75 11.25 30.43 11.25 25V19C11.25 13.57 13.57 11.25 19 11.25H21C21.41 11.25 21.75 11.59 21.75 12C21.75 12.41 21.41 12.75 21 12.75H19C14.39 12.75 12.75 14.39 12.75 19V25C12.75 29.61 14.39 31.25 19 31.25H25C29.61 31.25 31.25 29.61 31.25 25V23C31.25 22.59 31.59 22.25 32 22.25C32.41 22.25 32.75 22.59 32.75 23V25C32.75 30.43 30.43 32.75 25 32.75Z" fill="black"/>
<path d="M18.4998 27.6896C17.8898 27.6896 17.3298 27.4696 16.9198 27.0696C16.4298 26.5796 16.2198 25.8696 16.3298 25.1196L16.7598 22.1096C16.8398 21.5296 17.2198 20.7796 17.6298 20.3696L25.5098 12.4896C27.4998 10.4996 29.5198 10.4996 31.5098 12.4896C32.5998 13.5796 33.0898 14.6896 32.9898 15.7996C32.8998 16.6996 32.4198 17.5796 31.5098 18.4796L23.6298 26.3596C23.2198 26.7696 22.4698 27.1496 21.8898 27.2296L18.8798 27.6596C18.7498 27.6896 18.6198 27.6896 18.4998 27.6896ZM26.5698 13.5496L18.6898 21.4296C18.4998 21.6196 18.2798 22.0596 18.2398 22.3196L17.8098 25.3296C17.7698 25.6196 17.8298 25.8596 17.9798 26.0096C18.1298 26.1596 18.3698 26.2196 18.6598 26.1796L21.6698 25.7496C21.9298 25.7096 22.3798 25.4896 22.5598 25.2996L30.4398 17.4196C31.0898 16.7696 31.4298 16.1896 31.4798 15.6496C31.5398 14.9996 31.1998 14.3096 30.4398 13.5396C28.8398 11.9396 27.7398 12.3896 26.5698 13.5496Z" fill="black"/>
<path d="M29.8501 19.8303C29.7801 19.8303 29.7101 19.8203 29.6501 19.8003C27.0201 19.0603 24.9301 16.9703 24.1901 14.3403C24.0801 13.9403 24.3101 13.5303 24.7101 13.4103C25.1101 13.3003 25.5201 13.5303 25.6301 13.9303C26.2301 16.0603 27.9201 17.7503 30.0501 18.3503C30.4501 18.4603 30.6801 18.8803 30.5701 19.2803C30.4801 19.6203 30.1801 19.8303 29.8501 19.8303Z" fill="black"/>
</svg>
