<svg width="20" height="20" viewBox="0 0 20 20" fill="none" xmlns="http://www.w3.org/2000/svg">
<path d="M18.3327 2.29199H1.66602C1.32435 2.29199 1.04102 2.00866 1.04102 1.66699C1.04102 1.32533 1.32435 1.04199 1.66602 1.04199H18.3327C18.6743 1.04199 18.9577 1.32533 18.9577 1.66699C18.9577 2.00866 18.6743 2.29199 18.3327 2.29199Z" fill="#FF3B4B"/>
<path d="M13.8909 18.617C13.7826 18.8337 13.5576 18.9587 13.3326 18.9587C13.2409 18.9587 13.1409 18.9337 13.0576 18.892L9.99924 17.367L6.94091 18.892C6.85757 18.9337 6.75757 18.9587 6.66591 18.9587C6.44091 18.9587 6.21591 18.8337 6.10757 18.617C5.94924 18.3003 6.07424 17.9253 6.39091 17.7753L9.37424 16.2837V14.167H10.6242V16.2837L13.6076 17.7753C13.9242 17.9253 14.0492 18.3003 13.8909 18.617Z" fill="#FF3B4B"/>
<path d="M2.5 1.66699V11.7503C2.5 13.3337 3.33333 14.167 4.91667 14.167H15.0833C16.6667 14.167 17.5 13.3337 17.5 11.7503V1.66699H2.5Z" fill="#FF3B4B"/>
</svg>
