<svg width="200" height="61" viewBox="0 0 200 61" fill="none" xmlns="http://www.w3.org/2000/svg">
<path fill-rule="evenodd" clip-rule="evenodd" d="M198.615 8.13194C198.615 4.6678 195.762 1.85318 192.25 1.85318V1.83965H7.73609C4.22468 1.83965 1.37165 4.65426 1.37165 8.1184V52.8681C1.37165 56.3322 4.22468 59.1468 7.73609 59.1468H192.25C195.762 59.1468 198.615 56.3322 198.615 52.8681V8.13194ZM7.73609 0.5H192.25C196.53 0.5 199.986 3.91001 200 8.1184V52.8681C200 57.09 196.53 60.5 192.264 60.5H7.73609C3.45655 60.5 0 57.0765 0 52.8681V8.1184C0 3.91001 3.45655 0.5 7.73609 0.5ZM23.4555 44.0994C19.8755 38.9844 17.8043 30.554 21.0551 25.006C22.7697 22.0831 25.8559 20.2428 29.1341 20.2022H29.2301C30.6292 20.2022 31.9597 20.7164 33.1393 21.1765L33.2155 21.2059C34.0609 21.5318 34.7887 21.8125 35.3614 21.8125C35.8519 21.8125 36.5731 21.5344 37.4135 21.2103L37.5012 21.1765C38.7768 20.6758 40.3405 20.0669 41.9865 20.0669C42.1922 20.0669 42.3979 20.0804 42.6037 20.094C44.0028 20.1616 47.473 20.6488 49.7363 23.9235C49.7911 24.0046 49.8048 24.0858 49.7911 24.167C49.7774 24.2482 49.7225 24.3294 49.654 24.37L49.6265 24.3835C48.9681 24.7895 45.6899 27.0087 45.731 31.19C45.7722 36.3456 50.0929 38.2266 50.5867 38.4295C50.6004 38.4295 50.6141 38.4431 50.6141 38.4431C50.7513 38.5107 50.8336 38.6731 50.7787 38.822L50.765 38.849C50.4907 39.688 49.6951 41.9072 48.1177 44.1806L48.0915 44.218C46.5755 46.3875 44.8646 48.8358 42.0825 48.8896C40.7964 48.9163 39.9245 48.5476 39.0712 48.1867L39.0374 48.1724C38.1733 47.7935 37.268 47.4147 35.8552 47.4147C34.4101 47.4147 33.4741 47.801 32.576 48.1716L32.5084 48.1995L32.457 48.221C31.663 48.5531 30.824 48.904 29.6828 48.9438H29.5456C27.0629 48.9438 25.2523 46.6569 23.4555 44.0994ZM42.6173 11.0953C40.6284 11.1765 38.2555 12.3809 36.829 14.0182C35.6219 15.3985 34.4423 17.6989 34.7441 20.0263C34.7578 20.1752 34.8812 20.2834 35.0321 20.297C35.1693 20.3105 35.3064 20.3105 35.4436 20.3105C37.3776 20.3105 39.4762 19.255 40.9028 17.55C42.4116 15.7503 43.166 13.4363 42.9328 11.3795C42.9191 11.2036 42.7819 11.0953 42.6173 11.0953ZM69.1997 10.9331H65.4414V20.3242H69.1997C70.1873 20.3242 71.0652 20.1212 71.8333 19.7152C72.6014 19.3228 73.1912 18.7545 73.6164 18.0508C74.0416 17.3337 74.2611 16.5353 74.2611 15.6286C74.2611 14.722 74.0416 13.9101 73.6164 13.2065C73.1912 12.5028 72.6014 11.948 71.8333 11.542C71.0652 11.1361 70.1873 10.9331 69.1997 10.9331ZM71.4629 19.1875C70.7908 19.5258 70.0227 19.7017 69.1449 19.7017V19.7288H66.1272V11.5826H69.1449C70.0227 11.5826 70.7908 11.7585 71.4629 12.0968C72.135 12.4351 72.6563 12.9087 73.0129 13.5312C73.3832 14.1401 73.5616 14.8438 73.5616 15.6422C73.5616 16.427 73.3695 17.1307 73.0129 17.7531C72.6426 18.3621 72.135 18.8492 71.4629 19.1875ZM77.3885 19.9046C76.8535 19.6069 76.4283 19.1739 76.1128 18.6326C75.8111 18.0913 75.6465 17.4824 75.6465 16.8058C75.6465 16.1292 75.7974 15.5203 76.1128 14.979C76.4146 14.4377 76.8398 14.0183 77.3885 13.707C77.9234 13.4093 78.5269 13.2469 79.1991 13.2469C79.8712 13.2469 80.4747 13.3958 81.0096 13.707C81.5446 14.0047 81.9698 14.4377 82.2853 14.979C82.587 15.5203 82.7516 16.1292 82.7516 16.8058C82.7516 17.4824 82.6007 18.0913 82.2853 18.6326C81.9835 19.1739 81.5583 19.5934 81.0096 19.9046C80.4747 20.2023 79.8712 20.3647 79.1991 20.3647C78.5407 20.3647 77.9234 20.2158 77.3885 19.9046ZM80.6667 19.3904C81.0919 19.1468 81.4348 18.795 81.6817 18.3484C81.9286 17.9019 82.0521 17.3877 82.0521 16.8193C82.0521 16.251 81.9286 15.7368 81.6817 15.2902C81.4348 14.8437 81.0919 14.4919 80.6667 14.2483C80.2415 14.0047 79.7477 13.8694 79.2128 13.8694C78.6641 13.8694 78.184 13.9912 77.7588 14.2483C77.3336 14.4919 76.9907 14.8437 76.7438 15.2902C76.4969 15.7368 76.3735 16.251 76.3735 16.8193C76.3735 17.3877 76.4969 17.9019 76.7438 18.3484C76.9907 18.795 77.3336 19.1468 77.7588 19.3904C78.184 19.634 78.6778 19.7693 79.2128 19.7693C79.7477 19.7693 80.2278 19.634 80.6667 19.3904ZM92.0924 20.3106L94.7809 13.3147H94.1499L91.7632 19.5393L89.3628 13.3147H88.773L86.3589 19.5529L83.9997 13.3147H83.3413L86.0297 20.3106H86.6607L89.0611 14.2484L91.4478 20.3106H92.0924ZM101.914 14.0318C102.435 14.546 102.682 15.2767 102.682 16.2239V20.3105H102.01V16.2781C102.01 15.4932 101.804 14.8978 101.406 14.4783C101.008 14.0724 100.446 13.8559 99.7189 13.8559C98.8822 13.8559 98.2238 14.0994 97.7438 14.5866C97.2637 15.0737 97.0305 15.7368 97.0305 16.5622V20.2835H96.3584V13.2875H97.0168V14.8031C97.2637 14.3159 97.6203 13.9235 98.1141 13.6529C98.5942 13.3823 99.1703 13.2334 99.8287 13.2334C100.707 13.2605 101.406 13.5176 101.914 14.0318ZM106.166 10.3783H105.494V20.3106H106.166V10.3783ZM109.992 19.9046C109.458 19.6069 109.032 19.1739 108.717 18.6326C108.415 18.0913 108.25 17.4824 108.25 16.8058C108.25 16.1292 108.401 15.5203 108.717 14.979C109.019 14.4377 109.444 14.0183 109.992 13.707C110.527 13.4093 111.131 13.2469 111.803 13.2469C112.475 13.2469 113.079 13.3958 113.614 13.707C114.149 14.0047 114.574 14.4377 114.889 14.979C115.191 15.5203 115.356 16.1292 115.356 16.8058C115.356 17.4824 115.205 18.0913 114.889 18.6326C114.588 19.1739 114.162 19.5934 113.614 19.9046C113.079 20.2023 112.475 20.3647 111.803 20.3647C111.131 20.3647 110.527 20.2158 109.992 19.9046ZM113.257 19.3904C113.682 19.1468 114.025 18.795 114.272 18.3484C114.519 17.9019 114.642 17.3877 114.642 16.8193C114.642 16.251 114.519 15.7368 114.272 15.2902C114.025 14.8437 113.682 14.4919 113.257 14.2483C112.832 14.0047 112.338 13.8694 111.803 13.8694C111.268 13.8694 110.774 13.9912 110.349 14.2483C109.924 14.4919 109.581 14.8437 109.334 15.2902C109.087 15.7368 108.964 16.251 108.964 16.8193C108.964 17.3877 109.087 17.9019 109.334 18.3484C109.581 18.795 109.924 19.1468 110.349 19.3904C110.774 19.634 111.268 19.7693 111.803 19.7693C112.338 19.7693 112.832 19.634 113.257 19.3904ZM122.529 15.8721C122.529 15.0196 122.296 14.3701 121.83 13.9236C121.364 13.4905 120.691 13.2605 119.8 13.2605C119.251 13.2605 118.73 13.3417 118.236 13.5176C117.742 13.6935 117.317 13.9371 116.961 14.2483L117.303 14.7355C117.605 14.4648 117.976 14.2483 118.401 14.0859C118.826 13.9236 119.279 13.8424 119.745 13.8424C120.431 13.8424 120.952 14.0183 121.309 14.3566C121.665 14.6949 121.844 15.1955 121.844 15.8451V16.4134H119.416C118.497 16.4134 117.825 16.5893 117.4 16.9547C116.974 17.3065 116.769 17.7801 116.769 18.362C116.769 18.9574 117.002 19.4445 117.454 19.8099C117.907 20.1752 118.538 20.3647 119.32 20.3647C119.923 20.3647 120.445 20.2564 120.883 20.0264C121.309 19.7964 121.638 19.4716 121.871 19.0656V20.3106H122.529V15.8721ZM121.871 18.2537C121.665 18.7544 121.35 19.1468 120.938 19.4175C120.527 19.6881 120.019 19.8099 119.457 19.8234C118.826 19.8234 118.346 19.6881 118.003 19.431C117.66 19.1604 117.482 18.8085 117.482 18.3485C117.482 17.9154 117.633 17.5636 117.948 17.32C118.25 17.0629 118.757 16.9411 119.457 16.9411H121.871V18.2537ZM131.651 10.3783V20.3106H130.993V18.6598C130.718 19.201 130.32 19.6205 129.813 19.9182C129.305 20.2159 128.729 20.3648 128.085 20.3648C127.426 20.3648 126.823 20.2159 126.288 19.9047C125.753 19.607 125.341 19.1875 125.026 18.6462C124.724 18.1049 124.573 17.496 124.573 16.8059C124.573 16.1158 124.724 15.5069 125.026 14.9656C125.328 14.4243 125.753 14.0048 126.288 13.7071C126.823 13.4094 127.413 13.2606 128.085 13.2606C128.716 13.2606 129.292 13.4094 129.786 13.7071C130.293 14.0048 130.677 14.4108 130.979 14.9385V10.3783H131.651ZM129.58 19.3905C130.005 19.1469 130.348 18.7951 130.595 18.3485C130.842 17.902 130.965 17.3878 130.965 16.8194C130.965 16.2511 130.842 15.7369 130.595 15.2903C130.348 14.8438 130.005 14.492 129.58 14.2484C129.155 14.0048 128.661 13.8695 128.126 13.8695C127.591 13.8695 127.097 13.9913 126.672 14.2484C126.247 14.492 125.904 14.8438 125.657 15.2903C125.41 15.7369 125.286 16.2511 125.286 16.8194C125.286 17.3878 125.41 17.902 125.657 18.3485C125.904 18.7951 126.247 19.1469 126.672 19.3905C127.097 19.634 127.591 19.7694 128.126 19.7694C128.661 19.7694 129.155 19.634 129.58 19.3905ZM137.686 18.6326C138.002 19.1739 138.427 19.6069 138.962 19.9046C139.497 20.2158 140.1 20.3647 140.772 20.3647C141.444 20.3647 142.048 20.2023 142.583 19.9046C143.132 19.5934 143.557 19.1739 143.859 18.6326C144.174 18.0913 144.325 17.4824 144.325 16.8058C144.325 16.1292 144.16 15.5203 143.859 14.979C143.543 14.4377 143.118 14.0047 142.583 13.707C142.048 13.3958 141.444 13.2469 140.772 13.2469C140.1 13.2469 139.497 13.4093 138.962 13.707C138.413 14.0183 137.988 14.4377 137.686 14.979C137.371 15.5203 137.22 16.1292 137.22 16.8058C137.22 17.4824 137.384 18.0913 137.686 18.6326ZM143.255 18.3484C143.008 18.795 142.665 19.1468 142.24 19.3904C141.801 19.634 141.321 19.7693 140.786 19.7693C140.251 19.7693 139.757 19.634 139.332 19.3904C138.907 19.1468 138.564 18.795 138.317 18.3484C138.07 17.9019 137.947 17.3877 137.947 16.8193C137.947 16.251 138.07 15.7368 138.317 15.2902C138.564 14.8437 138.907 14.4919 139.332 14.2483C139.757 13.9912 140.237 13.8694 140.786 13.8694C141.321 13.8694 141.815 14.0047 142.24 14.2483C142.665 14.4919 143.008 14.8437 143.255 15.2902C143.502 15.7368 143.625 16.251 143.625 16.8193C143.625 17.3877 143.502 17.9019 143.255 18.3484ZM151.993 14.0318C152.514 14.546 152.761 15.2767 152.761 16.2239V20.3105H152.089V16.2781C152.089 15.4932 151.883 14.8978 151.485 14.4783C151.087 14.0724 150.525 13.8559 149.798 13.8559C148.961 13.8559 148.303 14.0994 147.823 14.5866C147.343 15.0737 147.11 15.7368 147.11 16.5622V20.2835H146.438V13.2875H147.096V14.8031C147.343 14.3159 147.699 13.9235 148.193 13.6529C148.673 13.3823 149.249 13.2334 149.908 13.2334C150.772 13.2605 151.471 13.5176 151.993 14.0318ZM161.923 20.2294C162.184 20.1482 162.39 20.0264 162.568 19.864L162.266 19.4039C161.978 19.661 161.608 19.7963 161.169 19.7963C160.73 19.7963 160.401 19.6746 160.181 19.4445C159.962 19.2009 159.852 18.8626 159.852 18.4026V13.8965H162.102V13.3146H159.852V11.7855H159.18V13.3146H157.877V13.8965H159.18V18.4567C159.18 19.0521 159.358 19.5122 159.688 19.8505C160.017 20.1888 160.497 20.3511 161.114 20.3511C161.402 20.3511 161.663 20.3105 161.923 20.2294ZM170.016 14.0319C170.537 14.5461 170.784 15.2768 170.784 16.224V20.3106H170.112V16.2782C170.112 15.4933 169.906 14.8979 169.509 14.4784C169.111 14.0725 168.548 13.856 167.821 13.856C166.985 13.856 166.326 14.0995 165.846 14.5867C165.366 15.0738 165.133 15.7369 165.133 16.5623V20.2836H164.461V10.3783H165.133V14.7897C165.38 14.3025 165.737 13.9372 166.217 13.6665C166.697 13.4094 167.259 13.2741 167.917 13.2741C168.809 13.2606 169.509 13.5177 170.016 14.0319ZM173.5 16.9817H179.59L179.618 16.7923C179.618 16.1022 179.467 15.5068 179.179 14.9655C178.891 14.4242 178.479 14.0047 177.972 13.707C177.464 13.4093 176.888 13.2605 176.243 13.2605C175.599 13.2605 175.023 13.4229 174.501 13.7206C173.98 14.0318 173.569 14.4513 173.281 14.9926C172.993 15.5338 172.842 16.1428 172.842 16.8194C172.842 17.5095 172.993 18.1184 173.308 18.6597C173.624 19.201 174.063 19.6204 174.611 19.9181C175.174 20.2294 175.805 20.3782 176.504 20.3782C177.039 20.3782 177.547 20.2835 178.013 20.0805C178.479 19.8911 178.877 19.6069 179.179 19.2416L178.781 18.795C178.52 19.1198 178.191 19.3633 177.793 19.5257C177.396 19.6881 176.97 19.7693 176.504 19.7693C175.942 19.7693 175.448 19.6475 174.995 19.4175C174.543 19.1874 174.186 18.8491 173.925 18.4296C173.665 18.0102 173.514 17.523 173.5 16.9817ZM173.925 15.1008C174.172 14.7084 174.488 14.3972 174.886 14.1807C175.283 13.9641 175.722 13.8559 176.23 13.8424C176.724 13.8424 177.176 13.9641 177.574 14.1807C177.972 14.3972 178.287 14.7084 178.534 15.1008C178.781 15.4932 178.918 15.9398 178.946 16.4405H173.514C173.541 15.9533 173.692 15.4932 173.925 15.1008ZM75.4817 41.0414H67.3615L65.7704 44.7491H62.6567L69.9676 28.7274H72.9441L80.2687 44.7491H77.1139L75.4817 41.0414ZM74.4941 38.7004L71.4353 31.6909L68.3902 38.7004H74.4941ZM94.397 35.3579C93.8621 34.4106 93.1077 33.6799 92.1613 33.1657C91.2011 32.6515 90.1312 32.3809 88.9242 32.3944C88.0737 32.3944 87.2919 32.5433 86.5924 32.8274C85.8928 33.1116 85.303 33.5446 84.8229 34.1265V32.5297H82.0659V49.1874H84.9601V43.2604C85.934 44.3565 87.2507 44.9113 88.9242 44.9113C90.1312 44.9113 91.2148 44.6407 92.1613 44.1265C93.1077 43.6123 93.8621 42.868 94.397 41.9208C94.932 40.96 95.2063 39.864 95.2063 38.6326C95.2063 37.4012 94.932 36.3051 94.397 35.3579ZM92.2573 38.6326C92.2573 39.7828 91.9144 40.7029 91.2285 41.4066C90.5427 42.1102 89.6649 42.4621 88.595 42.4621C87.8954 42.4621 87.2782 42.2997 86.7158 41.9884C86.1672 41.6772 85.7282 41.2307 85.399 40.6488C85.0698 40.0669 84.9052 39.3903 84.9052 38.6326C84.9052 37.8612 85.0698 37.1982 85.399 36.6163C85.7145 36.0345 86.1534 35.5879 86.7158 35.2767C87.2782 34.9654 87.8954 34.8031 88.595 34.8031C89.6649 34.8031 90.5427 35.1549 91.2285 35.8585C91.9144 36.5622 92.2573 37.4824 92.2573 38.6326ZM108.072 33.1657C109.018 33.6799 109.773 34.4106 110.308 35.3579C110.843 36.3051 111.117 37.4012 111.117 38.6326C111.117 39.864 110.843 40.96 110.308 41.9208C109.773 42.868 109.018 43.6123 108.072 44.1265C107.125 44.6407 106.042 44.9113 104.835 44.9113C103.161 44.9113 101.845 44.3565 100.871 43.2604V49.1874H97.9766V32.5297H100.734V34.1265C101.214 33.5446 101.803 33.1116 102.503 32.8274C103.203 32.5433 103.984 32.3944 104.835 32.3944C106.042 32.3809 107.125 32.6515 108.072 33.1657ZM107.153 41.4066C107.839 40.7029 108.182 39.7828 108.182 38.6326C108.182 37.4824 107.839 36.5622 107.153 35.8585C106.467 35.1549 105.589 34.8031 104.519 34.8031C103.82 34.8031 103.203 34.9654 102.64 35.2767C102.078 35.5879 101.639 36.0345 101.323 36.6163C100.994 37.1982 100.83 37.8612 100.83 38.6326C100.83 39.3903 100.994 40.0669 101.323 40.6488C101.653 41.2307 102.092 41.6772 102.64 41.9884C103.203 42.2997 103.82 42.4621 104.519 42.4621C105.575 42.4621 106.453 42.1102 107.153 41.4066ZM119.196 43.0575C119.868 43.6394 120.801 44.0995 121.967 44.4513C123.147 44.8031 124.354 44.979 125.602 44.9926C127.028 44.9926 128.235 44.7896 129.223 44.3566C130.224 43.9236 130.951 43.3552 131.445 42.638C131.925 41.9209 132.172 41.1089 132.172 40.2294C132.172 39.1874 131.898 38.362 131.349 37.7531C130.8 37.1441 130.128 36.684 129.36 36.3863C128.578 36.0886 127.591 35.8045 126.384 35.5338C125.506 35.3309 124.806 35.1279 124.299 34.9655C123.791 34.7896 123.366 34.5596 123.037 34.2754C122.708 33.9777 122.543 33.6123 122.543 33.1522C122.543 32.4892 122.831 31.9614 123.407 31.569C123.997 31.1766 124.875 30.9736 126.068 30.9736C126.795 30.9736 127.55 31.0819 128.318 31.2984C129.086 31.5014 129.827 31.8261 130.54 32.2321L131.486 29.9182C130.787 29.4581 129.964 29.1062 129.004 28.8627C128.043 28.6191 127.07 28.4973 126.082 28.4973C124.655 28.4973 123.462 28.7003 122.475 29.1333C121.487 29.5663 120.76 30.1347 120.266 30.8654C119.786 31.5826 119.539 32.3945 119.539 33.274C119.539 34.3295 119.814 35.155 120.362 35.7774C120.911 36.3999 121.569 36.86 122.337 37.1441C123.105 37.4283 124.107 37.726 125.341 38.0102C126.219 38.2267 126.919 38.4161 127.426 38.5785C127.934 38.7544 128.359 38.9845 128.688 39.2822C129.017 39.5798 129.182 39.9587 129.182 40.4188C129.182 41.0548 128.88 41.5555 128.29 41.9344C127.701 42.3133 126.795 42.5027 125.588 42.5027C124.614 42.5027 123.64 42.3403 122.68 42.0156C121.72 41.6908 120.897 41.2578 120.239 40.7436L119.196 43.0575ZM142.336 44.086C141.993 44.3566 141.581 44.5731 141.101 44.7085C140.607 44.8438 140.1 44.9114 139.565 44.9114C138.207 44.9114 137.151 44.5596 136.41 43.856C135.669 43.1523 135.299 42.1374 135.299 40.7842V34.8979H133.255V32.611H135.299V29.8235H138.193V32.611H141.513V34.8979H138.193V40.7166C138.193 41.312 138.344 41.7721 138.632 42.0833C138.92 42.3945 139.345 42.5569 139.908 42.5569C140.553 42.5569 141.101 42.3945 141.526 42.0562L142.336 44.086ZM144.133 41.8802C144.695 42.841 145.491 43.5852 146.492 44.1129C147.493 44.6407 148.618 44.9113 149.88 44.9113C151.155 44.9113 152.294 44.6407 153.295 44.1129C154.31 43.5717 155.092 42.8274 155.654 41.8802C156.217 40.933 156.505 39.8504 156.505 38.6461C156.505 37.4282 156.217 36.3592 155.654 35.412C155.092 34.4648 154.297 33.7205 153.295 33.1928C152.28 32.665 151.142 32.3944 149.88 32.3944C148.632 32.3944 147.493 32.665 146.492 33.1928C145.477 33.7205 144.695 34.4648 144.133 35.412C143.57 36.3592 143.282 37.4418 143.282 38.6461C143.282 39.8504 143.57 40.933 144.133 41.8802ZM153.556 38.6326C153.556 39.7828 153.213 40.7029 152.513 41.4066C151.828 42.1102 150.936 42.4621 149.866 42.4621C148.796 42.4621 147.918 42.1102 147.233 41.4066C146.547 40.7029 146.204 39.7828 146.204 38.6326C146.204 37.4824 146.547 36.5622 147.233 35.8585C147.918 35.1549 148.796 34.8031 149.866 34.8031C150.936 34.8031 151.814 35.1549 152.513 35.8585C153.213 36.5622 153.556 37.4824 153.556 38.6326ZM166.436 32.381V35.1009C166.189 35.0603 165.97 35.0332 165.764 35.0332C164.639 35.0332 163.747 35.358 163.117 36.0075C162.486 36.657 162.17 37.5907 162.17 38.8086V44.749H159.276V32.5298H162.033V34.316C162.87 33.0305 164.337 32.381 166.436 32.381ZM170.66 39.5528H180.385C180.413 39.1875 180.426 38.9033 180.399 38.6868C180.399 37.4419 180.138 36.3323 179.604 35.385C179.069 34.4378 178.328 33.6936 177.381 33.1658C176.435 32.6381 175.351 32.381 174.144 32.381C172.924 32.381 171.826 32.6516 170.852 33.1794C169.879 33.7206 169.11 34.4649 168.562 35.4121C168.013 36.3729 167.739 37.4419 167.739 38.6327C167.739 39.837 168.027 40.9195 168.589 41.8668C169.152 42.8275 169.947 43.5718 170.99 44.0995C172.018 44.6273 173.225 44.8979 174.583 44.8979C175.653 44.8979 176.613 44.7355 177.464 44.3972C178.314 44.0589 179.014 43.5718 179.576 42.9087L178.026 41.1496C177.148 42.0292 176.024 42.4757 174.666 42.4757C173.609 42.4757 172.704 42.2186 171.991 41.6909C171.278 41.1631 170.825 40.4595 170.66 39.5528ZM170.647 37.6584C170.784 36.7517 171.168 36.0346 171.813 35.4933C172.457 34.952 173.239 34.6814 174.172 34.6814C175.118 34.6814 175.914 34.952 176.545 35.5068C177.176 36.0616 177.56 36.7788 177.683 37.6584H170.647Z" fill="white"/>
</svg>
