<svg width="201" height="61" viewBox="0 0 201 61" fill="none" xmlns="http://www.w3.org/2000/svg">
<path fill-rule="evenodd" clip-rule="evenodd" d="M192.382 1.85318C195.893 1.85318 198.746 4.66779 198.746 8.13194V52.8681C198.746 56.3322 195.893 59.1468 192.382 59.1468H7.86781C4.35639 59.1468 1.50336 56.3322 1.50336 52.8681V8.13194C1.50336 4.66779 4.35639 1.85318 7.86781 1.85318H192.382ZM192.382 0.5H7.86781C3.58827 0.5 0.131714 3.91001 0.131714 8.13194V52.8681C0.131714 57.0765 3.58827 60.5 7.86781 60.5H192.396C196.661 60.5 200.132 57.09 200.132 52.8681V8.13194C200.118 3.91001 196.661 0.5 192.382 0.5ZM62.322 17.6719H56.808L55.6009 20.3106H54.8602L59.2358 10.9331H59.9216L64.2972 20.3106H63.5565L62.322 17.6719ZM62.0614 17.1036L59.565 11.6909L57.0823 17.1036H62.0614ZM67.9324 20.3242L71.1421 13.3282H70.4425L67.5895 19.5799L64.7639 13.3282H64.0507L67.2466 20.3242H67.9324ZM76.8069 13.9371C77.2732 14.3837 77.5064 15.0332 77.5064 15.8857V20.3241H76.848V19.0792C76.6148 19.4851 76.2856 19.8099 75.8604 20.0399C75.4215 20.27 74.9003 20.3782 74.2968 20.3782C73.5149 20.3782 72.8839 20.1888 72.4313 19.8234C71.9787 19.4581 71.7455 18.9709 71.7455 18.3755C71.7455 17.7937 71.9512 17.3201 72.3764 16.9682C72.8017 16.6029 73.4738 16.427 74.3928 16.427H76.8206V15.8586C76.8206 15.2091 76.6423 14.7084 76.2856 14.3701C75.929 14.0318 75.4078 13.8559 74.722 13.8559C74.2556 13.8559 73.803 13.9371 73.3777 14.0995C72.9525 14.2619 72.5822 14.4784 72.2804 14.749L71.9375 14.2619C72.2941 13.9506 72.7194 13.7071 73.2132 13.5312C73.7069 13.3552 74.2282 13.274 74.7768 13.274C75.6684 13.274 76.3405 13.4906 76.8069 13.9371ZM75.9016 19.4175C76.3131 19.1469 76.6286 18.7544 76.8343 18.2537V16.9412H74.4202C73.7207 16.9412 73.2132 17.063 72.9114 17.3201C72.5959 17.5636 72.445 17.9155 72.445 18.3485C72.445 18.8086 72.6233 19.1604 72.9663 19.431C73.3092 19.6881 73.7892 19.8234 74.4202 19.8234C74.9963 19.8234 75.4901 19.6881 75.9016 19.4175ZM80.099 11.0955C80.099 11.2443 80.1539 11.3661 80.2636 11.4743C80.3733 11.5691 80.4968 11.6232 80.6614 11.6232C80.826 11.6232 80.9494 11.5691 81.0592 11.4608C81.1689 11.3526 81.2238 11.2172 81.2238 11.0684C81.2238 10.9195 81.1689 10.7978 81.0592 10.6895C80.9494 10.5948 80.8123 10.5406 80.6614 10.5406C80.4968 10.5406 80.3733 10.5948 80.2636 10.703C80.1539 10.8113 80.099 10.9466 80.099 11.0955ZM80.9906 13.3282H80.3185V20.3241H80.9906V13.3282ZM83.8573 10.3783H84.5294V20.3106H83.8573V10.3783ZM92.5123 15.8857C92.5123 15.0332 92.2791 14.3837 91.8127 13.9371C91.3464 13.4906 90.6743 13.274 89.7827 13.274C89.234 13.274 88.7128 13.3552 88.219 13.5312C87.7252 13.7071 87.3 13.9506 86.9434 14.2619L87.2863 14.749C87.5881 14.4784 87.9584 14.2619 88.3836 14.0995C88.8088 13.9371 89.2615 13.8559 89.7278 13.8559C90.4136 13.8559 90.9349 14.0318 91.2915 14.3701C91.6481 14.7084 91.8264 15.2091 91.8264 15.8586V16.427H89.3986C88.4796 16.427 87.8075 16.6029 87.3823 16.9682C86.9571 17.3201 86.7513 17.7937 86.7513 18.3755C86.7513 18.9709 86.9845 19.4581 87.4372 19.8234C87.8898 20.1888 88.5208 20.3782 89.3026 20.3782C89.9061 20.3782 90.4274 20.27 90.8663 20.0399C91.2915 19.8099 91.6207 19.4851 91.8539 19.0792V20.3241H92.5123V15.8857ZM91.8402 18.2537C91.6344 18.7544 91.3189 19.1469 90.9074 19.4175C90.4959 19.6881 90.0022 19.8234 89.4261 19.8234C88.7951 19.8234 88.315 19.6881 87.9721 19.431C87.6292 19.1604 87.4509 18.8086 87.4509 18.3485C87.4509 17.9155 87.6018 17.5636 87.9172 17.3201C88.219 17.063 88.7265 16.9412 89.4261 16.9412H91.8402V18.2537ZM100.659 13.7207C101.194 14.0183 101.606 14.4378 101.921 14.9791C102.223 15.5204 102.374 16.1293 102.374 16.8194C102.374 17.5096 102.223 18.1185 101.921 18.6598C101.62 19.201 101.194 19.6205 100.659 19.9182C100.124 20.2159 99.5209 20.3783 98.8625 20.3783C98.2316 20.3783 97.6555 20.2294 97.148 19.9317C96.6405 19.634 96.2427 19.2146 95.9547 18.6733V20.3242H95.2963V10.3783H95.9684V14.925C96.2427 14.4108 96.6405 14.0048 97.148 13.7071C97.6555 13.423 98.2179 13.2741 98.8488 13.2741C99.5347 13.2741 100.124 13.423 100.659 13.7207ZM100.303 19.3905C100.742 19.1469 101.085 18.7951 101.332 18.3485C101.578 17.902 101.702 17.3878 101.702 16.8194C101.702 16.2511 101.578 15.7369 101.332 15.2903C101.085 14.8438 100.742 14.492 100.303 14.2484C99.8639 14.0048 99.3838 13.8695 98.8351 13.8695C98.2865 13.8695 97.8064 13.9913 97.3812 14.2484C96.956 14.492 96.613 14.8438 96.3661 15.2903C96.1193 15.7369 95.9958 16.2511 95.9958 16.8194C95.9958 17.3878 96.1193 17.902 96.3661 18.3485C96.613 18.7951 96.956 19.1469 97.3812 19.3905C97.8064 19.634 98.3002 19.7694 98.8351 19.7694C99.3701 19.7694 99.8639 19.6476 100.303 19.3905ZM105.159 10.3783H104.487V20.3106H105.159V10.3783ZM114.006 16.9817H107.916C107.929 17.523 108.08 18.0102 108.341 18.4296C108.601 18.8491 108.958 19.1874 109.411 19.4175C109.863 19.6475 110.357 19.7693 110.92 19.7693C111.386 19.7693 111.811 19.6881 112.209 19.5257C112.607 19.3633 112.936 19.1198 113.196 18.795L113.594 19.2416C113.292 19.6069 112.895 19.8911 112.428 20.0805C111.962 20.2835 111.454 20.3782 110.92 20.3782C110.22 20.3782 109.589 20.2294 109.027 19.9181C108.478 19.6204 108.039 19.201 107.724 18.6597C107.408 18.1184 107.257 17.5095 107.257 16.8194C107.257 16.1428 107.408 15.5338 107.696 14.9926C107.984 14.4513 108.396 14.0318 108.917 13.7206C109.438 13.4229 110.014 13.2605 110.659 13.2605C111.304 13.2605 111.88 13.4093 112.387 13.707C112.895 14.0047 113.306 14.4242 113.594 14.9655C113.882 15.5068 114.033 16.1022 114.033 16.7923L114.006 16.9817ZM109.301 14.1942C108.903 14.4107 108.588 14.7219 108.341 15.1144C108.108 15.5068 107.957 15.9669 107.929 16.454H113.361C113.334 15.9533 113.196 15.5068 112.95 15.1144C112.703 14.7219 112.387 14.4107 111.989 14.1942C111.592 13.9777 111.139 13.8559 110.645 13.8559C110.151 13.8559 109.699 13.9642 109.301 14.1942ZM119.3 18.6462C119.616 19.1874 120.041 19.6204 120.576 19.9181C121.111 20.2158 121.714 20.3647 122.386 20.3782C123.059 20.3782 123.662 20.2158 124.197 19.9181C124.746 19.6069 125.171 19.1874 125.473 18.6462C125.788 18.1049 125.939 17.496 125.939 16.8194C125.939 16.1428 125.774 15.5338 125.473 14.9926C125.157 14.4513 124.732 14.0183 124.197 13.7206C123.662 13.4093 123.059 13.2605 122.386 13.2605C121.714 13.2605 121.111 13.4229 120.576 13.7206C120.027 14.0318 119.602 14.4513 119.3 14.9926C118.985 15.5338 118.834 16.1428 118.834 16.8194C118.834 17.496 118.998 18.1049 119.3 18.6462ZM124.869 18.3485C124.622 18.795 124.279 19.1468 123.854 19.3904C123.415 19.6475 122.935 19.7693 122.4 19.7693C121.865 19.7693 121.371 19.634 120.946 19.3904C120.521 19.1468 120.178 18.795 119.931 18.3485C119.684 17.9019 119.561 17.3877 119.561 16.8194C119.561 16.251 119.684 15.7368 119.931 15.2903C120.178 14.8437 120.521 14.4919 120.946 14.2483C121.371 13.9912 121.865 13.8694 122.4 13.8694C122.935 13.8694 123.429 14.0047 123.854 14.2483C124.279 14.4919 124.622 14.8437 124.869 15.2903C125.116 15.7368 125.239 16.251 125.239 16.8194C125.239 17.3877 125.116 17.9019 124.869 18.3485ZM133.607 14.0318C134.128 14.546 134.375 15.2768 134.375 16.224V20.3106H133.703V16.2781C133.703 15.4933 133.497 14.8979 133.099 14.4784C132.702 14.0724 132.139 13.8559 131.412 13.8559C130.575 13.8559 129.917 14.0995 129.437 14.5866C128.957 15.0738 128.724 15.7368 128.724 16.5623V20.2835H128.052V13.3282H128.71V14.8437C128.957 14.3566 129.314 13.9642 129.807 13.6935C130.287 13.4229 130.864 13.274 131.522 13.274C132.386 13.274 133.086 13.5312 133.607 14.0318ZM143.537 20.2429C143.798 20.1617 144.004 20.0399 144.182 19.8776L143.88 19.4039C143.592 19.661 143.222 19.7964 142.783 19.7964C142.344 19.7964 142.015 19.6746 141.795 19.4445C141.576 19.201 141.466 18.8627 141.466 18.4026V13.8965H143.716V13.3282H141.466V11.7991H140.794V13.3146H139.491V13.8965H140.794V18.4702C140.794 19.0656 140.972 19.5257 141.302 19.864C141.631 20.2023 142.111 20.3647 142.728 20.3647C143.016 20.3647 143.277 20.3241 143.537 20.2429ZM151.63 14.0319C152.151 14.5461 152.398 15.2768 152.398 16.224V20.3106H151.726V16.2782C151.726 15.4933 151.521 14.8979 151.123 14.4784C150.725 14.0725 150.163 13.856 149.436 13.856C148.599 13.856 147.941 14.0995 147.46 14.5867C146.98 15.0738 146.747 15.7369 146.747 16.5623V20.2836H146.075V10.3783H146.747V14.7897C146.994 14.3025 147.351 13.9372 147.831 13.6665C148.311 13.4094 148.873 13.2741 149.532 13.2741C150.409 13.2741 151.123 13.5312 151.63 14.0319ZM155.114 16.9817H161.204L161.232 16.7923C161.232 16.1022 161.081 15.5068 160.793 14.9655C160.505 14.4242 160.093 14.0047 159.586 13.707C159.078 13.4093 158.502 13.2605 157.858 13.2605C157.213 13.2605 156.637 13.4229 156.116 13.7206C155.594 14.0318 155.183 14.4513 154.895 14.9926C154.607 15.5338 154.456 16.1428 154.456 16.8194C154.456 17.5095 154.607 18.1184 154.922 18.6597C155.238 19.201 155.677 19.6204 156.225 19.9181C156.788 20.2294 157.419 20.3782 158.118 20.3782C158.653 20.3782 159.161 20.2835 159.627 20.0805C160.093 19.8911 160.491 19.6069 160.793 19.2416L160.395 18.795C160.135 19.1198 159.805 19.3633 159.408 19.5257C159.01 19.6881 158.585 19.7693 158.118 19.7693C157.556 19.7693 157.062 19.6475 156.609 19.4175C156.157 19.1874 155.8 18.8491 155.54 18.4296C155.279 18.0102 155.128 17.523 155.114 16.9817ZM155.54 15.1144C155.786 14.7219 156.102 14.4107 156.5 14.1942C156.897 13.9642 157.336 13.8559 157.844 13.8559C158.338 13.8559 158.79 13.9777 159.188 14.1942C159.586 14.4107 159.901 14.7219 160.148 15.1144C160.395 15.5068 160.532 15.9533 160.56 16.454H155.128C155.155 15.9669 155.306 15.5068 155.54 15.1144ZM65.6829 36.7382H68.4536V42.9899C67.6306 43.6259 66.6842 44.1266 65.6006 44.4649C64.517 44.8032 63.3923 44.9791 62.2401 44.9791C60.6215 44.9791 59.1676 44.6272 57.8645 43.9371C56.5614 43.247 55.5464 42.2862 54.8057 41.0684C54.065 39.8505 53.6947 38.4703 53.6947 36.9276C53.6947 35.3986 54.065 34.0183 54.8057 32.7869C55.5464 31.569 56.5752 30.6083 57.8782 29.9182C59.1813 29.228 60.6627 28.8762 62.2949 28.8762C63.6254 28.8762 64.8325 29.0927 65.9298 29.5257C67.0134 29.9588 67.9324 30.5948 68.6731 31.4337L66.8077 33.2199C65.6006 32.0291 64.1329 31.4337 62.4321 31.4337C61.3074 31.4337 60.3198 31.6638 59.4556 32.1239C58.5915 32.5839 57.9057 33.2335 57.4119 34.0724C56.9181 34.9114 56.6712 35.8586 56.6712 36.9412C56.6712 37.9831 56.9181 38.9304 57.4119 39.7558C57.9057 40.5948 58.5778 41.2443 59.4556 41.7179C60.3198 42.1915 61.3074 42.4351 62.4184 42.4351C63.6529 42.4351 64.7502 42.1644 65.6829 41.6232V36.7382ZM71.8961 41.9479C72.4448 42.8816 73.2129 43.5988 74.2005 44.1265C75.1743 44.6407 76.2854 44.9113 77.5061 44.9113C78.7406 44.9113 79.8517 44.6542 80.8393 44.1265C81.8268 43.6123 82.595 42.8816 83.1436 41.9479C83.6923 41.0142 83.9666 39.9587 83.9666 38.7814C83.9666 37.6042 83.6923 36.5487 83.1436 35.6285C82.595 34.7084 81.8268 33.9912 80.8393 33.4634C79.8517 32.9357 78.7406 32.6786 77.5061 32.6786C76.2854 32.6786 75.1881 32.9357 74.2005 33.4634C73.2129 33.9776 72.4448 34.7084 71.8961 35.6285C71.3475 36.5487 71.0731 37.6042 71.0731 38.7814C71.0731 39.9587 71.3475 41.0142 71.8961 41.9479ZM81.1136 38.7814C81.1136 39.9046 80.7844 40.7977 80.0986 41.4878C79.4127 42.1779 78.5486 42.5162 77.5199 42.5162C76.4774 42.5162 75.6133 42.1779 74.9412 41.4878C74.2691 40.7977 73.9261 39.9046 73.9261 38.7814C73.9261 37.6583 74.2691 36.7652 74.9412 36.0751C75.6133 35.3849 76.4774 35.0467 77.5199 35.0467C78.5623 35.0467 79.4127 35.3849 80.0986 36.0751C80.7707 36.7652 81.1136 37.6583 81.1136 38.7814ZM88.8225 44.1265C87.835 43.5988 87.0668 42.8816 86.5182 41.9479C85.9695 41.0142 85.6952 39.9587 85.6952 38.7814C85.6952 37.6042 85.9695 36.5487 86.5182 35.6285C87.0668 34.7084 87.835 33.9776 88.8225 33.4634C89.8101 32.9357 90.9075 32.6786 92.1282 32.6786C93.3627 32.6786 94.4737 32.9357 95.4613 33.4634C96.4489 33.9912 97.217 34.7084 97.7657 35.6285C98.3144 36.5487 98.5887 37.6042 98.5887 38.7814C98.5887 39.9587 98.3144 41.0142 97.7657 41.9479C97.217 42.8816 96.4489 43.6123 95.4613 44.1265C94.4737 44.6542 93.3627 44.9113 92.1282 44.9113C90.9075 44.9113 89.8101 44.6407 88.8225 44.1265ZM94.7206 41.4878C95.4065 40.7977 95.7357 39.9046 95.7357 38.7814C95.7357 37.6583 95.3927 36.7652 94.7206 36.0751C94.0348 35.3849 93.1844 35.0467 92.1419 35.0467C91.0995 35.0467 90.2353 35.3849 89.5632 36.0751C88.8911 36.7652 88.5482 37.6583 88.5482 38.7814C88.5482 39.9046 88.8911 40.7977 89.5632 41.4878C90.2353 42.1779 91.0995 42.5162 92.1419 42.5162C93.1707 42.5162 94.0348 42.1779 94.7206 41.4878ZM113.334 42.9357V32.8275H110.632V34.4107C110.151 33.8288 109.548 33.3958 108.835 33.1116C108.121 32.8275 107.326 32.6921 106.448 32.6921C105.31 32.6921 104.267 32.9357 103.334 33.4093C102.415 33.8965 101.675 34.5731 101.14 35.4391C100.605 36.3051 100.33 37.3065 100.33 38.4432C100.33 39.5798 100.605 40.5812 101.14 41.4607C101.675 42.3403 102.402 43.0169 103.334 43.504C104.253 43.9912 105.296 44.2348 106.448 44.2348C107.285 44.2348 108.039 44.0994 108.739 43.8288C109.438 43.5582 110.028 43.1658 110.508 42.638V43.2605C110.508 44.4919 110.193 45.3985 109.575 45.9939C108.958 46.5893 107.984 46.887 106.654 46.887C105.831 46.887 105.008 46.7517 104.198 46.4946C103.389 46.2375 102.731 45.8856 102.196 45.4526L100.92 47.5501C101.592 48.0913 102.456 48.5243 103.499 48.8085C104.541 49.0927 105.639 49.2415 106.805 49.2415C111.153 49.2415 113.334 47.1441 113.334 42.9357ZM110.536 38.4161C110.536 39.431 110.193 40.2564 109.507 40.8924C108.821 41.5284 107.943 41.8396 106.859 41.8396C105.776 41.8396 104.884 41.5284 104.198 40.8924C103.513 40.2564 103.17 39.431 103.17 38.4161C103.17 37.4147 103.513 36.6028 104.198 35.9804C104.884 35.3579 105.776 35.0467 106.859 35.0467C107.943 35.0467 108.821 35.3579 109.507 35.9804C110.193 36.6028 110.536 37.4147 110.536 38.4161ZM117.051 28.1591H119.89V44.749H117.051V28.1591ZM125.432 39.6746H134.937C134.958 39.4938 134.971 39.3361 134.983 39.1984V39.1983L134.983 39.1978C134.996 39.0576 135.006 38.938 135.02 38.8357C135.02 37.6178 134.759 36.5353 134.238 35.6016C133.717 34.6679 132.99 33.9507 132.057 33.4365C131.124 32.9223 130.068 32.6652 128.888 32.6652C127.695 32.6652 126.611 32.9223 125.665 33.45C124.705 33.9642 123.964 34.6949 123.429 35.6286C122.894 36.5623 122.62 37.6043 122.62 38.768C122.62 39.9453 122.894 41.0008 123.443 41.9344C123.992 42.8681 124.773 43.5853 125.788 44.1131C126.804 44.6408 127.969 44.8979 129.3 44.8979C130.342 44.8979 131.275 44.7355 132.112 44.4108C132.935 44.086 133.621 43.5989 134.169 42.9629L132.647 41.2443C131.783 42.1104 130.685 42.5434 129.355 42.5434C128.312 42.5434 127.434 42.2863 126.735 41.7721C126.035 41.2579 125.596 40.5542 125.432 39.6746ZM125.432 37.8072C125.555 36.9277 125.939 36.224 126.57 35.6963C127.188 35.1685 127.956 34.9114 128.875 34.8979C129.807 34.8979 130.576 35.1685 131.193 35.7098C131.81 36.2376 132.18 36.9412 132.304 37.8072H125.432ZM154.36 29.7692C155.375 30.2158 156.157 30.8518 156.705 31.6908C157.254 32.5297 157.528 33.5176 157.528 34.6678C157.528 35.8044 157.254 36.7922 156.705 37.6312C156.157 38.4702 155.375 39.1197 154.36 39.5663C153.345 40.0128 152.138 40.2429 150.766 40.2429H147.186V44.7489H144.237V29.0927H150.766C152.152 29.0927 153.345 29.3227 154.36 29.7692ZM153.564 36.9682C154.223 36.4269 154.566 35.6691 154.566 34.6678C154.566 33.6664 154.236 32.8951 153.564 32.3673C152.892 31.8261 151.918 31.5554 150.643 31.5554H147.2V37.7801H150.643C151.918 37.7665 152.892 37.5094 153.564 36.9682ZM163.262 28.1591H160.422V44.749H163.262V28.1591ZM175.703 33.9371C176.649 34.7761 177.116 36.0481 177.116 37.7531V44.749H174.441V43.3011C174.098 43.8289 173.604 44.2213 172.96 44.4919C172.315 44.7626 171.547 44.9114 170.642 44.9114C169.736 44.9114 168.941 44.7625 168.255 44.4513C167.569 44.1401 167.048 43.7206 166.677 43.1793C166.307 42.6381 166.115 42.0156 166.115 41.339C166.115 40.27 166.513 39.404 167.322 38.7544C168.131 38.1049 169.407 37.7801 171.149 37.7801H174.276V37.6042C174.276 36.7653 174.03 36.1293 173.522 35.6827C173.014 35.2362 172.26 35.0061 171.273 35.0061C170.587 35.0061 169.928 35.1144 169.27 35.3174C168.612 35.5203 168.063 35.818 167.596 36.1834L166.485 34.1536C167.116 33.68 167.885 33.3146 168.776 33.0575C169.668 32.8004 170.614 32.6787 171.615 32.6787C173.385 32.6651 174.757 33.0981 175.703 33.9371ZM173.111 42.3945C173.659 42.0697 174.057 41.6096 174.276 41.0142V39.634H171.355C169.723 39.634 168.9 40.1617 168.9 41.2172C168.9 41.7179 169.105 42.1238 169.517 42.4215C169.928 42.7192 170.491 42.8681 171.218 42.8681C171.931 42.8681 172.562 42.7057 173.111 42.3945ZM186.196 45.7099L191.861 32.8005H189.131L185.304 41.6368L181.491 32.8276H178.542L183.823 44.8168L183.617 45.2904C183.343 45.8858 183.055 46.3053 182.725 46.5624C182.396 46.8195 181.985 46.9413 181.491 46.9413C181.107 46.9413 180.736 46.8601 180.366 46.7112C179.996 46.5624 179.68 46.3594 179.406 46.1023L178.267 48.1591C178.652 48.511 179.132 48.7816 179.721 48.971C180.311 49.1605 180.915 49.2552 181.518 49.2552C182.588 49.2552 183.507 48.9846 184.262 48.4568C185.03 47.9156 185.661 47.0089 186.196 45.7099ZM48.2491 29.7286L40.6365 25.3984L34.368 31.3795L40.1015 36.8463L48.2628 32.2049C48.7155 31.9478 48.9761 31.4877 48.9761 30.9735C48.9761 30.4458 48.7018 29.9857 48.2491 29.7286ZM30.9522 19.8774L39.333 24.6541L33.3389 30.3916L12.5858 10.5946L30.9522 19.8774ZM12.8881 51.8532L30.9801 42.0156L38.7985 37.5772L33.3393 32.3539L12.8881 51.8532ZM11.3378 51.366L11.3515 11.3931L32.2966 31.366L11.3378 51.366Z" fill="white"/>
</svg>
