<svg width="29" height="32" viewBox="0 0 29 32" fill="none" xmlns="http://www.w3.org/2000/svg">
<g clip-path="url(#clip0_476_22897)">
<path d="M11.6604 1.13281L11.4973 1.23027C11.2405 1.38385 10.9958 1.55514 10.7663 1.7412L11.2375 1.41929H15.225L15.95 6.78549L12.325 10.3295L8.7 12.7926V15.6337C8.7 17.6183 9.76031 19.4582 11.4973 20.4831L15.3126 22.7424L7.25 27.3407H5.69427L2.79729 25.6248C1.06031 24.597 0 22.7601 0 20.7754V11.2244C0 9.23971 1.06031 7.39683 2.79729 6.37203L11.4973 1.22732C11.5517 1.19385 11.606 1.16235 11.6604 1.13281Z" fill="url(#paint0_radial_476_22897)"/>
<path d="M11.6604 1.13281L11.4973 1.23027C11.2405 1.38385 10.9958 1.55514 10.7663 1.7412L11.2375 1.41929H15.225L15.95 6.78549L12.325 10.3295L8.7 12.7926V15.6337C8.7 17.6183 9.76031 19.4582 11.4973 20.4831L15.3126 22.7424L7.25 27.3407H5.69427L2.79729 25.6248C1.06031 24.597 0 22.7601 0 20.7754V11.2244C0 9.23971 1.06031 7.39683 2.79729 6.37203L11.4973 1.22732C11.5517 1.19385 11.606 1.16235 11.6604 1.13281Z" fill="url(#paint1_linear_476_22897)"/>
<path d="M28.2753 17.4186L29.0003 18.4818V20.7766C29.0003 22.7583 27.94 24.5982 26.203 25.6259L17.503 30.7766C15.6573 31.8693 13.3433 31.8693 11.4976 30.7766L3 25.747C4.80948 26.7246 7.02375 26.6862 8.80302 25.6319L17.503 20.4842C19.24 19.4564 20.3003 17.6165 20.3003 15.6319V12.457L28.2753 17.4186Z" fill="url(#paint2_radial_476_22897)"/>
<path d="M28.2753 17.4186L29.0003 18.4818V20.7766C29.0003 22.7583 27.94 24.5982 26.203 25.6259L17.503 30.7766C15.6573 31.8693 13.3433 31.8693 11.4976 30.7766L3 25.747C4.80948 26.7246 7.02375 26.6862 8.80302 25.6319L17.503 20.4842C19.24 19.4564 20.3003 17.6165 20.3003 15.6319V12.457L28.2753 17.4186Z" fill="url(#paint3_linear_476_22897)"/>
<path d="M28.9992 11.2229V20.774C28.9992 20.8351 28.9982 20.8971 28.9962 20.9601C28.9328 19.0463 27.8845 17.2891 26.2019 16.2938L17.5019 11.1491C15.6562 10.0564 13.3422 10.0564 11.4965 11.1491L8.69922 12.803V6.08119C8.69922 4.09655 9.75953 2.25662 11.4965 1.22886L11.6687 1.12549C13.4872 0.133172 15.7136 0.168612 17.5019 1.22591L26.2019 6.37061C27.9389 7.39542 28.9992 9.2383 28.9992 11.2229Z" fill="url(#paint4_radial_476_22897)"/>
<path d="M28.9992 11.2229V20.774C28.9992 20.8351 28.9982 20.8971 28.9962 20.9601C28.9328 19.0463 27.8845 17.2891 26.2019 16.2938L17.5019 11.1491C15.6562 10.0564 13.3422 10.0564 11.4965 11.1491L8.69922 12.803V6.08119C8.69922 4.09655 9.75953 2.25662 11.4965 1.22886L11.6687 1.12549C13.4872 0.133172 15.7136 0.168612 17.5019 1.22591L26.2019 6.37061C27.9389 7.39542 28.9992 9.2383 28.9992 11.2229Z" fill="url(#paint5_linear_476_22897)"/>
</g>
<defs>
<radialGradient id="paint0_radial_476_22897" cx="0" cy="0" r="1" gradientUnits="userSpaceOnUse" gradientTransform="translate(9.72708 6.52855) scale(24.1908 23.6503)">
<stop offset="0.064" stop-color="#AE7FE2"/>
<stop offset="1" stop-color="#0078D4"/>
</radialGradient>
<linearGradient id="paint1_linear_476_22897" x1="9.79656" y1="25.8286" x2="6.45936" y2="19.9274" gradientUnits="userSpaceOnUse">
<stop stop-color="#114A8B"/>
<stop offset="1" stop-color="#0078D4" stop-opacity="0"/>
</linearGradient>
<radialGradient id="paint2_radial_476_22897" cx="0" cy="0" r="1" gradientUnits="userSpaceOnUse" gradientTransform="translate(4.66146 24.7547) scale(22.5112 22.0082)">
<stop offset="0.134" stop-color="#D59DFF"/>
<stop offset="1" stop-color="#5E438F"/>
</radialGradient>
<linearGradient id="paint3_linear_476_22897" x1="26.3601" y1="16.9756" x2="22.7712" y2="22.2378" gradientUnits="userSpaceOnUse">
<stop stop-color="#493474"/>
<stop offset="1" stop-color="#8C66BA" stop-opacity="0"/>
</linearGradient>
<radialGradient id="paint4_radial_476_22897" cx="0" cy="0" r="1" gradientUnits="userSpaceOnUse" gradientTransform="translate(26.8635 17.7734) scale(18.0676 17.6639)">
<stop offset="0.058" stop-color="#50E6FF"/>
<stop offset="1" stop-color="#436DCD"/>
</radialGradient>
<linearGradient id="paint5_linear_476_22897" x1="9.40609" y1="1.15503" x2="14.8527" y2="1.15503" gradientUnits="userSpaceOnUse">
<stop stop-color="#2D3F80"/>
<stop offset="1" stop-color="#436DCD" stop-opacity="0"/>
</linearGradient>
<clipPath id="clip0_476_22897">
<rect width="29" height="32" fill="white"/>
</clipPath>
</defs>
</svg>
