<svg width="37" height="27" viewBox="0 0 37 27" fill="none" xmlns="http://www.w3.org/2000/svg">
<path d="M5.87334 26.8337H0.886719L9.97681 3.82081C10.4624 2.59373 11.1467 1.73081 12.029 1.23206C12.9113 0.73331 14.0425 0.484375 15.4235 0.484375C16.8045 0.484375 17.897 0.73331 18.7793 1.23206C19.6615 1.73081 20.3327 2.59373 20.7927 3.82081L29.538 26.8337H24.5136L16.6506 6.00669C16.421 5.4191 15.9988 5.12442 15.3848 5.12442C14.7708 5.12442 14.3363 5.41822 14.0803 6.00669L5.87246 26.8337H5.87334Z" fill="#1B1F3C"/>
<path d="M37.0062 0.945312V26.8355H32.4805V0.945312H37.0062Z" fill="#1B1F3C"/>
<path d="M15.4696 21.4C17.1247 21.4 18.4665 20.0583 18.4665 18.4031C18.4665 16.748 17.1247 15.4062 15.4696 15.4062C13.8144 15.4062 12.4727 16.748 12.4727 18.4031C12.4727 20.0583 13.8144 21.4 15.4696 21.4Z" fill="#C208C1"/>
</svg>
