<svg width="16" height="16" viewBox="0 0 16 16" fill="none" xmlns="http://www.w3.org/2000/svg">
<path d="M12.6667 14.6665C12.6667 15.0347 12.3683 15.3332 12.0001 15.3332C11.6319 15.3332 11.3334 15.0347 11.3334 14.6665C11.3334 14.2983 11.6319 13.9998 12.0001 13.9998C12.3683 13.9998 12.6667 14.2983 12.6667 14.6665Z" fill="#C209C1"/>
<path d="M15.3334 11.9998C15.3334 12.368 15.0349 12.6665 14.6667 12.6665C14.2986 12.6665 14.0001 12.368 14.0001 11.9998C14.0001 11.6316 14.2986 11.3332 14.6667 11.3332C15.0349 11.3332 15.3334 11.6316 15.3334 11.9998Z" fill="#C209C1"/>
<path d="M2.00008 3.99984C2.00008 4.36803 1.7016 4.6665 1.33341 4.6665C0.965225 4.6665 0.666748 4.36803 0.666748 3.99984C0.666748 3.63165 0.965225 3.33317 1.33341 3.33317C1.7016 3.33317 2.00008 3.63165 2.00008 3.99984Z" fill="#C209C1"/>
<path d="M4.66675 1.33317C4.66675 1.70136 4.36827 1.99984 4.00008 1.99984C3.63189 1.99984 3.33341 1.70136 3.33341 1.33317C3.33341 0.964981 3.63189 0.666504 4.00008 0.666504C4.36827 0.666504 4.66675 0.964981 4.66675 1.33317Z" fill="#C209C1"/>
<path fill-rule="evenodd" clip-rule="evenodd" d="M8.00008 4.32178L7.56528 6.11489C7.39148 6.83162 6.83187 7.39124 6.11513 7.56504L4.32203 7.99984L6.11513 8.43464C6.83187 8.60844 7.39148 9.16805 7.56528 9.88479L8.00008 11.6779L8.43488 9.88479C8.60868 9.16805 9.16829 8.60844 9.88503 8.43464L11.6781 7.99984L9.88503 7.56504C9.16829 7.39124 8.60868 6.83162 8.43488 6.11489L8.00008 4.32178ZM8.87024 3.35088C8.64897 2.43838 7.35119 2.43838 7.12992 3.35088L6.52109 5.86169C6.44209 6.18748 6.18772 6.44184 5.86193 6.52084L3.35112 7.12968C2.43862 7.35095 2.43862 8.64873 3.35112 8.87L5.86193 9.47883C6.18772 9.55783 6.44209 9.8122 6.52109 10.138L7.12992 12.6488C7.35119 13.5613 8.64897 13.5613 8.87024 12.6488L9.47908 10.138C9.55807 9.8122 9.81244 9.55783 10.1382 9.47883L12.649 8.87C13.5615 8.64873 13.5615 7.35095 12.649 7.12968L10.1382 6.52084C9.81244 6.44184 9.55807 6.18748 9.47907 5.86169L8.87024 3.35088Z" fill="#C209C1"/>
<path fill-rule="evenodd" clip-rule="evenodd" d="M6.00316 14.8763C5.88729 15.1868 5.54169 15.3445 5.23124 15.2286C3.22028 14.4781 1.60496 12.9199 0.779904 10.9484C0.65198 10.6427 0.796081 10.2912 1.10176 10.1633C1.40745 10.0354 1.75896 10.1795 1.88688 10.4851C2.58422 12.1515 3.95111 13.47 5.65085 14.1044C5.9613 14.2202 6.11904 14.5659 6.00316 14.8763Z" fill="#C209C1"/>
<path fill-rule="evenodd" clip-rule="evenodd" d="M14.877 6.01368C14.5666 6.12979 14.2209 5.97232 14.1048 5.66196C13.4654 3.95286 12.1315 2.58032 10.4463 1.88817C10.1398 1.76228 9.99335 1.41173 10.1192 1.10521C10.2451 0.798685 10.5957 0.652258 10.9022 0.778156C12.8952 1.59673 14.4718 3.21849 15.2287 5.24148C15.3448 5.55184 15.1873 5.89757 14.877 6.01368Z" fill="#C209C1"/>
</svg>
