<svg width="160" height="42" viewBox="0 0 160 42" fill="none" xmlns="http://www.w3.org/2000/svg">
<path d="M7.47874 40.4169H0L13.6345 5.89898C14.3629 4.05814 15.3895 2.76382 16.7124 2.01603C18.0354 1.26824 19.7331 0.894348 21.8038 0.894348C23.8745 0.894348 25.5141 1.26824 26.8379 2.01603C28.1608 2.76382 29.168 4.05814 29.8585 5.89898L42.9752 40.4169H35.4383L23.6446 9.17814C23.2994 8.29645 22.6669 7.85519 21.7465 7.85519C20.8261 7.85519 20.1735 8.29645 19.7903 9.17814L7.47874 40.4169Z" fill="#BEFE00"/>
<path d="M54.0942 40.4169H47.3633V9.58065C47.3633 6.97265 48.1296 4.87328 49.6648 3.28086C51.1982 1.68928 53.5384 0.893494 56.6837 0.893494C59.445 0.893494 61.6311 1.55539 63.242 2.87834C64.853 4.20128 65.9258 6.09097 66.4639 8.54486L71.9292 32.3049C72.2744 33.7625 73.1376 34.491 74.5178 34.491C75.898 34.491 76.7233 33.7625 77.1064 32.3049L82.5717 8.54486C83.1081 6.09097 84.1338 4.20128 85.6496 2.87834C87.1645 1.55539 89.322 0.893494 92.122 0.893494C95.2664 0.893494 97.6058 1.69013 99.141 3.28086C100.674 4.87244 101.442 6.97265 101.442 9.58065V40.4169H94.7115V9.92591C94.7115 9.15876 94.4715 8.55497 93.9923 8.11371C93.5123 7.67328 92.8319 7.45181 91.9502 7.45181C91.1443 7.45181 90.5313 7.6337 90.1094 7.99834C89.6867 8.36297 89.3995 8.8716 89.2462 9.52255L83.6656 33.2825C83.0517 35.8527 82.0353 37.7988 80.6163 39.1217C79.1974 40.4447 77.1443 41.1065 74.4605 41.1065C71.7768 41.1065 69.637 40.4354 68.1608 39.0931C66.6837 37.7508 65.658 35.8139 65.0829 33.2825L59.5603 9.52255C59.4062 8.87076 59.109 8.36297 58.6685 7.99834C58.2273 7.63455 57.6235 7.45181 56.8563 7.45181C55.9738 7.45181 55.2934 7.67244 54.8142 8.11371C54.3342 8.55497 54.0951 9.15876 54.0951 9.92591V40.416L54.0942 40.4169Z" fill="#BEFE00"/>
<path d="M113.303 40.4169H105.825L119.459 5.89898C120.188 4.05814 121.214 2.76382 122.537 2.01603C123.86 1.26824 125.558 0.894348 127.628 0.894348C129.699 0.894348 131.339 1.26824 132.663 2.01603C133.986 2.76382 134.993 4.05814 135.683 5.89898L148.8 40.4169H141.263L129.469 9.17814C129.124 8.29645 128.492 7.85519 127.571 7.85519C126.651 7.85519 125.998 8.29645 125.615 9.17814L113.303 40.4169Z" fill="#BEFE00"/>
<path d="M160 1.58405V40.4169H153.212V1.58405H160Z" fill="#BEFE00"/>
<path d="M127.549 31.0156C129.913 31.0156 131.83 29.0992 131.83 26.7352C131.83 24.3712 129.913 22.4548 127.549 22.4548C125.185 22.4548 123.269 24.3712 123.269 26.7352C123.269 29.0992 125.185 31.0156 127.549 31.0156Z" fill="#C208C1"/>
<path d="M21.5612 31.0156C23.9252 31.0156 25.8416 29.0992 25.8416 26.7352C25.8416 24.3712 23.9252 22.4548 21.5612 22.4548C19.1972 22.4548 17.2808 24.3712 17.2808 26.7352C17.2808 29.0992 19.1972 31.0156 21.5612 31.0156Z" fill="white"/>
</svg>
