<svg width="48" height="49" viewBox="0 0 48 49" fill="none" xmlns="http://www.w3.org/2000/svg">
<g filter="url(#filter0_d_9571_36340)">
<rect x="4" y="2.07812" width="40" height="40" rx="8" fill="white" shape-rendering="crispEdges"/>
<rect x="4.5" y="2.57812" width="39" height="39" rx="7.5" stroke="#DEDEDE" shape-rendering="crispEdges"/>
<path d="M32.97 18.0781H30.03C28.76 18.0781 28 17.3181 28 16.0481V13.1081C28 11.8381 28.76 11.0781 30.03 11.0781H32.97C34.24 11.0781 35 11.8381 35 13.1081V16.0481C35 17.3181 34.24 18.0781 32.97 18.0781ZM33.19 14.7681C33.07 14.6481 32.91 14.5881 32.75 14.5881C32.59 14.5881 32.43 14.6481 32.31 14.7681L32.13 14.9481V12.7081C32.13 12.3581 31.85 12.0781 31.5 12.0781C31.15 12.0781 30.87 12.3581 30.87 12.7081V14.9481L30.69 14.7681C30.45 14.5281 30.05 14.5281 29.81 14.7681C29.57 15.0081 29.57 15.4081 29.81 15.6481L31.06 16.8981C31.11 16.9481 31.18 16.9881 31.25 17.0181C31.27 17.0281 31.29 17.0281 31.31 17.0381C31.36 17.0581 31.41 17.0681 31.47 17.0681C31.49 17.0681 31.51 17.0681 31.53 17.0681C31.6 17.0681 31.66 17.0581 31.73 17.0281C31.74 17.0281 31.74 17.0281 31.75 17.0281C31.82 16.9981 31.88 16.9581 31.93 16.9081C31.94 16.8981 31.94 16.8981 31.95 16.8981L33.2 15.6481C33.44 15.4081 33.44 15.0081 33.19 14.7681Z" fill="#1B1F3B"/>
<path d="M20.9991 20.4553C22.3136 20.4553 23.3791 19.3898 23.3791 18.0753C23.3791 16.7609 22.3136 15.6953 20.9991 15.6953C19.6847 15.6953 18.6191 16.7609 18.6191 18.0753C18.6191 19.3898 19.6847 20.4553 20.9991 20.4553Z" fill="#1B1F3B"/>
<path d="M32.97 18.0781H32.5V22.6881L32.37 22.5781C31.59 21.9081 30.33 21.9081 29.55 22.5781L25.39 26.1481C24.61 26.8181 23.35 26.8181 22.57 26.1481L22.23 25.8681C21.52 25.2481 20.39 25.1881 19.59 25.7281L15.85 28.2381C15.63 27.6781 15.5 27.0281 15.5 26.2681V17.8881C15.5 15.0681 16.99 13.5781 19.81 13.5781H28V13.1081C28 12.7081 28.07 12.3681 28.23 12.0781H19.81C16.17 12.0781 14 14.2481 14 17.8881V26.2681C14 27.3581 14.19 28.3081 14.56 29.1081C15.42 31.0081 17.26 32.0781 19.81 32.0781H28.19C31.83 32.0781 34 29.9081 34 26.2681V17.8481C33.71 18.0081 33.37 18.0781 32.97 18.0781Z" fill="#1B1F3B"/>
</g>
<defs>
<filter id="filter0_d_9571_36340" x="0" y="0.078125" width="48" height="48" filterUnits="userSpaceOnUse" color-interpolation-filters="sRGB">
<feFlood flood-opacity="0" result="BackgroundImageFix"/>
<feColorMatrix in="SourceAlpha" type="matrix" values="0 0 0 0 0 0 0 0 0 0 0 0 0 0 0 0 0 0 127 0" result="hardAlpha"/>
<feOffset dy="2"/>
<feGaussianBlur stdDeviation="2"/>
<feComposite in2="hardAlpha" operator="out"/>
<feColorMatrix type="matrix" values="0 0 0 0 0.0980392 0 0 0 0 0.129412 0 0 0 0 0.239216 0 0 0 0.08 0"/>
<feBlend mode="normal" in2="BackgroundImageFix" result="effect1_dropShadow_9571_36340"/>
<feBlend mode="normal" in="SourceGraphic" in2="effect1_dropShadow_9571_36340" result="shape"/>
</filter>
</defs>
</svg>
