<svg width="26" height="26" viewBox="0 0 26 26" fill="none" xmlns="http://www.w3.org/2000/svg">
<path d="M6.33855 13.0003C9.83924 13.0003 12.6771 10.1632 12.6771 6.66348C12.6771 3.16375 9.83924 0.32666 6.33855 0.32666C2.83787 0.32666 0 3.16375 0 6.66348C0 10.1632 2.83787 13.0003 6.33855 13.0003Z" fill="#1B1F3B"/>
<path d="M19.0157 13.0003C22.5164 13.0003 25.3542 10.1632 25.3542 6.66348C25.3542 3.16375 22.5164 0.32666 19.0157 0.32666C15.515 0.32666 12.6771 3.16375 12.6771 6.66348C12.6771 10.1632 15.515 13.0003 19.0157 13.0003Z" fill="#1B1F3B"/>
<path d="M6.33855 25.6741C9.83924 25.6741 12.6771 22.837 12.6771 19.3373C12.6771 15.8376 9.83924 13.0005 6.33855 13.0005C2.83787 13.0005 0 15.8376 0 19.3373C0 22.837 2.83787 25.6741 6.33855 25.6741Z" fill="#1B1F3B"/>
<path d="M19.0157 25.6741C22.5164 25.6741 25.3542 22.837 25.3542 19.3373C25.3542 15.8376 22.5164 13.0005 19.0157 13.0005C15.515 13.0005 12.6771 15.8376 12.6771 19.3373C12.6771 22.837 15.515 25.6741 19.0157 25.6741Z" fill="#1B1F3B"/>
</svg>
