<svg width="120" height="29" viewBox="0 0 120 29" fill="none" xmlns="http://www.w3.org/2000/svg">
<path d="M4.39563 20.9497H0.625L7.49875 3.54719C7.86563 2.61906 8.38312 1.96656 9.05062 1.58906C9.7175 1.21219 10.5731 1.02344 11.6175 1.02344C12.6619 1.02344 13.4881 1.21219 14.155 1.58906C14.8219 1.96594 15.3294 2.61906 15.6775 3.54719L22.2906 20.9497H18.4912L12.5456 5.20031C12.3719 4.75594 12.0525 4.53344 11.5887 4.53344C11.125 4.53344 10.7956 4.75594 10.6025 5.20031L4.39563 20.9497Z" fill="#1B1F3C"/>
<path d="M27.9381 1.375V20.9525H24.5156V1.375H27.9381Z" fill="#1B1F3C"/>
<path d="M34.1476 1.375V20.9525H30.7251V1.375H34.1476Z" fill="#1B1F3C"/>
<path d="M45.633 20.9497H42.2393V5.40344C42.2393 4.08844 42.6261 3.03031 43.3993 2.22719C44.1724 1.42531 45.3524 1.02344 46.938 1.02344C48.3305 1.02344 49.4324 1.35719 50.2443 2.02406C51.0561 2.69094 51.5974 3.64344 51.8686 4.88094L54.6243 16.8597C54.798 17.5947 55.2336 17.9616 55.9293 17.9616C56.6249 17.9616 57.0411 17.5947 57.2343 16.8597L59.9899 4.88094C60.2605 3.64344 60.7774 2.69094 61.5418 2.02406C62.3055 1.35719 63.393 1.02344 64.8049 1.02344C66.3899 1.02344 67.5699 1.42531 68.3436 2.22719C69.1168 3.02969 69.5036 4.08844 69.5036 5.40344V20.9497H66.1099V5.57719C66.1099 5.19031 65.9886 4.88594 65.7474 4.66344C65.5055 4.44156 65.1624 4.32969 64.718 4.32969C64.3118 4.32969 64.0024 4.42156 63.7899 4.60531C63.5768 4.78906 63.4318 5.04531 63.3549 5.37406L60.5418 17.3528C60.2324 18.6484 59.7199 19.6297 59.0043 20.2966C58.2886 20.9634 57.2543 21.2972 55.9005 21.2972C54.5468 21.2972 53.4686 20.9584 52.7249 20.2822C51.9805 19.6053 51.463 18.6291 51.173 17.3528L48.3886 5.37406C48.3111 5.04531 48.1611 4.78969 47.9393 4.60531C47.7168 4.42156 47.4124 4.32969 47.0255 4.32969C46.5805 4.32969 46.2374 4.44094 45.9955 4.66344C45.7536 4.88594 45.633 5.19031 45.633 5.57719V20.9491V20.9497Z" fill="#1B1F3C"/>
<path d="M89.3068 5.64062L80.0837 27.1038H76.7774L79.6487 20.4037C78.7787 20.4037 78.1449 20.2587 77.7487 19.9688C77.3524 19.6788 77.0281 19.1956 76.7768 18.5187L71.6431 5.64125H74.8918L79.5037 17.04C79.5999 17.3106 79.7068 17.485 79.8231 17.5619C79.9387 17.6394 80.1418 17.6781 80.4324 17.6781H80.8387L86.0306 5.64125H89.3081L89.3068 5.64062Z" fill="#1B1F3C"/>
<path d="M95.8326 20.9497H92.062L98.9358 3.54719C99.3026 2.61906 99.8201 1.96656 100.488 1.58906C101.155 1.21219 102.01 1.02344 103.055 1.02344C104.099 1.02344 104.925 1.21219 105.592 1.58906C106.259 1.96594 106.766 2.61906 107.115 3.54719L113.728 20.9497H109.928L103.983 5.20031C103.809 4.75594 103.49 4.53344 103.026 4.53344C102.562 4.53344 102.233 4.75594 102.04 5.20031L95.8326 20.9497Z" fill="#1B1F3C"/>
<path d="M119.375 1.375V20.9525H115.953V1.375H119.375Z" fill="#1B1F3C"/>
<path d="M103.089 16.8372C104.341 16.8372 105.356 15.8226 105.356 14.5709C105.356 13.3193 104.341 12.3047 103.089 12.3047C101.838 12.3047 100.823 13.3193 100.823 14.5709C100.823 15.8226 101.838 16.8372 103.089 16.8372Z" fill="#C208C1"/>
<path d="M11.525 16.8372C12.7767 16.8372 13.7913 15.8226 13.7913 14.5709C13.7913 13.3193 12.7767 12.3047 11.525 12.3047C10.2734 12.3047 9.25879 13.3193 9.25879 14.5709C9.25879 15.8226 10.2734 16.8372 11.525 16.8372Z" fill="#CDFC51"/>
</svg>
