<svg width="45" height="45" viewBox="0 0 45 45" fill="none" xmlns="http://www.w3.org/2000/svg">
<path d="M11.0091 22.477C17.0892 22.477 22.0181 17.5494 22.0181 11.4709C22.0181 5.39243 17.0892 0.464844 11.0091 0.464844C4.92892 0.464844 0 5.39243 0 11.4709C0 17.5494 4.92892 22.477 11.0091 22.477Z" fill="#1B1F3B"/>
<path d="M33.0271 22.477C39.1073 22.477 44.0362 17.5494 44.0362 11.4709C44.0362 5.39243 39.1073 0.464844 33.0271 0.464844C26.947 0.464844 22.0181 5.39243 22.0181 11.4709C22.0181 17.5494 26.947 22.477 33.0271 22.477Z" fill="#1B1F3B"/>
<path d="M11.0091 44.4887C17.0892 44.4887 22.0181 39.5611 22.0181 33.4826C22.0181 27.4041 17.0892 22.4766 11.0091 22.4766C4.92892 22.4766 0 27.4041 0 33.4826C0 39.5611 4.92892 44.4887 11.0091 44.4887Z" fill="#1B1F3B"/>
<path d="M33.0271 44.4887C39.1073 44.4887 44.0362 39.5611 44.0362 33.4826C44.0362 27.4041 39.1073 22.4766 33.0271 22.4766C26.947 22.4766 22.0181 27.4041 22.0181 33.4826C22.0181 39.5611 26.947 44.4887 33.0271 44.4887Z" fill="#1B1F3B"/>
</svg>
