<svg width="201" height="44" viewBox="0 0 201 44" fill="none" xmlns="http://www.w3.org/2000/svg">
<path d="M6.85053 33.5991H0.5L12.0768 4.28959C12.6947 2.72643 13.5663 1.62748 14.6905 0.991694C15.8137 0.356957 17.2547 0.0390625 19.0137 0.0390625C20.7726 0.0390625 22.1642 0.356957 23.2874 0.991694C24.4105 1.62643 25.2653 2.72643 25.8516 4.28959L36.9895 33.5991H30.5905L20.5768 7.0738C20.2842 6.32538 19.7463 5.95064 18.9653 5.95064C18.1842 5.95064 17.6295 6.32538 17.3042 7.0738L6.85053 33.5991Z" fill="white"/>
<path d="M46.501 0.625V33.5976H40.7368V0.625H46.501Z" fill="white"/>
<path d="M56.959 0.625V33.5976H51.1948V0.625H56.959Z" fill="white"/>
<path d="M76.3032 33.5991H70.5874V7.4159C70.5874 5.20117 71.239 3.41906 72.5411 2.06643C73.8432 0.715905 75.8306 0.0390625 78.5011 0.0390625C80.8463 0.0390625 82.7021 0.601168 84.0695 1.72433C85.4369 2.84748 86.3485 4.45169 86.8053 6.5359L91.4463 26.7106C91.739 27.9485 92.4727 28.5664 93.6442 28.5664C94.8158 28.5664 95.5169 27.9485 95.8421 26.7106L100.483 6.5359C100.939 4.45169 101.81 2.84748 103.097 1.72433C104.383 0.601168 106.215 0.0390625 108.593 0.0390625C111.262 0.0390625 113.25 0.715905 114.553 2.06643C115.855 3.41801 116.506 5.20117 116.506 7.4159V33.5991H110.791V7.70854C110.791 7.05696 110.586 6.54433 110.18 6.16959C109.773 5.7959 109.195 5.60748 108.446 5.60748C107.762 5.60748 107.241 5.76222 106.883 6.07169C106.524 6.38117 106.28 6.81275 106.151 7.36643L101.413 27.5412C100.892 29.7233 100.028 31.3759 98.8232 32.4991C97.6179 33.6222 95.8758 34.1843 93.5958 34.1843C91.3158 34.1843 89.5 33.6138 88.2474 32.4749C86.9937 31.3349 86.1221 29.6906 85.6337 27.5412L80.9442 7.36643C80.8137 6.81275 80.5611 6.38222 80.1874 6.07169C79.8127 5.76222 79.3 5.60748 78.6485 5.60748C77.899 5.60748 77.3211 5.79485 76.9137 6.16959C76.5063 6.54433 76.3032 7.05696 76.3032 7.70854V33.598V33.5991Z" fill="white"/>
<path d="M149.859 7.80469L134.325 43.9531H128.757L133.593 32.6689C132.127 32.6689 131.06 32.4247 130.393 31.9363C129.725 31.4478 129.179 30.6342 128.756 29.4942L120.109 7.80574H125.581L133.348 27.0036C133.51 27.4594 133.69 27.7531 133.886 27.8826C134.081 28.0131 134.423 28.0784 134.913 28.0784H135.597L144.341 7.80574H149.861L149.859 7.80469Z" fill="white"/>
<path d="M160.85 33.5991H154.499L166.076 4.28959C166.694 2.72643 167.565 1.62748 168.69 0.991694C169.813 0.356957 171.254 0.0390625 173.013 0.0390625C174.772 0.0390625 176.163 0.356957 177.286 0.991694C178.41 1.62643 179.264 2.72643 179.851 4.28959L190.988 33.5991H184.59L174.576 7.0738C174.283 6.32538 173.745 5.95064 172.964 5.95064C172.183 5.95064 171.628 6.32538 171.303 7.0738L160.85 33.5991Z" fill="white"/>
<path d="M200.5 0.625V33.5976H194.736V0.625H200.5Z" fill="white"/>
<path d="M173.072 26.6727C175.18 26.6727 176.889 24.9639 176.889 22.8559C176.889 20.7479 175.18 19.0391 173.072 19.0391C170.964 19.0391 169.255 20.7479 169.255 22.8559C169.255 24.9639 170.964 26.6727 173.072 26.6727Z" fill="#C208C1"/>
<path d="M18.8579 26.6727C20.9658 26.6727 22.6747 24.9639 22.6747 22.8559C22.6747 20.7479 20.9658 19.0391 18.8579 19.0391C16.7499 19.0391 15.041 20.7479 15.041 22.8559C15.041 24.9639 16.7499 26.6727 18.8579 26.6727Z" fill="#CDFC51"/>
</svg>
