<svg width="153" height="47" viewBox="0 0 153 47" fill="none" xmlns="http://www.w3.org/2000/svg">
<path d="M0.891602 14.759L0.891602 32.3231C0.891602 39.8063 6.9579 45.8726 14.4411 45.8726L138.895 45.8726C146.379 45.8726 152.445 39.8063 152.445 32.3231V14.759C152.445 7.27583 146.379 1.20953 138.895 1.20953L14.4411 1.20953C6.9579 1.20953 0.891602 7.27583 0.891602 14.759Z" fill="#3D4F94"/>
<path d="M1.14258 14.7594L1.14258 32.3235C1.14258 39.6681 7.09654 45.6221 14.4411 45.6221L138.895 45.6221C146.24 45.6221 152.194 39.6681 152.194 32.3235V14.7594C152.194 7.41483 146.24 1.46087 138.895 1.46087L14.4411 1.46087C7.09654 1.46087 1.14258 7.41483 1.14258 14.7594Z" fill="#3D4F94" stroke="url(#paint0_linear_9160_9841)" stroke-opacity="0.4"/>
<path d="M28.9987 16.335C25.3187 16.335 22.332 19.3216 22.332 23.0016C22.332 26.6816 25.3187 29.6683 28.9987 29.6683C32.6787 29.6683 35.6654 26.6816 35.6654 23.0016C35.6654 19.3216 32.6787 16.335 28.9987 16.335ZM25.972 24.7483C26.112 24.9883 26.032 25.2883 25.792 25.4349C25.712 25.4816 25.6254 25.5016 25.5387 25.5016C25.3654 25.5016 25.1987 25.4149 25.1054 25.2549C24.712 24.5816 24.4987 23.8016 24.4987 23.0016C24.4987 20.5216 26.5187 18.5016 28.9987 18.5016C29.3254 18.5016 29.6387 18.535 29.972 18.6083C30.2387 18.6616 30.412 18.9283 30.352 19.2016C30.2987 19.4683 30.032 19.6416 29.7587 19.5816C27.5387 19.1083 25.4987 20.8149 25.4987 23.0016C25.4987 23.6349 25.6587 24.2216 25.972 24.7483ZM31.3587 20.9149C30.8787 21.8016 29.9854 23.4283 29.7054 23.7083C29.312 24.1016 28.6854 24.1016 28.292 23.7083C27.8987 23.3149 27.8987 22.6883 28.292 22.2949C28.572 22.0149 30.1987 21.1216 31.0854 20.6416C31.2654 20.5483 31.452 20.7349 31.3587 20.9149ZM32.892 25.2549C32.7987 25.4149 32.632 25.5016 32.4587 25.5016C32.372 25.5016 32.2854 25.4816 32.2054 25.4349C31.9654 25.2883 31.8854 24.9883 32.0254 24.7483C32.3387 24.2216 32.4987 23.6349 32.4987 23.0016C32.4987 22.7483 32.472 22.4949 32.4187 22.2416C32.3587 21.9683 32.532 21.7016 32.7987 21.6483C33.072 21.5883 33.3387 21.7616 33.392 22.0283C33.4654 22.3549 33.4987 22.6749 33.4987 23.0016C33.4987 23.8016 33.2854 24.5816 32.892 25.2549Z" fill="white"/>
<path d="M66.999 19.8948V26.1081C66.999 27.1481 66.479 27.6681 65.439 27.6681H63.9457C63.979 27.4615 63.999 27.2348 63.999 27.0015V19.0015C63.999 18.7681 63.979 18.5415 63.9457 18.3348H65.439C66.479 18.3348 66.999 18.8548 66.999 19.8948ZM62.999 27.0015V19.0015C62.999 17.6681 62.3324 17.0015 60.999 17.0015H56.999C55.6657 17.0015 54.999 17.6681 54.999 19.0015V27.0015C54.999 28.3348 55.6657 29.0015 56.999 29.0015H60.999C62.3324 29.0015 62.999 28.3348 62.999 27.0015Z" fill="white"/>
<path d="M94.6631 19.0171L94.9413 18.9097C95.6141 18.65 96.1439 18.1152 96.3971 17.4399L96.4912 17.189C96.5146 17.0718 96.6318 17.0015 96.749 17.0015C96.8428 17.0015 96.9599 17.0718 96.9834 17.189L97.0964 17.4765C97.3531 18.1301 97.8704 18.6474 98.524 18.9041L98.8115 19.0171C98.9287 19.0405 98.999 19.1577 98.999 19.2515C98.999 19.3687 98.9287 19.4858 98.8115 19.5093L98.5606 19.6034C97.8853 19.8566 97.3505 20.3863 97.0908 21.0592L96.9834 21.3374C96.9599 21.4311 96.8428 21.5015 96.749 21.5015C96.6318 21.5015 96.5146 21.4311 96.4912 21.3374L96.4021 21.0956C96.1463 20.4013 95.5991 19.8541 94.9049 19.5984L94.6631 19.5093C94.5459 19.4858 94.499 19.3687 94.499 19.2515C94.499 19.1577 94.5459 19.0405 94.6631 19.0171ZM92.5003 20.2631C92.837 21.0013 93.4289 21.5931 94.1671 21.9298L95.6943 22.6265C95.835 22.6968 95.9287 22.8374 95.9287 22.978C95.9287 23.1186 95.835 23.2593 95.6943 23.3296L94.1671 24.0262C93.4289 24.3629 92.837 24.9548 92.5003 25.693L91.8037 27.2202C91.7334 27.3608 91.5928 27.4546 91.4522 27.4546C91.3115 27.4546 91.1709 27.3608 91.124 27.2202L90.4063 25.6766C90.0679 24.9485 89.4804 24.3652 88.7498 24.032L87.21 23.3296C87.0693 23.2593 86.999 23.1186 86.999 22.978C86.999 22.8374 87.0693 22.6968 87.21 22.6265L88.7498 21.9241C89.4804 21.5909 90.0679 21.0076 90.4063 20.2795L91.124 18.7358C91.1709 18.5952 91.3115 18.5015 91.4522 18.5015C91.5928 18.5015 91.7334 18.5952 91.8037 18.7358L92.5003 20.2631ZM96.4912 24.689C96.5146 24.5718 96.6318 24.5015 96.749 24.5015C96.8428 24.5015 96.9599 24.5718 96.9834 24.689L97.2306 25.3182C97.4018 25.7539 97.7466 26.0987 98.1823 26.2699L98.8115 26.5171C98.9287 26.5405 98.999 26.6577 98.999 26.7515C98.999 26.8687 98.9287 26.9858 98.8115 27.0093L98.2067 27.2361C97.7565 27.4049 97.4 27.7581 97.2269 28.2066L96.9834 28.8374C96.9599 28.9311 96.8428 29.0015 96.749 29.0015C96.6318 29.0015 96.5146 28.9311 96.4912 28.8374L96.2677 28.2309C96.0973 27.7681 95.7324 27.4032 95.2696 27.2327L94.6631 27.0093C94.5459 26.9858 94.499 26.8687 94.499 26.7515C94.499 26.6577 94.5459 26.5405 94.6631 26.5171L95.2939 26.2736C95.7424 26.1005 96.0956 25.7439 96.2644 25.2938L96.4912 24.689Z" fill="white"/>
<path d="M124.999 16.335C121.317 16.335 118.332 19.3196 118.332 23.0016C118.332 26.6836 121.317 29.6683 124.999 29.6683C128.681 29.6683 131.665 26.6836 131.665 23.0016C131.665 19.3196 128.681 16.335 124.999 16.335ZM123.999 25.335C123.999 26.0016 123.665 26.335 122.999 26.335C122.332 26.335 121.999 26.0016 121.999 25.335V23.335C121.999 22.6683 122.332 22.335 122.999 22.335C123.665 22.335 123.999 22.6683 123.999 23.335V25.335ZM127.999 25.335C127.999 26.0016 127.665 26.335 126.999 26.335C126.332 26.335 125.999 26.0016 125.999 25.335V20.6683C125.999 20.0016 126.332 19.6683 126.999 19.6683C127.665 19.6683 127.999 20.0016 127.999 20.6683V25.335Z" fill="white"/>
<defs>
<linearGradient id="paint0_linear_9160_9841" x1="0.891662" y1="23.5415" x2="152.445" y2="23.5415" gradientUnits="userSpaceOnUse">
<stop stop-color="white"/>
<stop offset="1" stop-color="white" stop-opacity="0"/>
</linearGradient>
</defs>
</svg>
