<svg width="88" height="74" viewBox="0 0 88 74" fill="none" xmlns="http://www.w3.org/2000/svg">
<g clip-path="url(#clip0_9163_47616)">
<path d="M7.50543 30.4395V35.2904H4.03516V65.1365H23.7423V30.4395H7.50543Z" fill="url(#paint0_linear_9163_47616)"/>
<rect x="9.375" y="37.6841" width="3.83549" height="4.04857" fill="#262F69"/>
<rect x="9.375" y="43.8638" width="3.83549" height="4.04857" fill="#262F69"/>
<path d="M53.0501 73.0555H23.9759C20.8782 73.0479 18.3669 70.5366 18.3594 67.439V6.11748C18.3669 3.01982 20.8782 0.508518 23.9759 0.500977H53.0501C56.1478 0.508518 58.6591 3.01982 58.6666 6.11748V67.4409C58.6572 70.5385 56.1478 73.0479 53.0501 73.0555Z" fill="#3D4F94"/>
<path fill-rule="evenodd" clip-rule="evenodd" d="M23.9843 69.5855H53.0417L53.0437 69.5855C54.2287 69.5815 55.1906 68.6219 55.1966 67.4348V6.12225C55.1917 4.93718 54.23 3.97559 53.0449 3.97098H23.9811C22.7958 3.97559 21.834 4.93744 21.8294 6.12272V67.4337C21.834 68.6194 22.7965 69.5815 23.9823 69.5855L23.9843 69.5855ZM23.9759 73.0555C20.8782 73.0479 18.3669 70.5366 18.3594 67.439V6.11748C18.3669 3.01982 20.8782 0.508518 23.9759 0.500977H53.0501C56.1478 0.508518 58.6591 3.01982 58.6666 6.11748V67.4409C58.6572 70.5385 56.1478 73.0479 53.0501 73.0555H23.9759Z" fill="#3D4F94"/>
<path d="M53.0501 73.0555H23.9759C20.8782 73.0479 18.3669 70.5366 18.3594 67.4389V60.3252C36.8792 60.3252 42.1861 60.3252 58.6666 60.3252V67.4408C58.6572 70.5385 56.1478 73.0479 53.0501 73.0555Z" fill="#BDFF00"/>
<path d="M51.8225 25.8198C51.8 18.8491 45.8942 13.1982 38.6313 13.1982C31.3685 13.1982 25.4991 18.8491 25.5215 25.8198C25.5374 30.7546 28.5036 35.025 32.8109 37.1003L32.8296 42.9083C32.8396 46.0344 35.4882 48.5686 38.7453 48.5686C42.0025 48.5686 44.6347 46.0344 44.6246 42.9083L44.6059 37.1003C48.8997 35.025 51.8384 30.7546 51.8225 25.8198Z" fill="#262F69"/>
<path d="M64.3694 33.8921C64.8689 29.6579 65.5738 28.0281 65.9943 27.0921C68.0498 27.8015 70.3204 27.5785 72.2197 26.3911C72.7785 27.3618 73.8603 30.187 74.3598 33.8919L74.3561 33.8948C74.7267 36.5197 74.9557 39.7312 75.0035 43.5952C75.1146 57.4639 71.5727 71.3622 69.7613 71.3515L69.7384 71.3516C67.927 71.3408 64.1012 57.3984 63.9295 43.5293C63.8988 39.6942 64.0597 36.5039 64.3721 33.8939L64.3694 33.8921Z" fill="url(#paint1_linear_9163_47616)"/>
<path d="M75.5443 18.3214C77.2556 21.6812 75.9162 25.8755 72.5363 27.7094C69.1424 29.5511 64.9772 28.3148 63.233 24.948C61.4967 21.5963 62.8288 17.3873 66.1894 15.5328C66.1876 15.5338 66.1861 15.5346 66.1861 15.5346C66.1861 15.5346 66.1873 15.5339 66.1903 15.5323C67.3954 14.8784 70.252 13.3258 69.9663 6.89844L75.5454 18.3209L75.5443 18.3214Z" fill="#DADADA"/>
<path d="M30.7299 10.4509C28.9132 5.91619 23.9068 3.77208 19.5476 5.6619C16.567 6.95405 14.5404 9.88264 14.3081 13.2331C11.7892 13.5954 10.0296 16.0135 10.378 18.6339C10.6932 21.005 12.6426 22.7699 14.9435 22.7675H30.7298C33.9993 22.7675 36.6497 20.0103 36.6497 16.6092C36.6497 13.2081 33.9994 10.4509 30.7299 10.4509Z" fill="url(#paint2_linear_9163_47616)"/>
<path d="M41.5887 32.3134L32.2643 26.312L42.1241 21.2343L41.5887 32.3134Z" fill="url(#paint3_linear_9163_47616)"/>
<rect width="4.72141" height="4.72255" transform="matrix(0.908464 -0.417963 0.418172 0.908368 34.416 34.2456)" fill="#DADADA"/>
<path d="M42.8672 38.6042C42.8672 33.2935 47.1487 28.9883 52.4301 28.9883H52.5362C57.8176 28.9883 62.0991 33.2935 62.0991 38.6042C62.0991 43.915 57.8176 48.2202 52.5362 48.2202H52.4301C47.1487 48.2202 42.8672 43.915 42.8672 38.6042Z" fill="#C209C1"/>
<path d="M64.287 49.3366C63.9335 47.9674 62.5271 47.1808 61.2217 47.7305C60.8854 46.4275 59.5742 45.6006 58.2451 46.0957V42.736C58.244 39.5534 53.6484 39.5484 53.6473 42.736V55.1273C52.4842 53.9086 51.4438 52.8183 51.4413 52.8156C50.5454 51.8756 49.0859 51.8756 48.1902 52.8157C47.295 53.7523 47.2917 55.2814 48.1903 56.2223C48.4125 56.4549 54.0453 62.3578 54.2674 62.5906C55.7147 64.1072 57.677 64.9582 59.7235 64.9581C63.986 64.9576 67.4404 61.3378 67.4408 56.8712C67.4408 55.2651 67.4408 55.5238 67.4408 51.5692C67.4401 49.876 65.8084 48.6958 64.287 49.3366Z" fill="#EAF5FC"/>
<path d="M53.969 22.1686C53.6648 22.1187 53.3696 22.0486 53.0918 21.9604C51.0552 21.3134 49.8816 19.6761 49.4675 17.5494C49.4282 17.3479 49.1372 17.3529 49.105 17.5556C48.711 20.042 47.2853 21.8202 44.7814 22.3308C44.5823 22.3714 44.5874 22.6598 44.7879 22.6934C47.285 23.1115 48.7978 24.8355 49.2772 27.287C49.3074 27.4415 49.4707 27.4394 49.4613 27.436C49.5506 27.4343 49.6258 27.3687 49.6397 27.2804C49.8394 26.0084 50.4325 24.2748 52.1239 23.2393C52.6643 22.9088 53.2874 22.6707 53.9758 22.5314C54.0629 22.5138 54.125 22.4363 54.1234 22.3472C54.1217 22.2582 54.0567 22.183 53.969 22.1686Z" fill="#C209C1"/>
<path d="M65.2749 9.11918C65.1345 9.09605 64.9983 9.06357 64.87 9.02264C63.9301 8.72266 63.3884 7.96356 63.1973 6.97753C63.1791 6.88412 63.0448 6.88644 63.03 6.98044C62.8481 8.13322 62.1901 8.95765 61.0345 9.19437C60.9426 9.21319 60.9449 9.34692 61.0375 9.36249C62.19 9.55635 62.8882 10.3557 63.1095 11.4923C63.1234 11.5639 63.1988 11.5629 63.1944 11.5613C63.2356 11.5606 63.2704 11.5301 63.2768 11.4892C63.3689 10.8995 63.6427 10.0957 64.4233 9.61561C64.6727 9.46238 64.9603 9.35197 65.278 9.28739C65.3183 9.27922 65.3469 9.24329 65.3462 9.20201C65.3454 9.16071 65.3154 9.12586 65.2749 9.11918Z" fill="#DADADA"/>
<path d="M87.6079 28.2926C87.3739 28.254 87.1469 28.1999 86.9332 28.1316C85.3666 27.6317 84.4638 26.3665 84.1452 24.7231C84.115 24.5674 83.8911 24.5713 83.8664 24.728C83.5633 26.6493 82.4666 28.0233 80.5405 28.4179C80.3874 28.4492 80.3913 28.6721 80.5455 28.6981C82.4664 29.0212 83.6301 30.3533 83.9988 32.2477C84.0221 32.367 84.1477 32.3655 84.1405 32.3628C84.2091 32.3615 84.267 32.3108 84.2777 32.2425C84.4313 31.2597 84.8875 29.9201 86.1886 29.1199C86.6043 28.8646 87.0836 28.6805 87.6131 28.5729C87.6802 28.5593 87.7279 28.4994 87.7267 28.4306C87.7254 28.3618 87.6754 28.3037 87.6079 28.2926Z" fill="url(#paint4_linear_9163_47616)"/>
</g>
<defs>
<linearGradient id="paint0_linear_9163_47616" x1="4.03516" y1="47.788" x2="23.7423" y2="47.788" gradientUnits="userSpaceOnUse">
<stop offset="0.1" stop-color="white"/>
<stop offset="0.78" stop-color="white" stop-opacity="0.7"/>
</linearGradient>
<linearGradient id="paint1_linear_9163_47616" x1="63.9258" y1="48.8713" x2="75.0061" y2="48.8713" gradientUnits="userSpaceOnUse">
<stop offset="0.1" stop-color="white"/>
<stop offset="0.78" stop-color="white" stop-opacity="0.7"/>
</linearGradient>
<linearGradient id="paint2_linear_9163_47616" x1="23.4918" y1="4.9751" x2="23.4918" y2="22.7675" gradientUnits="userSpaceOnUse">
<stop stop-color="white"/>
<stop offset="1" stop-color="white" stop-opacity="0"/>
</linearGradient>
<linearGradient id="paint3_linear_9163_47616" x1="41.5887" y1="32.3134" x2="35.7255" y2="20.9283" gradientUnits="userSpaceOnUse">
<stop stop-color="white"/>
<stop offset="1" stop-color="white" stop-opacity="0"/>
</linearGradient>
<linearGradient id="paint4_linear_9163_47616" x1="80.4277" y1="28.486" x2="87.7267" y2="28.486" gradientUnits="userSpaceOnUse">
<stop offset="0.1" stop-color="white"/>
<stop offset="0.78" stop-color="white" stop-opacity="0.7"/>
</linearGradient>
<clipPath id="clip0_9163_47616">
<rect width="87.727" height="72.5547" fill="white" transform="translate(0 0.500977)"/>
</clipPath>
</defs>
</svg>
