<svg width="153" height="47" viewBox="0 0 153 47" fill="none" xmlns="http://www.w3.org/2000/svg">
<path d="M0.892578 14.759L0.892578 32.3231C0.892578 39.8063 6.95888 45.8726 14.442 45.8726L138.896 45.8726C146.379 45.8726 152.446 39.8063 152.446 32.3231V14.759C152.446 7.27583 146.379 1.20953 138.896 1.20953L14.442 1.20953C6.95888 1.20953 0.892578 7.27583 0.892578 14.759Z" fill="#3D4F94"/>
<path d="M1.14258 14.7594L1.14258 32.3235C1.14258 39.6681 7.09654 45.6221 14.4411 45.6221L138.895 45.6221C146.24 45.6221 152.194 39.6681 152.194 32.3235V14.7594C152.194 7.41483 146.24 1.46087 138.895 1.46087L14.4411 1.46087C7.09654 1.46087 1.14258 7.41483 1.14258 14.7594Z" fill="#3D4F94" stroke="url(#paint0_linear_9163_47800)" stroke-opacity="0.4"/>
<path d="M34.7053 22.2929H33.972C33.872 22.2929 33.772 22.3129 33.6786 22.3395L30.352 19.0129C30.672 18.5995 30.6453 18.0062 30.2653 17.6329L29.7453 17.1129C29.352 16.7195 28.6586 16.7195 28.2586 17.1129L27.7386 17.6329C27.3653 18.0062 27.3386 18.5995 27.6586 19.0129L24.332 22.3395C24.2386 22.3129 24.1386 22.2929 24.0386 22.2929H23.3053C22.7253 22.2929 22.252 22.7662 22.252 23.3462V24.0795C22.252 24.6595 22.7253 25.1329 23.3053 25.1329H24.0386C24.6186 25.1329 25.092 24.6595 25.092 24.0795V23.3462C25.092 23.2462 25.072 23.1462 25.0453 23.0529L28.372 19.7262C28.552 19.8662 28.7786 19.9395 29.0053 19.9395C29.232 19.9395 29.4586 19.8595 29.6453 19.7195L32.972 23.0462C32.9453 23.1395 32.9253 23.2395 32.9253 23.3395V24.0729C32.9253 24.6529 33.3986 25.1262 33.9786 25.1262H34.712C35.292 25.1262 35.7653 24.6529 35.7653 24.0729V23.3395C35.752 22.7595 35.2853 22.2929 34.7053 22.2929Z" fill="white"/>
<path d="M31.5033 27.0331L30.41 27.9998H27.57L26.4766 27.0331C25.8433 26.5131 25.8433 26.1131 26.3233 25.4998L28.25 23.0598C28.3833 22.8931 28.5366 22.7798 28.71 22.7198C28.89 22.6598 29.0833 22.6598 29.27 22.7198C29.4366 22.7798 29.59 22.8931 29.73 23.0598L31.6566 25.4998C32.1366 26.1065 32.1166 26.4865 31.5033 27.0331Z" fill="white"/>
<path d="M29.8612 30.6693H28.1346C27.5212 30.6693 27.0612 30.1693 27.1812 29.636L27.3879 28.7093C27.4279 28.5227 27.5946 28.396 27.7812 28.396H30.2146C30.4012 28.396 30.5612 28.5227 30.6079 28.7093L30.8146 29.636C30.9479 30.2027 30.5146 30.6693 29.8612 30.6693Z" fill="white"/>
<path d="M67.1663 19.8454V21.9987C67.1663 23.2261 66.8087 23.7813 65.8751 23.9518C65.445 24.0303 65.0863 23.6576 65.0863 23.2204V22.9187C65.0863 20.8387 64.1597 19.912 62.0797 19.912H61.778C61.3408 19.912 60.9681 19.5534 61.0466 19.1232C61.2171 18.1897 61.7723 17.832 62.9997 17.832H65.153C66.6797 17.832 67.1663 18.3187 67.1663 19.8454Z" fill="white"/>
<path d="M64.0854 22.9188V25.0788C64.0854 26.5988 63.5988 27.0854 62.0788 27.0854H59.9188C58.3988 27.0854 57.9121 26.5988 57.9121 25.0788V22.9188C57.9121 21.3988 58.3988 20.9121 59.9188 20.9121H62.0788C63.5988 20.9121 64.0854 21.3988 64.0854 22.9188Z" fill="white"/>
<path d="M60.2204 28.0863C60.6576 28.0863 61.0303 28.445 60.9518 28.8751C60.7813 29.8087 60.2261 30.1663 58.9987 30.1663H56.8454C55.3187 30.1663 54.832 29.6797 54.832 28.153V25.9997C54.832 24.7723 55.1897 24.2171 56.1232 24.0466C56.5534 23.9681 56.912 24.3408 56.912 24.778V25.0797C56.912 27.1597 57.8387 28.0863 59.9187 28.0863H60.2204Z" fill="white"/>
<path d="M98.0031 21.0002L97.0098 21.9936L95.0098 19.9936L96.0031 19.0002C96.2831 18.7202 96.6431 18.5869 97.0031 18.5869C97.3631 18.5869 97.7231 18.7202 98.0031 19.0002C98.5564 19.5536 98.5564 20.4469 98.0031 21.0002Z" fill="white"/>
<path d="M96.5416 22.4668L89.3349 29.6668C88.7816 30.2201 87.8883 30.2201 87.3349 29.6668C86.7816 29.1135 86.7816 28.2201 87.3349 27.6668L94.5416 20.4668L96.5416 22.4668Z" fill="white"/>
<path d="M91.635 18.3343L91.9083 17.4077C91.935 17.321 91.9083 17.2277 91.8483 17.161C91.7883 17.0943 91.6816 17.0677 91.595 17.0943L90.6683 17.3677L89.7416 17.0943C89.655 17.0677 89.5616 17.0943 89.495 17.1543C89.4283 17.221 89.4083 17.3143 89.435 17.401L89.7016 18.3343L89.4283 19.261C89.4016 19.3477 89.4283 19.441 89.4883 19.5077C89.555 19.5743 89.6483 19.5943 89.735 19.5677L90.6683 19.301L91.595 19.5743C91.6216 19.581 91.6416 19.5877 91.6683 19.5877C91.735 19.5877 91.795 19.561 91.8483 19.5143C91.915 19.4477 91.935 19.3543 91.9083 19.2677L91.635 18.3343Z" fill="white"/>
<path d="M88.969 22.3358L89.2423 21.4091C89.269 21.3225 89.2423 21.2291 89.1823 21.1625C89.1156 21.0958 89.0223 21.0758 88.9356 21.1025L88.0023 21.3691L87.0756 21.0958C86.989 21.0691 86.8956 21.0958 86.829 21.1558C86.7623 21.2225 86.7423 21.3158 86.769 21.4025L87.0356 22.3358L86.7623 23.2625C86.7356 23.3491 86.7623 23.4425 86.8223 23.5091C86.889 23.5758 86.9823 23.5958 87.069 23.5691L87.9956 23.2958L88.9223 23.5691C88.9423 23.5758 88.969 23.5758 88.9956 23.5758C89.0623 23.5758 89.1223 23.5491 89.1756 23.5025C89.2423 23.4358 89.2623 23.3425 89.2356 23.2558L88.969 22.3358Z" fill="white"/>
<path d="M98.9704 25.6701L99.2437 24.7434C99.2704 24.6567 99.2437 24.5634 99.1837 24.4967C99.1171 24.4301 99.0237 24.4101 98.9371 24.4367L98.0104 24.7101L97.0837 24.4367C96.9971 24.4101 96.9037 24.4367 96.8371 24.4967C96.7704 24.5634 96.7504 24.6567 96.7771 24.7434L97.0504 25.6701L96.7771 26.5967C96.7504 26.6834 96.7771 26.7767 96.8371 26.8434C96.9037 26.9101 96.9971 26.9301 97.0837 26.9034L98.0104 26.6301L98.9371 26.9034C98.9571 26.9101 98.9837 26.9101 99.0104 26.9101C99.0771 26.9101 99.1371 26.8834 99.1904 26.8367C99.2571 26.7701 99.2771 26.6767 99.2504 26.5901L98.9704 25.6701Z" fill="white"/>
<path d="M125.958 26.0024H119.938C118.725 26.0024 117.951 24.7024 118.538 23.6357L120.091 20.8091L121.545 18.1624C122.151 17.0624 123.738 17.0624 124.345 18.1624L125.805 20.8091L126.505 22.0824L127.358 23.6357C127.945 24.7024 127.171 26.0024 125.958 26.0024Z" fill="white"/>
<path d="M132.099 26.667C132.099 29.0603 130.159 31.0003 127.766 31.0003C125.733 31.0003 124.033 29.607 123.559 27.7136C123.513 27.5136 123.666 27.3336 123.873 27.3336H126.386C127.313 27.3336 128.153 26.8536 128.626 26.0603C129.093 25.2603 129.113 24.3003 128.659 23.487L128.326 22.8736C128.199 22.647 128.379 22.3736 128.633 22.4203C130.606 22.8203 132.099 24.567 132.099 26.667Z" fill="white"/>
<defs>
<linearGradient id="paint0_linear_9163_47800" x1="0.891662" y1="23.5415" x2="152.445" y2="23.5415" gradientUnits="userSpaceOnUse">
<stop stop-color="white"/>
<stop offset="1" stop-color="white" stop-opacity="0"/>
</linearGradient>
</defs>
</svg>
