<svg width="153" height="47" viewBox="0 0 153 47" fill="none" xmlns="http://www.w3.org/2000/svg">
<path d="M0.892578 14.759L0.892578 32.3231C0.892578 39.8063 6.95888 45.8726 14.442 45.8726L138.896 45.8726C146.379 45.8726 152.446 39.8063 152.446 32.3231V14.759C152.446 7.27583 146.379 1.20953 138.896 1.20953L14.442 1.20953C6.95888 1.20953 0.892578 7.27583 0.892578 14.759Z" fill="#3D4F94"/>
<path d="M1.14258 14.7594L1.14258 32.3235C1.14258 39.6681 7.09654 45.6221 14.4411 45.6221L138.895 45.6221C146.24 45.6221 152.194 39.6681 152.194 32.3235V14.7594C152.194 7.41483 146.24 1.46087 138.895 1.46087L14.4411 1.46087C7.09654 1.46087 1.14258 7.41483 1.14258 14.7594Z" fill="#3D4F94" stroke="url(#paint0_linear_9337_59968)" stroke-opacity="0.4"/>
<path d="M32.7112 17.3374H25.2779C23.6579 17.3374 22.3379 18.6574 22.3379 20.2774V24.6107V24.7441C22.3379 26.3707 23.6579 27.6841 25.2779 27.6841H27.8379C28.2046 27.6841 28.5046 27.9841 28.5046 28.3507V28.9974C28.5046 29.3641 28.2046 29.6641 27.8379 29.6641H26.2246C25.9512 29.6641 25.7246 29.8907 25.7246 30.1641C25.7246 30.4374 25.9446 30.6707 26.2246 30.6707H31.7912C32.0646 30.6707 32.2912 30.4441 32.2912 30.1707C32.2912 29.8974 32.0646 29.6707 31.7912 29.6707H30.1779C29.8112 29.6707 29.5112 29.3707 29.5112 29.0041V28.3574C29.5112 27.9907 29.8112 27.6907 30.1779 27.6907H32.7179C34.3446 27.6907 35.6579 26.3707 35.6579 24.7507V24.6174V20.2841C35.6512 18.6574 34.3312 17.3374 32.7112 17.3374Z" fill="white"/>
<path d="M60.6712 17.3374C57.1779 17.3374 54.3379 20.1774 54.3379 23.6707C54.3379 27.1641 57.1779 30.0041 60.6712 30.0041C64.1646 30.0041 67.0046 27.1641 67.0046 23.6707C67.0046 20.1774 64.1646 17.3374 60.6712 17.3374ZM60.6712 25.1707H58.6712C58.3979 25.1707 58.1712 24.9441 58.1712 24.6707C58.1712 24.3974 58.3979 24.1707 58.6712 24.1707H60.6712C60.9446 24.1707 61.1712 24.3974 61.1712 24.6707C61.1712 24.9441 60.9446 25.1707 60.6712 25.1707ZM62.6712 23.1707H58.6712C58.3979 23.1707 58.1712 22.9441 58.1712 22.6707C58.1712 22.3974 58.3979 22.1707 58.6712 22.1707H62.6712C62.9446 22.1707 63.1712 22.3974 63.1712 22.6707C63.1712 22.9441 62.9446 23.1707 62.6712 23.1707Z" fill="white"/>
<path d="M67.2036 30.6693C67.0836 30.6693 66.9636 30.6226 66.877 30.536L65.637 29.296C65.457 29.116 65.457 28.8226 65.637 28.636C65.817 28.456 66.1103 28.456 66.297 28.636L67.537 29.876C67.717 30.056 67.717 30.3493 67.537 30.536C67.4436 30.6226 67.3236 30.6693 67.2036 30.6693Z" fill="white"/>
<path d="M97.1852 18.2327C96.8719 18.186 96.5119 18.166 96.0052 18.166H90.0052C89.5052 18.166 89.1385 18.186 88.8452 18.226C86.6119 18.4727 86.1719 19.7993 86.1719 21.9993V25.9993C86.1719 28.1993 86.6119 29.526 88.8252 29.766C89.1385 29.8127 89.4985 29.8327 90.0052 29.8327H96.0052C96.5052 29.8327 96.8719 29.8127 97.1652 29.7727C99.3985 29.526 99.8385 28.206 99.8385 25.9993V21.9993C99.8385 19.7993 99.3985 18.4727 97.1852 18.2327ZM91.7319 21.9993C92.1052 21.9993 92.4052 22.2993 92.4052 22.666C92.4052 23.0327 92.1052 23.3327 91.7385 23.3327C91.3719 23.3327 91.0719 23.0327 91.0719 22.666C91.0719 22.2993 91.3652 21.9993 91.7319 21.9993ZM89.7319 21.9993C90.1119 21.9993 90.4052 22.2993 90.4052 22.666C90.4052 23.0327 90.1052 23.3327 89.7385 23.3327C89.3719 23.3327 89.0719 23.0327 89.0719 22.666C89.0719 22.2993 89.3652 21.9993 89.7319 21.9993ZM96.3385 26.8327H89.6852C89.4119 26.8327 89.1785 26.606 89.1785 26.3327C89.1785 26.0593 89.3985 25.8327 89.6719 25.8327H96.3385C96.6119 25.8327 96.8385 26.0593 96.8385 26.3327C96.8385 26.606 96.6119 26.8327 96.3385 26.8327ZM96.3385 23.166H94.0052C93.7319 23.166 93.5052 22.9393 93.5052 22.666C93.5052 22.3927 93.7319 22.166 94.0052 22.166H96.3385C96.6119 22.166 96.8385 22.3927 96.8385 22.666C96.8385 22.9393 96.6119 23.166 96.3385 23.166Z" fill="white"/>
<path d="M131.005 22.6689H119.005C118.638 22.6689 118.338 22.9689 118.338 23.3356V26.7956C118.338 26.9289 118.345 27.0623 118.358 27.1956C118.491 29.2489 119.758 30.5156 121.811 30.6489C121.945 30.6623 122.078 30.6689 122.211 30.6689H127.798C127.931 30.6689 128.065 30.6623 128.198 30.6489C130.251 30.5156 131.518 29.2489 131.651 27.1956C131.665 27.0623 131.671 26.9289 131.671 26.7956V23.3356C131.671 22.9689 131.371 22.6689 131.005 22.6689ZM122.338 26.7689C122.565 27.1023 122.871 27.3756 123.225 27.5556C123.478 27.6756 123.578 27.9756 123.451 28.2289C123.365 28.4023 123.185 28.5023 123.005 28.5023C122.931 28.5023 122.851 28.4823 122.785 28.4489C122.265 28.1956 121.825 27.8023 121.511 27.3289C121.245 26.9289 121.245 26.4089 121.511 26.0089C121.825 25.5356 122.265 25.1423 122.785 24.8889C123.031 24.7623 123.331 24.8623 123.451 25.1089C123.578 25.3623 123.478 25.6623 123.225 25.7823C122.871 25.9623 122.565 26.2356 122.338 26.5689C122.298 26.6289 122.298 26.7089 122.338 26.7689ZM128.638 27.3289C128.318 27.8023 127.878 28.1956 127.365 28.4489C127.291 28.4823 127.218 28.5023 127.145 28.5023C126.958 28.5023 126.785 28.4023 126.698 28.2289C126.571 27.9756 126.671 27.6756 126.918 27.5556C127.278 27.3756 127.585 27.1023 127.805 26.7689C127.851 26.7089 127.851 26.6289 127.805 26.5689C127.585 26.2356 127.278 25.9623 126.918 25.7823C126.671 25.6623 126.571 25.3623 126.698 25.1089C126.818 24.8623 127.118 24.7623 127.365 24.8889C127.878 25.1423 128.318 25.5356 128.638 26.0089C128.905 26.4089 128.905 26.9289 128.638 27.3289Z" fill="white"/>
<path d="M131.671 21.2107V21.3374C131.671 21.7041 131.371 22.0041 131.005 22.0041L119.005 22.0107C118.638 22.0107 118.338 21.7107 118.338 21.3441V21.2107C118.338 21.0774 118.345 20.9441 118.358 20.8107C118.491 18.7574 119.758 17.4907 121.811 17.3574C121.945 17.3441 122.078 17.3374 122.211 17.3374H127.798C127.931 17.3374 128.065 17.3441 128.198 17.3574C130.251 17.4907 131.518 18.7574 131.651 20.8107C131.665 20.9441 131.671 21.0774 131.671 21.2107Z" fill="white"/>
<defs>
<linearGradient id="paint0_linear_9337_59968" x1="0.891662" y1="23.5415" x2="152.445" y2="23.5415" gradientUnits="userSpaceOnUse">
<stop stop-color="white"/>
<stop offset="1" stop-color="white" stop-opacity="0"/>
</linearGradient>
</defs>
</svg>
