<svg width="56" height="56" viewBox="0 0 56 56" fill="none" xmlns="http://www.w3.org/2000/svg">
<rect width="56" height="56" rx="10" fill="#C209C1"/>
<path d="M39.9327 17.9206C39.546 17.3606 39.0527 16.8672 38.4927 16.4806C37.226 15.5606 35.5727 15.0806 33.586 15.0806H22.4127C22.146 15.0806 21.8793 15.0939 21.626 15.1206C17.2527 15.4006 14.666 18.2406 14.666 22.8272V34.0006C14.666 35.9872 15.146 37.6406 16.066 38.9072C16.4527 39.4672 16.946 39.9606 17.506 40.3472C18.5993 41.1472 19.986 41.6139 21.626 41.7206C21.8793 41.7339 22.146 41.7472 22.4127 41.7472H33.586C38.4394 41.7472 41.3327 38.8539 41.3327 34.0006V22.8272C41.3327 20.8406 40.8527 19.1872 39.9327 17.9206ZM36.9993 24.2806C36.9993 24.8272 36.546 25.2806 35.9993 25.2806C35.4527 25.2806 34.9993 24.8272 34.9993 24.2806V22.7072C34.9993 22.2806 34.6527 21.9339 34.226 21.9339H28.9993V34.8939H31.3727C31.9193 34.8939 32.3727 35.3472 32.3727 35.8939C32.3727 36.4406 31.9193 36.8939 31.3727 36.8939H24.626C24.0793 36.8939 23.626 36.4406 23.626 35.8939C23.626 35.3472 24.0793 34.8939 24.626 34.8939H26.9993V21.9339H21.7727C21.346 21.9339 20.9993 22.2806 20.9993 22.7072V24.2806C20.9993 24.8272 20.546 25.2806 19.9993 25.2806C19.4527 25.2806 18.9993 24.8272 18.9993 24.2806V22.7072C18.9993 21.1739 20.2393 19.9339 21.7727 19.9339H34.2127C35.746 19.9339 36.986 21.1739 36.986 22.7072V24.2806H36.9993Z" fill="white"/>
</svg>
