<svg width="57" height="56" viewBox="0 0 57 56" fill="none" xmlns="http://www.w3.org/2000/svg">
<rect x="0.699219" width="56" height="56" rx="10" fill="#BDFF00"/>
<path d="M41 19.4141H17C16.4533 19.4141 16 18.9607 16 18.4141C16 17.8674 16.4533 17.4141 17 17.4141H41C41.5467 17.4141 42 17.8674 42 18.4141C42 18.9607 41.5467 19.4141 41 19.4141Z" fill="#1B1F3B"/>
<path d="M29.6267 26.0806H17C16.4533 26.0806 16 25.6272 16 25.0806C16 24.5339 16.4533 24.0806 17 24.0806H29.6267C30.1733 24.0806 30.6267 24.5339 30.6267 25.0806C30.6267 25.6272 30.1867 26.0806 29.6267 26.0806Z" fill="#1B1F3B"/>
<path d="M41 32.7476H17C16.4533 32.7476 16 32.2942 16 31.7476C16 31.2009 16.4533 30.7476 17 30.7476H41C41.5467 30.7476 42 31.2009 42 31.7476C42 32.2942 41.5467 32.7476 41 32.7476Z" fill="#1B1F3B"/>
<path d="M29.6267 39.4141H17C16.4533 39.4141 16 38.9607 16 38.4141C16 37.8674 16.4533 37.4141 17 37.4141H29.6267C30.1733 37.4141 30.6267 37.8674 30.6267 38.4141C30.6267 38.9607 30.1867 39.4141 29.6267 39.4141Z" fill="#1B1F3B"/>
</svg>
