<svg width="57" height="56" viewBox="0 0 57 56" fill="none" xmlns="http://www.w3.org/2000/svg">
<rect x="0.0800781" width="56" height="56" rx="10" fill="#BDFF00"/>
<path d="M34.7205 26.6011L24.9205 16.8011L23.7605 15.6411C23.3738 15.2544 22.7338 15.2544 22.3471 15.6411C21.9605 16.0277 21.9605 16.6677 22.3471 17.0544L23.5071 18.2144L16.0005 25.7211C15.1471 26.5744 14.6938 27.4411 14.6671 28.3077C14.6405 29.2277 15.0938 30.1477 16.0005 31.0677L21.3471 36.4144C23.1338 38.1877 24.9205 38.1877 26.6938 36.4144L34.7205 28.3877C34.9871 28.1211 35.1071 27.7611 35.0805 27.4144C35.0671 27.1211 34.9338 26.8144 34.7205 26.6011Z" fill="#1B1F3B"/>
<path d="M33.3333 42.7476H16C15.4533 42.7476 15 42.2942 15 41.7476C15 41.2009 15.4533 40.7476 16 40.7476H33.3333C33.88 40.7476 34.3333 41.2009 34.3333 41.7476C34.3333 42.2942 33.88 42.7476 33.3333 42.7476Z" fill="#1B1F3B"/>
<path d="M37.8 32.1203C37.4533 31.747 36.8133 31.747 36.4667 32.1203C36.0533 32.5737 34 34.8803 34 36.6403C34 38.3737 35.4 39.7737 37.1333 39.7737C38.8667 39.7737 40.2667 38.3737 40.2667 36.6403C40.2667 34.8937 38.2133 32.5737 37.8 32.1203Z" fill="#1B1F3B"/>
</svg>
