<svg width="57" height="56" viewBox="0 0 57 56" fill="none" xmlns="http://www.w3.org/2000/svg">
<rect x="0.205078" width="56" height="56" rx="10" fill="#BDFF00"/>
<g clip-path="url(#clip0_8192_42423)">
<path d="M33.2337 27.9772C33.2337 31.4522 31.2017 34.4882 28.1807 36.1152M33.2337 27.9772C33.2337 24.5012 31.2017 21.4662 28.1807 19.8382M33.2337 27.9772C33.2337 29.5972 32.7927 31.1222 32.0147 32.4532M33.2337 27.9772C33.2337 27.5332 33.2007 27.0972 33.1367 26.6702M28.1807 36.1152C25.1587 34.4882 23.1267 31.4522 23.1267 27.9772M28.1807 36.1152C29.6737 36.9192 31.4088 37.3802 33.2598 37.3802C38.8558 37.3802 43.3918 33.1702 43.3918 27.9772C43.3918 22.7832 38.8558 18.5732 33.2598 18.5732C31.4088 18.5732 29.6737 19.0342 28.1807 19.8382M28.1807 36.1152C26.6877 36.9192 24.9527 37.3802 23.1017 37.3802C17.5057 37.3802 12.9688 33.1702 12.9688 27.9772C12.9688 22.7832 17.5057 18.5732 23.1017 18.5732C24.9527 18.5732 26.6877 19.0342 28.1807 19.8382M28.1807 36.1152C28.5297 35.9272 28.8658 35.7202 29.1868 35.4962M28.1807 36.1152C27.5837 35.7942 27.0258 35.4172 26.5138 34.9932M28.1807 19.8382C25.1587 21.4662 23.1267 24.5012 23.1267 27.9772M28.1807 19.8382C28.5857 20.0562 28.9728 20.3002 29.3398 20.5662M28.1807 19.8382C28.0617 19.9022 27.9448 19.9682 27.8298 20.0362M32.0147 32.4532C31.8297 32.7702 31.6257 33.0762 31.4037 33.3692M32.0147 32.4532L31.4327 31.5182M33.1367 26.6702C32.7667 24.1982 31.3608 22.0342 29.3398 20.5662M33.1367 26.6702L32.6737 25.9252M23.1267 27.9772C23.1267 27.8712 23.1287 27.7662 23.1327 27.6612M23.1267 27.9772C23.1267 28.6312 23.1988 29.2692 23.3358 29.8852M23.1327 27.6612C23.1517 27.1232 23.2198 26.5972 23.3318 26.0852M23.1327 27.6612L23.6007 28.4142M23.3358 29.8852C23.7828 31.8972 24.9228 33.6752 26.5138 34.9932M23.3358 29.8852L23.4818 30.1202M29.1868 35.4962C30.0408 34.9002 30.7897 34.1822 31.4037 33.3692M29.1868 35.4962L29.0417 35.2642M26.5138 34.9932L26.1217 34.3642M29.3398 20.5662L30.0337 21.6812M27.8298 20.0362C27.5408 20.2072 27.2608 20.3912 26.9928 20.5872M27.8298 20.0362L28.3818 20.9232M28.7227 21.4712L29.5317 22.7712M29.8717 23.3192L30.6807 24.6202M31.0217 25.1672L31.8307 26.4682M32.1717 27.0152L32.9807 28.3162M26.9517 22.4192L27.7607 23.7202M28.1017 24.2682L28.9107 25.5682M29.2517 26.1162L30.0607 27.4162M30.4017 27.9642L31.2107 29.2642M31.5507 29.8122L32.3608 31.1132M25.1817 23.3682L25.9907 24.6682M26.3318 25.2162L27.1408 26.5172M27.4818 27.0642L28.2907 28.3652M28.6318 28.9122L29.4408 30.2132M29.7808 30.7612L30.5898 32.0612M24.5618 26.1652L25.3708 27.4652M25.7108 28.0132L26.5208 29.3132M26.8608 29.8612L27.6698 31.1612M28.0107 31.7092L28.8197 33.0102M29.1607 33.5572L29.9697 34.8582M23.9408 28.9612L24.7498 30.2622M25.0907 30.8092L25.8997 32.1102M26.2407 32.6582L27.0497 33.9582M27.3908 34.5062L28.1997 35.8062M30.3737 22.2292L31.1827 23.5292M31.5238 24.0772L32.3328 25.3782M27.4538 21.3292L28.2627 22.6302M28.6038 23.1772L29.4128 24.4782M29.7537 25.0252L30.5627 26.3262M30.9037 26.8742L31.7127 28.1742M32.0527 28.7222L32.8617 30.0222M25.6838 22.2782L26.4928 23.5782M26.8337 24.1262L27.6427 25.4262M27.9827 25.9742L28.7927 27.2742M29.1327 27.8222L29.9417 29.1232M30.2827 29.6702L31.0917 30.9712M25.0637 25.0742L25.8727 26.3752M26.2127 26.9222L27.0217 28.2232M27.3627 28.7712L28.1717 30.0712M28.5127 30.6192L29.3217 31.9192M29.6628 32.4672L30.4718 33.7672M24.4428 27.8712L25.2517 29.1712M25.5928 29.7192L26.4018 31.0202M26.7428 31.5672L27.5518 32.8682M27.8927 33.4152L28.7017 34.7162M23.8228 30.6682L24.6318 31.9682M24.9718 32.5162L25.7817 33.8162M31.4037 33.3692L30.9307 32.6092M26.9928 20.5872C26.7188 20.7872 26.4578 20.9992 26.2078 21.2242M26.9928 20.5872L27.1138 20.7812M26.2078 21.2242C25.6868 21.6932 25.2188 22.2142 24.8148 22.7782M26.2078 21.2242L26.6117 21.8722M24.8148 22.7782C24.5978 23.0802 24.3998 23.3952 24.2218 23.7212M24.8148 22.7782L24.8407 22.8202M24.2218 23.7212C24.0298 24.0712 23.8607 24.4332 23.7167 24.8072M24.2218 23.7212L24.7227 24.5272M23.7167 24.8072C23.5577 25.2202 23.4278 25.6472 23.3318 26.0852M23.7167 24.8072L24.2208 25.6172M23.3318 26.0852L24.1017 27.3232" stroke="#1B1F3B" stroke-width="2" stroke-linecap="round" stroke-linejoin="round"/>
</g>
<defs>
<clipPath id="clip0_8192_42423">
<rect width="33" height="21" fill="white" transform="translate(11.7051 17.5)"/>
</clipPath>
</defs>
</svg>
