<svg width="57" height="56" viewBox="0 0 57 56" fill="none" xmlns="http://www.w3.org/2000/svg">
<rect x="0.794922" width="56" height="56" rx="10" fill="#C209C1"/>
<path d="M34.586 15.0806H23.4127C18.5593 15.0806 15.666 17.9739 15.666 22.8272V33.9872C15.666 38.8539 18.5593 41.7472 23.4127 41.7472H34.5727C39.426 41.7472 42.3193 38.8539 42.3193 34.0006V22.8272C42.3327 17.9739 39.4394 15.0806 34.586 15.0806ZM28.9993 20.4139C31.6527 20.4139 33.7994 22.5606 33.7994 25.2139C33.7994 25.8406 33.6793 26.4406 33.466 26.9872C32.9193 28.3739 31.7327 29.4539 30.266 29.8539C29.866 29.9606 29.4393 30.0272 28.9993 30.0272C28.5593 30.0272 28.1327 29.9739 27.7327 29.8539C26.266 29.4539 25.0793 28.3872 24.5327 26.9872C24.3193 26.4406 24.1993 25.8406 24.1993 25.2139C24.1993 22.5606 26.346 20.4139 28.9993 20.4139ZM25.7993 36.4139C23.146 36.4139 20.9993 34.2672 20.9993 31.6139C20.9993 30.1038 21.7042 28.7557 22.7918 27.8754C23.1074 27.6199 23.5582 27.7808 23.7559 28.1355C24.5356 29.5342 25.8601 30.5732 27.4127 30.9872C27.9193 31.1339 28.4393 31.2006 28.9993 31.2006C29.3313 31.2006 29.6484 31.176 29.9568 31.1268C30.2732 31.0764 30.5993 31.2802 30.5993 31.6006C30.5993 33.0139 29.986 34.2939 28.9993 35.1739C28.146 35.9472 27.026 36.4139 25.7993 36.4139ZM32.1993 36.4139C31.7347 36.4139 31.2793 36.3488 30.8497 36.224C30.4145 36.0976 30.3347 35.5551 30.6072 35.193C31.374 34.1741 31.7994 32.9157 31.7994 31.6139C31.7994 31.3472 31.7727 31.0672 31.7327 30.8139C31.7088 30.6629 31.7857 30.5147 31.9192 30.4402C32.8847 29.9013 33.6933 29.1105 34.2317 28.1395C34.429 27.7835 34.8802 27.6195 35.1976 27.8743C36.294 28.7546 36.9993 30.1032 36.9993 31.6139C36.9993 34.2672 34.8527 36.4139 32.1993 36.4139Z" fill="white"/>
</svg>
