<svg width="25" height="24" viewBox="0 0 25 24" fill="none" xmlns="http://www.w3.org/2000/svg">
<path d="M12.3798 14.9911C12.1898 14.9911 11.9998 14.9211 11.8498 14.7711L9.28977 12.2111C8.99977 11.9211 8.99977 11.4411 9.28977 11.1511C9.57977 10.8611 10.0598 10.8611 10.3498 11.1511L12.3798 13.1811L14.4098 11.1511C14.6998 10.8611 15.1798 10.8611 15.4698 11.1511C15.7598 11.4411 15.7598 11.9211 15.4698 12.2111L12.9098 14.7711C12.7598 14.9211 12.5698 14.9911 12.3798 14.9911Z" fill="#202126"/>
<path d="M12.3809 14.92C11.9709 14.92 11.6309 14.58 11.6309 14.17V4C11.6309 3.59 11.9709 3.25 12.3809 3.25C12.7909 3.25 13.1309 3.59 13.1309 4V14.17C13.1309 14.58 12.7909 14.92 12.3809 14.92Z" fill="#202126"/>
<path d="M12.5 20.9297C7.35 20.9297 3.75 17.3297 3.75 12.1797C3.75 11.7697 4.09 11.4297 4.5 11.4297C4.91 11.4297 5.25 11.7697 5.25 12.1797C5.25 16.4497 8.23 19.4297 12.5 19.4297C16.77 19.4297 19.75 16.4497 19.75 12.1797C19.75 11.7697 20.09 11.4297 20.5 11.4297C20.91 11.4297 21.25 11.7697 21.25 12.1797C21.25 17.3297 17.65 20.9297 12.5 20.9297Z" fill="#202126"/>
</svg>
