<svg width="21" height="21" viewBox="0 0 21 21" fill="none" xmlns="http://www.w3.org/2000/svg">
<path d="M10.5003 19.151C5.55866 19.151 1.54199 15.1344 1.54199 10.1927C1.54199 5.25104 5.55866 1.23438 10.5003 1.23438C15.442 1.23438 19.4587 5.25104 19.4587 10.1927C19.4587 15.1344 15.442 19.151 10.5003 19.151ZM10.5003 2.48438C6.25033 2.48438 2.79199 5.94271 2.79199 10.1927C2.79199 14.4427 6.25033 17.901 10.5003 17.901C14.7503 17.901 18.2087 14.4427 18.2087 10.1927C18.2087 5.94271 14.7503 2.48438 10.5003 2.48438Z" fill="#202126"/>
<path d="M13.5919 13.4698C13.4835 13.4698 13.3752 13.4448 13.2752 13.3781L10.6919 11.8365C10.0502 11.4531 9.5752 10.6115 9.5752 9.86979V6.45312C9.5752 6.11146 9.85853 5.82812 10.2002 5.82812C10.5419 5.82812 10.8252 6.11146 10.8252 6.45312V9.86979C10.8252 10.1698 11.0752 10.6115 11.3335 10.7615L13.9169 12.3031C14.2169 12.4781 14.3085 12.8615 14.1335 13.1615C14.0085 13.3615 13.8002 13.4698 13.5919 13.4698Z" fill="#202126"/>
</svg>
