<svg width="20" height="21" viewBox="0 0 20 21" fill="none" xmlns="http://www.w3.org/2000/svg">
<path d="M6.66602 19.8377C3.56602 19.8377 1.04102 17.3127 1.04102 14.2127C1.04102 11.6794 2.74102 9.44605 5.18268 8.78772C5.49102 8.70439 5.80768 8.86272 5.92435 9.16272C6.43268 10.4377 7.51602 11.4127 8.84102 11.7711C9.57435 11.9711 10.4243 11.9711 11.141 11.7711C11.4493 11.6877 11.7743 11.8461 11.891 12.1461C12.1493 12.8044 12.2827 13.5044 12.2827 14.2211C12.2827 15.8211 11.5993 17.3461 10.4077 18.4044C9.39102 19.3211 8.05768 19.8377 6.66602 19.8377ZM5.01602 10.1544C3.39102 10.8211 2.29102 12.4211 2.29102 14.2127C2.29102 16.6211 4.25768 18.5877 6.66602 18.5877C7.74935 18.5877 8.78268 18.1877 9.58268 17.4627C10.516 16.6377 11.041 15.4544 11.041 14.2127C11.041 13.8294 10.991 13.4627 10.8993 13.1044C10.116 13.2294 9.26602 13.1877 8.51602 12.9794C7.00768 12.5627 5.74102 11.5294 5.01602 10.1544Z" fill="#202126"/>
<path d="M10 13.1719C9.48333 13.1719 8.98333 13.1052 8.51667 12.9719C6.825 12.5052 5.41667 11.2552 4.76667 9.61354C4.50833 8.96354 4.375 8.26354 4.375 7.54688C4.375 4.44687 6.9 1.92188 10 1.92188C13.1 1.92188 15.625 4.44687 15.625 7.54688C15.625 8.26354 15.4917 8.96354 15.2333 9.62187C14.5833 11.2552 13.1833 12.5135 11.4833 12.9802C11.0167 13.1052 10.5167 13.1719 10 13.1719ZM10 3.17188C7.59167 3.17188 5.625 5.13854 5.625 7.54688C5.625 8.10521 5.725 8.64687 5.93333 9.15521C6.44167 10.4302 7.525 11.4052 8.85 11.7635C9.58333 11.9635 10.4333 11.9635 11.15 11.7635C12.475 11.4052 13.5667 10.4219 14.0667 9.15521C14.2667 8.64687 14.375 8.10521 14.375 7.54688C14.375 5.13854 12.4083 3.17188 10 3.17188Z" fill="#202126"/>
<path d="M13.3333 19.8426C11.9417 19.8426 10.6083 19.3259 9.58333 18.4009C9.45 18.2842 9.375 18.1092 9.375 17.9342C9.375 17.7592 9.45 17.5842 9.58333 17.4676C10.5083 16.6509 11.0417 15.4676 11.0417 14.2176C11.0417 13.6592 10.9417 13.1175 10.7333 12.6092C10.6667 12.4425 10.675 12.2592 10.7583 12.1009C10.8417 11.9426 10.9833 11.8259 11.15 11.7759C12.475 11.4176 13.5583 10.4425 14.0667 9.16755C14.1833 8.86755 14.5083 8.71755 14.8083 8.79255C17.25 9.45922 18.95 11.6842 18.95 14.2176C18.9583 17.3176 16.4333 19.8426 13.3333 19.8426ZM10.9333 17.8759C11.6417 18.3426 12.4667 18.5926 13.3333 18.5926C15.7417 18.5926 17.7083 16.6259 17.7083 14.2176C17.7083 12.4259 16.6083 10.8259 14.9833 10.1592C14.3667 11.3342 13.3333 12.2676 12.1 12.7676C12.225 13.2342 12.2917 13.7259 12.2917 14.2176C12.2917 15.5676 11.8083 16.8675 10.9333 17.8759Z" fill="#202126"/>
</svg>
