<svg width="20" height="20" viewBox="0 0 20 20" fill="none" xmlns="http://www.w3.org/2000/svg">
<path d="M9.24935 18.9557H5.74935C2.49102 18.9557 1.04102 17.5057 1.04102 14.2474V10.7474C1.04102 7.48906 2.49102 6.03906 5.74935 6.03906H9.24935C12.5077 6.03906 13.9577 7.48906 13.9577 10.7474V14.2474C13.9577 17.5057 12.5077 18.9557 9.24935 18.9557ZM5.74935 7.28906C3.16602 7.28906 2.29102 8.16406 2.29102 10.7474V14.2474C2.29102 16.8307 3.16602 17.7057 5.74935 17.7057H9.24935C11.8327 17.7057 12.7077 16.8307 12.7077 14.2474V10.7474C12.7077 8.16406 11.8327 7.28906 9.24935 7.28906H5.74935Z" fill="black"/>
<path d="M14.2494 13.9557H13.3327C12.991 13.9557 12.7077 13.6724 12.7077 13.3307V10.7474C12.7077 8.16406 11.8327 7.28906 9.24935 7.28906H6.66602C6.32435 7.28906 6.04102 7.00573 6.04102 6.66406V5.7474C6.04102 2.48906 7.49102 1.03906 10.7493 1.03906H14.2494C17.5077 1.03906 18.9577 2.48906 18.9577 5.7474V9.2474C18.9577 12.5057 17.5077 13.9557 14.2494 13.9557ZM13.9577 12.7057H14.2494C16.8327 12.7057 17.7077 11.8307 17.7077 9.2474V5.7474C17.7077 3.16406 16.8327 2.28906 14.2494 2.28906H10.7493C8.16602 2.28906 7.29102 3.16406 7.29102 5.7474V6.03906H9.24935C12.5077 6.03906 13.9577 7.48906 13.9577 10.7474V12.7057Z" fill="black"/>
</svg>
