<svg width="21" height="21" viewBox="0 0 21 21" fill="none" xmlns="http://www.w3.org/2000/svg">
<path d="M18 19.8438H8C7.65833 19.8438 7.375 19.5604 7.375 19.2188C7.375 18.8771 7.65833 18.5938 8 18.5938H18C18.3417 18.5938 18.625 18.8771 18.625 19.2188C18.625 19.5604 18.3417 19.8438 18 19.8438Z" fill="#202126"/>
<path d="M7.6171 19.8078C6.78377 19.8078 5.99213 19.4828 5.4088 18.8911L2.48379 15.9661C1.26712 14.7495 1.26712 12.7661 2.48379 11.5495L11.1755 2.85781C12.3505 1.68281 14.4171 1.68281 15.5921 2.85781L18.5171 5.78281C19.7338 6.99947 19.7338 8.98281 18.5171 10.1995L9.82545 18.8911C9.24212 19.4911 8.45877 19.8078 7.6171 19.8078ZM3.36712 15.0911L6.29213 18.0161C7.00046 18.7245 8.24212 18.7245 8.94212 18.0161L17.6338 9.32447C18.3671 8.59114 18.3671 7.40781 17.6338 6.67447L14.7088 3.74948C14.0088 3.04948 12.7671 3.04115 12.0588 3.74948L3.36712 12.4411C2.63379 13.1661 2.63379 14.3578 3.36712 15.0911Z" fill="#202126"/>
<path d="M12.8918 15.5734C12.7334 15.5734 12.5751 15.5151 12.4501 15.3901L5.9918 8.93178C5.75013 8.69011 5.75013 8.2901 5.9918 8.04844C6.23346 7.80677 6.63346 7.80677 6.87513 8.04844L13.3335 14.5068C13.5751 14.7484 13.5751 15.1484 13.3335 15.3901C13.2085 15.5151 13.0501 15.5734 12.8918 15.5734Z" fill="#202126"/>
<path d="M3.43349 16.2224C3.27515 16.2224 3.1168 16.1641 2.9918 16.0391C2.75013 15.7974 2.75013 15.3974 2.9918 15.1557L7.70849 10.4391C7.95016 10.1974 8.35016 10.1974 8.59182 10.4391C8.83349 10.6807 8.83349 11.0807 8.59182 11.3224L3.87513 16.0391C3.75013 16.1641 3.59182 16.2224 3.43349 16.2224Z" fill="#202126"/>
<path d="M5.7831 18.5818C5.62476 18.5818 5.46641 18.5234 5.34141 18.3984C5.09974 18.1568 5.09974 17.7568 5.34141 17.5151L10.0581 12.7984C10.2997 12.5568 10.6998 12.5568 10.9414 12.7984C11.1831 13.0401 11.1831 13.4401 10.9414 13.6818L6.22474 18.3984C6.10807 18.5151 5.94976 18.5818 5.7831 18.5818Z" fill="#202126"/>
</svg>
