<svg width="21" height="20" viewBox="0 0 21 20" fill="none" xmlns="http://www.w3.org/2000/svg">
<path d="M7.16699 3.33464L5.01217 3.33464L7.75625 6.07871C8.08169 6.40415 8.08169 6.93179 7.75625 7.25723C7.43081 7.58266 6.90317 7.58266 6.57774 7.25723L3.83366 4.51315L3.83366 6.66797C3.83366 7.12821 3.46056 7.5013 3.00033 7.5013C2.54009 7.5013 2.16699 7.12821 2.16699 6.66797V2.5013C2.16699 2.28029 2.25479 2.06833 2.41107 1.91205C2.56735 1.75577 2.77931 1.66797 3.00033 1.66797H7.16699C7.62723 1.66797 8.00033 2.04106 8.00033 2.5013C8.00033 2.96154 7.62723 3.33464 7.16699 3.33464Z" fill="#181B1F"/>
<path d="M13.0003 2.5013C13.0003 2.04106 13.3734 1.66797 13.8337 1.66797H18.0003C18.4606 1.66797 18.8337 2.04106 18.8337 2.5013V6.66797C18.8337 7.12821 18.4606 7.5013 18.0003 7.5013C17.5401 7.5013 17.167 7.12821 17.167 6.66797V4.51315L14.4229 7.25723C14.0975 7.58266 13.5698 7.58266 13.2444 7.25723C12.919 6.93179 12.919 6.40415 13.2444 6.07871L15.9885 3.33464H13.8337C13.3734 3.33464 13.0003 2.96154 13.0003 2.5013Z" fill="#181B1F"/>
<path d="M7.75625 13.9239L5.01217 16.668H7.16699C7.62723 16.668 8.00033 17.0411 8.00033 17.5013C8.00033 17.9615 7.62723 18.3346 7.16699 18.3346H3.00033C2.54009 18.3346 2.16699 17.9615 2.16699 17.5013V13.3346C2.16699 12.8744 2.54009 12.5013 3.00033 12.5013C3.46056 12.5013 3.83366 12.8744 3.83366 13.3346L3.83366 15.4895L6.57774 12.7454C6.90317 12.4199 7.43081 12.4199 7.75625 12.7454C8.08169 13.0708 8.08169 13.5985 7.75625 13.9239Z" fill="#181B1F"/>
<path d="M17.167 15.4895V13.3346C17.167 12.8744 17.5401 12.5013 18.0003 12.5013C18.4606 12.5013 18.8337 12.8744 18.8337 13.3346V17.5013C18.8337 17.7223 18.7459 17.9343 18.5896 18.0906C18.4333 18.2468 18.2213 18.3346 18.0003 18.3346H13.8337C13.3734 18.3346 13.0003 17.9615 13.0003 17.5013C13.0003 17.0411 13.3734 16.668 13.8337 16.668H15.9885L13.2444 13.9239C12.919 13.5985 12.919 13.0708 13.2444 12.7454C13.5698 12.4199 14.0975 12.4199 14.4229 12.7454L17.167 15.4895Z" fill="#181B1F"/>
</svg>
