<svg width="24" height="25" viewBox="0 0 24 25" fill="none" xmlns="http://www.w3.org/2000/svg">
<path d="M9 11.6328C7.48 11.6328 6.25 10.4028 6.25 8.88281C6.25 7.36281 7.48 6.13281 9 6.13281C10.52 6.13281 11.75 7.36281 11.75 8.88281C11.75 10.4028 10.52 11.6328 9 11.6328ZM9 7.63281C8.31 7.63281 7.75 8.19281 7.75 8.88281C7.75 9.57281 8.31 10.1328 9 10.1328C9.69 10.1328 10.25 9.57281 10.25 8.88281C10.25 8.19281 9.69 7.63281 9 7.63281Z" fill="#68686B"/>
<path d="M15 23.6328H9C3.57 23.6328 1.25 21.3128 1.25 15.8828V9.88281C1.25 4.45281 3.57 2.13281 9 2.13281H13C13.41 2.13281 13.75 2.47281 13.75 2.88281C13.75 3.29281 13.41 3.63281 13 3.63281H9C4.39 3.63281 2.75 5.27281 2.75 9.88281V15.8828C2.75 20.4928 4.39 22.1328 9 22.1328H15C19.61 22.1328 21.25 20.4928 21.25 15.8828V10.8828C21.25 10.4728 21.59 10.1328 22 10.1328C22.41 10.1328 22.75 10.4728 22.75 10.8828V15.8828C22.75 21.3128 20.43 23.6328 15 23.6328Z" fill="#68686B"/>
<path d="M18 9.6347C17.59 9.6347 17.25 9.2947 17.25 8.8847V2.8847C17.25 2.5847 17.43 2.3047 17.71 2.1947C17.99 2.0847 18.31 2.1447 18.53 2.3547L20.53 4.3547C20.82 4.6447 20.82 5.12471 20.53 5.41471C20.24 5.7047 19.76 5.7047 19.47 5.41471L18.75 4.6947V8.8847C18.75 9.2947 18.41 9.6347 18 9.6347Z" fill="#68686B"/>
<path d="M16.0004 5.63031C15.8104 5.63031 15.6204 5.56031 15.4704 5.41031C15.1804 5.12031 15.1804 4.64031 15.4704 4.35031L17.4704 2.35031C17.7604 2.06031 18.2404 2.06031 18.5304 2.35031C18.8204 2.64031 18.8204 3.12031 18.5304 3.41031L16.5304 5.41031C16.3804 5.56031 16.1904 5.63031 16.0004 5.63031Z" fill="#68686B"/>
<path d="M2.67029 20.5853C2.43029 20.5853 2.19029 20.4653 2.05029 20.2553C1.82029 19.9153 1.91029 19.4453 2.25029 19.2153L7.18029 15.9053C8.26029 15.1853 9.75029 15.2653 10.7303 16.0953L11.0603 16.3853C11.5603 16.8153 12.4103 16.8153 12.9003 16.3853L17.0603 12.8153C18.1203 11.9053 19.7903 11.9053 20.8603 12.8153L22.4903 14.2153C22.8003 14.4853 22.8403 14.9553 22.5703 15.2753C22.3003 15.5853 21.8203 15.6253 21.5103 15.3553L19.8803 13.9553C19.3803 13.5253 18.5403 13.5253 18.0403 13.9553L13.8803 17.5253C12.8203 18.4353 11.1503 18.4353 10.0803 17.5253L9.75029 17.2353C9.29029 16.8453 8.53029 16.8053 8.02029 17.1553L3.10029 20.4653C2.96029 20.5453 2.81029 20.5853 2.67029 20.5853Z" fill="#68686B"/>
</svg>
