<svg width="25" height="24" viewBox="0 0 25 24" fill="none" xmlns="http://www.w3.org/2000/svg">
<path d="M12.3944 14.9911C12.2044 14.9911 12.0144 14.9211 11.8644 14.7711L9.30441 12.2111C9.01441 11.9211 9.01441 11.4411 9.30441 11.1511C9.59441 10.8611 10.0744 10.8611 10.3644 11.1511L12.3944 13.1811L14.4244 11.1511C14.7144 10.8611 15.1944 10.8611 15.4844 11.1511C15.7744 11.4411 15.7744 11.9211 15.4844 12.2111L12.9244 14.7711C12.7744 14.9211 12.5844 14.9911 12.3944 14.9911Z" fill="white"/>
<path d="M12.3945 14.92C11.9845 14.92 11.6445 14.58 11.6445 14.17V4C11.6445 3.59 11.9845 3.25 12.3945 3.25C12.8045 3.25 13.1445 3.59 13.1445 4V14.17C13.1445 14.58 12.8045 14.92 12.3945 14.92Z" fill="white"/>
<path d="M12.5146 20.9297C7.36465 20.9297 3.76465 17.3297 3.76465 12.1797C3.76465 11.7697 4.10465 11.4297 4.51465 11.4297C4.92465 11.4297 5.26465 11.7697 5.26465 12.1797C5.26465 16.4497 8.24465 19.4297 12.5146 19.4297C16.7846 19.4297 19.7646 16.4497 19.7646 12.1797C19.7646 11.7697 20.1046 11.4297 20.5146 11.4297C20.9246 11.4297 21.2646 11.7697 21.2646 12.1797C21.2646 17.3297 17.6646 20.9297 12.5146 20.9297Z" fill="white"/>
</svg>
