<svg width="20" height="21" viewBox="0 0 20 21" fill="none" xmlns="http://www.w3.org/2000/svg">
<path d="M9.82565 10.094C9.37565 10.094 8.91732 10.0107 8.55898 9.85234L3.64232 7.66901C2.39232 7.11068 2.20898 6.36068 2.20898 5.95234C2.20898 5.54401 2.39232 4.79401 3.64232 4.23568L8.55898 2.05234C9.28398 1.72734 10.3757 1.72734 11.1006 2.05234L16.0257 4.23568C17.2673 4.78568 17.459 5.54401 17.459 5.95234C17.459 6.36068 17.2756 7.11068 16.0257 7.66901L11.1006 9.85234C10.734 10.019 10.284 10.094 9.82565 10.094ZM9.82565 3.06068C9.54232 3.06068 9.26732 3.10234 9.06732 3.19401L4.15065 5.37734C3.64232 5.61068 3.45898 5.84401 3.45898 5.95234C3.45898 6.06068 3.64232 6.30234 4.14232 6.52734L9.05898 8.71068C9.45898 8.88568 10.184 8.88568 10.584 8.71068L15.509 6.52734C16.0173 6.30234 16.2007 6.06068 16.2007 5.95234C16.2007 5.84401 16.0173 5.60234 15.509 5.37734L10.5923 3.19401C10.3923 3.11068 10.109 3.06068 9.82565 3.06068Z" fill="#202126"/>
<path d="M10 14.4344C9.68333 14.4344 9.36667 14.3677 9.06667 14.2344L3.40833 11.7177C2.55 11.3427 1.875 10.301 1.875 9.35938C1.875 9.01771 2.15833 8.73438 2.5 8.73438C2.84167 8.73438 3.125 9.01771 3.125 9.35938C3.125 9.81771 3.5 10.3927 3.91667 10.5844L9.575 13.101C9.84167 13.2177 10.15 13.2177 10.425 13.101L16.0833 10.5844C16.5 10.401 16.875 9.81771 16.875 9.35938C16.875 9.01771 17.1583 8.73438 17.5 8.73438C17.8417 8.73438 18.125 9.01771 18.125 9.35938C18.125 10.301 17.45 11.3427 16.5917 11.726L10.9333 14.2427C10.6333 14.3677 10.3167 14.4344 10 14.4344Z" fill="#202126"/>
<path d="M10 18.6029C9.68333 18.6029 9.36667 18.5362 9.06667 18.4029L3.40833 15.8862C2.475 15.4695 1.875 14.5445 1.875 13.5195C1.875 13.1779 2.15833 12.8945 2.5 12.8945C2.84167 12.8945 3.125 13.1862 3.125 13.5279C3.125 14.0529 3.43333 14.5362 3.91667 14.7529L9.575 17.2695C9.84167 17.3862 10.15 17.3862 10.425 17.2695L16.0833 14.7529C16.5667 14.5362 16.875 14.0612 16.875 13.5279C16.875 13.1862 17.1583 12.9029 17.5 12.9029C17.8417 12.9029 18.125 13.1862 18.125 13.5279C18.125 14.5529 17.525 15.4779 16.5917 15.8945L10.9333 18.4112C10.6333 18.5362 10.3167 18.6029 10 18.6029Z" fill="#202126"/>
</svg>
