<svg width="21" height="21" viewBox="0 0 21 21" fill="none" xmlns="http://www.w3.org/2000/svg">
<path d="M16.3337 14.8685H4.66699C2.65033 14.8685 1.54199 13.7602 1.54199 11.7435V8.41016C1.54199 6.39349 2.65033 5.28516 4.66699 5.28516H16.3337C18.3503 5.28516 19.4587 6.39349 19.4587 8.41016V11.7435C19.4587 13.7602 18.3503 14.8685 16.3337 14.8685ZM4.66699 6.53516C3.35033 6.53516 2.79199 7.09349 2.79199 8.41016V11.7435C2.79199 13.0602 3.35033 13.6185 4.66699 13.6185H16.3337C17.6503 13.6185 18.2087 13.0602 18.2087 11.7435V8.41016C18.2087 7.09349 17.6503 6.53516 16.3337 6.53516H4.66699Z" fill="#202126"/>
<path d="M15.5 10.7018C15.1583 10.7018 14.875 10.4185 14.875 10.0768V5.91016C14.875 5.56849 15.1583 5.28516 15.5 5.28516C15.8417 5.28516 16.125 5.56849 16.125 5.91016V10.0768C16.125 10.4185 15.8417 10.7018 15.5 10.7018Z" fill="#202126"/>
<path d="M5.5 9.86849C5.15833 9.86849 4.875 9.58516 4.875 9.24349V5.91016C4.875 5.56849 5.15833 5.28516 5.5 5.28516C5.84167 5.28516 6.125 5.56849 6.125 5.91016V9.24349C6.125 9.58516 5.84167 9.86849 5.5 9.86849Z" fill="#202126"/>
<path d="M8.83301 10.7018C8.48301 10.7018 8.20801 10.4185 8.20801 10.0685L8.24967 5.90182C8.24967 5.56016 8.53301 5.28516 8.87467 5.28516C8.87467 5.28516 8.87467 5.28516 8.88301 5.28516C9.22467 5.28516 9.50801 5.56849 9.49967 5.91849L9.45801 10.0852C9.45801 10.4268 9.17467 10.7018 8.83301 10.7018Z" fill="#202126"/>
<path d="M12.167 9.03516C11.8253 9.03516 11.542 8.75182 11.542 8.41016V5.91016C11.542 5.56849 11.8253 5.28516 12.167 5.28516C12.5087 5.28516 12.792 5.56849 12.792 5.91016V8.41016C12.792 8.75182 12.5087 9.03516 12.167 9.03516Z" fill="#202126"/>
</svg>
