<svg width="21" height="21" viewBox="0 0 21 21" fill="none" xmlns="http://www.w3.org/2000/svg">
<path d="M13.0003 19.151H8.00033C3.47533 19.151 1.54199 17.2177 1.54199 12.6927V7.69271C1.54199 3.16771 3.47533 1.23438 8.00033 1.23438H13.0003C17.5253 1.23438 19.4587 3.16771 19.4587 7.69271V12.6927C19.4587 17.2177 17.5253 19.151 13.0003 19.151ZM8.00033 2.48438C4.15866 2.48438 2.79199 3.85104 2.79199 7.69271V12.6927C2.79199 16.5344 4.15866 17.901 8.00033 17.901H13.0003C16.842 17.901 18.2087 16.5344 18.2087 12.6927V7.69271C18.2087 3.85104 16.842 2.48438 13.0003 2.48438H8.00033Z" fill="#202126"/>
<path d="M9.31621 13.176C9.14954 13.176 8.99121 13.1094 8.87454 12.9927L6.51621 10.6344C6.27454 10.3927 6.27454 9.99271 6.51621 9.75104C6.75788 9.50938 7.15788 9.50938 7.39954 9.75104L9.31621 11.6677L13.5995 7.38437C13.8412 7.14271 14.2412 7.14271 14.4829 7.38437C14.7245 7.62604 14.7245 8.02604 14.4829 8.26771L9.75788 12.9927C9.64121 13.1094 9.48288 13.176 9.31621 13.176Z" fill="#202126"/>
</svg>
