<svg width="25" height="24" viewBox="0 0 25 24" fill="none" xmlns="http://www.w3.org/2000/svg">
<path d="M21.4997 6.73046C21.4797 6.73046 21.4497 6.73046 21.4197 6.73046C16.1297 6.20046 10.8497 6.00046 5.61967 6.53046L3.57967 6.73046C3.15967 6.77046 2.78967 6.47046 2.74967 6.05046C2.70967 5.63046 3.00967 5.27046 3.41967 5.23046L5.45967 5.03046C10.7797 4.49046 16.1697 4.70046 21.5697 5.23046C21.9797 5.27046 22.2797 5.64046 22.2397 6.05046C22.2097 6.44046 21.8797 6.73046 21.4997 6.73046Z" fill="white"/>
<path d="M8.99977 5.72C8.95977 5.72 8.91977 5.72 8.86977 5.71C8.46977 5.64 8.18977 5.25 8.25977 4.85L8.47977 3.54C8.63977 2.58 8.85977 1.25 11.1898 1.25H13.8098C16.1498 1.25 16.3698 2.63 16.5198 3.55L16.7398 4.85C16.8098 5.26 16.5298 5.65 16.1298 5.71C15.7198 5.78 15.3298 5.5 15.2698 5.1L15.0498 3.8C14.9098 2.93 14.8798 2.76 13.8198 2.76H11.1998C10.1398 2.76 10.1198 2.9 9.96977 3.79L9.73977 5.09C9.67977 5.46 9.35977 5.72 8.99977 5.72Z" fill="white"/>
<path d="M15.7104 22.7515H9.29039C5.80039 22.7515 5.66039 20.8215 5.55039 19.2615L4.90039 9.19154C4.87039 8.78154 5.19039 8.42154 5.60039 8.39154C6.02039 8.37154 6.37039 8.68154 6.40039 9.09154L7.05039 19.1615C7.16039 20.6815 7.20039 21.2515 9.29039 21.2515H15.7104C17.8104 21.2515 17.8504 20.6815 17.9504 19.1615L18.6004 9.09154C18.6304 8.68154 18.9904 8.37154 19.4004 8.39154C19.8104 8.42154 20.1304 8.77154 20.1004 9.19154L19.4504 19.2615C19.3404 20.8215 19.2004 22.7515 15.7104 22.7515Z" fill="white"/>
<path d="M14.1601 17.25H10.8301C10.4201 17.25 10.0801 16.91 10.0801 16.5C10.0801 16.09 10.4201 15.75 10.8301 15.75H14.1601C14.5701 15.75 14.9101 16.09 14.9101 16.5C14.9101 16.91 14.5701 17.25 14.1601 17.25Z" fill="white"/>
<path d="M15 13.25H10C9.59 13.25 9.25 12.91 9.25 12.5C9.25 12.09 9.59 11.75 10 11.75H15C15.41 11.75 15.75 12.09 15.75 12.5C15.75 12.91 15.41 13.25 15 13.25Z" fill="white"/>
</svg>
