<svg width="21" height="21" viewBox="0 0 21 21" fill="none" xmlns="http://www.w3.org/2000/svg">
<path d="M11.2337 18.3135H6.17533C3.21699 18.3135 2.16699 16.2385 2.16699 14.3052V7.55521C2.16699 4.67187 3.29199 3.54688 6.17533 3.54688H11.2337C14.117 3.54688 15.242 4.67187 15.242 7.55521V14.3052C15.242 17.1885 14.117 18.3135 11.2337 18.3135ZM6.17533 4.81354C4.00033 4.81354 3.43366 5.38021 3.43366 7.55521V14.3052C3.43366 15.3302 3.79199 17.0469 6.17533 17.0469H11.2337C13.4087 17.0469 13.9753 16.4802 13.9753 14.3052V7.55521C13.9753 5.38021 13.4087 4.81354 11.2337 4.81354H6.17533Z" fill="#68686B"/>
<path d="M17.8167 16.0208C17.4584 16.0208 17.0001 15.9041 16.4751 15.5374L14.2501 13.9791C14.0834 13.8624 13.9834 13.6708 13.9834 13.4624V8.39578C13.9834 8.18745 14.0834 7.99578 14.2501 7.87911L16.4751 6.32078C17.4667 5.62911 18.1917 5.82911 18.5334 6.00411C18.8751 6.18745 19.4584 6.66245 19.4584 7.87078V13.9791C19.4584 15.1874 18.8751 15.6708 18.5334 15.8458C18.3751 15.9374 18.1251 16.0208 17.8167 16.0208ZM15.2417 13.1291L17.2001 14.4958C17.5751 14.7541 17.8417 14.7791 17.9501 14.7208C18.0667 14.6624 18.1917 14.4291 18.1917 13.9791V7.87911C18.1917 7.42078 18.0584 7.19578 17.9501 7.13745C17.8417 7.07911 17.5751 7.10411 17.2001 7.36245L15.2417 8.72911V13.1291Z" fill="#68686B"/>
<path d="M10.083 10.7227C9.04967 10.7227 8.20801 9.88099 8.20801 8.84766C8.20801 7.81432 9.04967 6.97266 10.083 6.97266C11.1163 6.97266 11.958 7.81432 11.958 8.84766C11.958 9.88099 11.1163 10.7227 10.083 10.7227ZM10.083 8.22266C9.74134 8.22266 9.45801 8.50599 9.45801 8.84766C9.45801 9.18932 9.74134 9.47266 10.083 9.47266C10.4247 9.47266 10.708 9.18932 10.708 8.84766C10.708 8.50599 10.4247 8.22266 10.083 8.22266Z" fill="#68686B"/>
</svg>
