<svg width="40" height="40" viewBox="0 0 40 40" fill="none" xmlns="http://www.w3.org/2000/svg">
<rect width="40" height="40" rx="20" fill="white" fill-opacity="0.08"/>
<path d="M20 11.667C24.6033 11.667 28.335 15.4112 28.335 20.0312C28.335 24.307 25.1367 27.8337 21.0092 28.3337V22.587H23.2642L23.7317 20.0312H21.0092V19.127C21.0092 18.9578 21.0175 18.802 21.0342 18.6587C21.1542 17.6545 21.7083 17.2562 22.9042 17.2562C23.3283 17.2562 23.67 17.267 23.8667 17.287V14.9703C23.82 14.957 23.765 14.9445 23.7033 14.932C23.2725 14.8428 22.5167 14.7628 22.0542 14.7628C19.2692 14.7628 17.985 16.082 17.985 18.9295V20.0312H16.2658V22.587H17.985V28.1487C14.3542 27.2445 11.6633 23.9537 11.6633 20.0312C11.6633 15.412 15.395 11.667 19.9983 11.667H20Z" fill="white"/>
</svg>
