<svg width="40" height="40" viewBox="0 0 40 40" fill="none" xmlns="http://www.w3.org/2000/svg">
<rect width="40" height="40" rx="20" fill="white" fill-opacity="0.08"/>
<path d="M20 23.3248C19.5417 23.3248 19.11 23.2415 18.7042 23.0748C18.3083 22.905 17.948 22.6618 17.6425 22.3581C17.3381 22.0525 17.0944 21.692 16.9242 21.2956C16.7575 20.8898 16.6742 20.4581 16.6742 19.9998C16.6742 19.5415 16.7575 19.1098 16.9242 18.704C17.1009 18.2981 17.3409 17.944 17.6425 17.6423C17.9442 17.3406 18.2984 17.1006 18.7042 16.924C19.11 16.7573 19.5417 16.674 20 16.674C20.4584 16.674 20.89 16.7573 21.2959 16.924C21.7017 17.1006 22.0559 17.3406 22.3575 17.6423C22.6592 17.944 22.8992 18.2981 23.0759 18.704C23.2425 19.1098 23.3259 19.5415 23.3259 19.9998C23.3259 20.4581 23.2425 20.8898 23.0759 21.2956C22.8992 21.7015 22.6592 22.0556 22.3575 22.3573C22.0559 22.659 21.7017 22.899 21.2959 23.0756C20.89 23.2423 20.4584 23.3256 20 23.3256V23.3248ZM20 22.3265C20.645 22.3265 21.1917 22.1023 21.6392 21.6548C22.0975 21.1965 22.3267 20.6448 22.3267 19.9998C22.3267 19.3548 22.0975 18.8081 21.6392 18.3606C21.4286 18.1386 21.1742 17.9628 20.892 17.8444C20.6097 17.726 20.306 17.6677 20 17.6731C19.355 17.6731 18.8034 17.9023 18.345 18.3606C17.8975 18.8081 17.6734 19.3548 17.6734 19.9998C17.6734 20.6448 17.8975 21.1965 18.345 21.6548C18.8034 22.1023 19.355 22.3265 20 22.3265ZM23.325 17.3298C23.4119 17.3323 23.4983 17.3169 23.579 17.2847C23.6597 17.2524 23.733 17.204 23.7942 17.1423C23.8581 17.0822 23.909 17.0096 23.9439 16.9291C23.9787 16.8485 23.9967 16.7617 23.9967 16.674C23.9987 16.5859 23.9816 16.4985 23.9467 16.4176C23.9117 16.3368 23.8597 16.2645 23.7942 16.2056C23.7353 16.1401 23.663 16.0881 23.5822 16.0531C23.5013 16.0182 23.4139 16.0011 23.3259 16.0031C23.1484 16.0031 22.9925 16.0698 22.8575 16.2056C22.796 16.2668 22.7476 16.3399 22.7153 16.4204C22.6831 16.501 22.6677 16.5872 22.67 16.674C22.67 16.8515 22.7325 17.0073 22.8575 17.1423C22.9925 17.2673 23.1492 17.3298 23.3259 17.3298H23.325ZM18.0025 13.3331H21.9992C22.645 13.3331 23.2484 13.4581 23.8109 13.7081C24.3825 13.9473 24.8775 14.2806 25.2942 14.7073C25.72 15.124 26.0534 15.6181 26.2925 16.1906C26.5425 16.7523 26.6675 17.3556 26.6675 18.0015V21.9981C26.6675 22.644 26.5425 23.2473 26.2925 23.8098C26.0611 24.37 25.7216 24.8792 25.2934 25.3081C24.8767 25.7248 24.3825 26.0523 23.81 26.2915C23.2484 26.5415 22.645 26.6665 21.9992 26.6665H18.0017C17.3559 26.6665 16.7525 26.5415 16.1909 26.2915C15.6332 26.062 15.1244 25.7282 14.6917 25.3081C14.2716 24.8754 13.9379 24.3666 13.7084 23.809C13.4569 23.2389 13.329 22.622 13.3334 21.999V18.0015C13.3334 17.3556 13.4584 16.7523 13.7084 16.1906C13.9475 15.6181 14.275 15.124 14.6917 14.7073C15.1208 14.2787 15.6303 13.9388 16.1909 13.7073C16.7612 13.456 17.3792 13.3284 18.0025 13.3331ZM21.9992 14.3331H18.0017C17.4917 14.3331 17.0184 14.4315 16.5809 14.629C16.1431 14.8099 15.7453 15.0752 15.41 15.4098C15.0767 15.7431 14.8167 16.1331 14.6292 16.5806C14.4294 17.0274 14.3282 17.512 14.3325 18.0015V21.9981C14.3325 22.5081 14.4317 22.9815 14.6292 23.419C14.8101 23.8567 15.0754 24.2546 15.41 24.5898C15.7434 24.9231 16.1334 25.1831 16.5809 25.3706C17.0277 25.5704 17.5123 25.6716 18.0017 25.6673H21.9984C22.5084 25.6673 22.9817 25.5681 23.4192 25.3706C23.8569 25.1897 24.2548 24.9244 24.59 24.5898C24.9234 24.2565 25.1834 23.8665 25.3709 23.419C25.5707 22.9722 25.6719 22.4876 25.6675 21.9981V18.0015C25.6675 17.4915 25.5684 17.0181 25.3709 16.5806C25.1899 16.1429 24.9246 15.745 24.59 15.4098C24.2548 15.0752 23.8569 14.8099 23.4192 14.629C22.9724 14.4291 22.4878 14.3279 21.9984 14.3323L21.9992 14.3331Z" fill="white"/>
</svg>
