<svg width="21" height="20" viewBox="0 0 21 20" fill="none" xmlns="http://www.w3.org/2000/svg">
<path fill-rule="evenodd" clip-rule="evenodd" d="M1.54166 9.99836C1.54166 5.05082 5.55244 1.04004 10.5 1.04004C15.4476 1.04004 19.4583 5.05082 19.4583 9.99836C19.4583 14.9459 15.4476 18.9567 10.5 18.9567C5.55244 18.9567 1.54166 14.9459 1.54166 9.99836ZM4.66585 4.96021C4.98958 5.26639 5.45191 5.76556 5.60045 6.23841C5.87201 7.10292 5.5687 7.72377 5.20048 8.47752C5.12342 8.63519 5.04352 8.79877 4.96546 8.97161C4.83351 9.26369 4.65837 9.46877 4.48946 9.66661C4.27047 9.92302 4.06195 10.1673 3.97157 10.5729C3.86606 11.0464 3.82952 11.3513 3.97157 11.8152C4.19036 12.5297 4.61513 12.8892 5.2967 13.1955C5.87181 13.4541 6.34649 13.182 6.83685 12.901C7.28411 12.6447 7.74443 12.3809 8.30593 12.5054C8.46671 12.541 8.61974 12.5699 8.76617 12.5974C9.48666 12.7333 10.0473 12.8389 10.5841 13.5769C11.0732 14.2494 11.2001 14.6363 11.3781 15.1785C11.4099 15.2755 11.4433 15.3775 11.4808 15.487C11.7039 16.1389 11.6137 17.1142 11.5402 17.6371C14.9967 17.1709 17.7267 14.4135 18.1509 10.9437C17.9242 10.7591 17.5037 10.4325 17.2699 10.3519C16.7506 10.1729 16.3762 10.2792 15.9937 10.3876C15.6348 10.4894 15.2689 10.5931 14.7697 10.4654C14.6968 10.4467 14.6255 10.4286 14.5556 10.4109C13.5309 10.1511 12.8242 9.97194 12.0196 9.21527C10.8742 8.13821 10.328 7.02081 10.5552 5.46507C10.7251 4.30221 12.0287 3.07338 12.6047 2.5809C11.9357 2.39143 11.2297 2.29004 10.5 2.29004C8.16881 2.29004 6.07933 3.32486 4.66585 4.96021Z" fill="white"/>
</svg>
