<svg width="40" height="40" viewBox="0 0 40 40" fill="none" xmlns="http://www.w3.org/2000/svg">
<rect width="40" height="40" rx="20" fill="white" fill-opacity="0.08"/>
<path d="M25.4166 21.1707V25.1766H23.0941V21.4391C23.0941 20.4999 22.76 19.8599 21.9175 19.8599C21.2758 19.8599 20.895 20.2916 20.7258 20.7099C20.665 20.8582 20.65 21.0657 20.65 21.2749V25.1766H18.3266C18.3266 25.1766 18.3575 18.8466 18.3266 18.1916H20.65V19.1816L20.635 19.2041H20.65V19.1816C20.9583 18.7066 21.5091 18.0274 22.7433 18.0274C24.2725 18.0274 25.4166 19.0257 25.4166 21.1716V21.1707ZM15.8975 14.8232C15.1025 14.8232 14.5833 15.3441 14.5833 16.0299C14.5833 16.7007 15.0875 17.2374 15.8666 17.2374H15.8808C16.6908 17.2374 17.195 16.7007 17.195 16.0299C17.18 15.3441 16.6908 14.8232 15.8975 14.8232ZM14.7216 25.1766H17.0416V18.1916H14.7216V25.1766Z" fill="white"/>
</svg>
