<svg width="186" height="36" viewBox="0 0 186 36" fill="none" xmlns="http://www.w3.org/2000/svg">
<path d="M8.81678 17.9999C13.6862 17.9999 17.6336 14.0535 17.6336 9.18547C17.6336 4.31743 13.6862 0.371094 8.81678 0.371094C3.94741 0.371094 0 4.31743 0 9.18547C0 14.0535 3.94741 17.9999 8.81678 17.9999Z" fill="#BDFF00"/>
<path d="M26.4503 17.9999C31.3197 17.9999 35.2671 14.0535 35.2671 9.18547C35.2671 4.31743 31.3197 0.371094 26.4503 0.371094C21.581 0.371094 17.6335 4.31743 17.6335 9.18547C17.6335 14.0535 21.581 17.9999 26.4503 17.9999Z" fill="#BDFF00"/>
<path d="M8.81678 35.6288C13.6862 35.6288 17.6336 31.6824 17.6336 26.8144C17.6336 21.9463 13.6862 18 8.81678 18C3.94741 18 0 21.9463 0 26.8144C0 31.6824 3.94741 35.6288 8.81678 35.6288Z" fill="#BDFF00"/>
<path d="M26.4503 35.6288C31.3197 35.6288 35.2671 31.6824 35.2671 26.8144C35.2671 21.9463 31.3197 18 26.4503 18C21.581 18 17.6335 21.9463 17.6335 26.8144C17.6335 31.6824 21.581 35.6288 26.4503 35.6288Z" fill="#BDFF00"/>
<path d="M58.5624 7.33691C60.4927 7.33691 62.1034 7.56821 63.3963 8.02751C64.6892 8.48846 65.7198 9.11345 66.49 9.90247C67.2601 10.6915 67.8091 11.6003 68.1368 12.6288C68.4645 13.6573 68.6284 14.7383 68.6284 15.8735C68.6284 17.0086 68.4465 18.0978 68.0844 19.1444C67.7206 20.1909 67.1454 21.1161 66.3573 21.9232C65.5691 22.7303 64.5335 23.3684 63.2488 23.8375C61.9641 24.3067 60.4025 24.5429 58.5607 24.5429H48.7323V7.33691H58.5607H58.5624ZM52.2668 21.5098H58.4821C59.7569 21.5098 60.8155 21.3556 61.6561 21.0439C62.4967 20.7339 63.1652 20.3123 63.6617 19.7808C64.1566 19.2494 64.5122 18.6457 64.7236 17.9731C64.9366 17.299 65.0431 16.6001 65.0431 15.8718C65.0431 15.1435 64.9366 14.4545 64.7236 13.7984C64.5105 13.1422 64.1566 12.5582 63.6617 12.0432C63.1652 11.5297 62.4967 11.1213 61.6561 10.8194C60.8155 10.5176 59.7569 10.3667 58.4821 10.3667H52.2668V21.5082V21.5098Z" fill="white"/>
<path d="M83.7803 13.958L73.2882 22.9457L72.9162 21.9352H83.9654V24.5401H70.4452V21.9352L80.9373 12.9475L81.3092 13.958H70.4452V11.3252H83.7786V13.958H83.7803Z" fill="white"/>
<path d="M86.0192 11.3252H89.4718V24.5401H86.0192V11.3252Z" fill="white"/>
<path d="M98.7778 22.5201C97.344 22.5201 96.0823 22.3036 94.9926 21.8689C93.9029 21.4342 93.0574 20.7928 92.456 19.9415C91.853 19.0901 91.5532 18.0632 91.5532 16.8575C91.5532 15.6519 91.8448 14.6414 92.4298 13.7736C93.0148 12.9059 93.8505 12.2317 94.9402 11.7527C96.0299 11.2737 97.308 11.0342 98.7778 11.0342C99.1842 11.0342 99.5791 11.0604 99.9593 11.1146C100.339 11.1671 100.716 11.2392 101.088 11.3278L107.756 11.3541V13.959C106.853 13.977 105.937 13.8655 105.006 13.626C104.077 13.3865 103.258 13.1257 102.55 12.8419L102.47 12.6565C103.071 12.9403 103.638 13.2913 104.169 13.7064C104.7 14.123 105.129 14.602 105.457 15.1417C105.785 15.683 105.948 16.308 105.948 17.0167C105.948 18.1698 105.657 19.1573 105.072 19.9808C104.487 20.8059 103.659 21.4342 102.588 21.8689C101.516 22.3036 100.246 22.5201 98.7762 22.5201H98.7778ZM103.214 29.9921V29.354C103.214 28.5387 102.951 27.9711 102.43 27.6512C101.908 27.333 101.195 27.1723 100.292 27.1723H96.1741C95.3777 27.1723 94.7091 27.1099 94.1684 26.9853C93.6276 26.8606 93.1983 26.6834 92.8804 26.4538C92.5609 26.2225 92.3315 25.9534 92.1906 25.6434C92.048 25.3334 91.9776 25.0004 91.9776 24.6461C91.9776 23.9374 92.207 23.401 92.6674 23.0369C93.1279 22.6743 93.7473 22.4299 94.5272 22.3052C95.3056 22.1806 96.1642 22.1543 97.1032 22.2249L98.7762 22.5169C97.6603 22.5529 96.8328 22.6464 96.292 22.7957C95.7513 22.9466 95.4826 23.2435 95.4826 23.6864C95.4826 23.9522 95.5891 24.1605 95.8021 24.3114C96.0151 24.4623 96.315 24.5378 96.705 24.5378H101.034C102.221 24.5378 103.235 24.6657 104.075 24.9233C104.916 25.1808 105.558 25.6139 106.001 26.2258C106.443 26.8376 106.664 27.6759 106.664 28.7388V29.9888H103.212L103.214 29.9921ZM98.7778 20.0202C99.5381 20.0202 100.208 19.8955 100.783 19.6478C101.359 19.4001 101.806 19.0409 102.126 18.5701C102.445 18.1009 102.604 17.5383 102.604 16.8821C102.604 16.226 102.445 15.6322 102.126 15.1532C101.806 14.6742 101.364 14.3067 100.797 14.0492C100.23 13.7917 99.5562 13.6637 98.7778 13.6637C97.9995 13.6637 97.344 13.7917 96.759 14.0492C96.1741 14.3067 95.7234 14.6742 95.4039 15.1532C95.0844 15.6322 94.9254 16.2079 94.9254 16.8821C94.9254 17.5563 95.0844 18.1009 95.4039 18.5701C95.7234 19.0392 96.1691 19.3985 96.7459 19.6478C97.3211 19.8955 97.9978 20.0202 98.7778 20.0202Z" fill="white"/>
<path d="M109.115 11.3252H112.568V24.5401H109.115V11.3252ZM118.703 11.0332C119.517 11.0332 120.269 11.1398 120.961 11.3531C121.65 11.5663 122.253 11.8944 122.766 12.3373C123.279 12.7802 123.677 13.3429 123.961 14.0253C124.244 14.7077 124.385 15.5196 124.385 16.4579V24.5417H120.933V17.0698C120.933 15.9527 120.662 15.1325 120.123 14.6109C119.583 14.0876 118.703 13.8268 117.48 13.8268C116.559 13.8268 115.727 14.0039 114.983 14.3583C114.239 14.7126 113.638 15.1604 113.177 15.7017C112.717 16.2431 112.451 16.8057 112.381 17.3897L112.355 16.0331C112.443 15.413 112.646 14.8094 112.966 14.2254C113.285 13.6398 113.713 13.105 114.254 12.6162C114.794 12.129 115.435 11.7435 116.179 11.4597C116.923 11.1759 117.764 11.0348 118.703 11.0348V11.0332Z" fill="white"/>
<path d="M127.488 7.33691H131.021V24.5412H127.488V7.33691ZM130.596 14.4365H144.223V17.3875H130.596V14.4365ZM143.638 7.33691H147.171V24.5412H143.638V7.33691Z" fill="white"/>
<path d="M162.274 18.1856L162.3 19.0894C162.264 19.3388 162.176 19.6964 162.035 20.1672C161.892 20.6363 161.676 21.1383 161.384 21.6698C161.093 22.2012 160.716 22.7114 160.255 23.1986C159.795 23.6858 159.228 24.086 158.556 24.3961C157.883 24.7061 157.086 24.8619 156.165 24.8619C155.44 24.8619 154.727 24.7734 154.027 24.5962C153.327 24.419 152.695 24.1221 152.128 23.7055C151.561 23.2888 151.11 22.7262 150.773 22.0175C150.437 21.3089 150.268 20.4132 150.268 19.3322V11.3288H153.721V18.7482C153.721 19.5996 153.858 20.2689 154.132 20.7561C154.406 21.2433 154.809 21.5845 155.341 21.7797C155.872 21.9749 156.501 22.0716 157.227 22.0716C158.184 22.0716 159.007 21.8633 159.698 21.4467C160.388 21.03 160.95 20.5198 161.384 19.9178C161.819 19.3158 162.115 18.7384 162.274 18.1889V18.1856ZM165.542 24.5421H162.089V11.3271H165.542V24.5421Z" fill="white"/>
<path d="M171.844 6.00684V21.1361C171.844 21.7036 171.817 22.3106 171.763 22.9569C171.711 23.6048 171.657 24.1314 171.604 24.5382H168.391V6.00684H171.844ZM178.033 24.8335C176.864 24.8335 175.863 24.6252 175.031 24.2085C174.198 23.7918 173.525 23.2423 173.012 22.5599C172.497 21.8775 172.117 21.1328 171.87 20.3257C171.621 19.5187 171.498 18.7264 171.498 17.9455C171.498 16.9711 171.617 16.0673 171.857 15.234C172.096 14.4007 172.471 13.6691 172.986 13.0408C173.499 12.4125 174.172 11.9204 175.004 11.5644C175.837 11.2101 176.846 11.033 178.033 11.033C179.396 11.033 180.605 11.3217 181.659 11.8974C182.713 12.4732 183.545 13.2754 184.156 14.3039C184.767 15.3324 185.072 16.5463 185.072 17.9472C185.072 19.3481 184.762 20.5127 184.143 21.5511C183.524 22.5878 182.681 23.3949 181.62 23.9707C180.558 24.5464 179.362 24.8351 178.034 24.8351L178.033 24.8335ZM176.917 22.1744C177.856 22.1744 178.67 21.9973 179.36 21.643C180.05 21.2886 180.586 20.7965 180.967 20.1666C181.348 19.5367 181.539 18.7969 181.539 17.9455C181.539 16.6693 181.136 15.6408 180.33 14.8616C179.524 14.0824 178.387 13.692 176.917 13.692C175.889 13.692 174.995 13.861 174.234 14.1973C173.472 14.5335 172.884 15.0175 172.468 15.6457C172.052 16.2756 171.844 17.0417 171.844 17.9455C171.844 18.7788 172.047 19.5137 172.455 20.1535C172.861 20.7916 173.446 21.2886 174.208 21.643C174.97 21.9973 175.873 22.1744 176.917 22.1744Z" fill="white"/>
</svg>
