<svg width="40" height="40" viewBox="0 0 40 40" fill="none" xmlns="http://www.w3.org/2000/svg">
<rect width="40" height="40" rx="20" fill="white" fill-opacity="0.08"/>
<path d="M19.985 13.333C16.2642 13.333 14.2858 15.6747 14.2858 18.228C14.2858 19.4122 14.9592 20.8888 16.0383 21.3572C16.2025 21.4297 16.2908 21.3988 16.3275 21.2497C16.36 21.1363 16.5017 20.5905 16.57 20.333C16.5821 20.2928 16.5831 20.2501 16.573 20.2093C16.5629 20.1685 16.542 20.1313 16.5125 20.1013C16.1542 19.6947 15.87 18.9538 15.87 18.2588C15.87 16.478 17.3117 14.7488 19.765 14.7488C21.8858 14.7488 23.37 16.1022 23.37 18.038C23.37 20.2255 22.1917 21.7388 20.66 21.7388C19.8125 21.7388 19.1808 21.0855 19.3817 20.2772C19.6233 19.3147 20.0975 18.2797 20.0975 17.5855C20.0975 16.963 19.7392 16.448 19.0083 16.448C18.145 16.448 17.445 17.2872 17.445 18.4138C17.445 19.1297 17.7033 19.613 17.7033 19.613L16.6908 23.6322C16.4225 24.703 16.7275 26.4372 16.7533 26.5863C16.7692 26.6688 16.8633 26.6947 16.9158 26.6272C17 26.5188 18.0317 25.073 18.3208 24.028C18.4258 23.6472 18.8583 22.103 18.8583 22.103C19.1425 22.6072 19.9633 23.0297 20.8367 23.0297C23.4367 23.0297 25.315 20.7855 25.315 18.0005C25.3058 15.3305 22.9792 13.333 19.985 13.333Z" fill="white"/>
</svg>
