<svg width="40" height="40" viewBox="0 0 40 40" fill="none" xmlns="http://www.w3.org/2000/svg">
<rect width="40" height="40" rx="20" fill="white" fill-opacity="0.08"/>
<path d="M26.0642 17.1032C25.9183 16.5865 25.4908 16.1799 24.9492 16.0407C23.9592 15.7832 20 15.7832 20 15.7832C20 15.7832 16.0417 15.7832 15.0508 16.0315C14.52 16.1699 14.0825 16.5865 13.9367 17.1032C13.675 18.0449 13.675 19.9999 13.675 19.9999C13.675 19.9999 13.675 21.964 13.9358 22.8965C14.0817 23.4132 14.5083 23.8199 15.05 23.9582C16.05 24.2165 20 24.2165 20 24.2165C20 24.2165 23.9592 24.2165 24.95 23.9682C25.4917 23.8299 25.9183 23.4232 26.0642 22.9065C26.325 21.9649 26.325 20.0099 26.325 20.0099C26.325 20.0099 26.335 18.0457 26.0642 17.1032ZM18.7392 21.8057V18.194L22.0317 19.9999L18.7392 21.8057Z" fill="white"/>
</svg>
