<svg width="56" height="56" viewBox="0 0 56 56" fill="none" xmlns="http://www.w3.org/2000/svg">
<rect width="56" height="56" rx="10" fill="#C209C1"/>
<path d="M26.6793 14.6665C20.0527 14.6665 14.666 20.0532 14.666 26.6798C14.666 33.3065 20.0527 38.6932 26.6793 38.6932C33.306 38.6932 38.6927 33.3065 38.6927 26.6798C38.6927 20.0532 33.306 14.6665 26.6793 14.6665ZM29.9993 27.6665H27.666V29.9998C27.666 30.5465 27.2127 30.9998 26.666 30.9998C26.1193 30.9998 25.666 30.5465 25.666 29.9998V27.6665H23.3327C22.786 27.6665 22.3327 27.2132 22.3327 26.6665C22.3327 26.1198 22.786 25.6665 23.3327 25.6665H25.666V23.3332C25.666 22.7865 26.1193 22.3332 26.666 22.3332C27.2127 22.3332 27.666 22.7865 27.666 23.3332V25.6665H29.9993C30.546 25.6665 30.9993 26.1198 30.9993 26.6665C30.9993 27.2132 30.546 27.6665 29.9993 27.6665Z" fill="white"/>
<path d="M41.3207 37.2667C40.8807 36.4533 39.9474 36 38.6941 36C37.7474 36 36.9341 36.3867 36.4541 37.0533C35.9741 37.72 35.8674 38.6133 36.1607 39.5067C36.7341 41.24 37.7341 41.6267 38.2807 41.6933C38.3607 41.7067 38.4407 41.7067 38.5341 41.7067C39.1207 41.7067 40.0274 41.4533 40.9074 40.1333C41.6141 39.1067 41.7474 38.08 41.3207 37.2667Z" fill="white"/>
</svg>
