<svg width="56" height="56" viewBox="0 0 56 56" fill="none" xmlns="http://www.w3.org/2000/svg">
<rect width="56" height="56" rx="10" fill="#BDFF00"/>
<path d="M40 42.3335H16C15.4533 42.3335 15 41.8802 15 41.3335C15 40.7868 15.4533 40.3335 16 40.3335H40C40.5467 40.3335 41 40.7868 41 41.3335C41 41.8802 40.5467 42.3335 40 42.3335Z" fill="#1B1F3B"/>
<path d="M19.4667 23.1733H17.3333C16.6 23.1733 16 23.7733 16 24.5067V36C16 36.7333 16.6 37.3333 17.3333 37.3333H19.4667C20.2 37.3333 20.8 36.7333 20.8 36V24.5067C20.8 23.76 20.2 23.1733 19.4667 23.1733Z" fill="#1B1F3B"/>
<path d="M29.0663 18.9199H26.9329C26.1996 18.9199 25.5996 19.5199 25.5996 20.2533V35.9999C25.5996 36.7333 26.1996 37.3333 26.9329 37.3333H29.0663C29.7996 37.3333 30.3996 36.7333 30.3996 35.9999V20.2533C30.3996 19.5199 29.7996 18.9199 29.0663 18.9199Z" fill="#1B1F3B"/>
<path d="M38.6659 14.6665H36.5326C35.7992 14.6665 35.1992 15.2665 35.1992 15.9998V35.9998C35.1992 36.7332 35.7992 37.3332 36.5326 37.3332H38.6659C39.3992 37.3332 39.9992 36.7332 39.9992 35.9998V15.9998C39.9992 15.2665 39.3992 14.6665 38.6659 14.6665Z" fill="#1B1F3B"/>
</svg>
