<svg width="56" height="56" viewBox="0 0 56 56" fill="none" xmlns="http://www.w3.org/2000/svg">
<rect width="56" height="56" rx="10" fill="#BDFF00"/>
<path d="M22.7324 25.5201V27.0667H27.0791V22.7334H25.5324C23.9858 22.7334 22.7324 23.9867 22.7324 25.5201Z" fill="#1B1F3B"/>
<path d="M22.7324 30.4798C22.7324 32.0131 23.9858 33.2664 25.5191 33.2664H27.0658V28.9331H22.7324V30.4798Z" fill="#1B1F3B"/>
<path d="M28.9336 33.2664H30.4803C32.0136 33.2664 33.2669 32.0131 33.2669 30.4798V28.9331H28.9336V33.2664Z" fill="#1B1F3B"/>
<path d="M33.586 14.6665H22.4127C17.5593 14.6665 14.666 17.5598 14.666 22.4132V33.5732C14.666 38.4398 17.5593 41.3332 22.4127 41.3332H33.5727C38.426 41.3332 41.3193 38.4398 41.3193 33.5865V22.4132C41.3327 17.5598 38.4394 14.6665 33.586 14.6665ZM35.1327 30.4798C35.1327 33.0398 33.0393 35.1332 30.4793 35.1332H25.5194C22.9593 35.1332 20.866 33.0532 20.866 30.4798V25.5198C20.866 22.9598 22.9593 20.8665 25.5194 20.8665H30.4793C33.0393 20.8665 35.1327 22.9465 35.1327 25.5198V30.4798Z" fill="#1B1F3B"/>
<path d="M30.4803 22.7334H28.9336V27.0801H33.2803V25.5334C33.2669 23.9867 32.0136 22.7334 30.4803 22.7334Z" fill="#1B1F3B"/>
</svg>
