<svg width="56" height="56" viewBox="0 0 56 56" fill="none" xmlns="http://www.w3.org/2000/svg">
<rect width="56" height="56" rx="10" fill="#C209C1"/>
<path d="M41.3327 15.6665H14.666C14.1193 15.6665 13.666 15.2132 13.666 14.6665C13.666 14.1198 14.1193 13.6665 14.666 13.6665H41.3327C41.8794 13.6665 42.3327 14.1198 42.3327 14.6665C42.3327 15.2132 41.8794 15.6665 41.3327 15.6665Z" fill="white"/>
<path d="M34.227 41.7865C34.0537 42.1332 33.6937 42.3332 33.3337 42.3332C33.187 42.3332 33.027 42.2932 32.8937 42.2265L28.0003 39.7865L23.107 42.2265C22.9737 42.2932 22.8137 42.3332 22.667 42.3332C22.307 42.3332 21.947 42.1332 21.7737 41.7865C21.5203 41.2798 21.7203 40.6798 22.227 40.4398L27.0003 38.0532V34.6665H29.0003V38.0532L33.7737 40.4398C34.2803 40.6798 34.4803 41.2798 34.227 41.7865Z" fill="white"/>
<path d="M16 14.6665V30.7998C16 33.3332 17.3333 34.6665 19.8667 34.6665H36.1333C38.6667 34.6665 40 33.3332 40 30.7998V14.6665H16ZM34.64 23.4398L30.44 26.9465C30.0533 27.2665 29.56 27.3998 29.0933 27.3198C28.6133 27.2398 28.2 26.9465 27.9467 26.5198L26.5467 24.1865L22.64 27.4398C22.4533 27.5998 22.2267 27.6665 22 27.6665C21.72 27.6665 21.4267 27.5465 21.2267 27.3065C20.8667 26.8798 20.9333 26.2532 21.36 25.8932L25.56 22.3865C25.9467 22.0665 26.44 21.9332 26.9067 22.0132C27.3867 22.0932 27.8 22.3865 28.0533 22.8132L29.4533 25.1465L33.36 21.8932C33.7867 21.5332 34.4133 21.5998 34.7733 22.0265C35.12 22.4532 35.0667 23.0798 34.64 23.4398Z" fill="white"/>
</svg>
