<svg width="38" height="38" viewBox="0 0 38 38" fill="none" xmlns="http://www.w3.org/2000/svg">
<path d="M32.5356 14.9467H30.794C30.5565 14.9467 30.319 14.9942 30.0973 15.0576L22.1965 7.15673C22.9565 6.17506 22.8932 4.7659 21.9907 3.87923L20.7557 2.64423C19.8215 1.71006 18.1748 1.71006 17.2248 2.64423L15.9898 3.87923C15.1032 4.7659 15.0398 6.17506 15.7998 7.15673L7.89898 15.0576C7.67732 14.9942 7.43982 14.9467 7.20232 14.9467H5.46065C4.08315 14.9467 2.95898 16.0709 2.95898 17.4484V19.1901C2.95898 20.5676 4.08315 21.6917 5.46065 21.6917H7.20232C8.57982 21.6917 9.70398 20.5676 9.70398 19.1901V17.4484C9.70398 17.2109 9.65648 16.9734 9.59315 16.7517L17.494 8.8509C17.9215 9.1834 18.4598 9.35756 18.9982 9.35756C19.5365 9.35756 20.0748 9.16756 20.5182 8.83506L28.419 16.7359C28.3557 16.9576 28.3081 17.1951 28.3081 17.4326V19.1742C28.3081 20.5517 29.4323 21.6759 30.8098 21.6759H32.5515C33.929 21.6759 35.0532 20.5517 35.0532 19.1742V17.4326C35.0215 16.0551 33.9131 14.9467 32.5356 14.9467Z" fill="#BDFF00"/>
<path d="M24.937 26.2041L22.3403 28.4999H15.5953L12.9987 26.2041C11.4945 24.9691 11.4945 24.0191 12.6345 22.5624L17.2103 16.7674C17.527 16.3716 17.8912 16.1024 18.3028 15.9599C18.7303 15.8174 19.1895 15.8174 19.6328 15.9599C20.0287 16.1024 20.3928 16.3716 20.7253 16.7674L25.3012 22.5624C26.4412 24.0032 26.3937 24.9057 24.937 26.2041Z" fill="#BDFF00"/>
<path d="M21.0432 34.8332H16.9424C15.4857 34.8332 14.3932 33.6457 14.6782 32.3791L15.1691 30.1782C15.2641 29.7349 15.6599 29.4341 16.1032 29.4341H21.8824C22.3257 29.4341 22.7057 29.7349 22.8166 30.1782L23.3074 32.3791C23.6241 33.7249 22.5949 34.8332 21.0432 34.8332Z" fill="#BDFF00"/>
</svg>
