<svg width="38" height="38" viewBox="0 0 38 38" fill="none" xmlns="http://www.w3.org/2000/svg">
<path d="M30.8748 11.8749L28.5156 14.234L23.7656 9.48402L26.1248 7.12485C26.7898 6.45985 27.6448 6.14319 28.4998 6.14319C29.3548 6.14319 30.2098 6.45985 30.8748 7.12485C32.189 8.43902 32.189 10.5607 30.8748 11.8749Z" fill="#BDFF00"/>
<path d="M27.4061 15.3583L10.2903 32.4583C8.97615 33.7724 6.85448 33.7724 5.54031 32.4583C4.22615 31.1441 4.22615 29.0224 5.54031 27.7083L22.6561 10.6083L27.4061 15.3583Z" fill="#BDFF00"/>
<path d="M15.7556 5.54169L16.4048 3.34086C16.4681 3.13503 16.4048 2.91336 16.2623 2.75503C16.1198 2.59669 15.8665 2.53336 15.6606 2.59669L13.4598 3.24586L11.259 2.59669C11.0531 2.53336 10.8315 2.59669 10.6731 2.73919C10.5148 2.89753 10.4673 3.11919 10.5306 3.32503L11.164 5.54169L10.5148 7.74253C10.4515 7.94836 10.5148 8.17003 10.6573 8.32836C10.8156 8.48669 11.0373 8.53419 11.2431 8.47086L13.4598 7.83753L15.6606 8.48669C15.724 8.50253 15.7715 8.51836 15.8348 8.51836C15.9931 8.51836 16.1356 8.45503 16.2623 8.34419C16.4206 8.18586 16.4681 7.96419 16.4048 7.75836L15.7556 5.54169Z" fill="#BDFF00"/>
<path d="M9.42163 15.0417L10.0708 12.8409C10.1341 12.635 10.0708 12.4134 9.9283 12.255C9.76997 12.0967 9.5483 12.0492 9.34247 12.1125L7.1258 12.7459L4.92497 12.0967C4.71913 12.0334 4.49747 12.0967 4.33913 12.2392C4.1808 12.3975 4.1333 12.6192 4.19663 12.825L4.82997 15.0417L4.1808 17.2425C4.11747 17.4484 4.1808 17.67 4.3233 17.8284C4.48163 17.9867 4.7033 18.0342 4.90913 17.9709L7.10997 17.3217L9.3108 17.9709C9.3583 17.9867 9.42163 17.9867 9.48497 17.9867C9.6433 17.9867 9.7858 17.9234 9.91247 17.8125C10.0708 17.6542 10.1183 17.4325 10.055 17.2267L9.42163 15.0417Z" fill="#BDFF00"/>
<path d="M33.1699 22.9583L33.8191 20.7574C33.8824 20.5516 33.8191 20.3299 33.6766 20.1716C33.5182 20.0133 33.2966 19.9658 33.0907 20.0291L30.8899 20.6783L28.6891 20.0291C28.4832 19.9658 28.2616 20.0291 28.1032 20.1716C27.9449 20.3299 27.8974 20.5516 27.9607 20.7574L28.6099 22.9583L27.9607 25.1591C27.8974 25.3649 27.9607 25.5866 28.1032 25.7449C28.2616 25.9033 28.4832 25.9508 28.6891 25.8874L30.8899 25.2383L33.0907 25.8874C33.1382 25.9033 33.2016 25.9033 33.2649 25.9033C33.4232 25.9033 33.5657 25.8399 33.6924 25.7291C33.8507 25.5708 33.8982 25.3491 33.8349 25.1433L33.1699 22.9583Z" fill="#BDFF00"/>
</svg>
