<svg width="38" height="38" viewBox="0 0 38 38" fill="none" xmlns="http://www.w3.org/2000/svg">
<path d="M33.6463 9.13579V14.25C33.6463 17.5981 32.5257 18.8401 29.4991 19.0107C29.0626 19.0353 28.7062 18.6772 28.7062 18.24V16.435C28.7062 11.495 26.5054 9.29413 21.5654 9.29413H19.7604C19.3232 9.29413 18.9651 8.93779 18.9897 8.50126C19.1603 5.4747 20.4023 4.35413 23.7504 4.35413H28.8646C32.4904 4.35413 33.6463 5.50996 33.6463 9.13579Z" fill="#BDFF00"/>
<path d="M26.3296 16.4351V21.5651C26.3296 25.1751 25.1738 26.331 21.5638 26.331H16.4338C12.8238 26.331 11.668 25.1751 11.668 21.5651V16.4351C11.668 12.8251 12.8238 11.6693 16.4338 11.6693H21.5638C25.1738 11.6693 26.3296 12.8251 26.3296 16.4351Z" fill="#BDFF00"/>
<path d="M18.2393 28.7058C18.6766 28.7058 19.0347 29.0621 19.0101 29.4986C18.8395 32.5252 17.5975 33.6458 14.2493 33.6458H9.13518C5.50935 33.6458 4.35352 32.4899 4.35352 28.8641V23.7499C4.35352 20.4018 5.47409 19.1598 8.50065 18.9892C8.93718 18.9646 9.29352 19.3227 9.29352 19.7599V21.5649C9.29352 26.5049 11.4943 28.7058 16.4343 28.7058H18.2393Z" fill="#BDFF00"/>
</svg>
