<svg width="38" height="38" viewBox="0 0 38 38" fill="none" xmlns="http://www.w3.org/2000/svg">
<path d="M21.264 23.7499H6.96655C4.08488 23.7499 2.24821 20.6624 3.64155 18.1291L7.33071 11.4157L10.7824 5.12991C12.2232 2.51741 15.9915 2.51741 17.4324 5.12991L20.8999 11.4157L22.5624 14.4399L24.589 18.1291C25.9824 20.6624 24.1457 23.7499 21.264 23.7499Z" fill="#BDFF00"/>
<path d="M35.863 25.3333C35.863 31.0175 31.2555 35.625 25.5714 35.625C20.7422 35.625 16.7047 32.3158 15.5805 27.8191C15.4697 27.3441 15.8339 26.9166 16.3247 26.9166H22.2939C24.4947 26.9166 26.4897 25.7766 27.6139 23.8925C28.7222 21.9925 28.7697 19.7125 27.693 17.7808L26.9014 16.3241C26.6005 15.7858 27.028 15.1366 27.6297 15.2475C32.3164 16.1975 35.863 20.3458 35.863 25.3333Z" fill="#BDFF00"/>
</svg>
