<svg width="38" height="38" viewBox="0 0 38 38" fill="none" xmlns="http://www.w3.org/2000/svg">
<path d="M25.6335 3.16663H12.3652C6.60185 3.16663 3.16602 6.60246 3.16602 12.3658V25.6183C3.16602 31.3975 6.60185 34.8333 12.3652 34.8333H25.6177C31.381 34.8333 34.8168 31.3975 34.8168 25.6341V12.3658C34.8327 6.60246 31.3968 3.16663 25.6335 3.16663ZM18.3818 18.7466C18.3818 23.6233 17.321 24.7158 14.4868 26.3941C14.2968 26.505 14.091 26.5525 13.8852 26.5525C13.4735 26.5525 13.0777 26.3466 12.856 25.9666C12.5235 25.3966 12.7135 24.6683 13.2677 24.3358C15.1835 23.1958 15.8485 22.7841 15.9752 19.9183H12.9668C11.241 19.9183 9.89518 18.5725 9.89518 16.8466V14.5033C9.89518 12.7775 11.241 11.4316 12.9668 11.4316H15.326C17.0202 11.4316 18.3977 12.8091 18.3977 14.5033V18.7466H18.3818ZM28.1035 18.7466C28.1035 23.6233 27.0427 24.7158 24.2085 26.3941C24.0185 26.505 23.8127 26.5525 23.6068 26.5525C23.1952 26.5525 22.7993 26.3466 22.5777 25.9666C22.2452 25.3966 22.4352 24.6683 22.9893 24.3358C24.9052 23.1958 25.5702 22.7841 25.6968 19.9183H22.6727C20.9468 19.9183 19.601 18.5725 19.601 16.8466V14.5033C19.601 12.7775 20.9468 11.4316 22.6727 11.4316H25.0318C26.726 11.4316 28.1035 12.8091 28.1035 14.5033V18.7466Z" fill="#BDFF00"/>
</svg>
