<svg width="38" height="38" viewBox="0 0 38 38" fill="none" xmlns="http://www.w3.org/2000/svg">
<path d="M33.1702 6.53913C32.711 5.87413 32.1252 5.28829 31.4602 4.82913C29.956 3.73663 27.9927 3.16663 25.6335 3.16663H12.3652C12.0485 3.16663 11.7318 3.18246 11.431 3.21413C6.23768 3.54663 3.16602 6.91913 3.16602 12.3658V25.6341C3.16602 27.9933 3.73602 29.9566 4.82852 31.4608C5.28768 32.1258 5.87352 32.7116 6.53852 33.1708C7.83685 34.1208 9.48351 34.675 11.431 34.8016C11.7318 34.8175 12.0485 34.8333 12.3652 34.8333H25.6335C31.3968 34.8333 34.8327 31.3975 34.8327 25.6341V12.3658C34.8327 10.0066 34.2627 8.04329 33.1702 6.53913ZM29.6868 14.0916C29.6868 14.7408 29.1485 15.2791 28.4993 15.2791C27.8502 15.2791 27.3118 14.7408 27.3118 14.0916V12.2233C27.3118 11.7166 26.9002 11.305 26.3935 11.305H20.1868V26.695H23.0052C23.6543 26.695 24.1927 27.2333 24.1927 27.8825C24.1927 28.5316 23.6543 29.07 23.0052 29.07H14.9935C14.3443 29.07 13.806 28.5316 13.806 27.8825C13.806 27.2333 14.3443 26.695 14.9935 26.695H17.8118V11.305H11.6052C11.0985 11.305 10.6868 11.7166 10.6868 12.2233V14.0916C10.6868 14.7408 10.1485 15.2791 9.49935 15.2791C8.85018 15.2791 8.31185 14.7408 8.31185 14.0916V12.2233C8.31185 10.4025 9.78435 8.92996 11.6052 8.92996H26.3777C28.1985 8.92996 29.671 10.4025 29.671 12.2233V14.0916H29.6868Z" fill="#BDFF00"/>
</svg>
