<svg width="38" height="38" viewBox="0 0 38 38" fill="none" xmlns="http://www.w3.org/2000/svg">
<path d="M33.2493 8.3125H22.166C21.5168 8.3125 20.9785 7.77417 20.9785 7.125C20.9785 6.47583 21.5168 5.9375 22.166 5.9375H33.2493C33.8985 5.9375 34.4368 6.47583 34.4368 7.125C34.4368 7.77417 33.8985 8.3125 33.2493 8.3125Z" fill="#BDFF00"/>
<path d="M33.2493 16.2291H22.166C21.5168 16.2291 20.9785 15.6908 20.9785 15.0416C20.9785 14.3925 21.5168 13.8541 22.166 13.8541H33.2493C33.8985 13.8541 34.4368 14.3925 34.4368 15.0416C34.4368 15.6908 33.8985 16.2291 33.2493 16.2291Z" fill="#BDFF00"/>
<path d="M33.25 24.1459H4.75C4.10083 24.1459 3.5625 23.6075 3.5625 22.9584C3.5625 22.3092 4.10083 21.7709 4.75 21.7709H33.25C33.8992 21.7709 34.4375 22.3092 34.4375 22.9584C34.4375 23.6075 33.8992 24.1459 33.25 24.1459Z" fill="#BDFF00"/>
<path d="M33.25 32.0625H4.75C4.10083 32.0625 3.5625 31.5242 3.5625 30.875C3.5625 30.2258 4.10083 29.6875 4.75 29.6875H33.25C33.8992 29.6875 34.4375 30.2258 34.4375 30.875C34.4375 31.5242 33.8992 32.0625 33.25 32.0625Z" fill="#BDFF00"/>
<path d="M12.54 5.54163H8.04333C5.82667 5.54163 4.75 6.61829 4.75 8.83496V13.3475C4.75 15.5641 5.82667 16.6408 8.04333 16.6408H12.5558C14.7725 16.6408 15.8492 15.5641 15.8492 13.3475V8.83496C15.8333 6.61829 14.7567 5.54163 12.54 5.54163Z" fill="#BDFF00"/>
</svg>
