<svg width="38" height="38" viewBox="0 0 38 38" fill="none" xmlns="http://www.w3.org/2000/svg">
<path d="M25.6335 3.16663H12.3652C6.60185 3.16663 3.16602 6.60246 3.16602 12.3658V25.6183C3.16602 31.3975 6.60185 34.8333 12.3652 34.8333H25.6177C31.381 34.8333 34.8168 31.3975 34.8168 25.6341V12.3658C34.8327 6.60246 31.3968 3.16663 25.6335 3.16663ZM19.8227 24.9375L17.8277 26.9325C16.8143 27.9616 15.1518 27.9616 14.1227 26.9325L11.0668 23.8766C10.0377 22.8475 10.0535 21.2008 11.0668 20.1716L13.0777 18.1766C13.3943 17.8758 13.8852 17.8758 14.2018 18.1766L19.8385 23.8133C20.1393 24.13 20.1393 24.6366 19.8227 24.9375ZM26.9318 17.8283L22.0552 22.705C21.7385 23.0216 21.2477 23.0216 20.931 22.705L15.2943 17.0683C14.9777 16.7516 14.9777 16.2608 15.2943 15.9441L20.171 11.0675C21.1843 10.0383 22.8468 10.0383 23.876 11.0675L26.9318 14.1233C27.961 15.1525 27.961 16.815 26.9318 17.8283Z" fill="#BDFF00"/>
</svg>
