<svg width="38" height="38" viewBox="0 0 38 38" fill="none" xmlns="http://www.w3.org/2000/svg">
<path d="M27.8027 3.16663H10.1485C6.30102 3.16663 3.16602 6.30163 3.16602 10.1491V20.4408V20.7575C3.16602 24.6208 6.30102 27.74 10.1485 27.74H16.2285C17.0993 27.74 17.8118 28.4525 17.8118 29.3233V30.8591C17.8118 31.73 17.0993 32.4425 16.2285 32.4425H12.3968C11.7477 32.4425 11.2093 32.9808 11.2093 33.63C11.2093 34.2791 11.7318 34.8333 12.3968 34.8333H25.6177C26.2668 34.8333 26.8052 34.295 26.8052 33.6458C26.8052 32.9966 26.2668 32.4583 25.6177 32.4583H21.786C20.9152 32.4583 20.2027 31.7458 20.2027 30.875V29.3391C20.2027 28.4683 20.9152 27.7558 21.786 27.7558H27.8185C31.6818 27.7558 34.801 24.6208 34.801 20.7733V20.4566V10.165C34.7852 6.30163 31.6502 3.16663 27.8027 3.16663Z" fill="#BDFF00"/>
</svg>
