<svg width="38" height="38" viewBox="0 0 38 38" fill="none" xmlns="http://www.w3.org/2000/svg">
<path d="M18.2077 3.16663C9.91102 3.16663 3.16602 9.91163 3.16602 18.2083C3.16602 26.505 9.91102 33.25 18.2077 33.25C26.5043 33.25 33.2493 26.505 33.2493 18.2083C33.2493 9.91163 26.5043 3.16663 18.2077 3.16663ZM18.2077 21.7708H13.4577C12.8085 21.7708 12.2702 21.2325 12.2702 20.5833C12.2702 19.9341 12.8085 19.3958 13.4577 19.3958H18.2077C18.8568 19.3958 19.3952 19.9341 19.3952 20.5833C19.3952 21.2325 18.8568 21.7708 18.2077 21.7708ZM22.9577 17.0208H13.4577C12.8085 17.0208 12.2702 16.4825 12.2702 15.8333C12.2702 15.1841 12.8085 14.6458 13.4577 14.6458H22.9577C23.6068 14.6458 24.1452 15.1841 24.1452 15.8333C24.1452 16.4825 23.6068 17.0208 22.9577 17.0208Z" fill="#BDFF00"/>
<path d="M33.725 34.8311C33.44 34.8311 33.1551 34.7202 32.9492 34.5144L30.0042 31.5694C29.5767 31.1419 29.5767 30.4452 30.0042 30.0019C30.4317 29.5744 31.1284 29.5744 31.5717 30.0019L34.5167 32.9469C34.9442 33.3744 34.9442 34.0711 34.5167 34.5144C34.295 34.7202 34.01 34.8311 33.725 34.8311Z" fill="#BDFF00"/>
</svg>
