<svg width="38" height="38" viewBox="0 0 38 38" fill="none" xmlns="http://www.w3.org/2000/svg">
<path d="M33.2493 15.8334H4.74935C3.87852 15.8334 3.16602 16.5459 3.16602 17.4167V25.6342C3.16602 25.9509 3.18185 26.2675 3.21352 26.5842C3.53018 31.4609 6.53852 34.4692 11.4152 34.7859C11.7318 34.8175 12.0485 34.8334 12.3652 34.8334H25.6335C25.9502 34.8334 26.2669 34.8175 26.5835 34.7859C31.4602 34.4692 34.4685 31.4609 34.7852 26.5842C34.8168 26.2675 34.8327 25.9509 34.8327 25.6342V17.4167C34.8327 16.5459 34.1202 15.8334 33.2493 15.8334ZM12.666 25.5709C13.2043 26.3625 13.9327 27.0117 14.7718 27.4392C15.3735 27.7242 15.611 28.4367 15.3102 29.0384C15.1043 29.45 14.6768 29.6875 14.2493 29.6875C14.0752 29.6875 13.8852 29.64 13.7268 29.5609C12.4918 28.9592 11.4468 28.025 10.7027 26.9009C10.0693 25.9509 10.0693 24.7159 10.7027 23.7659C11.4468 22.6417 12.4918 21.7075 13.7268 21.1059C14.3127 20.805 15.0252 21.0425 15.3102 21.6284C15.611 22.23 15.3735 22.9425 14.7718 23.2275C13.9327 23.655 13.2043 24.3042 12.666 25.0959C12.571 25.2384 12.571 25.4284 12.666 25.5709ZM27.6285 26.9009C26.8685 28.025 25.8235 28.9592 24.6043 29.5609C24.4302 29.64 24.256 29.6875 24.0818 29.6875C23.6385 29.6875 23.2268 29.45 23.021 29.0384C22.7202 28.4367 22.9577 27.7242 23.5435 27.4392C24.3985 27.0117 25.1269 26.3625 25.6494 25.5709C25.7602 25.4284 25.7602 25.2384 25.6494 25.0959C25.1269 24.3042 24.3985 23.655 23.5435 23.2275C22.9577 22.9425 22.7202 22.23 23.021 21.6284C23.306 21.0425 24.0185 20.805 24.6043 21.1059C25.8235 21.7075 26.8685 22.6417 27.6285 23.7659C28.2619 24.7159 28.2619 25.9509 27.6285 26.9009Z" fill="#BDFF00"/>
<path d="M34.8327 12.3658V12.6666C34.8327 13.5375 34.1202 14.25 33.2493 14.25L4.74935 14.2658C3.87852 14.2658 3.16602 13.5533 3.16602 12.6825V12.3658C3.16602 12.0491 3.18185 11.7325 3.21352 11.4158C3.53018 6.53913 6.53852 3.53079 11.4152 3.21413C11.7318 3.18246 12.0485 3.16663 12.3652 3.16663H25.6335C25.9502 3.16663 26.2669 3.18246 26.5835 3.21413C31.4602 3.53079 34.4685 6.53913 34.7852 11.4158C34.8168 11.7325 34.8327 12.0491 34.8327 12.3658Z" fill="#BDFF00"/>
</svg>
