<svg width="38" height="38" viewBox="0 0 38 38" fill="none" xmlns="http://www.w3.org/2000/svg">
<path d="M28.9282 5.30421C28.184 5.19337 27.329 5.14587 26.1257 5.14587H11.8757C10.6882 5.14587 9.81732 5.19337 9.12065 5.28837C3.81649 5.87421 2.77148 9.02504 2.77148 14.25V23.75C2.77148 28.975 3.81648 32.1259 9.07315 32.6959C9.81732 32.8067 10.6723 32.8542 11.8757 32.8542H26.1257C27.3132 32.8542 28.184 32.8067 28.8807 32.7117C34.1848 32.1259 35.2298 28.9909 35.2298 23.75V14.25C35.2298 9.02504 34.1848 5.87421 28.9282 5.30421ZM15.9765 14.25C16.8632 14.25 17.5757 14.9625 17.5757 15.8334C17.5757 16.7042 16.8632 17.4167 15.9923 17.4167C15.1215 17.4167 14.409 16.7042 14.409 15.8334C14.409 14.9625 15.1057 14.25 15.9765 14.25ZM11.2265 14.25C12.129 14.25 12.8257 14.9625 12.8257 15.8334C12.8257 16.7042 12.1132 17.4167 11.2423 17.4167C10.3715 17.4167 9.65899 16.7042 9.65899 15.8334C9.65899 14.9625 10.3557 14.25 11.2265 14.25ZM26.9173 25.7292H11.1157C10.4665 25.7292 9.91232 25.1909 9.91232 24.5417C9.91232 23.8925 10.4348 23.3542 11.084 23.3542H26.9173C27.5665 23.3542 28.1048 23.8925 28.1048 24.5417C28.1048 25.1909 27.5665 25.7292 26.9173 25.7292ZM26.9173 17.0209H21.3757C20.7265 17.0209 20.1882 16.4825 20.1882 15.8334C20.1882 15.1842 20.7265 14.6459 21.3757 14.6459H26.9173C27.5665 14.6459 28.1048 15.1842 28.1048 15.8334C28.1048 16.4825 27.5665 17.0209 26.9173 17.0209Z" fill="#BDFF00"/>
</svg>
