<svg width="55" height="55" viewBox="0 0 55 55" fill="none" xmlns="http://www.w3.org/2000/svg">
<g clip-path="url(#clip0_8201_78676)">
<rect width="55" height="55" rx="8" fill="#FAFAFA"/>
<g clip-path="url(#clip1_8201_78676)">
<path d="M27.5 16.0211C31.2406 16.0211 31.6836 16.0375 33.1547 16.1031C34.5219 16.1633 35.2602 16.393 35.7523 16.5844C36.4031 16.8359 36.8734 17.1422 37.3602 17.6289C37.8523 18.1211 38.1531 18.5859 38.4047 19.2367C38.5961 19.7289 38.8258 20.4727 38.8859 21.8344C38.9516 23.3109 38.968 23.7539 38.968 27.4891C38.968 31.2297 38.9516 31.6727 38.8859 33.1438C38.8258 34.5109 38.5961 35.2492 38.4047 35.7414C38.1531 36.3922 37.8469 36.8625 37.3602 37.3492C36.868 37.8414 36.4031 38.1422 35.7523 38.3938C35.2602 38.5852 34.5164 38.8148 33.1547 38.875C31.6781 38.9406 31.2352 38.957 27.5 38.957C23.7594 38.957 23.3164 38.9406 21.8453 38.875C20.4781 38.8148 19.7398 38.5852 19.2477 38.3938C18.5969 38.1422 18.1266 37.8359 17.6398 37.3492C17.1477 36.857 16.8469 36.3922 16.5953 35.7414C16.4039 35.2492 16.1742 34.5055 16.1141 33.1438C16.0484 31.6672 16.032 31.2242 16.032 27.4891C16.032 23.7484 16.0484 23.3055 16.1141 21.8344C16.1742 20.4672 16.4039 19.7289 16.5953 19.2367C16.8469 18.5859 17.1531 18.1156 17.6398 17.6289C18.132 17.1367 18.5969 16.8359 19.2477 16.5844C19.7398 16.393 20.4836 16.1633 21.8453 16.1031C23.3164 16.0375 23.7594 16.0211 27.5 16.0211ZM27.5 13.5C23.6992 13.5 23.2234 13.5164 21.7305 13.582C20.243 13.6477 19.2203 13.8883 18.3344 14.2328C17.4102 14.5938 16.6281 15.0695 15.8516 15.8516C15.0695 16.6281 14.5938 17.4102 14.2328 18.3289C13.8883 19.2203 13.6477 20.2375 13.582 21.725C13.5164 23.2234 13.5 23.6992 13.5 27.5C13.5 31.3008 13.5164 31.7766 13.582 33.2695C13.6477 34.757 13.8883 35.7797 14.2328 36.6656C14.5938 37.5898 15.0695 38.3719 15.8516 39.1484C16.6281 39.925 17.4102 40.4063 18.3289 40.7617C19.2203 41.1063 20.2375 41.3469 21.725 41.4125C23.218 41.4781 23.6938 41.4945 27.4945 41.4945C31.2953 41.4945 31.7711 41.4781 33.2641 41.4125C34.7516 41.3469 35.7742 41.1063 36.6602 40.7617C37.5789 40.4063 38.3609 39.925 39.1375 39.1484C39.9141 38.3719 40.3953 37.5898 40.7508 36.6711C41.0953 35.7797 41.3359 34.7625 41.4016 33.275C41.4672 31.782 41.4836 31.3063 41.4836 27.5055C41.4836 23.7047 41.4672 23.2289 41.4016 21.7359C41.3359 20.2484 41.0953 19.2258 40.7508 18.3398C40.4063 17.4102 39.9305 16.6281 39.1484 15.8516C38.3719 15.075 37.5898 14.5938 36.6711 14.2383C35.7797 13.8938 34.7625 13.6531 33.275 13.5875C31.7766 13.5164 31.3008 13.5 27.5 13.5Z" fill="#C209C1"/>
<path d="M27.5 20.3086C23.5297 20.3086 20.3086 23.5297 20.3086 27.5C20.3086 31.4703 23.5297 34.6914 27.5 34.6914C31.4703 34.6914 34.6914 31.4703 34.6914 27.5C34.6914 23.5297 31.4703 20.3086 27.5 20.3086ZM27.5 32.1648C24.9242 32.1648 22.8352 30.0758 22.8352 27.5C22.8352 24.9242 24.9242 22.8352 27.5 22.8352C30.0758 22.8352 32.1648 24.9242 32.1648 27.5C32.1648 30.0758 30.0758 32.1648 27.5 32.1648Z" fill="#C209C1"/>
<path d="M36.6547 20.0241C36.6547 20.9538 35.9 21.703 34.9758 21.703C34.0461 21.703 33.2969 20.9483 33.2969 20.0241C33.2969 19.0944 34.0516 18.3452 34.9758 18.3452C35.9 18.3452 36.6547 19.0999 36.6547 20.0241Z" fill="#C209C1"/>
</g>
<rect x="0.428571" y="0.428571" width="54.1429" height="54.1429" rx="6.42857" stroke="black" stroke-opacity="0.1" stroke-width="0.857143"/>
</g>
<defs>
<clipPath id="clip0_8201_78676">
<rect width="55" height="55" rx="8" fill="white"/>
</clipPath>
<clipPath id="clip1_8201_78676">
<rect width="28" height="28" fill="white" transform="translate(13.5 13.5)"/>
</clipPath>
</defs>
</svg>
