<svg width="55" height="55" viewBox="0 0 55 55" fill="none" xmlns="http://www.w3.org/2000/svg">
<g clip-path="url(#clip0_8201_78684)">
<rect width="55" height="55" rx="8" fill="#FAFAFA"/>
<path d="M19.8238 22.708H13.9727V41.3669H19.8238V22.708Z" fill="#C209C1"/>
<path d="M35.6509 22.3038C35.4352 22.2768 35.206 22.2633 34.9769 22.2498C31.7008 22.115 29.8537 24.0564 29.2066 24.8923C29.0313 25.1215 28.9505 25.2563 28.9505 25.2563V22.7622H23.3555V41.421H28.9505H29.2066C29.2066 39.5201 29.2066 37.6326 29.2066 35.7317C29.2066 34.7071 29.2066 33.6824 29.2066 32.6578C29.2066 31.3905 29.1122 30.0423 29.7459 28.8829C30.2852 27.9122 31.2558 27.4269 32.3479 27.4269C35.5835 27.4269 35.6509 30.3524 35.6509 30.6221C35.6509 30.6355 35.6509 30.649 35.6509 30.649V41.5019H41.5021V29.3278C41.5021 25.1619 39.3854 22.7082 35.6509 22.3038Z" fill="#C209C1"/>
<path d="M16.8974 20.2931C18.7738 20.2931 20.2949 18.7721 20.2949 16.8957C20.2949 15.0194 18.7738 13.4983 16.8974 13.4983C15.0211 13.4983 13.5 15.0194 13.5 16.8957C13.5 18.7721 15.0211 20.2931 16.8974 20.2931Z" fill="#C209C1"/>
<rect x="0.428571" y="0.428571" width="54.1429" height="54.1429" rx="6.42857" stroke="black" stroke-opacity="0.1" stroke-width="0.857143"/>
</g>
<defs>
<clipPath id="clip0_8201_78684">
<rect width="55" height="55" rx="8" fill="white"/>
</clipPath>
</defs>
</svg>
