<svg width="55" height="55" viewBox="0 0 55 55" fill="none" xmlns="http://www.w3.org/2000/svg">
<g clip-path="url(#clip0_8201_78754)">
<rect width="55" height="55" rx="8" fill="#FAFAFA"/>
<path d="M27.4788 18.1663C22.2697 18.1663 19.5 21.4446 19.5 25.0193C19.5 26.6771 20.4427 28.7444 21.9535 29.4001C22.1833 29.5016 22.307 29.4584 22.3583 29.2496C22.4038 29.0909 22.6022 28.3268 22.6978 27.9663C22.7147 27.9099 22.7162 27.8501 22.702 27.7931C22.6878 27.736 22.6586 27.6838 22.6173 27.6419C22.1157 27.0726 21.7178 26.0354 21.7178 25.0624C21.7178 22.5693 23.7362 20.1484 27.1708 20.1484C30.14 20.1484 32.2178 22.0431 32.2178 24.7533C32.2178 27.8158 30.5682 29.9344 28.4238 29.9344C27.2373 29.9344 26.353 29.0198 26.6342 27.8881C26.9725 26.5406 27.6363 25.0916 27.6363 24.1198C27.6363 23.2483 27.1347 22.5273 26.1115 22.5273C24.9028 22.5273 23.9228 23.7021 23.9228 25.2794C23.9228 26.2816 24.2845 26.9583 24.2845 26.9583L22.867 32.5851C22.4913 34.0843 22.9183 36.5121 22.9545 36.7209C22.9767 36.8364 23.1085 36.8726 23.182 36.7781C23.2998 36.6264 24.7442 34.6023 25.149 33.1393C25.296 32.6061 25.9015 30.4443 25.9015 30.4443C26.2993 31.1501 27.4485 31.7416 28.6712 31.7416C32.3112 31.7416 34.9408 28.5998 34.9408 24.7008C34.928 20.9628 31.6707 18.1663 27.4788 18.1663Z" fill="#C209C1"/>
<rect x="0.428571" y="0.428571" width="54.1429" height="54.1429" rx="6.42857" stroke="black" stroke-opacity="0.1" stroke-width="0.857143"/>
</g>
<defs>
<clipPath id="clip0_8201_78754">
<rect width="55" height="55" rx="8" fill="white"/>
</clipPath>
</defs>
</svg>
