<svg width="38" height="38" viewBox="0 0 38 38" fill="none" xmlns="http://www.w3.org/2000/svg">
<path d="M18.9993 3.16663C10.2593 3.16663 3.16602 10.26 3.16602 19C3.16602 27.74 10.2593 34.8333 18.9993 34.8333C27.7393 34.8333 34.8327 27.74 34.8327 19C34.8327 10.26 27.7393 3.16663 18.9993 3.16663ZM11.811 23.1483C12.1435 23.7183 11.9535 24.4308 11.3835 24.7791C11.1935 24.8899 10.9877 24.9375 10.7818 24.9375C10.3702 24.9375 9.97436 24.7316 9.7527 24.3516C8.81853 22.7525 8.31186 20.9 8.31186 19C8.31186 13.11 13.1093 8.31246 18.9993 8.31246C19.7752 8.31246 20.5193 8.39163 21.311 8.5658C21.9443 8.69246 22.356 9.32577 22.2135 9.97494C22.0868 10.6083 21.4535 11.02 20.8044 10.8775C15.5319 9.75328 10.6868 13.8066 10.6868 19C10.6868 20.5041 11.0668 21.8975 11.811 23.1483ZM24.6043 14.0441C23.4643 16.15 21.3427 20.0133 20.6777 20.6783C19.7435 21.6125 18.2552 21.6125 17.321 20.6783C16.3868 19.7441 16.3868 18.2558 17.321 17.3216C17.986 16.6566 21.8493 14.5349 23.9552 13.3949C24.3827 13.1733 24.826 13.6166 24.6043 14.0441ZM28.246 24.3516C28.0243 24.7316 27.6285 24.9375 27.2168 24.9375C27.011 24.9375 26.8052 24.8899 26.6152 24.7791C26.0452 24.4308 25.8552 23.7183 26.1877 23.1483C26.9318 21.8975 27.3118 20.5041 27.3118 19C27.3118 18.3983 27.2485 17.7966 27.1218 17.1949C26.9793 16.5458 27.391 15.9125 28.0244 15.7858C28.6735 15.6433 29.3068 16.055 29.4335 16.6883C29.6077 17.4641 29.6868 18.2241 29.6868 19C29.6868 20.9 29.1802 22.7525 28.246 24.3516Z" fill="#BDFF00"/>
</svg>
