<svg width="39" height="38" viewBox="0 0 39 38" fill="none" xmlns="http://www.w3.org/2000/svg">
<path d="M33.75 11.6217V26.3783C33.75 28.8483 32.515 30.0833 30.045 30.0833H26.4983C26.5775 29.5925 26.625 29.0542 26.625 28.5V9.5C26.625 8.94583 26.5775 8.4075 26.4983 7.91667H30.045C32.515 7.91667 33.75 9.15166 33.75 11.6217ZM24.25 28.5V9.5C24.25 6.33333 22.6667 4.75 19.5 4.75H10C6.83333 4.75 5.25 6.33333 5.25 9.5V28.5C5.25 31.6667 6.83333 33.25 10 33.25H19.5C22.6667 33.25 24.25 31.6667 24.25 28.5Z" fill="#BDFF00"/>
</svg>
