<svg width="38" height="38" viewBox="0 0 38 38" fill="none" xmlns="http://www.w3.org/2000/svg">
<path d="M18.9993 3.16675C10.2546 3.16675 3.16602 10.2554 3.16602 19.0001C3.16602 27.7449 10.2546 34.8335 18.9993 34.8335C27.7441 34.8335 34.8327 27.7449 34.8327 19.0001C34.8327 10.2554 27.7441 3.16675 18.9993 3.16675ZM16.6243 24.5418C16.6243 26.1251 15.8327 26.9168 14.2493 26.9168C12.666 26.9168 11.8743 26.1251 11.8743 24.5418V19.7918C11.8743 18.2085 12.666 17.4168 14.2493 17.4168C15.8327 17.4168 16.6243 18.2085 16.6243 19.7918V24.5418ZM26.1243 24.5418C26.1243 26.1251 25.3327 26.9168 23.7493 26.9168C22.166 26.9168 21.3743 26.1251 21.3743 24.5418V13.4585C21.3743 11.8751 22.166 11.0835 23.7493 11.0835C25.3327 11.0835 26.1243 11.8751 26.1243 13.4585V24.5418Z" fill="#BDFF00"/>
</svg>
