<svg width="39" height="38" viewBox="0 0 39 38" fill="none" xmlns="http://www.w3.org/2000/svg">
<path d="M23.4521 9.53711L24.1129 9.28207C25.7109 8.66532 26.969 7.39504 27.5705 5.79127L27.7939 5.19531C27.8496 4.91699 28.1279 4.75 28.4063 4.75C28.6289 4.75 28.9072 4.91699 28.9629 5.19531L29.2312 5.87823C29.841 7.43054 31.0695 8.65898 32.6218 9.26882L33.3047 9.53711C33.583 9.59277 33.75 9.87109 33.75 10.0938C33.75 10.3721 33.583 10.6504 33.3047 10.7061L32.7087 10.9295C31.105 11.531 29.8347 12.7891 29.2179 14.3871L28.9629 15.0479C28.9072 15.2705 28.6289 15.4375 28.4063 15.4375C28.1279 15.4375 27.8496 15.2705 27.7939 15.0479L27.5823 14.4735C26.9749 12.8247 25.6753 11.5251 24.0265 10.9177L23.4521 10.7061C23.1738 10.6504 23.0625 10.3721 23.0625 10.0938C23.0625 9.87109 23.1738 9.59277 23.4521 9.53711ZM18.3156 12.4963C19.1153 14.2495 20.521 15.6552 22.2742 16.4549L25.9014 18.1094C26.2354 18.2764 26.458 18.6104 26.458 18.9443C26.458 19.2783 26.2354 19.6123 25.9014 19.7793L22.2742 21.4338C20.521 22.2335 19.1153 23.6391 18.3156 25.3923L16.6611 29.0195C16.4941 29.3535 16.1602 29.5762 15.8262 29.5762C15.4922 29.5762 15.1582 29.3535 15.0469 29.0195L13.3424 25.3534C12.5385 23.6241 11.1432 22.2389 9.40816 21.4475L5.75098 19.7793C5.41699 19.6123 5.25 19.2783 5.25 18.9443C5.25 18.6104 5.41699 18.2764 5.75098 18.1094L9.40816 16.4412C11.1432 15.6498 12.5385 14.2646 13.3424 12.5353L15.0469 8.86914C15.1582 8.53516 15.4922 8.3125 15.8262 8.3125C16.1602 8.3125 16.4941 8.53516 16.6611 8.86914L18.3156 12.4963ZM27.7939 23.0078C27.8496 22.7295 28.1279 22.5625 28.4063 22.5625C28.6289 22.5625 28.9072 22.7295 28.9629 23.0078L29.55 24.5022C29.9565 25.537 30.7755 26.356 31.8103 26.7625L33.3047 27.3496C33.583 27.4053 33.75 27.6836 33.75 27.9063C33.75 28.1846 33.583 28.4629 33.3047 28.5186L31.8683 29.0572C30.7991 29.4581 29.9523 30.2969 29.5411 31.3622L28.9629 32.8604C28.9072 33.083 28.6289 33.25 28.4063 33.25C28.1279 33.25 27.8496 33.083 27.7939 32.8604L27.2632 31.4198C26.8583 30.3207 25.9918 29.4542 24.8927 29.0493L23.4521 28.5186C23.1738 28.4629 23.0625 28.1846 23.0625 27.9063C23.0625 27.6836 23.1738 27.4053 23.4521 27.3496L24.9503 26.7714C26.0156 26.3602 26.8544 25.5134 27.2553 24.4442L27.7939 23.0078Z" fill="#BDFF00"/>
</svg>
