<svg width="38" height="38" viewBox="0 0 38 38" fill="none" xmlns="http://www.w3.org/2000/svg">
<path d="M34.8327 4.35413H3.16602C2.51685 4.35413 1.97852 3.81579 1.97852 3.16663C1.97852 2.51746 2.51685 1.97913 3.16602 1.97913H34.8327C35.4818 1.97913 36.0202 2.51746 36.0202 3.16663C36.0202 3.81579 35.4818 4.35413 34.8327 4.35413Z" fill="#BDFF00"/>
<path d="M26.3951 35.3716C26.1892 35.7833 25.7617 36.0208 25.3342 36.0208C25.1601 36.0208 24.9701 35.9733 24.8117 35.8941L19.0009 32.9966L13.1901 35.8941C13.0317 35.9733 12.8417 36.0208 12.6676 36.0208C12.2401 36.0208 11.8126 35.7833 11.6067 35.3716C11.3059 34.77 11.5434 34.0575 12.1451 33.7725L17.8134 30.9383V26.9166H20.1884V30.9383L25.8567 33.7725C26.4584 34.0575 26.6959 34.77 26.3951 35.3716Z" fill="#BDFF00"/>
<path d="M4.75 3.16663V22.325C4.75 25.3333 6.33333 26.9166 9.34167 26.9166H28.6583C31.6667 26.9166 33.25 25.3333 33.25 22.325V3.16663H4.75ZM26.885 13.585L21.8975 17.7491C21.4383 18.1291 20.8525 18.2875 20.2983 18.1925C19.7283 18.0975 19.2375 17.7491 18.9367 17.2425L17.2742 14.4716L12.635 18.335C12.4133 18.525 12.1442 18.6041 11.875 18.6041C11.5425 18.6041 11.1942 18.4616 10.9567 18.1766C10.5292 17.67 10.6083 16.9258 11.115 16.4983L16.1025 12.3341C16.5617 11.9541 17.1475 11.7958 17.7017 11.8908C18.2717 11.9858 18.7625 12.3341 19.0633 12.8408L20.7258 15.6116L25.365 11.7483C25.8717 11.3208 26.6158 11.4 27.0433 11.9066C27.455 12.4133 27.3917 13.1575 26.885 13.585Z" fill="#BDFF00"/>
</svg>
