<svg width="38" height="38" viewBox="0 0 38 38" fill="none" xmlns="http://www.w3.org/2000/svg">
<path d="M25.6335 3.16663H12.3652C6.60185 3.16663 3.16602 6.60246 3.16602 12.3658V25.6183C3.16602 31.3975 6.60185 34.8333 12.3652 34.8333H25.6177C31.381 34.8333 34.8168 31.3975 34.8168 25.6341V12.3658C34.8327 6.60246 31.3969 3.16663 25.6335 3.16663ZM12.0802 28.7375C12.0802 29.3866 11.5418 29.925 10.8927 29.925C10.2435 29.925 9.70518 29.3866 9.70518 28.7375V25.46C9.70518 24.8108 10.2435 24.2725 10.8927 24.2725C11.5418 24.2725 12.0802 24.8108 12.0802 25.46V28.7375ZM20.1868 28.7375C20.1868 29.3866 19.6485 29.925 18.9993 29.925C18.3502 29.925 17.8118 29.3866 17.8118 28.7375V22.1666C17.8118 21.5175 18.3502 20.9791 18.9993 20.9791C19.6485 20.9791 20.1868 21.5175 20.1868 22.1666V28.7375ZM28.2935 28.7375C28.2935 29.3866 27.7552 29.925 27.106 29.925C26.4569 29.925 25.9185 29.3866 25.9185 28.7375V18.8891C25.9185 18.24 26.4569 17.7016 27.106 17.7016C27.7552 17.7016 28.2935 18.24 28.2935 18.8891V28.7375ZM28.2935 13.8858C28.2935 14.535 27.7552 15.0733 27.106 15.0733C26.4569 15.0733 25.9185 14.535 25.9185 13.8858V12.35C21.881 16.4983 16.8302 19.4275 11.1777 20.8366C11.0827 20.8683 10.9877 20.8683 10.8927 20.8683C10.3543 20.8683 9.87935 20.5041 9.73685 19.9658C9.57852 19.3325 9.95852 18.6833 10.6077 18.525C15.9435 17.195 20.6935 14.3925 24.4618 10.4341H22.4827C21.8335 10.4341 21.2952 9.89579 21.2952 9.24663C21.2952 8.59746 21.8335 8.05913 22.4827 8.05913H27.1218C27.1852 8.05913 27.2327 8.09079 27.296 8.09079C27.3752 8.10663 27.4543 8.10663 27.5335 8.13829C27.6127 8.16996 27.676 8.21746 27.7552 8.26496C27.8027 8.29663 27.8502 8.31246 27.8977 8.34413C27.9135 8.35996 27.9135 8.37579 27.9293 8.37579C27.9927 8.43913 28.0402 8.50246 28.0877 8.56579C28.1352 8.62913 28.1827 8.67663 28.1985 8.73996C28.2302 8.80329 28.2302 8.86663 28.246 8.94579C28.2619 9.02496 28.2935 9.10413 28.2935 9.19913C28.2935 9.21496 28.3093 9.23079 28.3093 9.24663V13.8858H28.2935Z" fill="#BDFF00"/>
</svg>
