<svg width="38" height="38" viewBox="0 0 38 38" fill="none" xmlns="http://www.w3.org/2000/svg">
<path d="M28.4993 4.75H9.49935C6.00018 4.75 3.16602 7.56833 3.16602 11.0358V26.9642C3.16602 30.4317 6.00018 33.25 9.49935 33.25H28.4993C31.9985 33.25 34.8327 30.4317 34.8327 26.9642V11.0358C34.8327 7.56833 31.9985 4.75 28.4993 4.75ZM13.4577 11.3525C15.4685 11.3525 17.1152 12.9992 17.1152 15.01C17.1152 17.0208 15.4685 18.6675 13.4577 18.6675C11.4468 18.6675 9.80018 17.0208 9.80018 15.01C9.80018 12.9992 11.4468 11.3525 13.4577 11.3525ZM19.5852 26.3783C19.4427 26.5367 19.221 26.6317 18.9993 26.6317H7.91602C7.69435 26.6317 7.47268 26.5367 7.33018 26.3783C7.18768 26.22 7.10852 25.9983 7.12435 25.7767C7.39352 23.1167 9.51518 21.0108 12.1752 20.7575C13.0143 20.6783 13.8852 20.6783 14.7243 20.7575C17.3843 21.0108 19.5218 23.1167 19.7752 25.7767C19.8068 25.9983 19.7277 26.22 19.5852 26.3783ZM30.0827 26.5208H26.916C26.2668 26.5208 25.7285 25.9825 25.7285 25.3333C25.7285 24.6842 26.2668 24.1458 26.916 24.1458H30.0827C30.7318 24.1458 31.2702 24.6842 31.2702 25.3333C31.2702 25.9825 30.7318 26.5208 30.0827 26.5208ZM30.0827 20.1875H23.7493C23.1002 20.1875 22.5618 19.6492 22.5618 19C22.5618 18.3508 23.1002 17.8125 23.7493 17.8125H30.0827C30.7318 17.8125 31.2702 18.3508 31.2702 19C31.2702 19.6492 30.7318 20.1875 30.0827 20.1875ZM30.0827 13.8542H22.166C21.5168 13.8542 20.9785 13.3158 20.9785 12.6667C20.9785 12.0175 21.5168 11.4792 22.166 11.4792H30.0827C30.7318 11.4792 31.2702 12.0175 31.2702 12.6667C31.2702 13.3158 30.7318 13.8542 30.0827 13.8542Z" fill="#BDFF00"/>
</svg>
