<svg width="38" height="38" viewBox="0 0 38 38" fill="none" xmlns="http://www.w3.org/2000/svg">
<path d="M34.8327 12.3659V19.7917H28.3727C28.1827 19.7759 27.771 19.5384 27.676 19.3642L26.0293 16.2451C25.3802 15.0101 24.256 14.3134 23.0527 14.3767C21.8493 14.4401 20.8202 15.2476 20.2977 16.5617L18.1127 22.0401L17.796 21.2167C17.0202 19.2059 14.8035 17.6859 12.6185 17.6859L3.16602 17.7334V12.3659C3.16602 6.60258 6.60185 3.16675 12.3652 3.16675H25.6335C31.3968 3.16675 34.8327 6.60258 34.8327 12.3659Z" fill="#BDFF00"/>
<path d="M34.8327 25.6341V22.1666H28.3727C27.3118 22.1666 26.061 21.4066 25.5702 20.4724L23.9235 17.3533C23.4802 16.5141 22.8468 16.5616 22.4985 17.4324L18.8568 26.6316C18.461 27.6608 17.796 27.6608 17.3843 26.6316L15.5793 22.0716C15.1518 20.9633 13.8218 20.0608 12.6343 20.0608L3.16602 20.1083V25.6341C3.16602 31.3024 6.49102 34.7224 12.0802 34.8174C12.2543 34.8333 12.4443 34.8333 12.6185 34.8333H25.2852C25.5227 34.8333 25.7602 34.8333 25.9818 34.8174C31.5393 34.6908 34.8327 31.2866 34.8327 25.6341Z" fill="#BDFF00"/>
<path d="M3.16664 20.1084V25.3492C3.13497 24.8426 3.11914 24.3042 3.11914 23.7501V20.1084H3.16664Z" fill="#BDFF00"/>
</svg>
