<svg width="25" height="24" viewBox="0 0 25 24" fill="none" xmlns="http://www.w3.org/2000/svg">
<path d="M19.8067 7.72C20.0967 8.47 20.8167 9 21.6667 9C22.7667 9 23.6667 8.1 23.6667 7C23.6667 5.9 22.7667 5 21.6667 5C20.8167 5 20.0967 5.53 19.8067 6.28C19.7567 6.27 19.7167 6.25 19.6667 6.25H15.6667V5.5C15.6667 4.68 14.9867 4 14.1667 4H11.1667C10.3467 4 9.66669 4.68 9.66669 5.5V6.25H5.66669C5.61669 6.25 5.57669 6.27 5.52669 6.28C5.23669 5.53 4.51669 5 3.66669 5C2.56669 5 1.66669 5.9 1.66669 7C1.66669 8.1 2.56669 9 3.66669 9C4.51669 9 5.23669 8.47 5.52669 7.72C5.57669 7.73 5.61669 7.75 5.66669 7.75H8.23669C6.18669 9.27 4.91669 11.79 4.91669 14.5C4.91669 14.67 4.92669 14.83 4.94669 15H4.66669C3.83669 15 3.16669 15.67 3.16669 16.5V18.5C3.16669 19.33 3.83669 20 4.66669 20H6.66669C6.88669 20 7.08669 19.95 7.27669 19.86C7.79669 19.64 8.16669 19.11 8.16669 18.5V16.5C8.16669 15.67 7.49669 15 6.66669 15H6.43669C6.43669 14.97 6.44669 14.94 6.44669 14.91C6.42669 14.77 6.42669 14.64 6.42669 14.5C6.42669 12.03 7.69669 9.77 9.68669 8.6C9.72669 9.37 10.3767 10 11.1667 10H14.1667C14.9567 10 15.6067 9.37 15.6567 8.6C17.6467 9.77 18.9167 12.04 18.9167 14.5C18.9167 14.64 18.9067 14.77 18.8967 14.91C18.8967 14.94 18.9067 14.97 18.9067 15H18.6667C17.8367 15 17.1667 15.67 17.1667 16.5V18.5C17.1667 19.11 17.5367 19.64 18.0567 19.86C18.2467 19.95 18.4467 20 18.6667 20H20.6667C21.4967 20 22.1667 19.33 22.1667 18.5V16.5C22.1667 15.67 21.4967 15 20.6667 15H20.3867C20.4067 14.83 20.4167 14.67 20.4167 14.5C20.4167 11.79 19.1467 9.27 17.0967 7.75H19.6667C19.7167 7.75 19.7567 7.73 19.8067 7.72Z" fill="#1B1F3B"/>
</svg>
