<svg width="25" height="25" viewBox="0 0 25 25" fill="none" xmlns="http://www.w3.org/2000/svg">
<path d="M22.3333 16.875V19.875C22.3333 21.255 21.2133 22.375 19.8333 22.375H12.6933C11.8033 22.375 11.3633 21.305 11.9833 20.675L17.8533 14.675C18.0433 14.485 18.3033 14.375 18.5633 14.375H19.8333C21.2133 14.375 22.3333 15.495 22.3333 16.875Z" fill="#1B1F3B"/>
<path d="M18.7033 11.6684L15.9933 14.3784L13.5333 16.8284C12.9033 17.4584 11.8233 17.0184 11.8233 16.1284C11.8233 12.9184 11.8233 7.63844 11.8233 7.63844C11.8233 7.36844 11.9333 7.11844 12.1133 6.92844L13.0333 6.00844C14.0133 5.02844 15.5933 5.02844 16.5733 6.00844L18.6933 8.12844C19.6833 9.10844 19.6833 10.6884 18.7033 11.6684Z" fill="#1B1F3B"/>
<path d="M7.83331 2.375H4.83331C3.33331 2.375 2.33331 3.375 2.33331 4.875V18.375C2.33331 18.645 2.36331 18.915 2.41331 19.175C2.44331 19.305 2.47331 19.435 2.51331 19.565C2.56331 19.715 2.61331 19.865 2.67331 20.005C2.68331 20.015 2.68331 20.025 2.68331 20.025C2.69331 20.025 2.69331 20.025 2.68331 20.035C2.82331 20.315 2.98331 20.585 3.17331 20.835C3.28331 20.965 3.39331 21.085 3.50331 21.205C3.61331 21.325 3.73331 21.425 3.86331 21.525L3.87331 21.535C4.12331 21.725 4.39331 21.885 4.67331 22.025C4.68331 22.015 4.68331 22.015 4.68331 22.025C4.83331 22.095 4.98331 22.145 5.14331 22.195C5.27331 22.235 5.40331 22.265 5.53331 22.295C5.79331 22.345 6.06331 22.375 6.33331 22.375C6.74331 22.375 7.16331 22.315 7.55331 22.185C7.66331 22.145 7.77331 22.105 7.88331 22.055C8.23331 21.915 8.57331 21.715 8.87331 21.455C8.96331 21.385 9.06331 21.295 9.15331 21.205L9.19331 21.165C9.89331 20.445 10.3333 19.455 10.3333 18.375V4.875C10.3333 3.375 9.33331 2.375 7.83331 2.375ZM6.33331 19.875C5.50331 19.875 4.83331 19.205 4.83331 18.375C4.83331 17.545 5.50331 16.875 6.33331 16.875C7.16331 16.875 7.83331 17.545 7.83331 18.375C7.83331 19.205 7.16331 19.875 6.33331 19.875Z" fill="#1B1F3B"/>
</svg>
