<svg width="25" height="25" viewBox="0 0 25 25" fill="none" xmlns="http://www.w3.org/2000/svg">
<path d="M21.7067 13.6578L20.7867 12.7578L13.0367 20.4978L13.9667 21.4278C14.7467 22.2078 15.5567 22.5978 16.3567 22.5978C17.1567 22.5978 17.9667 22.2078 18.7467 21.4278L21.7067 18.4678C23.2967 16.8678 23.2967 15.2578 21.7067 13.6578Z" fill="#1B1F3B"/>
<path d="M11.3567 3.3025C9.7867 1.7325 8.1367 1.7325 6.5667 3.3025L3.5967 6.2625C2.0367 7.8325 2.0367 9.4825 3.5967 11.0525L4.5167 11.9725L12.2667 4.2225L11.3567 3.3025Z" fill="#1B1F3B"/>
<path d="M22.4767 4.31314C21.1667 7.58314 18.1767 11.8531 15.3267 14.6431C14.9167 12.0631 12.8567 10.0431 10.2567 9.68314C13.0567 6.82314 17.3567 3.79314 20.6367 2.47314C21.2167 2.25314 21.7967 2.42314 22.1567 2.78314C22.5367 3.16314 22.7167 3.73314 22.4767 4.31314Z" fill="#1B1F3B"/>
<path d="M14.4467 15.4659C14.2467 15.6359 14.0467 15.8059 13.8467 15.9659L12.0567 17.3959C12.0567 17.3659 12.0467 17.3259 12.0467 17.2859C11.9067 16.2159 11.4067 15.2259 10.5967 14.4159C9.77668 13.5959 8.75668 13.0959 7.63668 12.9559C7.60668 12.9559 7.56668 12.9459 7.53668 12.9459L8.98668 11.1159C9.12668 10.9359 9.27668 10.7659 9.43668 10.5859L10.1167 10.6759C12.2667 10.9759 13.9967 12.6659 14.3367 14.8059L14.4467 15.4659Z" fill="#1B1F3B"/>
<path d="M11.0967 17.9958C11.0967 19.0958 10.6767 20.1458 9.8767 20.9358C9.2667 21.5558 8.4467 21.9758 7.4467 22.0958L4.9967 22.3658C3.6567 22.5158 2.5067 21.3658 2.6567 20.0158L2.9267 17.5558C3.1667 15.3658 4.9967 13.9658 6.9367 13.9258C7.1267 13.9158 7.3367 13.9258 7.5367 13.9458C8.3867 14.0558 9.2067 14.4458 9.8967 15.1258C10.5667 15.7958 10.9467 16.5858 11.0567 17.4158C11.0767 17.6158 11.0967 17.8058 11.0967 17.9958Z" fill="#1B1F3B"/>
</svg>
