<svg width="24" height="25" viewBox="0 0 24 25" fill="none" xmlns="http://www.w3.org/2000/svg">
<path d="M16.24 9.89865L20.95 14.6086C21.23 14.8886 21.72 14.7386 21.8 14.3486C21.93 13.7086 22 13.0486 22 12.3786C22 10.0886 21.22 7.97865 19.93 6.29865C19.75 6.05865 19.39 6.04865 19.18 6.25865L16.24 9.19865C16.05 9.38865 16.05 9.70865 16.24 9.89865Z" fill="#1B1F3B"/>
<path d="M14.48 10.955L12.71 12.725C12.51 12.925 12.51 13.235 12.71 13.435L18.53 19.255C18.73 19.455 19.05 19.455 19.24 19.255C19.86 18.605 20.39 17.875 20.82 17.085C20.92 16.895 20.88 16.645 20.73 16.495L15.19 10.955C14.99 10.765 14.67 10.765 14.48 10.955Z" fill="#1B1F3B"/>
<path d="M10.94 14.4953L9.18 16.2553C8.98 16.4553 8.98 16.7653 9.18 16.9653L14.1 21.8953C14.23 22.0253 14.42 22.0753 14.59 22.0253C15.52 21.7753 16.4 21.3953 17.2 20.8953C17.47 20.7253 17.51 20.3453 17.28 20.1153L11.65 14.4853C11.45 14.3053 11.13 14.3053 10.94 14.4953Z" fill="#1B1F3B"/>
<path d="M18.08 4.44858C16.1 2.91858 13.53 2.11857 10.77 2.44857C6.26 2.98857 2.61 6.64858 2.07 11.1486C1.74 13.9086 2.54 16.4686 4.07 18.4586C4.25 18.6986 4.61 18.7086 4.82 18.4986L18.12 5.19858C18.33 4.98858 18.32 4.62858 18.08 4.44858Z" fill="#1B1F3B"/>
<path d="M7.4 18.0484L5.88 19.5684C5.67 19.7784 5.68 20.1384 5.92 20.3184C7.43 21.4884 9.28 22.2284 11.31 22.3684C11.74 22.3984 11.95 21.8884 11.64 21.5784L8.11 18.0484C7.92 17.8484 7.6 17.8484 7.4 18.0484Z" fill="#1B1F3B"/>
</svg>
