<svg width="24" height="24" viewBox="0 0 24 24" fill="none" xmlns="http://www.w3.org/2000/svg">
<path d="M19.11 7.47145L15.59 3.95145C12.43 0.801451 10.77 1.96145 8.77 3.95145L3.11 9.61145C1.96 10.7615 1.33 11.5015 1.1 12.3215C1.1 12.3315 1.09 12.3315 1.09 12.3315C1.09 12.3415 1.09 12.3415 1.09 12.3415C1.09 12.3515 1.09 12.3515 1.09 12.3515V12.3815C0.680002 13.8415 1.76 15.0815 3.11 16.4315L6.64 19.9415C7.9 21.2115 8.92 22.0015 10.05 22.0015C11.18 22.0015 12.15 21.2415 13.45 19.9415L19.11 14.2915C19.6 13.7915 19.96 13.3815 20.24 12.9915C20.24 12.9815 20.24 12.9815 20.24 12.9815C20.24 12.9815 20.24 12.9815 20.25 12.9815C21.53 11.1915 21.19 9.54145 19.11 7.47145ZM18.08 11.3715H18.07C17.77 11.3015 17.46 11.2415 17.15 11.1815C17.13 11.1815 17.11 11.1715 17.08 11.1715C16.38 11.0415 15.67 10.9315 14.95 10.8415H14.91C14.19 10.7515 13.46 10.6815 12.73 10.6415H12.65C12.01 10.6015 11.36 10.5815 10.72 10.5815C9.94 10.5815 9.16 10.6215 8.39 10.6715C8.26 10.6815 8.14 10.6915 8.02 10.7015C7.44 10.7415 6.86 10.8015 6.29 10.8715C6.13 10.8915 5.98 10.9115 5.83 10.9315C5.25 11.0215 4.68 11.1115 4.11 11.2215C3.98 11.2515 3.86 11.2715 3.73 11.2915C3.68 11.3015 3.62 11.3115 3.57 11.3215C3.75 11.1215 3.96 10.9115 4.19 10.6815L9.84 5.03145C11.66 3.23145 12.28 2.80145 14.52 5.03145L18.03 8.55145C18.57 9.08145 18.93 9.53145 19.15 9.92145C19.15 9.92145 19.15 9.93145 19.16 9.93145C19.58 10.6615 18.9 11.5315 18.08 11.3715Z" fill="#1B1F3B"/>
<path d="M20.95 16.87C20.57 16.4 20.24 16 19.5 16C18.76 16 18.43 16.4 18.06 16.87C17.26 17.86 16.9 18.94 17.03 19.98C17.18 21.17 18.2 22 19.5 22C20.8 22 21.82 21.17 21.97 19.97C22.1 18.93 21.75 17.86 20.95 16.87Z" fill="#1B1F3B"/>
</svg>
