<svg width="25" height="24" viewBox="0 0 25 24" fill="none" xmlns="http://www.w3.org/2000/svg">
<path d="M20.8833 9.43906H19.7833C19.6333 9.43906 19.4833 9.46906 19.3433 9.50906L14.3533 4.51906C14.8333 3.89906 14.7933 3.00906 14.2233 2.44906L13.4433 1.66906C12.8533 1.07906 11.8133 1.07906 11.2133 1.66906L10.4333 2.44906C9.87331 3.00906 9.83331 3.89906 10.3133 4.51906L5.32331 9.50906C5.18331 9.46906 5.03331 9.43906 4.88331 9.43906H3.78331C2.91331 9.43906 2.20331 10.1491 2.20331 11.0191V12.1191C2.20331 12.9891 2.91331 13.6991 3.78331 13.6991H4.88331C5.75331 13.6991 6.46331 12.9891 6.46331 12.1191V11.0191C6.46331 10.8691 6.43331 10.7191 6.39331 10.5791L11.3833 5.58906C11.6533 5.79906 11.9933 5.90906 12.3333 5.90906C12.6733 5.90906 13.0133 5.78906 13.2933 5.57906L18.2833 10.5691C18.2433 10.7091 18.2133 10.8591 18.2133 11.0091V12.1091C18.2133 12.9791 18.9233 13.6891 19.7933 13.6891H20.8933C21.7633 13.6891 22.4733 12.9791 22.4733 12.1091V11.0091C22.4533 10.1391 21.7533 9.43906 20.8833 9.43906Z" fill="#1B1F3B"/>
<path d="M16.0833 16.5531L14.4433 18.0031H10.1833L8.5433 16.5531C7.5933 15.7731 7.5933 15.1731 8.3133 14.2531L11.2033 10.5931C11.4033 10.3431 11.6333 10.1731 11.8933 10.0831C12.1633 9.99312 12.4533 9.99312 12.7333 10.0831C12.9833 10.1731 13.2133 10.3431 13.4233 10.5931L16.3133 14.2531C17.0333 15.1631 17.0033 15.7331 16.0833 16.5531Z" fill="#1B1F3B"/>
<path d="M13.6233 22.0037H11.0333C10.1133 22.0037 9.4233 21.2538 9.6033 20.4538L9.9133 19.0637C9.9733 18.7837 10.2233 18.5938 10.5033 18.5938H14.1533C14.4333 18.5938 14.6733 18.7837 14.7433 19.0637L15.0533 20.4538C15.2533 21.3038 14.6033 22.0037 13.6233 22.0037Z" fill="#1B1F3B"/>
</svg>
