<svg width="20" height="21" viewBox="0 0 20 21" fill="none" xmlns="http://www.w3.org/2000/svg">
<path d="M5.36628 3.56486C5.59101 2.6381 6.90907 2.6381 7.1338 3.56486L7.75214 6.1149C7.83238 6.44578 8.09072 6.70412 8.4216 6.78436L10.9716 7.4027C11.8984 7.62743 11.8984 8.94549 10.9716 9.17022L8.4216 9.78856C8.09072 9.8688 7.83238 10.1271 7.75214 10.458L7.1338 13.0081C6.90907 13.9348 5.59101 13.9348 5.36628 13.0081L4.74794 10.458C4.6677 10.1271 4.40936 9.8688 4.07848 9.78856L1.52844 9.17022C0.601685 8.94549 0.601684 7.62743 1.52844 7.4027L4.07848 6.78436C4.40936 6.70412 4.6677 6.44578 4.74794 6.1149L5.36628 3.56486Z" fill="#1B1F3B"/>
<path d="M12.7895 12.4642C12.9278 11.8939 13.7389 11.8939 13.8772 12.4642L14.2577 14.0334C14.3071 14.2371 14.4661 14.396 14.6697 14.4454L16.239 14.8259C16.8093 14.9642 16.8093 15.7753 16.239 15.9136L14.6697 16.2942C14.4661 16.3435 14.3071 16.5025 14.2577 16.7061L13.8772 18.2754C13.7389 18.8457 12.9278 18.8457 12.7895 18.2754L12.409 16.7061C12.3596 16.5025 12.2006 16.3435 11.997 16.2942L10.4278 15.9136C9.85746 15.7753 9.85746 14.9642 10.4278 14.8259L11.997 14.4454C12.2006 14.396 12.3596 14.2371 12.409 14.0334L12.7895 12.4642Z" fill="#1B1F3B"/>
<path d="M15.4765 3.46299C15.5672 3.08872 16.0995 3.08872 16.1903 3.46299L16.44 4.49282C16.4724 4.62644 16.5767 4.73077 16.7104 4.76317L17.7402 5.01289C18.1144 5.10364 18.1144 5.63594 17.7402 5.72669L16.7104 5.97641C16.5767 6.00881 16.4724 6.11314 16.44 6.24677L16.1903 7.27659C16.0995 7.65086 15.5672 7.65086 15.4765 7.27659L15.2268 6.24677C15.1944 6.11314 15.09 6.00881 14.9564 5.97641L13.9266 5.72669C13.5523 5.63594 13.5523 5.10364 13.9266 5.01289L14.9564 4.76317C15.09 4.73077 15.1944 4.62644 15.2268 4.49282L15.4765 3.46299Z" fill="#1B1F3B"/>
<path fill-rule="evenodd" clip-rule="evenodd" d="M15.8334 3.6457L15.6296 4.48622C15.5481 4.82219 15.2858 5.08451 14.9498 5.16598L14.1093 5.36979L14.9498 5.57361C15.2858 5.65507 15.5481 5.91739 15.6296 6.25336L15.8334 7.09388L16.0372 6.25336C16.1187 5.91739 16.381 5.65507 16.7169 5.57361L17.5575 5.36979L16.7169 5.16598C16.381 5.08451 16.1187 4.82219 16.0372 4.48622L15.8334 3.6457ZM16.2413 3.19059C16.1375 2.76286 15.5292 2.76286 15.4255 3.19059L15.1401 4.36753C15.1031 4.52025 14.9838 4.63948 14.8311 4.67651L13.6542 4.9619C13.2264 5.06562 13.2264 5.67396 13.6542 5.77768L14.8311 6.06307C14.9838 6.1001 15.1031 6.21934 15.1401 6.37205L15.4255 7.54899C15.5292 7.97673 16.1375 7.97673 16.2413 7.54899L16.5267 6.37205C16.5637 6.21934 16.6829 6.1001 16.8356 6.06307L18.0126 5.77768C18.4403 5.67396 18.4403 5.06562 18.0126 4.9619L16.8356 4.67651C16.6829 4.63948 16.5637 4.52025 16.5267 4.36753L16.2413 3.19059Z" fill="#1B1F3B"/>
<path d="M5.83337 19.5365C5.37314 19.5365 5.00004 19.1634 5.00004 18.7031C5.00004 18.2429 5.37314 17.8698 5.83337 17.8698C6.29361 17.8698 6.66671 18.2429 6.66671 18.7031C6.66671 19.1634 6.29361 19.5365 5.83337 19.5365Z" fill="#1B1F3B"/>
<path d="M1.66671 16.2031C1.20647 16.2031 0.833374 15.83 0.833374 15.3698C0.833374 14.9096 1.20647 14.5365 1.66671 14.5365C2.12694 14.5365 2.50004 14.9096 2.50004 15.3698C2.50004 15.83 2.12694 16.2031 1.66671 16.2031Z" fill="#1B1F3B"/>
<path d="M10.8334 2.86979C10.3731 2.86979 10 2.4967 10 2.03646C10 1.57622 10.3731 1.20312 10.8334 1.20313C11.2936 1.20313 11.6667 1.57622 11.6667 2.03646C11.6667 2.4967 11.2936 2.86979 10.8334 2.86979Z" fill="#1B1F3B"/>
<path d="M18.3334 12.0365C17.8731 12.0365 17.5 11.6634 17.5 11.2031C17.5 10.7429 17.8731 10.3698 18.3334 10.3698C18.7936 10.3698 19.1667 10.7429 19.1667 11.2031C19.1667 11.6634 18.7936 12.0365 18.3334 12.0365Z" fill="#1B1F3B"/>
</svg>
