<svg width="289" height="86" viewBox="0 0 289 86" fill="none" xmlns="http://www.w3.org/2000/svg">
<rect x="0.5" y="26.4966" width="288" height="59.3455" rx="11.6364" fill="url(#paint0_linear_7504_57534)" fill-opacity="0.2"/>
<path d="M246.781 47.018C247.093 45.7352 248.917 45.7352 249.228 47.018L250.084 50.5476C250.195 51.0056 250.552 51.3631 251.01 51.4742L254.54 52.3301C255.823 52.6411 255.823 54.4655 254.54 54.7765L251.01 55.6324C250.552 55.7435 250.195 56.101 250.084 56.559L249.228 60.0886C248.917 61.3714 247.093 61.3714 246.781 60.0886L245.926 56.559C245.815 56.101 245.457 55.7435 244.999 55.6324L241.469 54.7765C240.187 54.4655 240.187 52.6411 241.469 52.3301L244.999 51.4742C245.457 51.3631 245.815 51.0056 245.926 50.5476L246.781 47.018Z" fill="white"/>
<path d="M257.056 59.3358C257.248 58.5464 258.37 58.5464 258.562 59.3358L259.088 61.5079C259.157 61.7897 259.377 62.0098 259.659 62.0781L261.831 62.6048C262.62 62.7962 262.62 63.9189 261.831 64.1103L259.659 64.637C259.377 64.7054 259.157 64.9254 259.088 65.2073L258.562 67.3793C258.37 68.1687 257.248 68.1687 257.056 67.3793L256.53 65.2073C256.461 64.9254 256.241 64.7054 255.959 64.637L253.787 64.1103C252.998 63.9189 252.998 62.7962 253.787 62.6048L255.959 62.0781C256.241 62.0098 256.461 61.7897 256.53 61.5079L257.056 59.3358Z" fill="white"/>
<path d="M260.775 46.877C260.901 46.3589 261.638 46.3589 261.763 46.877L262.109 48.3024C262.154 48.4873 262.298 48.6318 262.483 48.6766L263.909 49.0222C264.427 49.1479 264.427 49.8846 263.909 50.0102L262.483 50.3559C262.298 50.4007 262.154 50.5451 262.109 50.7301L261.763 52.1555C261.638 52.6735 260.901 52.6735 260.775 52.1555L260.43 50.7301C260.385 50.5451 260.24 50.4007 260.055 50.3559L258.63 50.0102C258.112 49.8846 258.112 49.1479 258.63 49.0222L260.055 48.6766C260.24 48.6318 260.385 48.4873 260.43 48.3024L260.775 46.877Z" fill="white"/>
<path fill-rule="evenodd" clip-rule="evenodd" d="M261.269 47.1299L260.987 48.2933C260.874 48.7583 260.511 49.1214 260.046 49.2341L258.883 49.5162L260.046 49.7983C260.511 49.9111 260.874 50.2742 260.987 50.7392L261.269 51.9026L261.551 50.7392C261.664 50.2742 262.027 49.9111 262.492 49.7983L263.656 49.5162L262.492 49.2341C262.027 49.1214 261.664 48.7583 261.551 48.2933L261.269 47.1299ZM261.834 46.4999C261.69 45.9079 260.848 45.9079 260.705 46.4999L260.31 48.129C260.258 48.3404 260.093 48.5054 259.882 48.5567L258.253 48.9517C257.661 49.0952 257.661 49.9373 258.253 50.0808L259.882 50.4758C260.093 50.5271 260.258 50.6921 260.31 50.9035L260.705 52.5325C260.848 53.1246 261.69 53.1246 261.834 52.5325L262.229 50.9035C262.28 50.6921 262.445 50.5271 262.657 50.4758L264.286 50.0808C264.878 49.9373 264.878 49.0952 264.286 48.9517L262.657 48.5567C262.445 48.5054 262.28 48.3404 262.229 48.129L261.834 46.4999Z" fill="white"/>
<path d="M247.428 69.1248C246.791 69.1248 246.275 68.6084 246.275 67.9713C246.275 67.3343 246.791 66.8179 247.428 66.8179C248.065 66.8179 248.581 67.3343 248.581 67.9713C248.581 68.6084 248.065 69.1248 247.428 69.1248Z" fill="white"/>
<path d="M241.661 64.511C241.024 64.511 240.507 63.9946 240.507 63.3576C240.507 62.7205 241.024 62.2041 241.661 62.2041C242.298 62.2041 242.814 62.7205 242.814 63.3576C242.814 63.9946 242.298 64.511 241.661 64.511Z" fill="white"/>
<path d="M254.349 46.0559C253.712 46.0559 253.195 45.5395 253.195 44.9025C253.195 44.2654 253.712 43.749 254.349 43.749C254.986 43.749 255.502 44.2654 255.502 44.9025C255.502 45.5395 254.986 46.0559 254.349 46.0559Z" fill="white"/>
<path d="M264.73 58.7438C264.093 58.7438 263.576 58.2274 263.576 57.5904C263.576 56.9533 264.093 56.4369 264.73 56.4369C265.367 56.4369 265.883 56.9533 265.883 57.5904C265.883 58.2274 265.367 58.7438 264.73 58.7438Z" fill="white"/>
<path d="M211.313 44.0454C210.917 43.0195 210.868 42.3993 210.553 42.1859C209.382 41.3866 208.219 40.4929 206.882 40.0132C203.342 38.6093 199.66 38.4753 195.932 38.9546C189.576 39.7585 183.81 42.172 178.273 45.3141C177.679 45.6491 177.09 45.9369 176.45 46.2683C176.403 46.2648 176.312 46.2106 176.178 46.1056C176.538 45.0891 176.902 44.0255 177.215 43.0054C177.352 42.4465 177.401 41.7861 177.255 41.206C177.186 40.8687 176.704 40.3582 176.374 40.3335C175.95 40.3017 175.408 40.593 175.01 40.8478C174.757 41.066 174.678 41.487 174.556 41.8573C173.637 44.6344 172.625 47.4044 171.75 50.2323C171.001 52.6426 171.741 53.5045 174.153 53.5431C176.658 53.5887 179.156 53.7287 181.611 53.8179C182.368 53.8273 183.178 53.7458 184.033 53.715C183.287 51.6669 183.287 51.6669 175.715 50.3873C179.232 47.6629 182.958 45.9502 186.768 44.3861C190.577 42.8219 194.529 41.8851 198.674 41.5319C202.96 41.1894 206.9 42.2913 211.313 44.0454Z" fill="#BDFF00"/>
<rect x="25.5278" y="21.2114" width="121.245" height="65.29" rx="8.70533" transform="rotate(-10 25.5278 21.2114)" fill="#94A3DC"/>
<path d="M35.3434 35.3387L34.4115 30.0533L36.2245 29.7336C36.7471 29.6414 37.2125 29.6677 37.6207 29.8122C38.0309 29.9539 38.3695 30.2039 38.6367 30.5621C38.9038 30.9204 39.0862 31.3767 39.1839 31.931L39.1852 31.9383C39.283 32.4926 39.2678 32.985 39.1398 33.4155C39.0113 33.8435 38.78 34.1952 38.4459 34.4707C38.1113 34.7437 37.6815 34.9265 37.1565 35.019L35.3434 35.3387ZM35.8981 34.6291L37.0079 34.4334C37.4011 34.3641 37.7226 34.2243 37.9726 34.014C38.2225 33.8038 38.3939 33.5331 38.4865 33.2021C38.5792 32.871 38.5879 32.4918 38.5126 32.0645L38.5113 32.0572C38.4355 31.6274 38.2962 31.273 38.0934 30.994C37.8927 30.7122 37.6389 30.5152 37.3321 30.4032C37.0249 30.2886 36.6759 30.2658 36.2852 30.3347L35.1754 30.5304L35.8981 34.6291ZM42.337 34.1773C41.961 34.2436 41.6228 34.2177 41.3225 34.0994C41.0246 33.9807 40.7757 33.7829 40.5758 33.5059C40.3779 33.2261 40.2425 32.8799 40.1698 32.4672L40.1691 32.4635C40.0972 32.0557 40.1062 31.6853 40.196 31.3522C40.2883 31.0187 40.4522 30.7418 40.6878 30.5215C40.9234 30.3012 41.2194 30.1596 41.576 30.0967C41.9349 30.0334 42.2572 30.0622 42.5429 30.183C42.831 30.3035 43.0697 30.5006 43.259 30.7743C43.4503 31.0453 43.5806 31.3773 43.6499 31.7704L43.6938 32.0195L40.5291 32.5775L40.4394 32.0684L43.2781 31.5679L43.0451 32.0886L43.0005 31.8359C42.9458 31.5257 42.8544 31.2787 42.7263 31.0949C42.5982 30.911 42.4438 30.7846 42.2629 30.7158C42.0817 30.6446 41.8848 30.6276 41.6724 30.6651C41.46 30.7026 41.2787 30.7887 41.1288 30.9234C40.9808 31.0552 40.8759 31.2311 40.8139 31.451C40.752 31.6709 40.7471 31.9285 40.7992 32.224L40.8437 32.4767C40.8932 32.7576 40.9833 32.9897 41.1138 33.1731C41.2439 33.3541 41.4063 33.4829 41.6011 33.5593C41.7954 33.6333 42.0123 33.6492 42.2516 33.607C42.4298 33.5756 42.5806 33.5238 42.7038 33.4517C42.8271 33.3796 42.9248 33.2982 42.9969 33.2074C43.069 33.1167 43.1153 33.0292 43.1357 32.945L43.1445 32.9095L43.7818 32.7971L43.7797 32.8277C43.7692 32.968 43.7312 33.1094 43.6656 33.2519C43.6021 33.3915 43.511 33.5247 43.3924 33.6513C43.2733 33.7756 43.1251 33.8848 42.9479 33.979C42.7726 34.0703 42.569 34.1364 42.337 34.1773ZM46.3661 33.4669C46.0731 33.5186 45.8065 33.5202 45.5663 33.4719C45.3258 33.4212 45.1229 33.3273 44.9577 33.1903C44.795 33.0528 44.6823 32.8775 44.6195 32.6645L45.2715 32.5495C45.3541 32.7037 45.4823 32.817 45.6563 32.8896C45.8302 32.9621 46.0429 32.9763 46.2944 32.9319C46.4727 32.9005 46.6245 32.8473 46.7497 32.7723C46.877 32.6945 46.9717 32.6035 47.0339 32.4994C47.0957 32.3928 47.1161 32.2797 47.095 32.16L47.0937 32.1527C47.07 32.0184 46.9962 31.9143 46.8724 31.8405C46.7482 31.7642 46.5588 31.7183 46.3043 31.7027L45.6668 31.6641C45.4098 31.649 45.1938 31.609 45.0187 31.5442C44.8432 31.477 44.7055 31.3816 44.6057 31.2582C44.5055 31.1324 44.4388 30.9755 44.4056 30.7874L44.405 30.7838C44.3662 30.564 44.3951 30.3562 44.4915 30.1605C44.5903 29.9643 44.742 29.7965 44.9466 29.6572C45.1511 29.5179 45.3926 29.4237 45.671 29.3747C45.9469 29.326 46.1988 29.3269 46.4268 29.3774C46.6567 29.4249 46.8504 29.5167 47.0078 29.6526C47.1677 29.788 47.2812 29.9606 47.3484 30.1704L46.7221 30.2808C46.653 30.1318 46.5354 30.0216 46.3692 29.9502C46.203 29.8788 46.0003 29.8642 45.761 29.9064C45.6047 29.934 45.47 29.9842 45.357 30.057C45.2435 30.1273 45.1591 30.2127 45.1038 30.3131C45.0485 30.4135 45.0311 30.5223 45.0518 30.6395L45.0531 30.6468C45.0686 30.7347 45.1056 30.8088 45.164 30.869C45.2225 30.9292 45.3051 30.9763 45.4118 31.0104C45.5185 31.0444 45.6522 31.0674 45.8129 31.0794L46.4468 31.1187C46.8339 31.1436 47.1327 31.2243 47.3431 31.361C47.5559 31.4972 47.6873 31.7069 47.7373 31.9901L47.7385 31.9975C47.7799 32.2319 47.7469 32.4517 47.6396 32.657C47.5318 32.8598 47.3671 33.0323 47.1455 33.1746C46.9262 33.3165 46.6665 33.4139 46.3661 33.4669ZM50.5527 32.7287C50.184 32.7937 49.8492 32.7659 49.5485 32.6452C49.2477 32.5245 48.9957 32.3234 48.7925 32.042C48.5893 31.7606 48.4509 31.4111 48.3773 30.9935L48.376 30.9862C48.3037 30.576 48.3141 30.2065 48.4072 29.8779C48.5027 29.5489 48.6714 29.2774 48.9132 29.0636C49.1545 28.8473 49.4596 28.7066 49.8283 28.6416C50.1482 28.5852 50.434 28.5927 50.6858 28.6641C50.9376 28.7356 51.1498 28.8542 51.3226 29.0202C51.495 29.1836 51.6213 29.3792 51.7017 29.6067L51.7093 29.628L51.0756 29.7397L51.07 29.7294C50.9867 29.5427 50.8463 29.3962 50.6489 29.29C50.4514 29.1839 50.211 29.1557 49.9277 29.2057C49.6909 29.2475 49.4963 29.3435 49.344 29.4937C49.1918 29.6439 49.0874 29.8373 49.0309 30.0738C48.9764 30.3075 48.9755 30.5733 49.028 30.8712L49.0293 30.8786C49.0827 31.1814 49.1768 31.4367 49.3116 31.6446C49.446 31.85 49.6107 31.9984 49.8056 32.09C50.0005 32.1815 50.2152 32.2066 50.4496 32.1652C50.7158 32.1183 50.923 32.0226 51.0712 31.8781C51.2195 31.7337 51.3108 31.5451 51.3453 31.3124L51.3488 31.2891L51.9782 31.1744L51.9779 31.216C51.966 31.4623 51.908 31.6903 51.804 31.9C51.6995 32.1072 51.5442 32.2832 51.3381 32.4278C51.1319 32.5724 50.8702 32.6727 50.5527 32.7287ZM53.1227 32.2038L52.4265 28.2552L53.0638 28.1429L53.1672 28.7289L53.2258 28.7186C53.2649 28.4977 53.3646 28.3139 53.5251 28.1673C53.6856 28.0206 53.8989 27.9239 54.165 27.8769C54.2261 27.8662 54.2866 27.8593 54.3465 27.8563C54.4084 27.8504 54.4556 27.8471 54.4882 27.8464L54.5974 28.4654C54.5293 28.4648 54.4631 28.4677 54.3987 28.474C54.3364 28.4774 54.2698 28.4854 54.199 28.4979C53.9963 28.5336 53.824 28.6055 53.6819 28.7137C53.5398 28.8218 53.4363 28.9559 53.3714 29.1159C53.3089 29.2755 53.2946 29.4517 53.3286 29.6446L53.7601 32.0914L53.1227 32.2038ZM55.9944 31.6974L55.2981 27.7489L55.9355 27.6365L56.6317 31.585L55.9944 31.6974ZM55.4861 26.9302C55.3665 26.9513 55.2552 26.9269 55.1522 26.8569C55.0512 26.7841 54.9902 26.6878 54.9691 26.5682C54.9476 26.4461 54.972 26.3347 55.0424 26.2342C55.1152 26.1332 55.2115 26.0722 55.3311 26.0511C55.4532 26.0296 55.5645 26.054 55.6651 26.1244C55.7656 26.1948 55.8266 26.2911 55.8482 26.4132C55.8693 26.5328 55.8448 26.6441 55.7749 26.7471C55.7045 26.8476 55.6082 26.9087 55.4861 26.9302ZM59.8086 31.0966C59.6255 31.1289 59.4508 31.1307 59.2847 31.1021C59.1185 31.0735 58.9653 31.0187 58.8251 30.9377C58.6845 30.8542 58.561 30.7463 58.4546 30.614L58.396 30.6243L58.5071 31.2544L57.8697 31.3667L56.8971 25.8505L57.5344 25.7382L57.9206 27.9285L57.9792 27.9182C58.0275 27.7636 58.1037 27.6243 58.2077 27.5002C58.3141 27.3757 58.4418 27.2714 58.5906 27.1872C58.7414 27.1002 58.9072 27.0408 59.0879 27.0089C59.4224 26.9499 59.7278 26.9829 60.0042 27.1079C60.283 27.2325 60.5176 27.4353 60.7082 27.7165C60.8988 27.9976 61.0304 28.3445 61.1032 28.7572L61.1045 28.7645C61.1768 29.1747 61.1718 29.5457 61.0893 29.8775C61.0063 30.2069 60.8552 30.4777 60.6358 30.6902C60.4189 30.9021 60.1432 31.0376 59.8086 31.0966ZM59.5627 30.5584C59.8044 30.5157 60.0004 30.4208 60.1507 30.2734C60.3005 30.1236 60.4012 29.9309 60.4528 29.6952C60.5064 29.4566 60.5063 29.1847 60.4525 28.8795L60.4512 28.8721C60.397 28.5645 60.3041 28.3089 60.1725 28.1055C60.0434 27.9017 59.8831 27.7562 59.6915 27.6691C59.4995 27.5796 59.2826 27.5562 59.0408 27.5988C58.8015 27.641 58.6057 27.7372 58.4535 27.8874C58.3012 28.0377 58.198 28.2308 58.144 28.467C58.0899 28.7031 58.0898 28.9738 58.1437 29.279L58.1449 29.2863C58.1983 29.5891 58.291 29.8435 58.423 30.0493C58.5545 30.2527 58.7175 30.399 58.912 30.488C59.1065 30.5771 59.3234 30.6006 59.5627 30.5584ZM64.0648 30.3461C63.6888 30.4124 63.3506 30.3865 63.0503 30.2682C62.7524 30.1495 62.5035 29.9517 62.3036 29.6747C62.1057 29.3949 61.9704 29.0487 61.8976 28.636L61.897 28.6323C61.8251 28.2245 61.834 27.8541 61.9238 27.521C62.0161 27.1875 62.18 26.9106 62.4156 26.6903C62.6512 26.47 62.9473 26.3284 63.3038 26.2655C63.6627 26.2022 63.985 26.231 64.2707 26.3518C64.5588 26.4722 64.7975 26.6694 64.9868 26.9431C65.1781 27.2141 65.3084 27.5461 65.3777 27.9392L65.4216 28.1883L62.257 28.7463L62.1672 28.2372L65.0059 27.7367L64.7729 28.2574L64.7283 28.0047C64.6736 27.6945 64.5823 27.4475 64.4542 27.2637C64.3261 27.0798 64.1716 26.9534 63.9908 26.8846C63.8095 26.8134 63.6127 26.7964 63.4002 26.8339C63.1878 26.8714 63.0066 26.9575 62.8566 27.0922C62.7086 27.224 62.6037 27.3999 62.5417 27.6198C62.4798 27.8397 62.4749 28.0973 62.527 28.3928L62.5715 28.6455C62.6211 28.9264 62.7111 29.1585 62.8416 29.3419C62.9717 29.5229 63.1342 29.6517 63.3289 29.7281C63.5233 29.8021 63.7401 29.818 63.9794 29.7758C64.1576 29.7444 64.3084 29.6926 64.4316 29.6205C64.5549 29.5484 64.6526 29.467 64.7247 29.3762C64.7968 29.2855 64.8431 29.198 64.8635 29.1138L64.8723 29.0783L65.5097 28.9659L65.5075 28.9965C65.497 29.1368 65.459 29.2782 65.3935 29.4207C65.33 29.5603 65.2389 29.6935 65.1202 29.8201C65.0011 29.9444 64.8529 30.0536 64.6757 30.1478C64.5004 30.2391 64.2968 30.3052 64.0648 30.3461ZM69.4173 30.7582C69.3758 30.7655 69.329 30.7712 69.2768 30.7754C69.2251 30.782 69.1766 30.7855 69.1314 30.7859L69.039 30.2621C69.0794 30.2626 69.123 30.2599 69.1698 30.2542C69.2167 30.2484 69.262 30.2417 69.306 30.234C69.4867 30.2021 69.6262 30.1296 69.7247 30.0166C69.8255 29.9032 69.8913 29.7266 69.9221 29.4871L69.954 29.2397L67.7957 25.5452L68.477 25.4251L70.3363 28.8589L70.0131 28.5042L70.3135 28.4512L70.1312 28.895L70.7003 25.0331L71.3706 24.9149L70.5674 29.3771C70.512 29.6915 70.4392 29.9422 70.3488 30.1294C70.2584 30.3165 70.1385 30.4573 69.9889 30.5516C69.8423 30.648 69.6517 30.7168 69.4173 30.7582ZM74.3976 28.5242C74.024 28.59 73.6861 28.5653 73.3837 28.4499C73.0834 28.3317 72.8318 28.133 72.6291 27.8541C72.4287 27.5747 72.2915 27.225 72.2175 26.805L72.2162 26.7976C72.1417 26.3752 72.1508 25.9984 72.2435 25.6674C72.3386 25.3359 72.5073 25.0644 72.7495 24.853C72.9941 24.6412 73.3033 24.5023 73.6769 24.4365C74.0529 24.3702 74.3909 24.3949 74.6908 24.5107C74.9907 24.6265 75.2408 24.8241 75.4411 25.1035C75.6439 25.3825 75.7825 25.7332 75.857 26.1557L75.8583 26.163C75.9324 26.583 75.9218 26.9587 75.8267 27.2902C75.734 27.6213 75.5668 27.8938 75.325 28.1076C75.0828 28.319 74.7737 28.4579 74.3976 28.5242ZM74.2982 27.9601C74.5472 27.9162 74.7481 27.8203 74.9008 27.6726C75.0535 27.5248 75.1557 27.333 75.2073 27.0973C75.2613 26.8612 75.261 26.5881 75.2063 26.278L75.205 26.2706C75.1499 25.9581 75.0566 25.7001 74.9251 25.4967C74.796 25.2928 74.6346 25.1488 74.441 25.0646C74.247 24.978 74.0254 24.9566 73.7763 25.0005C73.5273 25.0445 73.3264 25.1403 73.1737 25.2881C73.0205 25.4334 72.9169 25.6242 72.8629 25.8603C72.8113 26.096 72.8131 26.3701 72.8682 26.6827L72.8695 26.69C72.9241 27.0001 73.016 27.2571 73.1451 27.4609C73.2767 27.6644 73.4395 27.8094 73.6335 27.896C73.8275 27.9827 74.0491 28.004 74.2982 27.9601ZM78.5293 27.7956C78.2314 27.8482 77.9712 27.8361 77.7487 27.7596C77.5258 27.6805 77.3439 27.5414 77.203 27.3421C77.0642 27.14 76.9674 26.8839 76.9127 26.5738L76.4619 24.0172L77.0992 23.9048L77.5229 26.3076C77.5853 26.6617 77.7002 26.9133 77.8675 27.0626C78.0373 27.2114 78.2797 27.2581 78.5947 27.2025C78.768 27.1719 78.9161 27.1194 79.0389 27.0449C79.1642 26.9699 79.2636 26.8768 79.3372 26.7657C79.4103 26.6521 79.4568 26.523 79.4766 26.3785C79.4985 26.2312 79.4941 26.0708 79.4636 25.8974L79.0515 23.5605L79.6888 23.4482L80.3851 27.3967L79.7477 27.509L79.6437 26.9193L79.5851 26.9297C79.5462 27.0801 79.4806 27.215 79.3884 27.3345C79.2957 27.4515 79.177 27.5493 79.0322 27.6277C78.8898 27.7056 78.7222 27.7616 78.5293 27.7956ZM81.5755 27.1868L80.8792 23.2383L81.5166 23.1259L81.6199 23.7119L81.6785 23.7016C81.7176 23.4807 81.8174 23.2969 81.9779 23.1503C82.1383 23.0037 82.3516 22.9069 82.6178 22.8599C82.6788 22.8492 82.7393 22.8423 82.7992 22.8393C82.8611 22.8334 82.9084 22.8301 82.941 22.8294L83.0501 23.4484C82.9821 23.4478 82.9158 23.4507 82.8515 23.457C82.7891 23.4604 82.7226 23.4684 82.6518 23.4809C82.4491 23.5166 82.2767 23.5886 82.1346 23.6967C81.9926 23.8048 81.8891 23.9389 81.8241 24.0989C81.7616 24.2585 81.7474 24.4347 81.7814 24.6276L82.2128 27.0744L81.5755 27.1868ZM86.5569 26.3084L85.8607 22.3599L86.498 22.2475L87.1942 26.196L86.5569 26.3084ZM86.0487 21.5412C85.929 21.5623 85.8177 21.5379 85.7147 21.4679C85.6138 21.3951 85.5527 21.2988 85.5316 21.1792C85.5101 21.0571 85.5345 20.9457 85.6049 20.8452C85.6778 20.7442 85.774 20.6832 85.8937 20.6621C86.0158 20.6406 86.1271 20.665 86.2276 20.7354C86.3281 20.8058 86.3892 20.9021 86.4107 21.0242C86.4318 21.1438 86.4074 21.2551 86.3374 21.3581C86.267 21.4586 86.1708 21.5197 86.0487 21.5412ZM88.3956 25.9842L87.6994 22.0357L88.3367 21.9233L88.4427 22.524L88.5013 22.5137C88.5517 22.2857 88.657 22.0972 88.817 21.9481C88.9795 21.7986 89.1901 21.7011 89.449 21.6554C89.6272 21.624 89.7923 21.6251 89.9443 21.6587C90.0962 21.6924 90.2328 21.7526 90.3538 21.8395C90.4745 21.924 90.5774 22.0293 90.6625 22.1552L90.7211 22.1449C90.7674 21.9932 90.8413 21.8556 90.9429 21.7319C91.044 21.6058 91.1678 21.5009 91.3142 21.4172C91.4626 21.3306 91.6271 21.2714 91.8078 21.2395C92.0764 21.1921 92.3123 21.2021 92.5156 21.2695C92.7212 21.3365 92.8899 21.4578 93.0216 21.6335C93.1529 21.8068 93.2428 22.0313 93.2915 22.3073L93.7727 25.0361L93.1353 25.1485L92.68 22.5662C92.6456 22.3708 92.5866 22.215 92.5032 22.0988C92.4217 21.9797 92.3144 21.8992 92.1811 21.8573C92.0474 21.8129 91.8877 21.807 91.7021 21.8397C91.519 21.872 91.3664 21.9417 91.2443 22.0489C91.1222 22.156 91.0355 22.2859 90.9844 22.4384C90.9328 22.5885 90.9219 22.7478 90.9516 22.9163L91.3991 25.4546L90.7618 25.567L90.2891 22.8858C90.2615 22.7295 90.2034 22.6 90.1148 22.4973C90.0282 22.3917 89.917 22.3182 89.7813 22.2766C89.648 22.2347 89.4984 22.2283 89.3323 22.2576C89.1614 22.2877 89.0143 22.3603 88.891 22.4752C88.7702 22.5896 88.6831 22.7309 88.6296 22.8989C88.5782 23.0641 88.5688 23.2395 88.6015 23.425L89.033 25.8718L88.3956 25.9842ZM96.0192 24.7117C95.7702 24.7556 95.5371 24.7476 95.3201 24.6877C95.1055 24.6273 94.9241 24.5196 94.7759 24.3644C94.6301 24.2089 94.5361 24.0114 94.494 23.7721L94.4927 23.7648C94.4513 23.5304 94.4722 23.3202 94.5552 23.1344C94.6378 22.9461 94.7782 22.7854 94.9763 22.6522C95.1744 22.5191 95.4245 22.4171 95.7268 22.3462L97.1617 22.0025L97.2515 22.5117L95.8935 22.8418C95.5961 22.9118 95.3873 23.0128 95.2671 23.1448C95.1493 23.2764 95.1076 23.4398 95.1421 23.6352L95.1434 23.6425C95.1787 23.8427 95.2819 23.9857 95.4531 24.0713C95.6239 24.1545 95.824 24.1758 96.0536 24.1354C96.2709 24.097 96.4563 24.0203 96.6097 23.9051C96.7627 23.7875 96.8737 23.6458 96.9426 23.4801C97.014 23.3139 97.0332 23.1368 97 22.9488L96.783 21.7181C96.74 21.4739 96.6328 21.3014 96.4614 21.2007C96.2921 21.0971 96.0597 21.0714 95.7642 21.1235C95.5273 21.1653 95.3408 21.2422 95.2044 21.3544C95.0677 21.4641 94.9872 21.6004 94.9631 21.7633L94.9613 21.7749L94.324 21.8873L94.3238 21.8647C94.3214 21.6511 94.375 21.4553 94.4846 21.2774C94.5962 21.0965 94.7544 20.944 94.9591 20.8198C95.1634 20.6931 95.4059 20.6051 95.6867 20.5555C96.0091 20.4987 96.2906 20.5032 96.5313 20.569C96.7745 20.6344 96.9709 20.7559 97.1205 20.9334C97.2722 21.1081 97.3721 21.3322 97.4203 21.6057L97.897 24.3088L97.2597 24.4212L97.157 23.8388L97.0984 23.8492C97.0399 24.003 96.9594 24.1393 96.857 24.2581C96.757 24.3764 96.6371 24.4744 96.4971 24.5519C96.3568 24.627 96.1975 24.6803 96.0192 24.7117ZM100.933 25.2086C100.616 25.2646 100.331 25.2682 100.078 25.2197C99.8258 25.1735 99.6143 25.0811 99.4439 24.9425C99.2763 24.8059 99.1564 24.6331 99.0843 24.4243L99.091 24.4193L99.7503 24.3031L99.7546 24.3061C99.8151 24.449 99.9392 24.553 100.127 24.6181C100.315 24.6857 100.551 24.6944 100.834 24.6445C101.188 24.5821 101.45 24.4528 101.619 24.2568C101.791 24.0628 101.852 23.8205 101.801 23.5299L101.66 22.7314L101.601 22.7417C101.544 22.9004 101.462 23.042 101.355 23.1666C101.249 23.2911 101.122 23.394 100.975 23.4753C100.828 23.5541 100.664 23.6094 100.483 23.6413C100.144 23.7011 99.8355 23.6724 99.558 23.5552C99.2825 23.4351 99.0525 23.244 98.8678 22.982C98.6831 22.72 98.5583 22.4046 98.4932 22.0359L98.492 22.0286C98.4269 21.6598 98.4364 21.3208 98.5203 21.0114C98.6063 20.6991 98.7593 20.4393 98.9796 20.2317C99.1994 20.0218 99.4814 19.8864 99.8257 19.8257C100.011 19.793 100.187 19.7922 100.354 19.8232C100.521 19.8543 100.673 19.913 100.812 19.9993C100.953 20.0852 101.077 20.1955 101.184 20.3303L101.228 20.3225L101.113 19.6706L101.75 19.5582L102.437 23.4518C102.488 23.7448 102.461 24.0127 102.355 24.2554C102.252 24.4977 102.079 24.7007 101.836 24.8644C101.593 25.0306 101.292 25.1453 100.933 25.2086ZM100.523 23.0527C100.767 23.0096 100.966 22.9166 101.12 22.7738C101.275 22.628 101.382 22.4468 101.439 22.2302C101.499 22.0132 101.506 21.774 101.46 21.5127L101.459 21.5054C101.413 21.2441 101.324 21.0206 101.193 20.8347C101.065 20.6484 100.902 20.5133 100.706 20.4295C100.513 20.3454 100.294 20.3248 100.05 20.3678C99.8055 20.4109 99.6081 20.5049 99.4574 20.6498C99.3091 20.7943 99.2077 20.9758 99.1531 21.1944C99.1009 21.4126 99.0979 21.6523 99.1439 21.9136L99.1452 21.9209C99.1913 22.1822 99.2759 22.4052 99.3992 22.5899C99.5248 22.7742 99.682 22.9089 99.8707 22.994C100.061 23.0762 100.279 23.0957 100.523 23.0527ZM105.257 23.0829C104.881 23.1492 104.543 23.1232 104.242 23.0049C103.944 22.8863 103.696 22.6884 103.496 22.4115C103.298 22.1316 103.162 21.7854 103.09 21.3727L103.089 21.369C103.017 20.9613 103.026 20.5908 103.116 20.2577C103.208 19.9242 103.372 19.6473 103.608 19.427C103.843 19.2067 104.139 19.0651 104.496 19.0023C104.855 18.939 105.177 18.9677 105.463 19.0886C105.751 19.209 105.99 19.4061 106.179 19.6799C106.37 19.9508 106.5 20.2828 106.57 20.676L106.614 20.9251L103.449 21.4831L103.359 20.9739L106.198 20.4734L105.965 20.9941L105.92 20.7414C105.866 20.4313 105.774 20.1843 105.646 20.0004C105.518 19.8165 105.364 19.6902 105.183 19.6214C105.002 19.5501 104.805 19.5332 104.592 19.5706C104.38 19.6081 104.199 19.6942 104.049 19.8289C103.901 19.9607 103.796 20.1366 103.734 20.3565C103.672 20.5764 103.667 20.8341 103.719 21.1295L103.764 21.3823C103.813 21.6631 103.903 21.8952 104.034 22.0787C104.164 22.2597 104.326 22.3884 104.521 22.4648C104.715 22.5388 104.932 22.5547 105.171 22.5125C105.35 22.4811 105.5 22.4293 105.624 22.3573C105.747 22.2852 105.845 22.2037 105.917 22.113C105.989 22.0222 106.035 21.9347 106.056 21.8506L106.064 21.815L106.702 21.7026L106.7 21.7332C106.689 21.8736 106.651 22.015 106.585 22.1575C106.522 22.2971 106.431 22.4302 106.312 22.5569C106.193 22.6811 106.045 22.7903 105.868 22.8845C105.692 22.9758 105.489 23.042 105.257 23.0829Z" fill="black"/>
<defs>
<linearGradient id="paint0_linear_7504_57534" x1="0.5" y1="56.1693" x2="288.5" y2="56.1693" gradientUnits="userSpaceOnUse">
<stop stop-color="#3B6BFF"/>
</linearGradient>
</defs>
</svg>
