<svg width="153" height="46" viewBox="0 0 153 46" fill="none" xmlns="http://www.w3.org/2000/svg">
<path d="M0.892578 14.259L0.892578 31.8231C0.892578 39.3063 6.95888 45.3726 14.442 45.3726L138.896 45.3726C146.379 45.3726 152.446 39.3063 152.446 31.8231V14.259C152.446 6.77583 146.379 0.709526 138.896 0.709526L14.442 0.709526C6.95888 0.709526 0.892578 6.77583 0.892578 14.259Z" fill="#3D4F94"/>
<path d="M1.14258 14.2594L1.14258 31.8235C1.14258 39.1681 7.09654 45.1221 14.4411 45.1221L138.895 45.1221C146.24 45.1221 152.194 39.1681 152.194 31.8235V14.2594C152.194 6.91483 146.24 0.960869 138.895 0.960869L14.4411 0.960869C7.09654 0.960869 1.14258 6.91483 1.14258 14.2594Z" fill="#3D4F94" stroke="url(#paint0_linear_7766_49341)" stroke-opacity="0.4"/>
<path d="M31.794 16.335H26.2073C23.7807 16.335 22.334 17.7816 22.334 20.2083V25.7883C22.334 28.2216 23.7807 29.6683 26.2073 29.6683H31.7873C34.214 29.6683 35.6607 28.2216 35.6607 25.795V20.2083C35.6673 17.7816 34.2207 16.335 31.794 16.335ZM28.7407 22.895C28.7407 24.9483 28.294 25.4083 27.1007 26.115C27.0207 26.1616 26.934 26.1816 26.8473 26.1816C26.674 26.1816 26.5073 26.095 26.414 25.935C26.274 25.695 26.354 25.3883 26.5873 25.2483C27.394 24.7683 27.674 24.595 27.7273 23.3883H26.4607C25.734 23.3883 25.1673 22.8216 25.1673 22.095V21.1083C25.1673 20.3816 25.734 19.815 26.4607 19.815H27.454C28.1673 19.815 28.7473 20.395 28.7473 21.1083V22.895H28.7407ZM32.834 22.895C32.834 24.9483 32.3873 25.4083 31.194 26.115C31.114 26.1616 31.0273 26.1816 30.9406 26.1816C30.7673 26.1816 30.6007 26.095 30.5073 25.935C30.3673 25.695 30.4473 25.3883 30.6807 25.2483C31.4873 24.7683 31.7673 24.595 31.8207 23.3883H30.5473C29.8207 23.3883 29.254 22.8216 29.254 22.095V21.1083C29.254 20.3816 29.8207 19.815 30.5473 19.815H31.5407C32.254 19.815 32.834 20.395 32.834 21.1083V22.895Z" fill="white"/>
<path d="M66.9673 17.755C66.774 17.475 66.5273 17.2283 66.2473 17.035C65.614 16.575 64.7873 16.335 63.794 16.335H58.2073C58.074 16.335 57.9407 16.3416 57.814 16.355C55.6273 16.495 54.334 17.915 54.334 20.2083V25.795C54.334 26.7883 54.574 27.615 55.034 28.2483C55.2273 28.5283 55.474 28.775 55.754 28.9683C56.3007 29.3683 56.994 29.6016 57.814 29.655C57.9407 29.6616 58.074 29.6683 58.2073 29.6683H63.794C66.2207 29.6683 67.6673 28.2216 67.6673 25.795V20.2083C67.6673 19.215 67.4273 18.3883 66.9673 17.755ZM65.5007 20.935C65.5007 21.2083 65.274 21.435 65.0007 21.435C64.7273 21.435 64.5007 21.2083 64.5007 20.935V20.1483C64.5007 19.935 64.3273 19.7616 64.114 19.7616H61.5007V26.2416H62.6873C62.9607 26.2416 63.1873 26.4683 63.1873 26.7416C63.1873 27.015 62.9607 27.2416 62.6873 27.2416H59.314C59.0407 27.2416 58.814 27.015 58.814 26.7416C58.814 26.4683 59.0407 26.2416 59.314 26.2416H60.5007V19.7616H57.8873C57.674 19.7616 57.5007 19.935 57.5007 20.1483V20.935C57.5007 21.2083 57.274 21.435 57.0007 21.435C56.7273 21.435 56.5007 21.2083 56.5007 20.935V20.1483C56.5007 19.3816 57.1207 18.7616 57.8873 18.7616H64.1073C64.874 18.7616 65.494 19.3816 65.494 20.1483V20.935H65.5007Z" fill="white"/>
<path d="M99.0007 18.5015H94.334C94.0607 18.5015 93.834 18.2748 93.834 18.0015C93.834 17.7281 94.0607 17.5015 94.334 17.5015H99.0007C99.274 17.5015 99.5007 17.7281 99.5007 18.0015C99.5007 18.2748 99.274 18.5015 99.0007 18.5015Z" fill="white"/>
<path d="M99.0007 21.835H94.334C94.0607 21.835 93.834 21.6083 93.834 21.335C93.834 21.0616 94.0607 20.835 94.334 20.835H99.0007C99.274 20.835 99.5007 21.0616 99.5007 21.335C99.5007 21.6083 99.274 21.835 99.0007 21.835Z" fill="white"/>
<path d="M99 25.168H87C86.7267 25.168 86.5 24.9413 86.5 24.668C86.5 24.3946 86.7267 24.168 87 24.168H99C99.2733 24.168 99.5 24.3946 99.5 24.668C99.5 24.9413 99.2733 25.168 99 25.168Z" fill="white"/>
<path d="M99 28.5015H87C86.7267 28.5015 86.5 28.2748 86.5 28.0015C86.5 27.7281 86.7267 27.5015 87 27.5015H99C99.2733 27.5015 99.5 27.7281 99.5 28.0015C99.5 28.2748 99.2733 28.5015 99 28.5015Z" fill="white"/>
<path d="M90.28 17.335H88.3867C87.4533 17.335 87 17.7883 87 18.7216V20.6216C87 21.555 87.4533 22.0083 88.3867 22.0083H90.2867C91.22 22.0083 91.6733 21.555 91.6733 20.6216V18.7216C91.6667 17.7883 91.2133 17.335 90.28 17.335Z" fill="white"/>
<path d="M127.794 16.335H122.207C119.781 16.335 118.334 17.7816 118.334 20.2083V25.7883C118.334 28.2216 119.781 29.6683 122.207 29.6683H127.787C130.214 29.6683 131.661 28.2216 131.661 25.795V20.2083C131.667 17.7816 130.221 16.335 127.794 16.335ZM125.347 25.5016L124.507 26.3416C124.081 26.775 123.381 26.775 122.947 26.3416L121.661 25.055C121.227 24.6216 121.234 23.9283 121.661 23.495L122.507 22.655C122.641 22.5283 122.847 22.5283 122.981 22.655L125.354 25.0283C125.481 25.1616 125.481 25.375 125.347 25.5016ZM128.341 22.5083L126.287 24.5616C126.154 24.695 125.947 24.695 125.814 24.5616L123.441 22.1883C123.307 22.055 123.307 21.8483 123.441 21.715L125.494 19.6616C125.921 19.2283 126.621 19.2283 127.054 19.6616L128.341 20.9483C128.774 21.3816 128.774 22.0816 128.341 22.5083Z" fill="white"/>
<defs>
<linearGradient id="paint0_linear_7766_49341" x1="0.891662" y1="23.0415" x2="152.445" y2="23.0415" gradientUnits="userSpaceOnUse">
<stop stop-color="white"/>
<stop offset="1" stop-color="white" stop-opacity="0"/>
</linearGradient>
</defs>
</svg>
