<svg width="56" height="56" viewBox="0 0 56 56" fill="none" xmlns="http://www.w3.org/2000/svg">
<rect width="56" height="56" rx="10" fill="#C209C1"/>
<path d="M39.9327 17.9208C39.546 17.3608 39.0527 16.8675 38.4927 16.4808C37.226 15.5608 35.5727 15.0808 33.586 15.0808H22.4127C22.146 15.0808 21.8793 15.0941 21.626 15.1208C17.2527 15.4008 14.666 18.2408 14.666 22.8275V34.0008C14.666 35.9875 15.146 37.6408 16.066 38.9075C16.4527 39.4675 16.946 39.9608 17.506 40.3475C18.5993 41.1475 19.986 41.6141 21.626 41.7208C21.8793 41.7341 22.146 41.7475 22.4127 41.7475H33.586C38.4394 41.7475 41.3327 38.8541 41.3327 34.0008V22.8275C41.3327 20.8408 40.8527 19.1875 39.9327 17.9208ZM36.9993 24.2808C36.9993 24.8275 36.546 25.2808 35.9993 25.2808C35.4527 25.2808 34.9993 24.8275 34.9993 24.2808V22.7075C34.9993 22.2808 34.6527 21.9341 34.226 21.9341H28.9993V34.8941H31.3727C31.9193 34.8941 32.3727 35.3475 32.3727 35.8941C32.3727 36.4408 31.9193 36.8941 31.3727 36.8941H24.626C24.0793 36.8941 23.626 36.4408 23.626 35.8941C23.626 35.3475 24.0793 34.8941 24.626 34.8941H26.9993V21.9341H21.7727C21.346 21.9341 20.9993 22.2808 20.9993 22.7075V24.2808C20.9993 24.8275 20.546 25.2808 19.9993 25.2808C19.4527 25.2808 18.9993 24.8275 18.9993 24.2808V22.7075C18.9993 21.1741 20.2393 19.9341 21.7727 19.9341H34.2127C35.746 19.9341 36.986 21.1741 36.986 22.7075V24.2808H36.9993Z" fill="white"/>
</svg>
