<svg width="56" height="56" viewBox="0 0 56 56" fill="none" xmlns="http://www.w3.org/2000/svg">
<rect width="56" height="56" rx="10" fill="#BDFF00"/>
<path d="M40.3008 19.4141H16.3008C15.7541 19.4141 15.3008 18.9607 15.3008 18.4141C15.3008 17.8674 15.7541 17.4141 16.3008 17.4141H40.3008C40.8474 17.4141 41.3008 17.8674 41.3008 18.4141C41.3008 18.9607 40.8474 19.4141 40.3008 19.4141Z" fill="#1B1F3B"/>
<path d="M28.9274 26.0808H16.3008C15.7541 26.0808 15.3008 25.6275 15.3008 25.0808C15.3008 24.5341 15.7541 24.0808 16.3008 24.0808H28.9274C29.4741 24.0808 29.9274 24.5341 29.9274 25.0808C29.9274 25.6275 29.4874 26.0808 28.9274 26.0808Z" fill="#1B1F3B"/>
<path d="M40.3008 32.7476H16.3008C15.7541 32.7476 15.3008 32.2942 15.3008 31.7476C15.3008 31.2009 15.7541 30.7476 16.3008 30.7476H40.3008C40.8474 30.7476 41.3008 31.2009 41.3008 31.7476C41.3008 32.2942 40.8474 32.7476 40.3008 32.7476Z" fill="#1B1F3B"/>
<path d="M28.9274 39.4141H16.3008C15.7541 39.4141 15.3008 38.9607 15.3008 38.4141C15.3008 37.8674 15.7541 37.4141 16.3008 37.4141H28.9274C29.4741 37.4141 29.9274 37.8674 29.9274 38.4141C29.9274 38.9607 29.4874 39.4141 28.9274 39.4141Z" fill="#1B1F3B"/>
</svg>
