<svg width="56" height="56" viewBox="0 0 56 56" fill="none" xmlns="http://www.w3.org/2000/svg">
<rect width="56" height="56" rx="10" fill="#BDFF00"/>
<path d="M34.6423 26.6016L24.8423 16.8016L23.6823 15.6416C23.2957 15.2549 22.6557 15.2549 22.269 15.6416C21.8823 16.0282 21.8823 16.6682 22.269 17.0549L23.429 18.2149L15.9223 25.7216C15.069 26.5749 14.6157 27.4416 14.589 28.3082C14.5623 29.2282 15.0157 30.1482 15.9223 31.0682L21.269 36.4149C23.0557 38.1882 24.8423 38.1882 26.6157 36.4149L34.6423 28.3882C34.909 28.1216 35.029 27.7616 35.0023 27.4149C34.989 27.1216 34.8557 26.8149 34.6423 26.6016Z" fill="#1B1F3B"/>
<path d="M33.2552 42.7476H15.9219C15.3752 42.7476 14.9219 42.2942 14.9219 41.7476C14.9219 41.2009 15.3752 40.7476 15.9219 40.7476H33.2552C33.8019 40.7476 34.2552 41.2009 34.2552 41.7476C34.2552 42.2942 33.8019 42.7476 33.2552 42.7476Z" fill="#1B1F3B"/>
<path d="M37.7219 32.1213C37.3752 31.748 36.7352 31.748 36.3885 32.1213C35.9752 32.5746 33.9219 34.8813 33.9219 36.6413C33.9219 38.3746 35.3219 39.7746 37.0552 39.7746C38.7885 39.7746 40.1885 38.3746 40.1885 36.6413C40.1885 34.8946 38.1352 32.5746 37.7219 32.1213Z" fill="#1B1F3B"/>
</svg>
