<svg width="57" height="56" viewBox="0 0 57 56" fill="none" xmlns="http://www.w3.org/2000/svg">
<rect x="0.5" width="56" height="56" rx="10" fill="#BDFF00"/>
<g clip-path="url(#clip0_9159_8856)">
<path d="M33.5287 27.9772C33.5287 31.4522 31.4967 34.4882 28.4757 36.1152M33.5287 27.9772C33.5287 24.5012 31.4967 21.4662 28.4757 19.8382M33.5287 27.9772C33.5287 29.5972 33.0877 31.1222 32.3097 32.4532M33.5287 27.9772C33.5287 27.5332 33.4957 27.0972 33.4317 26.6702M28.4757 36.1152C25.4537 34.4882 23.4217 31.4522 23.4217 27.9772M28.4757 36.1152C29.9687 36.9192 31.7037 37.3802 33.5547 37.3802C39.1507 37.3802 43.6867 33.1702 43.6867 27.9772C43.6867 22.7832 39.1507 18.5732 33.5547 18.5732C31.7037 18.5732 29.9687 19.0342 28.4757 19.8382M28.4757 36.1152C26.9827 36.9192 25.2477 37.3802 23.3967 37.3802C17.8007 37.3802 13.2637 33.1702 13.2637 27.9772C13.2637 22.7832 17.8007 18.5732 23.3967 18.5732C25.2477 18.5732 26.9827 19.0342 28.4757 19.8382M28.4757 36.1152C28.8247 35.9272 29.1607 35.7202 29.4817 35.4962M28.4757 36.1152C27.8787 35.7942 27.3207 35.4172 26.8087 34.9932M28.4757 19.8382C25.4537 21.4662 23.4217 24.5012 23.4217 27.9772M28.4757 19.8382C28.8807 20.0562 29.2677 20.3002 29.6347 20.5662M28.4757 19.8382C28.3567 19.9022 28.2397 19.9682 28.1247 20.0362M32.3097 32.4532C32.1247 32.7702 31.9207 33.0762 31.6987 33.3692M32.3097 32.4532L31.7277 31.5182M33.4317 26.6702C33.0617 24.1982 31.6557 22.0342 29.6347 20.5662M33.4317 26.6702L32.9687 25.9252M23.4217 27.9772C23.4217 27.8712 23.4237 27.7662 23.4277 27.6612M23.4217 27.9772C23.4217 28.6312 23.4937 29.2692 23.6307 29.8852M23.4277 27.6612C23.4467 27.1232 23.5147 26.5972 23.6267 26.0852M23.4277 27.6612L23.8957 28.4142M23.6307 29.8852C24.0777 31.8972 25.2177 33.6752 26.8087 34.9932M23.6307 29.8852L23.7767 30.1202M29.4817 35.4962C30.3357 34.9002 31.0847 34.1822 31.6987 33.3692M29.4817 35.4962L29.3367 35.2642M26.8087 34.9932L26.4167 34.3642M29.6347 20.5662L30.3287 21.6812M28.1247 20.0362C27.8357 20.2072 27.5557 20.3912 27.2877 20.5872M28.1247 20.0362L28.6767 20.9232M29.0177 21.4712L29.8267 22.7712M30.1667 23.3192L30.9757 24.6202M31.3167 25.1672L32.1257 26.4682M32.4667 27.0152L33.2757 28.3162M27.2467 22.4192L28.0557 23.7202M28.3967 24.2682L29.2057 25.5682M29.5467 26.1162L30.3557 27.4162M30.6967 27.9642L31.5057 29.2642M31.8457 29.8122L32.6557 31.1132M25.4767 23.3682L26.2857 24.6682M26.6267 25.2162L27.4357 26.5172M27.7767 27.0642L28.5857 28.3652M28.9267 28.9122L29.7357 30.2132M30.0757 30.7612L30.8847 32.0612M24.8567 26.1652L25.6657 27.4652M26.0057 28.0132L26.8157 29.3132M27.1557 29.8612L27.9647 31.1612M28.3057 31.7092L29.1147 33.0102M29.4557 33.5572L30.2647 34.8582M24.2357 28.9612L25.0447 30.2622M25.3857 30.8092L26.1947 32.1102M26.5357 32.6582L27.3447 33.9582M27.6857 34.5062L28.4947 35.8062M30.6687 22.2292L31.4777 23.5292M31.8187 24.0772L32.6277 25.3782M27.7487 21.3292L28.5577 22.6302M28.8987 23.1772L29.7077 24.4782M30.0487 25.0252L30.8577 26.3262M31.1987 26.8742L32.0077 28.1742M32.3477 28.7222L33.1567 30.0222M25.9787 22.2782L26.7877 23.5782M27.1287 24.1262L27.9377 25.4262M28.2777 25.9742L29.0877 27.2742M29.4277 27.8222L30.2367 29.1232M30.5777 29.6702L31.3867 30.9712M25.3587 25.0742L26.1677 26.3752M26.5077 26.9222L27.3167 28.2232M27.6577 28.7712L28.4667 30.0712M28.8077 30.6192L29.6167 31.9192M29.9577 32.4672L30.7667 33.7672M24.7377 27.8712L25.5467 29.1712M25.8877 29.7192L26.6967 31.0202M27.0377 31.5672L27.8467 32.8682M28.1877 33.4152L28.9967 34.7162M24.1177 30.6682L24.9267 31.9682M25.2667 32.5162L26.0767 33.8162M31.6987 33.3692L31.2257 32.6092M27.2877 20.5872C27.0137 20.7872 26.7527 20.9992 26.5027 21.2242M27.2877 20.5872L27.4087 20.7812M26.5027 21.2242C25.9817 21.6932 25.5137 22.2142 25.1097 22.7782M26.5027 21.2242L26.9067 21.8722M25.1097 22.7782C24.8927 23.0802 24.6947 23.3952 24.5167 23.7212M25.1097 22.7782L25.1357 22.8202M24.5167 23.7212C24.3247 24.0712 24.1557 24.4332 24.0117 24.8072M24.5167 23.7212L25.0177 24.5272M24.0117 24.8072C23.8527 25.2202 23.7227 25.6472 23.6267 26.0852M24.0117 24.8072L24.5157 25.6172M23.6267 26.0852L24.3967 27.3232" stroke="#1B1F3B" stroke-width="2" stroke-linecap="round" stroke-linejoin="round"/>
</g>
<defs>
<clipPath id="clip0_9159_8856">
<rect width="33" height="21" fill="white" transform="translate(12 17.5)"/>
</clipPath>
</defs>
</svg>
