<svg width="57" height="56" viewBox="0 0 57 56" fill="none" xmlns="http://www.w3.org/2000/svg">
<rect x="0.5" width="56" height="56" rx="10" fill="#C209C1"/>
<path d="M34.2911 15.0806H23.1178C18.2644 15.0806 15.3711 17.9739 15.3711 22.8272V33.9872C15.3711 38.8539 18.2644 41.7472 23.1178 41.7472H34.2778C39.1311 41.7472 42.0244 38.8539 42.0244 34.0006V22.8272C42.0378 17.9739 39.1444 15.0806 34.2911 15.0806ZM28.7044 20.4139C31.3578 20.4139 33.5044 22.5606 33.5044 25.2139C33.5044 25.8406 33.3844 26.4406 33.1711 26.9872C32.6244 28.3739 31.4378 29.4539 29.9711 29.8539C29.5711 29.9606 29.1444 30.0272 28.7044 30.0272C28.2644 30.0272 27.8378 29.9739 27.4378 29.8539C25.9711 29.4539 24.7844 28.3872 24.2378 26.9872C24.0244 26.4406 23.9044 25.8406 23.9044 25.2139C23.9044 22.5606 26.0511 20.4139 28.7044 20.4139ZM25.5044 36.4139C22.8511 36.4139 20.7044 34.2672 20.7044 31.6139C20.7044 30.1038 21.4092 28.7557 22.4969 27.8754C22.8125 27.6199 23.2633 27.7808 23.461 28.1355C24.2407 29.5342 25.5651 30.5732 27.1178 30.9872C27.6244 31.1339 28.1444 31.2006 28.7044 31.2006C29.0363 31.2006 29.3535 31.176 29.6619 31.1268C29.9783 31.0764 30.3044 31.2802 30.3044 31.6006C30.3044 33.0139 29.6911 34.2939 28.7044 35.1739C27.8511 35.9472 26.7311 36.4139 25.5044 36.4139ZM31.9044 36.4139C31.4397 36.4139 30.9844 36.3488 30.5548 36.224C30.1195 36.0976 30.0398 35.5551 30.3123 35.193C31.079 34.1741 31.5044 32.9157 31.5044 31.6139C31.5044 31.3472 31.4778 31.0672 31.4378 30.8139C31.4139 30.6629 31.4908 30.5147 31.6242 30.4402C32.5898 29.9013 33.3984 29.1105 33.9368 28.1395C34.1341 27.7835 34.5853 27.6195 34.9026 27.8743C35.9991 28.7546 36.7044 30.1032 36.7044 31.6139C36.7044 34.2672 34.5578 36.4139 31.9044 36.4139Z" fill="white"/>
</svg>
