<svg width="32" height="32" viewBox="0 0 32 32" fill="none" xmlns="http://www.w3.org/2000/svg">
<g clip-path="url(#clip0_7003_45308)">
<path d="M16 24C20.4183 24 24 20.4183 24 16C24 11.5817 20.4183 8 16 8C11.5817 8 8 11.5817 8 16C8 20.4183 11.5817 24 16 24Z" fill="#FCFDFE"/>
<path d="M16.0002 8.00003H29.8543C28.4504 5.56762 26.4309 3.54769 23.9987 2.14337C21.5666 0.739036 18.8076 -0.000195914 15.9991 3.89466e-08C13.1906 0.000195991 10.4317 0.739813 7.99976 2.14448C5.56781 3.54915 3.54855 5.56936 2.14502 8.00196L9.07209 20L9.07829 19.9984C8.37362 18.7833 8.00175 17.4038 8.00018 15.9991C7.9986 14.5944 8.36736 13.2142 9.06929 11.9974C9.77123 10.7807 10.7815 9.77051 11.9983 9.06871C13.2151 8.36691 14.5955 7.9983 16.0002 8.00003Z" fill="url(#paint0_linear_7003_45308)"/>
<path d="M15.9998 22.3307C19.4976 22.3307 22.3332 19.4952 22.3332 15.9974C22.3332 12.4996 19.4976 9.66406 15.9998 9.66406C12.502 9.66406 9.6665 12.4996 9.6665 15.9974C9.6665 19.4952 12.502 22.3307 15.9998 22.3307Z" fill="#1A73E8"/>
<path d="M22.9275 19.9999L16.0004 31.9979C18.8089 31.9983 21.5679 31.2593 24.0002 29.8551C26.4324 28.451 28.4521 26.4312 29.8561 23.9989C31.2602 21.5666 31.9991 18.8075 31.9986 15.9991C31.9981 13.1906 31.2582 10.4318 29.8533 8H15.9992L15.9976 8.0062C17.4023 8.00349 18.7828 8.37115 20.0001 9.07212C21.2174 9.77309 22.2284 10.7826 22.9312 11.9989C23.6339 13.2151 24.0036 14.5952 24.003 15.9999C24.0023 17.4045 23.6314 18.7842 22.9275 19.9999Z" fill="url(#paint1_linear_7003_45308)"/>
<path d="M9.07274 20.0059L2.14568 8.00781C0.741094 10.4398 0.00156952 13.1988 0.00146485 16.0072C0.00136019 18.8157 0.740679 21.5747 2.14508 24.0068C3.54948 26.4389 5.56947 28.4584 8.00192 29.8622C10.4344 31.266 13.1935 32.0046 16.002 32.0038L22.9291 20.0057L22.9246 20.0012C22.2246 21.2191 21.2159 22.2308 20.0002 22.9345C18.7845 23.6382 17.4047 24.009 16 24.0095C14.5953 24.01 13.2153 23.6401 11.9992 22.9372C10.783 22.2343 9.77359 21.2232 9.07274 20.0059Z" fill="url(#paint2_linear_7003_45308)"/>
</g>
<defs>
<linearGradient id="paint0_linear_7003_45308" x1="2.14502" y1="10" x2="29.8543" y2="10" gradientUnits="userSpaceOnUse">
<stop stop-color="#D93025"/>
<stop offset="1" stop-color="#EA4335"/>
</linearGradient>
<linearGradient id="paint1_linear_7003_45308" x1="13.8146" y1="31.784" x2="27.6692" y2="7.78707" gradientUnits="userSpaceOnUse">
<stop stop-color="#FCC934"/>
<stop offset="1" stop-color="#FBBC04"/>
</linearGradient>
<linearGradient id="paint2_linear_7003_45308" x1="17.7324" y1="31.0048" x2="3.87774" y2="7.00781" gradientUnits="userSpaceOnUse">
<stop stop-color="#1E8E3E"/>
<stop offset="1" stop-color="#34A853"/>
</linearGradient>
<clipPath id="clip0_7003_45308">
<rect width="32" height="32" fill="white"/>
</clipPath>
</defs>
</svg>
