<svg width="20" height="20" viewBox="0 0 20 20" fill="none" xmlns="http://www.w3.org/2000/svg">
<path d="M7.29991 1.44193H7.40824C11.1082 1.44193 12.8916 2.90026 13.1999 6.16693C13.2332 6.50859 12.9832 6.81693 12.6332 6.85026C12.2999 6.88359 11.9832 6.62526 11.9499 6.28359C11.7082 3.66693 10.4749 2.69193 7.39991 2.69193H7.29157C3.89991 2.69193 2.69991 3.89193 2.69991 7.28359L2.69991 12.7169C2.69991 16.1086 3.89991 17.3086 7.29157 17.3086H7.39991C10.4916 17.3086 11.7249 16.3169 11.9499 13.6503C11.9916 13.3086 12.2832 13.0503 12.6332 13.0836C12.9832 13.1086 13.2332 13.4169 13.2082 13.7586C12.9249 17.0753 11.1332 18.5586 7.40824 18.5586H7.29991C3.20824 18.5586 1.45824 16.8086 1.45824 12.7169L1.45824 7.28359C1.45824 3.19193 3.20824 1.44193 7.29991 1.44193Z" fill="#2A0856"/>
<path d="M7.50006 9.375L16.9834 9.375C17.3251 9.375 17.6084 9.65833 17.6084 10C17.6084 10.3417 17.3251 10.625 16.9834 10.625L7.50006 10.625C7.1584 10.625 6.87506 10.3417 6.87506 10C6.87506 9.65833 7.1584 9.375 7.50006 9.375Z" fill="#2A0856"/>
<path d="M15.125 6.58281C15.2833 6.58281 15.4416 6.64115 15.5666 6.76615L18.3583 9.55781C18.6 9.79948 18.6 10.1995 18.3583 10.4411L15.5666 13.2328C15.325 13.4745 14.925 13.4745 14.6833 13.2328C14.4416 12.9911 14.4416 12.5911 14.6833 12.3495L17.0333 9.99948L14.6833 7.64948C14.4416 7.40781 14.4416 7.00781 14.6833 6.76615C14.8 6.64115 14.9666 6.58281 15.125 6.58281Z" fill="#2A0856"/>
</svg>
