<svg width="20" height="20" viewBox="0 0 20 20" fill="none" xmlns="http://www.w3.org/2000/svg">
<path d="M16.9833 17.607C16.8166 17.607 16.6583 17.5404 16.5416 17.4237L11.225 12.107C10.9833 11.8654 10.9833 11.4654 11.225 11.2237L17.6666 4.78204C17.825 4.62371 18.0666 4.56537 18.2833 4.6237C18.5 4.69037 18.6666 4.86537 18.7166 5.08204C18.8749 5.79037 18.9583 6.58204 18.9583 7.4987V12.4987C18.9583 14.807 18.475 16.3654 17.425 17.4237C17.3083 17.5404 17.1333 17.5654 16.9833 17.607ZM12.5499 11.6654L16.9333 16.0487C17.4583 15.2404 17.7083 14.0904 17.7083 12.4987V7.4987C17.7083 7.15704 17.6999 6.84037 17.6749 6.54037L12.5499 11.6654Z" fill="#1B1F3B"/>
<path d="M5.22495 18.7346C5.17495 18.7346 5.1333 18.7263 5.0833 18.718C2.32496 18.0846 1.04163 16.1096 1.04163 12.5013V7.5013C1.04163 2.9763 2.97496 1.04297 7.49996 1.04297H12.5C16.1083 1.04297 18.0833 2.32631 18.7166 5.08464C18.7666 5.29297 18.7 5.51797 18.55 5.66797L5.66662 18.5513C5.54995 18.668 5.39162 18.7346 5.22495 18.7346ZM7.49996 2.29297C3.65829 2.29297 2.29163 3.65964 2.29163 7.5013V12.5013C2.29163 15.393 3.09163 16.843 5.0333 17.418L17.4083 5.04297C16.8416 3.1013 15.3833 2.3013 12.4916 2.3013H7.49996V2.29297Z" fill="#1B1F3B"/>
<path d="M12.4999 18.9576H7.49995C6.58328 18.9576 5.79995 18.8826 5.08328 18.7159C4.85828 18.6659 4.68327 18.4992 4.62494 18.2826C4.55827 18.0659 4.62494 17.8325 4.78327 17.6659L11.2249 11.2242C11.4666 10.9826 11.8666 10.9826 12.1083 11.2242L17.4249 16.5409C17.5416 16.6576 17.6083 16.8159 17.6083 16.9826C17.6083 17.1492 17.5416 17.3076 17.4249 17.4242C16.3666 18.4742 14.8083 18.9576 12.4999 18.9576ZM6.54162 17.6742C6.84162 17.6992 7.15828 17.7076 7.49995 17.7076H12.4999C14.0999 17.7076 15.2416 17.4576 16.05 16.9326L11.6666 12.5492L6.54162 17.6742Z" fill="#1B1F3B"/>
<path d="M7.59999 11.0909C7.07499 11.0909 6.54998 10.8992 6.13332 10.5076C4.80832 9.24922 4.275 7.8659 4.59167 6.5159C4.90834 5.13256 6.11666 4.19922 7.59999 4.19922C9.08332 4.19922 10.2917 5.13256 10.6083 6.5159C10.9167 7.87423 10.3833 9.24922 9.05832 10.5076C8.64999 10.8909 8.12499 11.0909 7.59999 11.0909ZM5.80833 6.79089C5.54166 7.92422 6.30832 8.94089 6.99999 9.59923C7.34166 9.92423 7.86666 9.92423 8.19999 9.59923C8.88333 8.94923 9.64999 7.93255 9.39165 6.79089C9.16665 5.79922 8.28332 5.44089 7.59999 5.44089C6.91666 5.44089 6.04166 5.79922 5.80833 6.79089Z" fill="#1B1F3B"/>
<path d="M7.62496 7.90885C7.16663 7.90885 6.79163 7.53385 6.79163 7.07552C6.79163 6.61719 7.15829 6.24219 7.62496 6.24219H7.6333C8.09163 6.24219 8.46663 6.61719 8.46663 7.07552C8.46663 7.53385 8.08329 7.90885 7.62496 7.90885Z" fill="#1B1F3B"/>
</svg>
