<svg width="33" height="32" viewBox="0 0 33 32" fill="none" xmlns="http://www.w3.org/2000/svg">
<g opacity="0.53" filter="url(#filter0_f_7003_45278)">
<path d="M30.7633 16.5136C30.7633 18.3692 30.3837 20.2068 29.6462 21.9212C28.9088 23.6356 27.8278 25.1934 26.4652 26.5055C25.1025 27.8177 23.4848 28.8586 21.7044 29.5687C19.924 30.2788 18.0158 30.6443 16.0887 30.6443C14.1616 30.6443 12.2533 30.2788 10.4729 29.5687C8.69253 28.8586 7.07482 27.8177 5.71215 26.5055C4.34949 25.1934 3.26857 23.6356 2.5311 21.9212C1.79363 20.2068 1.41406 18.3692 1.41406 16.5136C1.41406 12.7659 2.96013 9.17165 5.71215 6.52162C8.46418 3.87158 12.1967 2.38281 16.0887 2.38281C18.0158 2.38281 19.924 2.74831 21.7044 3.45845C23.4848 4.16859 25.1025 5.20945 26.4652 6.52162C27.8278 7.83378 28.9088 9.39154 29.6462 11.106C30.3837 12.8204 30.7633 14.6579 30.7633 16.5136Z" fill="#181B1F"/>
</g>
<path d="M31.3215 15.2645C31.3215 17.265 30.9275 19.2458 30.162 21.094C29.3964 22.9422 28.2744 24.6215 26.8598 26.036C25.4453 27.4506 23.766 28.5727 21.9178 29.3382C20.0696 30.1037 18.0887 30.4978 16.0882 30.4978C12.0481 30.4978 8.17349 28.8928 5.3167 26.036C2.45991 23.1793 0.85498 19.3046 0.85498 15.2645C0.85498 11.2244 2.45991 7.34976 5.3167 4.49297C8.17349 1.63618 12.0481 0.031251 16.0882 0.03125C18.0887 0.0312499 20.0696 0.425271 21.9178 1.19081C23.766 1.95636 25.4453 3.07843 26.8598 4.49297C28.2744 5.90751 29.3964 7.58681 30.162 9.43499C30.9275 11.2832 31.3215 13.2641 31.3215 15.2645Z" fill="url(#paint0_linear_7003_45278)" stroke="#CDCDCD" stroke-width="0.0452314" stroke-linecap="round" stroke-linejoin="round"/>
<path d="M30.1281 15.2583C30.1281 18.9819 28.6489 22.5529 26.0159 25.1858C23.383 27.8188 19.812 29.2979 16.0884 29.2979C12.3649 29.2979 8.79387 27.8188 6.16093 25.1858C3.528 22.5529 2.04883 18.9819 2.04883 15.2583C2.04883 11.5348 3.528 7.96378 6.16093 5.33085C8.79387 2.69792 12.3649 1.21875 16.0884 1.21875C19.812 1.21875 23.383 2.69792 26.0159 5.33085C28.6489 7.96378 30.1281 11.5348 30.1281 15.2583Z" fill="url(#paint1_radial_7003_45278)"/>
<path d="M16.088 1.95312C15.9747 1.95312 15.8834 2.04441 15.8834 2.15782V4.51886C15.8834 4.63226 15.9747 4.72355 16.088 4.72355C16.2015 4.72355 16.2927 4.63226 16.2927 4.51886V2.15782C16.2927 2.04441 16.2015 1.95312 16.088 1.95312ZM14.749 2.03776C14.7354 2.0363 14.7214 2.0363 14.7073 2.03793C14.5945 2.0497 14.5132 2.14997 14.525 2.26276L14.6282 3.25052C14.6399 3.36331 14.7402 3.44464 14.853 3.43286C14.9658 3.42109 15.0471 3.32082 15.0353 3.20803L14.9322 2.22028C14.9219 2.12158 14.8439 2.04698 14.749 2.03776ZM17.4365 2.03873C17.3416 2.04787 17.2635 2.12248 17.2531 2.22116L17.1492 3.20883C17.1374 3.32161 17.2187 3.42198 17.3315 3.43384C17.4443 3.4457 17.5445 3.36445 17.5564 3.25167L17.6603 2.26392C17.6722 2.15113 17.5908 2.05085 17.478 2.039C17.4639 2.03754 17.4501 2.03753 17.4365 2.03873ZM13.3734 2.23724C13.3598 2.23734 13.3459 2.2387 13.332 2.24161C13.2211 2.2651 13.1507 2.37335 13.1742 2.48429L13.6631 4.79409C13.6866 4.90504 13.7949 4.97545 13.9058 4.95196C14.0168 4.92848 14.0872 4.82032 14.0637 4.70937L13.5747 2.39948C13.5541 2.30241 13.4687 2.23649 13.3734 2.23724ZM18.812 2.23918C18.7166 2.23821 18.6312 2.30432 18.6106 2.40138L18.1199 4.71091C18.0963 4.82184 18.1667 4.93011 18.2776 4.95368C18.3886 4.97726 18.4968 4.9069 18.5204 4.79598L19.011 2.48644C19.0346 2.37552 18.9643 2.26724 18.8534 2.24368C18.8395 2.24076 18.8256 2.23918 18.812 2.23918ZM12.0606 2.60739C12.0341 2.60496 12.0067 2.60788 11.9798 2.61682C11.8719 2.65189 11.8133 2.76685 11.8483 2.8747L12.1552 3.81925C12.1903 3.92711 12.3053 3.98575 12.4132 3.95071C12.521 3.91565 12.5796 3.8006 12.5445 3.69275L12.2376 2.74819C12.2114 2.6673 12.1401 2.61415 12.0606 2.60739ZM20.1174 2.60788C20.0379 2.61464 19.9666 2.66781 19.9403 2.74869L19.6332 3.69316C19.5982 3.80101 19.6568 3.91607 19.7646 3.95112C19.8725 3.98618 19.9875 3.92759 20.0226 3.81976L20.3296 2.8752C20.3647 2.76735 20.3061 2.6523 20.1983 2.61724C20.1713 2.60849 20.1439 2.60564 20.1174 2.60788ZM10.7624 3.08245C10.7358 3.08294 10.7089 3.08877 10.683 3.1003C10.5794 3.14635 10.533 3.26682 10.5791 3.37045L11.5381 5.52795C11.5841 5.63157 11.7046 5.6779 11.8082 5.63184C11.9118 5.58579 11.9582 5.46532 11.9122 5.36169L10.9531 3.20419C10.9186 3.12647 10.8422 3.0809 10.7624 3.08245ZM21.4302 3.0897C21.3505 3.08824 21.274 3.13351 21.2393 3.21117L20.2774 5.36735C20.2312 5.47091 20.2774 5.59147 20.381 5.63767C20.4845 5.68387 20.6051 5.6377 20.6513 5.53414L21.6132 3.37796C21.6594 3.2744 21.6132 3.15383 21.5096 3.10763C21.4838 3.09611 21.4568 3.09028 21.4302 3.0897ZM9.55741 3.72002C9.51811 3.7171 9.47762 3.72586 9.4408 3.74716C9.34259 3.80386 9.30918 3.92855 9.36588 4.02676L9.86246 4.88686C9.91916 4.98508 10.0438 5.01848 10.1421 4.96178C10.2403 4.90508 10.2737 4.78039 10.217 4.68217L9.7204 3.82208C9.68495 3.76069 9.62291 3.7246 9.55741 3.72002ZM22.6187 3.72002C22.5532 3.7244 22.4912 3.76068 22.4558 3.82206L21.9591 4.68216C21.9024 4.78037 21.9359 4.90506 22.0341 4.96176C22.1323 5.01847 22.257 4.98506 22.3137 4.88685L22.8103 4.02675C22.867 3.92854 22.8336 3.80384 22.7354 3.74714C22.6986 3.72589 22.658 3.7173 22.6187 3.72002ZM8.38731 4.44982C8.34792 4.45128 8.30848 4.46392 8.27405 4.48887C8.18227 4.55546 8.16197 4.68295 8.22859 4.77474L9.61494 6.68586C9.68153 6.77765 9.80912 6.79794 9.90091 6.73137C9.9927 6.66479 10.013 6.53729 9.94638 6.4455L8.55993 4.53438C8.51831 4.47701 8.45293 4.44758 8.38731 4.44982ZM23.8035 4.46022C23.7378 4.45779 23.6724 4.48721 23.6307 4.5445L22.2417 6.45376C22.175 6.54546 22.1952 6.67301 22.2869 6.73973C22.3786 6.80644 22.5061 6.78636 22.5728 6.6947L23.9618 4.78544C24.0285 4.69373 24.0083 4.56619 23.9166 4.49947C23.8822 4.47448 23.8428 4.46163 23.8035 4.46022ZM7.34142 5.32695C7.28917 5.32403 7.23585 5.34149 7.19371 5.37943C7.10943 5.4553 7.10265 5.5842 7.17854 5.66849L7.84305 6.40667C7.91892 6.49096 8.04783 6.49774 8.13211 6.42185C8.21639 6.34598 8.22317 6.21699 8.14728 6.1327L7.48286 5.3946C7.44493 5.35244 7.39368 5.3297 7.34142 5.32695ZM24.8362 5.32841C24.7839 5.33133 24.7327 5.35394 24.6947 5.39608L24.0302 6.13409C23.9543 6.21837 23.9611 6.34736 24.0454 6.42324C24.1296 6.49912 24.2585 6.49232 24.3344 6.40807L24.999 5.67006C25.0749 5.58578 25.0681 5.45679 24.9838 5.38091C24.9417 5.34298 24.8884 5.32567 24.8362 5.32841ZM6.339 6.28984C6.28675 6.29276 6.23558 6.31537 6.19765 6.35751C6.12178 6.44179 6.12856 6.5707 6.21282 6.64657L7.96757 8.22622C8.05186 8.30209 8.18076 8.2953 8.25663 8.21104C8.3325 8.12677 8.32581 7.99786 8.2415 7.92199L6.48667 6.34234C6.44451 6.30441 6.39126 6.28709 6.339 6.28984ZM25.8435 6.29674C25.7912 6.29383 25.7378 6.31123 25.6957 6.34913L23.9399 7.92755C23.8555 8.00336 23.8486 8.13227 23.9244 8.2166C24.0002 8.30094 24.1292 8.30779 24.2135 8.23197L25.9694 6.65356C26.0538 6.57774 26.0606 6.44884 25.9848 6.3645C25.9469 6.32234 25.8957 6.29952 25.8435 6.29674ZM5.5054 7.36172C5.43978 7.35929 5.37435 7.38885 5.33269 7.44617C5.26603 7.53792 5.28625 7.66539 5.37801 7.73205L6.18149 8.31582C6.27323 8.38248 6.40071 8.36236 6.46736 8.27059C6.53402 8.17885 6.51385 8.05128 6.42214 7.98463L5.61866 7.40086C5.58428 7.37586 5.54477 7.36313 5.5054 7.36172ZM26.6763 7.36916C26.6369 7.37062 26.5974 7.38321 26.563 7.40821L25.7592 7.99145C25.6674 8.05804 25.6471 8.18562 25.7137 8.27741C25.7803 8.3692 25.9078 8.38941 25.9995 8.32283L26.8035 7.7396C26.8953 7.673 26.9155 7.54551 26.8489 7.45372C26.8073 7.39635 26.7419 7.36691 26.6763 7.36916ZM4.72639 8.50507C4.66089 8.50944 4.59893 8.54572 4.56349 8.6071C4.50679 8.70531 4.54019 8.83 4.6384 8.88671L6.68309 10.0672C6.7813 10.1239 6.90599 10.0905 6.9627 9.99231C7.0194 9.8941 6.98599 9.76941 6.88778 9.71271L4.84309 8.53218C4.80628 8.51093 4.76569 8.50234 4.72639 8.50507ZM27.4497 8.50507C27.4104 8.50215 27.3698 8.5109 27.333 8.5322L25.2883 9.71273C25.1901 9.76943 25.1567 9.89412 25.2134 9.99233C25.2701 10.0905 25.3948 10.1239 25.493 10.0672L27.5378 8.88673C27.636 8.83002 27.6694 8.70533 27.6127 8.60712C27.5772 8.54574 27.5152 8.50964 27.4497 8.50507ZM4.13741 9.72375C4.05764 9.72181 3.98115 9.76747 3.9465 9.84513C3.9003 9.9487 3.94647 10.0693 4.05004 10.1155L4.95714 10.5201C5.06071 10.5663 5.18128 10.5201 5.22747 10.4165C5.27367 10.313 5.22741 10.1924 5.12385 10.1462L4.21683 9.7416C4.19096 9.73002 4.164 9.72429 4.13741 9.72375ZM28.0427 9.73216C28.0161 9.73265 27.9891 9.73849 27.9632 9.75001L27.0559 10.1539C26.9523 10.2001 26.906 10.3205 26.9521 10.4242C26.9982 10.5278 27.1188 10.5741 27.2224 10.528L28.1297 10.124C28.2333 10.0779 28.2795 9.95732 28.2334 9.85372C28.1988 9.77602 28.1224 9.73058 28.0427 9.73216ZM3.61248 10.9975C3.53298 11.0042 3.4617 11.0573 3.43535 11.1381C3.40024 11.246 3.45869 11.361 3.56654 11.3962L5.81142 12.1277C5.91923 12.1628 6.03433 12.1043 6.06947 11.9965C6.10458 11.8886 6.04612 11.7736 5.93828 11.7384L3.6934 11.0069C3.66646 10.9981 3.63898 10.9953 3.61248 10.9975ZM28.5666 11.0062C28.5401 11.0038 28.5128 11.0067 28.4858 11.0157L26.2404 11.7456C26.1325 11.7806 26.074 11.8957 26.109 12.0035C26.1441 12.1114 26.2591 12.17 26.367 12.1349L28.6123 11.405C28.7201 11.3699 28.7788 11.2549 28.7438 11.1471C28.7174 11.0662 28.6461 11.013 28.5666 11.0062ZM3.28544 12.3346C3.19007 12.3336 3.10455 12.3998 3.08393 12.4969C3.06034 12.6078 3.13071 12.716 3.24162 12.7396L4.21312 12.9461C4.32405 12.9697 4.4323 12.8993 4.45589 12.7884C4.47947 12.6775 4.4091 12.5692 4.29819 12.5456L3.32678 12.3392C3.31292 12.3362 3.29905 12.3346 3.28544 12.3346ZM28.8911 12.3365C28.8775 12.3366 28.8637 12.3385 28.8499 12.3409L27.8784 12.5473C27.7674 12.5708 27.6971 12.679 27.7207 12.7899C27.7443 12.9009 27.8525 12.9713 27.9634 12.9477L28.9349 12.7414C29.0458 12.7178 29.1162 12.6095 29.0926 12.4986C29.072 12.4015 28.9865 12.3357 28.8911 12.3365ZM3.0379 13.6795C2.94297 13.6886 2.86484 13.7631 2.85441 13.8617C2.8425 13.9745 2.92362 14.0749 3.0364 14.0868L5.38437 14.3351C5.49714 14.347 5.59755 14.2658 5.60946 14.153C5.62138 14.0402 5.54017 13.9398 5.42739 13.9279L3.07942 13.6797C3.06532 13.6782 3.05147 13.6782 3.0379 13.6795ZM29.1404 13.6972C29.1268 13.6957 29.1129 13.6957 29.0988 13.6973L26.7505 13.9424C26.6378 13.9542 26.5564 14.0544 26.5682 14.1672C26.58 14.28 26.6802 14.3613 26.793 14.3496L29.1413 14.1045C29.2541 14.0927 29.3354 13.9925 29.3236 13.8797C29.3133 13.781 29.2353 13.7064 29.1404 13.6972ZM2.99814 15.0562C2.88474 15.0562 2.79346 15.1475 2.79346 15.2609C2.79346 15.3743 2.88474 15.4656 2.99814 15.4656H3.99129C4.10469 15.4656 4.19607 15.3743 4.19607 15.2609C4.19607 15.1475 4.10469 15.0562 3.99129 15.0562H2.99814ZM28.1848 15.0562C28.0714 15.0562 27.9801 15.1475 27.9801 15.2609C27.9801 15.3743 28.0714 15.4656 28.1848 15.4656H29.178C29.2914 15.4656 29.3826 15.3743 29.3826 15.2609C29.3826 15.1475 29.2914 15.0562 29.178 15.0562H28.1848ZM5.42465 16.1721C5.41109 16.1706 5.39723 16.1706 5.38312 16.1722L3.0348 16.4173C2.922 16.4291 2.8407 16.5293 2.85246 16.6421C2.86423 16.7549 2.9645 16.8362 3.07729 16.8245L5.42562 16.5794C5.53841 16.5676 5.61971 16.4674 5.60795 16.3546C5.59764 16.2559 5.51957 16.1813 5.42465 16.1721ZM26.7502 16.1866C26.6553 16.1957 26.5772 16.2701 26.5667 16.3688C26.5548 16.4816 26.6359 16.582 26.7487 16.5939L29.0967 16.8422C29.2095 16.8541 29.3099 16.7729 29.3218 16.6601C29.3337 16.5473 29.2525 16.4469 29.1397 16.435L26.7918 16.1867C26.7777 16.1853 26.7638 16.1853 26.7502 16.1866ZM4.25411 17.5694C4.2405 17.5695 4.22664 17.5708 4.21278 17.5738L3.24127 17.7801C3.13034 17.8037 3.06002 17.912 3.08358 18.0229C3.10717 18.1338 3.21542 18.2041 3.32635 18.1806L4.29785 17.9743C4.40878 17.9507 4.4791 17.8425 4.45554 17.7315C4.43492 17.6345 4.34947 17.5686 4.25411 17.5694ZM27.9217 17.5713C27.8264 17.5704 27.7409 17.6365 27.7203 17.7335C27.6967 17.8444 27.767 17.9527 27.8779 17.9763L28.8494 18.1828C28.9603 18.2063 29.0686 18.1361 29.0922 18.0251C29.1158 17.9142 29.0454 17.8059 28.9345 17.7823L27.9631 17.5758C27.9492 17.5729 27.9353 17.5713 27.9217 17.5713ZM5.89004 18.3775C5.86353 18.3751 5.83617 18.378 5.80921 18.387L3.56381 19.1169C3.45596 19.1519 3.39738 19.267 3.43244 19.3748C3.4675 19.4827 3.58255 19.5412 3.6904 19.5062L5.93571 18.7763C6.04357 18.7412 6.10223 18.6262 6.06717 18.5183C6.04086 18.4375 5.96954 18.3843 5.89004 18.3775ZM26.2838 18.3848C26.2043 18.3915 26.1331 18.4446 26.1067 18.5254C26.0716 18.6333 26.1301 18.7483 26.2379 18.7835L28.4828 19.515C28.5906 19.5501 28.7057 19.4916 28.7408 19.3838C28.776 19.2759 28.7175 19.1609 28.6096 19.1257L26.3648 18.3942C26.3378 18.3854 26.3104 18.3826 26.2838 18.3848ZM5.0332 19.9762C5.0066 19.9767 4.97968 19.9824 4.95378 19.9939L4.04642 20.3979C3.94282 20.444 3.89658 20.5646 3.9427 20.6682C3.98885 20.7718 4.10935 20.818 4.21294 20.7719L5.12032 20.368C5.22391 20.3219 5.27015 20.2013 5.22403 20.0977C5.18945 20.02 5.11297 19.9746 5.0332 19.9762ZM27.1396 19.984C27.0599 19.982 26.9834 20.0277 26.9487 20.1054C26.9025 20.2089 26.9487 20.3295 27.0523 20.3757L27.9593 20.7803C28.0628 20.8265 28.1834 20.7803 28.2296 20.6768C28.2758 20.5732 28.2296 20.4526 28.1261 20.4064L27.219 20.0018C27.1932 19.9902 27.1662 19.9845 27.1396 19.984ZM6.79979 20.4275C6.7605 20.4246 6.71992 20.4334 6.68309 20.4547L4.6384 21.6352C4.54019 21.6919 4.50679 21.8166 4.56349 21.9148C4.62019 22.013 4.74489 22.0464 4.84309 21.9897L6.88778 20.8093C6.98599 20.7526 7.01939 20.6278 6.9627 20.5296C6.92725 20.4682 6.86529 20.4321 6.79979 20.4275ZM25.3764 20.4275C25.3109 20.4319 25.2488 20.4682 25.2134 20.5296C25.1567 20.6278 25.1901 20.7526 25.2883 20.8093L27.333 21.9897C27.4312 22.0464 27.556 22.013 27.6127 21.9148C27.6694 21.8166 27.636 21.6919 27.5378 21.6352L25.493 20.4547C25.4562 20.4334 25.4157 20.4248 25.3764 20.4275ZM6.28979 22.1599C6.2504 22.1614 6.21096 22.1741 6.17653 22.1991L5.37271 22.7823C5.28092 22.8489 5.26062 22.9764 5.32719 23.0682C5.39379 23.16 5.52128 23.1803 5.61307 23.1137L6.41698 22.5304C6.50878 22.4638 6.52908 22.3363 6.4625 22.2446C6.42087 22.1872 6.35541 22.1577 6.28979 22.1599ZM25.8815 22.1668C25.8158 22.1644 25.7504 22.194 25.7087 22.2513C25.6421 22.343 25.6623 22.4706 25.7541 22.5373L26.5575 23.121C26.6493 23.1877 26.7768 23.1675 26.8434 23.0757C26.9101 22.984 26.8899 22.8565 26.7982 22.7898L25.9947 22.2061C25.9603 22.1811 25.9208 22.1683 25.8815 22.1668ZM8.11035 22.2375C8.05811 22.2346 8.00482 22.252 7.96265 22.2899L6.20675 23.8683C6.12242 23.9441 6.11557 24.073 6.19138 24.1574C6.26719 24.2417 6.3961 24.2486 6.48044 24.1727L8.23634 22.5943C8.32067 22.5185 8.32752 22.3896 8.2517 22.3053C8.21382 22.2631 8.16261 22.2403 8.11035 22.2375ZM24.0609 22.2432C24.0086 22.2461 23.9574 22.2687 23.9195 22.3108C23.8436 22.3951 23.8504 22.524 23.9346 22.5999L25.6894 24.1795C25.7737 24.2554 25.9026 24.2486 25.9785 24.1644C26.0544 24.0801 26.0476 23.9512 25.9633 23.8753L24.2085 22.2957C24.1663 22.2577 24.1131 22.2404 24.0609 22.2432ZM9.77615 23.7427C9.71053 23.7403 9.64504 23.7696 9.60335 23.827L8.21443 25.7362C8.14771 25.8279 8.16779 25.9555 8.25946 26.0222C8.35116 26.0889 8.47871 26.0688 8.54542 25.9771L9.93434 24.0678C10.0011 23.9761 9.98098 23.8486 9.88931 23.7819C9.85493 23.7569 9.81552 23.744 9.77615 23.7427ZM22.3886 23.7512C22.3492 23.7527 22.3097 23.7653 22.2753 23.7903C22.1835 23.8569 22.1632 23.9844 22.2298 24.0762L23.6161 25.9873C23.6827 26.0791 23.8102 26.0994 23.902 26.0328C23.9938 25.9662 24.0141 25.8387 23.9475 25.7469L22.5612 23.8358C22.5196 23.7784 22.4542 23.749 22.3886 23.7512ZM7.98314 24.0461C7.93089 24.049 7.87965 24.0717 7.84171 24.1138L7.17719 24.8518C7.10131 24.9361 7.10803 25.0651 7.19232 25.141C7.27659 25.2168 7.40549 25.21 7.48137 25.1257L8.14597 24.3877C8.22186 24.3035 8.21505 24.1745 8.1308 24.0986C8.08863 24.0607 8.0354 24.0434 7.98314 24.0461ZM24.1917 24.0471C24.1395 24.0442 24.0862 24.0616 24.0441 24.0996C23.9598 24.1754 23.953 24.3043 24.0289 24.3886L24.6933 25.1268C24.7692 25.2111 24.8981 25.2179 24.9824 25.142C25.0667 25.0661 25.0734 24.9371 24.9975 24.8528L24.3331 24.1148C24.2952 24.0726 24.244 24.0499 24.1917 24.0471ZM11.7157 24.8659C11.6359 24.8639 11.5595 24.9096 11.5249 24.9872L10.5629 27.1434C10.5167 27.247 10.5629 27.3675 10.6665 27.4137C10.77 27.4599 10.8906 27.4138 10.9368 27.3102L11.8988 25.154C11.945 25.0505 11.8988 24.9299 11.7952 24.8837C11.7693 24.8721 11.7423 24.8664 11.7157 24.8659ZM20.4474 24.8718C20.4208 24.8723 20.3938 24.878 20.3679 24.8895C20.2643 24.9356 20.2179 25.0561 20.264 25.1597L21.223 27.3172C21.269 27.4208 21.3896 27.4671 21.4932 27.4211C21.5968 27.375 21.6432 27.2546 21.5971 27.1509L20.6381 24.9934C20.6036 24.9158 20.5272 24.8703 20.4474 24.8718ZM10.0254 25.5325C9.95986 25.5369 9.89789 25.5732 9.86246 25.6345L9.36588 26.4946C9.30918 26.5928 9.34259 26.7175 9.4408 26.7742C9.539 26.8309 9.6637 26.7975 9.7204 26.6993L10.217 25.8392C10.2737 25.741 10.2403 25.6163 10.1421 25.5596C10.1052 25.5384 10.0647 25.5298 10.0254 25.5325ZM22.1507 25.5325C22.1114 25.5296 22.071 25.5384 22.0341 25.5596C21.9359 25.6163 21.9025 25.741 21.9592 25.8392L22.4558 26.6993C22.5125 26.7976 22.6372 26.831 22.7354 26.7743C22.8336 26.7176 22.867 26.5929 22.8103 26.4947L22.3137 25.6346C22.2783 25.5732 22.2162 25.5371 22.1507 25.5325ZM13.8572 25.5633C13.7619 25.5624 13.6764 25.6285 13.6558 25.7255L13.1651 28.0351C13.1416 28.146 13.2119 28.2543 13.3228 28.2778C13.4338 28.3014 13.542 28.2311 13.5656 28.1201L14.0563 25.8106C14.0798 25.6997 14.0095 25.5914 13.8986 25.5678C13.8847 25.5649 13.8708 25.5633 13.8572 25.5633ZM18.3116 25.5648C18.298 25.5649 18.2843 25.5663 18.2704 25.5692C18.1595 25.5927 18.089 25.7008 18.1125 25.8118L18.6015 28.1216C18.625 28.2326 18.7332 28.303 18.8442 28.2795C18.9551 28.256 19.0255 28.1478 19.0021 28.0368L18.513 25.7271C18.4924 25.63 18.407 25.5641 18.3116 25.5648ZM16.088 25.7978C15.9747 25.7978 15.8834 25.889 15.8834 26.0024V28.3635C15.8834 28.4769 15.9747 28.5682 16.088 28.5682C16.2015 28.5682 16.2927 28.4769 16.2927 28.3635V26.0024C16.2927 25.889 16.2015 25.7978 16.088 25.7978ZM12.3307 26.5607C12.2512 26.5674 12.1798 26.6206 12.1535 26.7015L11.8465 27.6461C11.8115 27.7539 11.8701 27.869 11.9779 27.904C12.0858 27.9391 12.2008 27.8804 12.2359 27.7726L12.5429 26.8281C12.5779 26.7202 12.5193 26.6052 12.4115 26.5701C12.3846 26.5614 12.3572 26.5584 12.3307 26.5607ZM19.8439 26.5612C19.8173 26.5587 19.79 26.5617 19.763 26.5706C19.6552 26.6056 19.5965 26.7207 19.6316 26.8285L19.9385 27.7731C19.9735 27.8809 20.0886 27.9395 20.1964 27.9044C20.3043 27.8694 20.3629 27.7544 20.3279 27.6466L20.0209 26.702C19.9946 26.6211 19.9234 26.5679 19.8439 26.5612ZM14.8032 27.0872C14.7083 27.0964 14.6301 27.1709 14.6197 27.2696L14.5159 28.2573C14.504 28.3701 14.5853 28.4704 14.6981 28.4823C14.8108 28.4941 14.9112 28.4129 14.9231 28.3001L15.0269 27.3124C15.0387 27.1996 14.9575 27.0993 14.8447 27.0874C14.8306 27.086 14.8168 27.086 14.8032 27.0872ZM17.3647 27.0882C17.3511 27.0868 17.3372 27.0868 17.3231 27.0884C17.2103 27.1002 17.1289 27.2004 17.1407 27.3132L17.2439 28.3011C17.2557 28.4138 17.3559 28.4951 17.4687 28.4833C17.5815 28.4715 17.6629 28.3713 17.6511 28.2585L17.548 27.2707C17.5377 27.172 17.4596 27.0974 17.3647 27.0882Z" fill="#F4F2F3"/>
<g opacity="0.409" filter="url(#filter1_f_7003_45278)">
<path d="M25.6817 7.07812L14.4827 13.5848L7.40186 24.7319L17.7605 17.0594L25.6817 7.07812Z" fill="#181B1F"/>
</g>
<path d="M17.6929 16.9436L14.4829 13.582L25.87 5.92188L17.6929 16.9436Z" fill="#FF5150"/>
<path d="M17.6933 16.9397L14.4833 13.5781L6.30615 24.5998L17.6933 16.9397Z" fill="#F1F1F1"/>
<path opacity="0.243" d="M6.30615 24.6037L17.6933 16.9436L25.8704 5.92188L6.30615 24.6037Z" fill="#181B1F"/>
<defs>
<filter id="filter0_f_7003_45278" x="0.262053" y="1.2308" width="31.6531" height="30.5657" filterUnits="userSpaceOnUse" color-interpolation-filters="sRGB">
<feFlood flood-opacity="0" result="BackgroundImageFix"/>
<feBlend mode="normal" in="SourceGraphic" in2="BackgroundImageFix" result="shape"/>
<feGaussianBlur stdDeviation="0.576005" result="effect1_foregroundBlur_7003_45278"/>
</filter>
<filter id="filter1_f_7003_45278" x="7.07442" y="6.75069" width="18.9346" height="18.3072" filterUnits="userSpaceOnUse" color-interpolation-filters="sRGB">
<feFlood flood-opacity="0" result="BackgroundImageFix"/>
<feBlend mode="normal" in="SourceGraphic" in2="BackgroundImageFix" result="shape"/>
<feGaussianBlur stdDeviation="0.163716" result="effect1_foregroundBlur_7003_45278"/>
</filter>
<linearGradient id="paint0_linear_7003_45278" x1="16.0877" y1="30.4974" x2="16.0877" y2="0.0311701" gradientUnits="userSpaceOnUse">
<stop stop-color="#BDBDBD"/>
<stop offset="1" stop-color="white"/>
</linearGradient>
<radialGradient id="paint1_radial_7003_45278" cx="0" cy="0" r="1" gradientUnits="userSpaceOnUse" gradientTransform="translate(16.1517 13.2112) scale(15.2332 15.2332)">
<stop stop-color="#06C2E7"/>
<stop offset="0.25" stop-color="#0DB8EC"/>
<stop offset="0.5" stop-color="#12AEF1"/>
<stop offset="0.75" stop-color="#1F86F9"/>
<stop offset="1" stop-color="#107DDD"/>
</radialGradient>
</defs>
</svg>
