<svg width="20" height="20" viewBox="0 0 20 20" fill="none" xmlns="http://www.w3.org/2000/svg">
<path d="M17.5001 5.60937C17.4834 5.60937 17.4584 5.60937 17.4334 5.60937C13.0251 5.1677 8.62505 5.00104 4.26672 5.4427L2.56672 5.60937C2.21672 5.6427 1.90839 5.3927 1.87505 5.0427C1.84172 4.6927 2.09172 4.3927 2.43339 4.35937L4.13339 4.1927C8.56672 3.7427 13.0584 3.9177 17.5584 4.35937C17.9001 4.3927 18.1501 4.70104 18.1167 5.0427C18.0917 5.3677 17.8167 5.60937 17.5001 5.60937Z" fill="#FF0000"/>
<path d="M7.08338 4.76797C7.05005 4.76797 7.01672 4.76797 6.97505 4.75964C6.64172 4.7013 6.40838 4.3763 6.46672 4.04297L6.65005 2.9513C6.78338 2.1513 6.96671 1.04297 8.90838 1.04297H11.0917C13.0417 1.04297 13.225 2.19297 13.35 2.95964L13.5334 4.04297C13.5917 4.38464 13.3584 4.70964 13.025 4.75964C12.6834 4.81797 12.3584 4.58464 12.3084 4.2513L12.125 3.16797C12.0084 2.44297 11.9834 2.3013 11.1 2.3013H8.91672C8.03338 2.3013 8.01672 2.41797 7.89172 3.15964L7.70005 4.24297C7.65005 4.5513 7.38338 4.76797 7.08338 4.76797Z" fill="#FF0000"/>
<path d="M12.675 18.9596H7.325C4.41666 18.9596 4.3 17.3513 4.20833 16.0513L3.66666 7.65962C3.64166 7.31795 3.90833 7.01795 4.25 6.99295C4.6 6.97628 4.89166 7.23462 4.91666 7.57628L5.45833 15.968C5.55 17.2346 5.58333 17.7096 7.325 17.7096H12.675C14.425 17.7096 14.4583 17.2346 14.5417 15.968L15.0833 7.57628C15.1083 7.23462 15.4083 6.97628 15.75 6.99295C16.0917 7.01795 16.3583 7.30962 16.3333 7.65962L15.7917 16.0513C15.7 17.3513 15.5833 18.9596 12.675 18.9596Z" fill="#FF0000"/>
<path d="M11.3833 14.375H8.60828C8.26661 14.375 7.98328 14.0917 7.98328 13.75C7.98328 13.4083 8.26661 13.125 8.60828 13.125H11.3833C11.7249 13.125 12.0083 13.4083 12.0083 13.75C12.0083 14.0917 11.7249 14.375 11.3833 14.375Z" fill="#FF0000"/>
<path d="M12.0833 11.043H7.91663C7.57496 11.043 7.29163 10.7596 7.29163 10.418C7.29163 10.0763 7.57496 9.79297 7.91663 9.79297H12.0833C12.425 9.79297 12.7083 10.0763 12.7083 10.418C12.7083 10.7596 12.425 11.043 12.0833 11.043Z" fill="#FF0000"/>
</svg>
