<svg width="20" height="20" viewBox="0 0 20 20" fill="none" xmlns="http://www.w3.org/2000/svg">
<path d="M14.1667 18.957H5.83335C2.15835 18.957 1.04169 17.8404 1.04169 14.1654V12.4987C1.04169 8.8237 2.15835 7.70703 5.83335 7.70703H14.1667C17.8417 7.70703 18.9584 8.8237 18.9584 12.4987V14.1654C18.9584 17.8404 17.8417 18.957 14.1667 18.957ZM5.83335 8.95703C2.85002 8.95703 2.29169 9.5237 2.29169 12.4987V14.1654C2.29169 17.1404 2.85002 17.707 5.83335 17.707H14.1667C17.15 17.707 17.7084 17.1404 17.7084 14.1654V12.4987C17.7084 9.5237 17.15 8.95703 14.1667 8.95703H5.83335Z" fill="#2A0856"/>
<path d="M5 8.95964C4.65833 8.95964 4.375 8.6763 4.375 8.33464V6.66797C4.375 4.2513 4.95833 1.04297 10 1.04297C13.7333 1.04297 15.625 2.6513 15.625 5.83464C15.625 6.1763 15.3417 6.45964 15 6.45964C14.6583 6.45964 14.375 6.1763 14.375 5.83464C14.375 4.18464 13.875 2.29297 10 2.29297C6.36667 2.29297 5.625 4.04297 5.625 6.66797V8.33464C5.625 8.6763 5.34167 8.95964 5 8.95964Z" fill="#2A0856"/>
<path d="M10 16.0417C8.50835 16.0417 7.29169 14.825 7.29169 13.3333C7.29169 11.8417 8.50835 10.625 10 10.625C11.4917 10.625 12.7084 11.8417 12.7084 13.3333C12.7084 14.825 11.4917 16.0417 10 16.0417ZM10 11.875C9.20002 11.875 8.54169 12.5333 8.54169 13.3333C8.54169 14.1333 9.20002 14.7917 10 14.7917C10.8 14.7917 11.4584 14.1333 11.4584 13.3333C11.4584 12.5333 10.8 11.875 10 11.875Z" fill="#2A0856"/>
</svg>
