<svg width="20" height="20" viewBox="0 0 20 20" fill="none" xmlns="http://www.w3.org/2000/svg">
<path d="M19.0234 9.02344C18.4844 9.02344 18.0469 9.46094 18.0469 10C18.0469 14.4375 14.4375 18.0468 10 18.0468C5.5625 18.0468 1.95312 14.4375 1.95312 10C1.95312 9.46094 1.51562 9.02344 0.976562 9.02344C0.4375 9.02344 0 9.46094 0 10C0 12.6719 1.03906 15.1836 2.92969 17.0703C4.82031 18.9609 7.32812 19.9999 10 19.9999C12.6719 19.9999 15.1836 18.9609 17.0703 17.0703C18.9609 15.1797 20 12.6719 20 10C20 9.46094 19.5625 9.02344 19.0234 9.02344Z" fill="#1B1F3B"/>
<path d="M11.3359 0.554752C10.9765 0.195379 10.4999 6.73976e-05 9.99603 6.73535e-05C9.48822 6.73091e-05 9.01166 0.199285 8.65619 0.554752L6.19916 3.01177C5.81635 3.39458 5.81635 4.01177 6.19916 4.39458C6.58197 4.77739 7.19916 4.77739 7.58197 4.39458L9.01947 2.95318L9.01947 13C9.01947 13.5391 9.45697 13.9766 9.99603 13.9766C10.5351 13.9766 10.9726 13.5391 10.9726 13L10.9726 2.95318L12.414 4.39458C12.7968 4.77739 13.414 4.77739 13.7968 4.39458C14.1796 4.01177 14.1796 3.39458 13.7968 3.01177L11.3359 0.554752Z" fill="#1B1F3B"/>
</svg>
