<svg width="20" height="20" viewBox="0 0 20 20" fill="none" xmlns="http://www.w3.org/2000/svg">
<path d="M10 10.6263C7.35837 10.6263 5.20837 8.4763 5.20837 5.83464C5.20837 3.19297 7.35837 1.04297 10 1.04297C12.6417 1.04297 14.7917 3.19297 14.7917 5.83464C14.7917 8.4763 12.6417 10.6263 10 10.6263ZM10 2.29297C8.05004 2.29297 6.45837 3.88464 6.45837 5.83464C6.45837 7.78464 8.05004 9.3763 10 9.3763C11.95 9.3763 13.5417 7.78464 13.5417 5.83464C13.5417 3.88464 11.95 2.29297 10 2.29297Z" fill="#1B1F3B"/>
<path d="M17.1585 18.9583C16.8168 18.9583 16.5335 18.675 16.5335 18.3333C16.5335 15.4583 13.6001 13.125 10.0001 13.125C6.40013 13.125 3.4668 15.4583 3.4668 18.3333C3.4668 18.675 3.18346 18.9583 2.8418 18.9583C2.50013 18.9583 2.2168 18.675 2.2168 18.3333C2.2168 14.775 5.70846 11.875 10.0001 11.875C14.2918 11.875 17.7835 14.775 17.7835 18.3333C17.7835 18.675 17.5001 18.9583 17.1585 18.9583Z" fill="#1B1F3B"/>
</svg>
